<?xml version="1.0" encoding="UTF-8" standalone="no"?>
<!DOCTYPE svg PUBLIC "-//W3C//DTD SVG 1.1//EN"
 "http://www.w3.org/Graphics/SVG/1.1/DTD/svg11.dtd">
<!-- Generated by graphviz version 9.0.0 (20230911.1827)
 -->
<!-- Title: finite_state_machine Pages: 1 -->
<svg width="1626pt" height="1203pt"
 viewBox="0.00 0.00 1626.00 1203.00" xmlns="http://www.w3.org/2000/svg" xmlns:xlink="http://www.w3.org/1999/xlink">
<g id="graph0" class="graph" transform="scale(1 1) rotate(0) translate(4 1199)">
<title>finite_state_machine</title>
<polygon fill="white" stroke="none" points="-4,4 -4,-1199 1622,-1199 1622,4 -4,4"/>
<!-- ne61 -->
<g id="node1" class="node">
<title>ne61</title>
<path fill="white" stroke="black" stroke-width="2" d="M492,-885.5C492,-885.5 575,-885.5 575,-885.5 581,-885.5 587,-891.5 587,-897.5 587,-897.5 587,-952.5 587,-952.5 587,-958.5 581,-964.5 575,-964.5 575,-964.5 492,-964.5 492,-964.5 486,-964.5 480,-958.5 480,-952.5 480,-952.5 480,-897.5 480,-897.5 480,-891.5 486,-885.5 492,-885.5"/>
<polygon fill="white" stroke="none" points="488,-889.5 488,-960.5 579,-960.5 579,-889.5 488,-889.5"/>
<polygon fill="black" stroke="none" points="490,-937.5 490,-958.5 577,-958.5 577,-937.5 490,-937.5"/>
<text text-anchor="start" x="517" y="-942.2" font-family="Courier New" font-size="14.00" fill="white">ne61</text>
<polygon fill="grey" stroke="none" points="490,-914.5 490,-935.5 545,-935.5 545,-914.5 490,-914.5"/>
<text text-anchor="start" x="492.75" y="-919.2" font-family="Courier New" font-size="14.00">Switch</text>
<text text-anchor="start" x="549.62" y="-919.2" font-family="Courier New" font-size="14.00">D08</text>
<polygon fill="grey" stroke="none" points="490,-891.5 490,-912.5 545,-912.5 545,-891.5 490,-891.5"/>
<text text-anchor="start" x="492.75" y="-896.2" font-family="Courier New" font-size="14.00">Signal</text>
<text text-anchor="start" x="549.62" y="-896.2" font-family="Courier New" font-size="14.00">S87</text>
</g>
<!-- ne99 -->
<g id="node2" class="node">
<title>ne99</title>
<path fill="white" stroke="black" stroke-width="2" d="M792,-759.5C792,-759.5 875,-759.5 875,-759.5 881,-759.5 887,-765.5 887,-771.5 887,-771.5 887,-826.5 887,-826.5 887,-832.5 881,-838.5 875,-838.5 875,-838.5 792,-838.5 792,-838.5 786,-838.5 780,-832.5 780,-826.5 780,-826.5 780,-771.5 780,-771.5 780,-765.5 786,-759.5 792,-759.5"/>
<polygon fill="white" stroke="none" points="788,-763.5 788,-834.5 879,-834.5 879,-763.5 788,-763.5"/>
<polygon fill="black" stroke="none" points="790,-811.5 790,-832.5 877,-832.5 877,-811.5 790,-811.5"/>
<text text-anchor="start" x="817" y="-816.2" font-family="Courier New" font-size="14.00" fill="white">ne99</text>
<polygon fill="grey" stroke="none" points="790,-788.5 790,-809.5 845,-809.5 845,-788.5 790,-788.5"/>
<text text-anchor="start" x="792.75" y="-793.2" font-family="Courier New" font-size="14.00">Switch</text>
<text text-anchor="start" x="849.62" y="-793.2" font-family="Courier New" font-size="14.00">D05</text>
<polygon fill="grey" stroke="none" points="790,-765.5 790,-786.5 845,-786.5 845,-765.5 790,-765.5"/>
<text text-anchor="start" x="792.75" y="-770.2" font-family="Courier New" font-size="14.00">Signal</text>
<text text-anchor="start" x="849.62" y="-770.2" font-family="Courier New" font-size="14.00">S63</text>
</g>
<!-- ne61&#45;&#45;ne99 -->
<g id="edge1" class="edge">
<title>ne61&#45;&#45;ne99</title>
<path fill="none" stroke="black" d="M587.36,-905.47C607.2,-897.35 629.62,-887.2 649,-876 666.32,-865.99 667.31,-858.33 685,-849 714.9,-833.24 750.77,-820.95 779.64,-812.5"/>
</g>
<!-- ne63 -->
<g id="node3" class="node">
<title>ne63</title>
<path fill="white" stroke="black" stroke-width="2" d="M471,-787.5C471,-787.5 596,-787.5 596,-787.5 602,-787.5 608,-793.5 608,-799.5 608,-799.5 608,-854.5 608,-854.5 608,-860.5 602,-866.5 596,-866.5 596,-866.5 471,-866.5 471,-866.5 465,-866.5 459,-860.5 459,-854.5 459,-854.5 459,-799.5 459,-799.5 459,-793.5 465,-787.5 471,-787.5"/>
<polygon fill="white" stroke="none" points="467,-791.5 467,-862.5 600,-862.5 600,-791.5 467,-791.5"/>
<polygon fill="black" stroke="none" points="469,-839.5 469,-860.5 598,-860.5 598,-839.5 469,-839.5"/>
<text text-anchor="start" x="517" y="-844.2" font-family="Courier New" font-size="14.00" fill="white">ne63</text>
<polygon fill="grey" stroke="none" points="469,-816.5 469,-837.5 524,-837.5 524,-816.5 469,-816.5"/>
<text text-anchor="start" x="471.75" y="-821.2" font-family="Courier New" font-size="14.00">Switch</text>
<text text-anchor="start" x="529" y="-821.2" font-family="Courier New" font-size="14.00">D18</text>
<polygon fill="grey" stroke="none" points="469,-793.5 469,-814.5 524,-814.5 524,-793.5 469,-793.5"/>
<text text-anchor="start" x="471.75" y="-798.2" font-family="Courier New" font-size="14.00">Signal</text>
<text text-anchor="start" x="529" y="-798.2" font-family="Courier New" font-size="14.00">C62 S104</text>
</g>
<!-- ne63&#45;&#45;ne99 -->
<g id="edge2" class="edge">
<title>ne63&#45;&#45;ne99</title>
<path fill="none" stroke="black" d="M608.16,-820.08C661.42,-815.07 732.11,-808.43 779.78,-803.95"/>
</g>
<!-- ne65 -->
<g id="node4" class="node">
<title>ne65</title>
<path fill="white" stroke="black" stroke-width="2" d="M767,-979C767,-979 900,-979 900,-979 906,-979 912,-985 912,-991 912,-991 912,-1023 912,-1023 912,-1029 906,-1035 900,-1035 900,-1035 767,-1035 767,-1035 761,-1035 755,-1029 755,-1023 755,-1023 755,-991 755,-991 755,-985 761,-979 767,-979"/>
<polygon fill="white" stroke="none" points="763,-983 763,-1031 904,-1031 904,-983 763,-983"/>
<polygon fill="black" stroke="none" points="765,-1008 765,-1029 902,-1029 902,-1008 765,-1008"/>
<text text-anchor="start" x="817" y="-1012.7" font-family="Courier New" font-size="14.00" fill="white">ne65</text>
<polygon fill="grey" stroke="none" points="765,-985 765,-1006 820,-1006 820,-985 765,-985"/>
<text text-anchor="start" x="767.75" y="-989.7" font-family="Courier New" font-size="14.00">Signal</text>
<text text-anchor="start" x="824.88" y="-989.7" font-family="Courier New" font-size="14.00">C103 C128</text>
</g>
<!-- ne63&#45;&#45;ne65 -->
<g id="edge3" class="edge">
<title>ne63&#45;&#45;ne65</title>
<path fill="none" stroke="black" d="M608.41,-848.32C623.27,-855.27 637.76,-864.31 649,-876 680.02,-908.24 651.53,-940.32 685,-970 704.16,-986.99 729.98,-996.42 754.66,-1001.57"/>
</g>
<!-- ne992 -->
<g id="node5" class="node">
<title>ne992</title>
<path fill="white" stroke="black" stroke-width="2" d="M1046.5,-956C1046.5,-956 1171.5,-956 1171.5,-956 1177.5,-956 1183.5,-962 1183.5,-968 1183.5,-968 1183.5,-1046 1183.5,-1046 1183.5,-1052 1177.5,-1058 1171.5,-1058 1171.5,-1058 1046.5,-1058 1046.5,-1058 1040.5,-1058 1034.5,-1052 1034.5,-1046 1034.5,-1046 1034.5,-968 1034.5,-968 1034.5,-962 1040.5,-956 1046.5,-956"/>
<polygon fill="white" stroke="none" points="1042.5,-960 1042.5,-1054 1175.5,-1054 1175.5,-960 1042.5,-960"/>
<polygon fill="black" stroke="none" points="1044.5,-1031 1044.5,-1052 1173.5,-1052 1173.5,-1031 1044.5,-1031"/>
<text text-anchor="start" x="1088.38" y="-1035.7" font-family="Courier New" font-size="14.00" fill="white">ne992</text>
<polygon fill="grey" stroke="none" points="1044.5,-1008 1044.5,-1029 1099.5,-1029 1099.5,-1008 1044.5,-1008"/>
<text text-anchor="start" x="1047.25" y="-1012.7" font-family="Courier New" font-size="14.00">Switch</text>
<text text-anchor="start" x="1104.5" y="-1012.7" font-family="Courier New" font-size="14.00">Sw01</text>
<polygon fill="grey" stroke="none" points="1044.5,-985 1044.5,-1006 1099.5,-1006 1099.5,-985 1044.5,-985"/>
<text text-anchor="start" x="1047.25" y="-989.7" font-family="Courier New" font-size="14.00">Border</text>
<text text-anchor="start" x="1104.5" y="-989.7" font-family="Courier New" font-size="14.00">SB03</text>
<polygon fill="grey" stroke="none" points="1044.5,-962 1044.5,-983 1099.5,-983 1099.5,-962 1044.5,-962"/>
<text text-anchor="start" x="1047.25" y="-966.7" font-family="Courier New" font-size="14.00">Signal</text>
<text text-anchor="start" x="1104.5" y="-966.7" font-family="Courier New" font-size="14.00">J40 S129</text>
</g>
<!-- ne65&#45;&#45;ne992 -->
<g id="edge4" class="edge">
<title>ne65&#45;&#45;ne992</title>
<path fill="none" stroke="black" d="M912.14,-1007C950.52,-1007 996.59,-1007 1034.4,-1007"/>
</g>
<!-- ne994 -->
<g id="node23" class="node">
<title>ne994</title>
<path fill="white" stroke="black" stroke-width="2" d="M1300.38,-1029C1300.38,-1029 1344.62,-1029 1344.62,-1029 1350.62,-1029 1356.62,-1035 1356.62,-1041 1356.62,-1041 1356.62,-1053 1356.62,-1053 1356.62,-1059 1350.62,-1065 1344.62,-1065 1344.62,-1065 1300.38,-1065 1300.38,-1065 1294.38,-1065 1288.38,-1059 1288.38,-1053 1288.38,-1053 1288.38,-1041 1288.38,-1041 1288.38,-1035 1294.38,-1029 1300.38,-1029"/>
<polygon fill="white" stroke="none" points="1296.38,-1034.25 1296.38,-1060 1348.62,-1060 1348.62,-1034.25 1296.38,-1034.25"/>
<polygon fill="black" stroke="none" points="1298.38,-1036.25 1298.38,-1058 1346.62,-1058 1346.62,-1036.25 1298.38,-1036.25"/>
<text text-anchor="start" x="1301.88" y="-1041.7" font-family="Courier New" font-size="14.00" fill="white">ne994</text>
</g>
<!-- ne992&#45;&#45;ne994 -->
<g id="edge52" class="edge">
<title>ne992&#45;&#45;ne994</title>
<path fill="none" stroke="black" d="M1183.97,-1020.99C1219.47,-1027.7 1260.24,-1035.41 1288.11,-1040.69"/>
</g>
<!-- ne114 -->
<g id="node6" class="node">
<title>ne114</title>
<path fill="white" stroke="black" stroke-width="2" d="M754.5,-557C754.5,-557 912.5,-557 912.5,-557 918.5,-557 924.5,-563 924.5,-569 924.5,-569 924.5,-647 924.5,-647 924.5,-653 918.5,-659 912.5,-659 912.5,-659 754.5,-659 754.5,-659 748.5,-659 742.5,-653 742.5,-647 742.5,-647 742.5,-569 742.5,-569 742.5,-563 748.5,-557 754.5,-557"/>
<polygon fill="white" stroke="none" points="750.5,-561 750.5,-655 916.5,-655 916.5,-561 750.5,-561"/>
<polygon fill="black" stroke="none" points="752.5,-632 752.5,-653 914.5,-653 914.5,-632 752.5,-632"/>
<text text-anchor="start" x="812.88" y="-636.7" font-family="Courier New" font-size="14.00" fill="white">ne114</text>
<polygon fill="grey" stroke="none" points="752.5,-609 752.5,-630 807.5,-630 807.5,-609 752.5,-609"/>
<text text-anchor="start" x="755.25" y="-613.7" font-family="Courier New" font-size="14.00">Switch</text>
<text text-anchor="start" x="812.5" y="-613.7" font-family="Courier New" font-size="14.00">D23</text>
<polygon fill="grey" stroke="none" points="752.5,-586 752.5,-607 807.5,-607 807.5,-586 752.5,-586"/>
<text text-anchor="start" x="755.25" y="-590.7" font-family="Courier New" font-size="14.00">Border</text>
<text text-anchor="start" x="812.5" y="-590.7" font-family="Courier New" font-size="14.00">SB05</text>
<polygon fill="grey" stroke="none" points="752.5,-563 752.5,-584 807.5,-584 807.5,-563 752.5,-563"/>
<text text-anchor="start" x="755.25" y="-567.7" font-family="Courier New" font-size="14.00">Signal</text>
<text text-anchor="start" x="812.5" y="-567.7" font-family="Courier New" font-size="14.00">L29 J48 S110</text>
</g>
<!-- ne132 -->
<g id="node7" class="node">
<title>ne132</title>
<path fill="white" stroke="black" stroke-width="2" d="M1051,-782C1051,-782 1167,-782 1167,-782 1173,-782 1179,-788 1179,-794 1179,-794 1179,-826 1179,-826 1179,-832 1173,-838 1167,-838 1167,-838 1051,-838 1051,-838 1045,-838 1039,-832 1039,-826 1039,-826 1039,-794 1039,-794 1039,-788 1045,-782 1051,-782"/>
<polygon fill="white" stroke="none" points="1047,-786 1047,-834 1171,-834 1171,-786 1047,-786"/>
<polygon fill="black" stroke="none" points="1049,-811 1049,-832 1169,-832 1169,-811 1049,-811"/>
<text text-anchor="start" x="1088.38" y="-815.7" font-family="Courier New" font-size="14.00" fill="white">ne132</text>
<polygon fill="grey" stroke="none" points="1049,-788 1049,-809 1104,-809 1104,-788 1049,-788"/>
<text text-anchor="start" x="1051.75" y="-792.7" font-family="Courier New" font-size="14.00">Signal</text>
<text text-anchor="start" x="1108.62" y="-792.7" font-family="Courier New" font-size="14.00">J46 J47</text>
</g>
<!-- ne114&#45;&#45;ne132 -->
<g id="edge5" class="edge">
<title>ne114&#45;&#45;ne132</title>
<path fill="none" stroke="black" d="M882.11,-659.27C917.1,-694.72 967.22,-741.08 1018,-773 1024.58,-777.14 1031.7,-780.98 1038.96,-784.5"/>
</g>
<!-- ne129 -->
<g id="node8" class="node">
<title>ne129</title>
<path fill="white" stroke="black" stroke-width="2" d="M1067.5,-553C1067.5,-553 1150.5,-553 1150.5,-553 1156.5,-553 1162.5,-559 1162.5,-565 1162.5,-565 1162.5,-597 1162.5,-597 1162.5,-603 1156.5,-609 1150.5,-609 1150.5,-609 1067.5,-609 1067.5,-609 1061.5,-609 1055.5,-603 1055.5,-597 1055.5,-597 1055.5,-565 1055.5,-565 1055.5,-559 1061.5,-553 1067.5,-553"/>
<polygon fill="white" stroke="none" points="1063.5,-557 1063.5,-605 1154.5,-605 1154.5,-557 1063.5,-557"/>
<polygon fill="black" stroke="none" points="1065.5,-582 1065.5,-603 1152.5,-603 1152.5,-582 1065.5,-582"/>
<text text-anchor="start" x="1088.38" y="-586.7" font-family="Courier New" font-size="14.00" fill="white">ne129</text>
<polygon fill="grey" stroke="none" points="1065.5,-559 1065.5,-580 1120.5,-580 1120.5,-559 1065.5,-559"/>
<text text-anchor="start" x="1068.25" y="-563.7" font-family="Courier New" font-size="14.00">Switch</text>
<text text-anchor="start" x="1125.12" y="-563.7" font-family="Courier New" font-size="14.00">D12</text>
</g>
<!-- ne114&#45;&#45;ne129 -->
<g id="edge6" class="edge">
<title>ne114&#45;&#45;ne129</title>
<path fill="none" stroke="black" d="M924.81,-599.08C968.07,-594.81 1018.36,-589.85 1055.29,-586.2"/>
</g>
<!-- ne912 -->
<g id="node27" class="node">
<title>ne912</title>
<path fill="white" stroke="black" stroke-width="2" d="M1260,-770.5C1260,-770.5 1385,-770.5 1385,-770.5 1391,-770.5 1397,-776.5 1397,-782.5 1397,-782.5 1397,-837.5 1397,-837.5 1397,-843.5 1391,-849.5 1385,-849.5 1385,-849.5 1260,-849.5 1260,-849.5 1254,-849.5 1248,-843.5 1248,-837.5 1248,-837.5 1248,-782.5 1248,-782.5 1248,-776.5 1254,-770.5 1260,-770.5"/>
<polygon fill="white" stroke="none" points="1256,-774.5 1256,-845.5 1389,-845.5 1389,-774.5 1256,-774.5"/>
<polygon fill="black" stroke="none" points="1258,-822.5 1258,-843.5 1387,-843.5 1387,-822.5 1258,-822.5"/>
<text text-anchor="start" x="1301.88" y="-827.2" font-family="Courier New" font-size="14.00" fill="white">ne912</text>
<polygon fill="grey" stroke="none" points="1258,-799.5 1258,-820.5 1313,-820.5 1313,-799.5 1258,-799.5"/>
<text text-anchor="start" x="1260.75" y="-804.2" font-family="Courier New" font-size="14.00">Switch</text>
<text text-anchor="start" x="1318" y="-804.2" font-family="Courier New" font-size="14.00">D20</text>
<polygon fill="grey" stroke="none" points="1258,-776.5 1258,-797.5 1313,-797.5 1313,-776.5 1258,-776.5"/>
<text text-anchor="start" x="1260.75" y="-781.2" font-family="Courier New" font-size="14.00">Signal</text>
<text text-anchor="start" x="1318" y="-781.2" font-family="Courier New" font-size="14.00">J45 S119</text>
</g>
<!-- ne132&#45;&#45;ne912 -->
<g id="edge49" class="edge">
<title>ne132&#45;&#45;ne912</title>
<path fill="none" stroke="black" d="M1179.25,-810C1201.18,-810 1225.49,-810 1247.72,-810"/>
</g>
<!-- ne130 -->
<g id="node44" class="node">
<title>ne130</title>
<path fill="white" stroke="black" stroke-width="2" d="M1260,-543.5C1260,-543.5 1385,-543.5 1385,-543.5 1391,-543.5 1397,-549.5 1397,-555.5 1397,-555.5 1397,-610.5 1397,-610.5 1397,-616.5 1391,-622.5 1385,-622.5 1385,-622.5 1260,-622.5 1260,-622.5 1254,-622.5 1248,-616.5 1248,-610.5 1248,-610.5 1248,-555.5 1248,-555.5 1248,-549.5 1254,-543.5 1260,-543.5"/>
<polygon fill="white" stroke="none" points="1256,-547.5 1256,-618.5 1389,-618.5 1389,-547.5 1256,-547.5"/>
<polygon fill="black" stroke="none" points="1258,-595.5 1258,-616.5 1387,-616.5 1387,-595.5 1258,-595.5"/>
<text text-anchor="start" x="1301.88" y="-600.2" font-family="Courier New" font-size="14.00" fill="white">ne130</text>
<polygon fill="grey" stroke="none" points="1258,-572.5 1258,-593.5 1313,-593.5 1313,-572.5 1258,-572.5"/>
<text text-anchor="start" x="1260.75" y="-577.2" font-family="Courier New" font-size="14.00">Switch</text>
<text text-anchor="start" x="1318" y="-577.2" font-family="Courier New" font-size="14.00">D12</text>
<polygon fill="grey" stroke="none" points="1258,-549.5 1258,-570.5 1313,-570.5 1313,-549.5 1258,-549.5"/>
<text text-anchor="start" x="1260.75" y="-554.2" font-family="Courier New" font-size="14.00">Signal</text>
<text text-anchor="start" x="1318" y="-554.2" font-family="Courier New" font-size="14.00">C88 S116</text>
</g>
<!-- ne129&#45;&#45;ne130 -->
<g id="edge44" class="edge">
<title>ne129&#45;&#45;ne130</title>
<path fill="none" stroke="black" d="M1162.82,-581.5C1188.52,-581.74 1219.83,-582.04 1247.83,-582.3"/>
</g>
<!-- ne288 -->
<g id="node9" class="node">
<title>ne288</title>
<path fill="white" stroke="black" stroke-width="2" d="M254,-136.5C254,-136.5 337,-136.5 337,-136.5 343,-136.5 349,-142.5 349,-148.5 349,-148.5 349,-203.5 349,-203.5 349,-209.5 343,-215.5 337,-215.5 337,-215.5 254,-215.5 254,-215.5 248,-215.5 242,-209.5 242,-203.5 242,-203.5 242,-148.5 242,-148.5 242,-142.5 248,-136.5 254,-136.5"/>
<polygon fill="white" stroke="none" points="250,-140.5 250,-211.5 341,-211.5 341,-140.5 250,-140.5"/>
<polygon fill="black" stroke="none" points="252,-188.5 252,-209.5 339,-209.5 339,-188.5 252,-188.5"/>
<text text-anchor="start" x="274.88" y="-193.2" font-family="Courier New" font-size="14.00" fill="white">ne288</text>
<polygon fill="grey" stroke="none" points="252,-165.5 252,-186.5 307,-186.5 307,-165.5 252,-165.5"/>
<text text-anchor="start" x="254.75" y="-170.2" font-family="Courier New" font-size="14.00">Switch</text>
<text text-anchor="start" x="311.62" y="-170.2" font-family="Courier New" font-size="14.00">D03</text>
<polygon fill="grey" stroke="none" points="252,-142.5 252,-163.5 307,-163.5 307,-142.5 252,-142.5"/>
<text text-anchor="start" x="254.75" y="-147.2" font-family="Courier New" font-size="14.00">Signal</text>
<text text-anchor="start" x="311.62" y="-147.2" font-family="Courier New" font-size="14.00">S77</text>
</g>
<!-- ne991 -->
<g id="node10" class="node">
<title>ne991</title>
<path fill="white" stroke="black" stroke-width="2" d="M442.5,-232C442.5,-232 624.5,-232 624.5,-232 630.5,-232 636.5,-238 636.5,-244 636.5,-244 636.5,-322 636.5,-322 636.5,-328 630.5,-334 624.5,-334 624.5,-334 442.5,-334 442.5,-334 436.5,-334 430.5,-328 430.5,-322 430.5,-322 430.5,-244 430.5,-244 430.5,-238 436.5,-232 442.5,-232"/>
<polygon fill="white" stroke="none" points="438.5,-236 438.5,-330 628.5,-330 628.5,-236 438.5,-236"/>
<polygon fill="black" stroke="none" points="440.5,-307 440.5,-328 626.5,-328 626.5,-307 440.5,-307"/>
<text text-anchor="start" x="512.88" y="-311.7" font-family="Courier New" font-size="14.00" fill="white">ne991</text>
<polygon fill="grey" stroke="none" points="440.5,-284 440.5,-305 528.5,-305 528.5,-284 440.5,-284"/>
<text text-anchor="start" x="476" y="-288.7" font-family="Courier New" font-size="14.00">Switch</text>
<text text-anchor="start" x="533.5" y="-288.7" font-family="Courier New" font-size="14.00">D01</text>
<polygon fill="grey" stroke="none" points="440.5,-261 440.5,-282 528.5,-282 528.5,-261 440.5,-261"/>
<text text-anchor="start" x="443.25" y="-265.7" font-family="Courier New" font-size="14.00">BufferStop</text>
<text text-anchor="start" x="533.5" y="-265.7" font-family="Courier New" font-size="14.00">Buf01</text>
<polygon fill="grey" stroke="none" points="440.5,-238 440.5,-259 528.5,-259 528.5,-238 440.5,-238"/>
<text text-anchor="start" x="476" y="-242.7" font-family="Courier New" font-size="14.00">Signal</text>
<text text-anchor="start" x="533.12" y="-242.7" font-family="Courier New" font-size="14.00">T01 T02 S72</text>
</g>
<!-- ne288&#45;&#45;ne991 -->
<g id="edge7" class="edge">
<title>ne288&#45;&#45;ne991</title>
<path fill="none" stroke="black" d="M349.46,-200.01C373.38,-210.86 402.48,-224.05 430.38,-236.7"/>
</g>
<!-- ne295 -->
<g id="node11" class="node">
<title>ne295</title>
<path fill="white" stroke="black" stroke-width="2" d="M475.5,-152C475.5,-152 591.5,-152 591.5,-152 597.5,-152 603.5,-158 603.5,-164 603.5,-164 603.5,-196 603.5,-196 603.5,-202 597.5,-208 591.5,-208 591.5,-208 475.5,-208 475.5,-208 469.5,-208 463.5,-202 463.5,-196 463.5,-196 463.5,-164 463.5,-164 463.5,-158 469.5,-152 475.5,-152"/>
<polygon fill="white" stroke="none" points="471.5,-156 471.5,-204 595.5,-204 595.5,-156 471.5,-156"/>
<polygon fill="black" stroke="none" points="473.5,-181 473.5,-202 593.5,-202 593.5,-181 473.5,-181"/>
<text text-anchor="start" x="512.88" y="-185.7" font-family="Courier New" font-size="14.00" fill="white">ne295</text>
<polygon fill="grey" stroke="none" points="473.5,-158 473.5,-179 528.5,-179 528.5,-158 473.5,-158"/>
<text text-anchor="start" x="476.25" y="-162.7" font-family="Courier New" font-size="14.00">Signal</text>
<text text-anchor="start" x="533.12" y="-162.7" font-family="Courier New" font-size="14.00">C75 C78</text>
</g>
<!-- ne288&#45;&#45;ne295 -->
<g id="edge8" class="edge">
<title>ne288&#45;&#45;ne295</title>
<path fill="none" stroke="black" d="M349.46,-176.9C383.03,-177.47 426.81,-178.21 463.13,-178.82"/>
</g>
<!-- ne297 -->
<g id="node15" class="node">
<title>ne297</title>
<path fill="white" stroke="black" stroke-width="2" d="M771,-144.5C771,-144.5 896,-144.5 896,-144.5 902,-144.5 908,-150.5 908,-156.5 908,-156.5 908,-211.5 908,-211.5 908,-217.5 902,-223.5 896,-223.5 896,-223.5 771,-223.5 771,-223.5 765,-223.5 759,-217.5 759,-211.5 759,-211.5 759,-156.5 759,-156.5 759,-150.5 765,-144.5 771,-144.5"/>
<polygon fill="white" stroke="none" points="767,-148.5 767,-219.5 900,-219.5 900,-148.5 767,-148.5"/>
<polygon fill="black" stroke="none" points="769,-196.5 769,-217.5 898,-217.5 898,-196.5 769,-196.5"/>
<text text-anchor="start" x="812.88" y="-201.2" font-family="Courier New" font-size="14.00" fill="white">ne297</text>
<polygon fill="grey" stroke="none" points="769,-173.5 769,-194.5 824,-194.5 824,-173.5 769,-173.5"/>
<text text-anchor="start" x="771.75" y="-178.2" font-family="Courier New" font-size="14.00">Switch</text>
<text text-anchor="start" x="829" y="-178.2" font-family="Courier New" font-size="14.00">D04 Sw03</text>
<polygon fill="grey" stroke="none" points="769,-150.5 769,-171.5 824,-171.5 824,-150.5 769,-150.5"/>
<text text-anchor="start" x="771.75" y="-155.2" font-family="Courier New" font-size="14.00">Signal</text>
<text text-anchor="start" x="829" y="-155.2" font-family="Courier New" font-size="14.00">S80 S132</text>
</g>
<!-- ne295&#45;&#45;ne297 -->
<g id="edge12" class="edge">
<title>ne295&#45;&#45;ne297</title>
<path fill="none" stroke="black" d="M603.99,-180.93C650.43,-181.56 711.43,-182.37 758.73,-183.01"/>
</g>
<!-- ne290 -->
<g id="node12" class="node">
<title>ne290</title>
<path fill="white" stroke="black" stroke-width="2" d="M237.5,-356.5C237.5,-356.5 353.5,-356.5 353.5,-356.5 359.5,-356.5 365.5,-362.5 365.5,-368.5 365.5,-368.5 365.5,-423.5 365.5,-423.5 365.5,-429.5 359.5,-435.5 353.5,-435.5 353.5,-435.5 237.5,-435.5 237.5,-435.5 231.5,-435.5 225.5,-429.5 225.5,-423.5 225.5,-423.5 225.5,-368.5 225.5,-368.5 225.5,-362.5 231.5,-356.5 237.5,-356.5"/>
<polygon fill="white" stroke="none" points="233.5,-360.5 233.5,-431.5 357.5,-431.5 357.5,-360.5 233.5,-360.5"/>
<polygon fill="black" stroke="none" points="235.5,-408.5 235.5,-429.5 355.5,-429.5 355.5,-408.5 235.5,-408.5"/>
<text text-anchor="start" x="274.88" y="-413.2" font-family="Courier New" font-size="14.00" fill="white">ne290</text>
<polygon fill="grey" stroke="none" points="235.5,-385.5 235.5,-406.5 290.5,-406.5 290.5,-385.5 235.5,-385.5"/>
<text text-anchor="start" x="238.25" y="-390.2" font-family="Courier New" font-size="14.00">Switch</text>
<text text-anchor="start" x="295.5" y="-390.2" font-family="Courier New" font-size="14.00">D14</text>
<polygon fill="grey" stroke="none" points="235.5,-362.5 235.5,-383.5 290.5,-383.5 290.5,-362.5 235.5,-362.5"/>
<text text-anchor="start" x="238.25" y="-367.2" font-family="Courier New" font-size="14.00">Signal</text>
<text text-anchor="start" x="295.12" y="-367.2" font-family="Courier New" font-size="14.00">J35 S95</text>
</g>
<!-- ne290&#45;&#45;ne991 -->
<g id="edge9" class="edge">
<title>ne290&#45;&#45;ne991</title>
<path fill="none" stroke="black" d="M365.71,-362.86C385.98,-353.16 408.57,-342.34 430.43,-331.87"/>
</g>
<!-- ne292 -->
<g id="node13" class="node">
<title>ne292</title>
<path fill="white" stroke="black" stroke-width="2" d="M475.5,-362C475.5,-362 591.5,-362 591.5,-362 597.5,-362 603.5,-368 603.5,-374 603.5,-374 603.5,-406 603.5,-406 603.5,-412 597.5,-418 591.5,-418 591.5,-418 475.5,-418 475.5,-418 469.5,-418 463.5,-412 463.5,-406 463.5,-406 463.5,-374 463.5,-374 463.5,-368 469.5,-362 475.5,-362"/>
<polygon fill="white" stroke="none" points="471.5,-366 471.5,-414 595.5,-414 595.5,-366 471.5,-366"/>
<polygon fill="black" stroke="none" points="473.5,-391 473.5,-412 593.5,-412 593.5,-391 473.5,-391"/>
<text text-anchor="start" x="512.88" y="-395.7" font-family="Courier New" font-size="14.00" fill="white">ne292</text>
<polygon fill="grey" stroke="none" points="473.5,-368 473.5,-389 528.5,-389 528.5,-368 473.5,-368"/>
<text text-anchor="start" x="476.25" y="-372.7" font-family="Courier New" font-size="14.00">Signal</text>
<text text-anchor="start" x="533.12" y="-372.7" font-family="Courier New" font-size="14.00">J36 J37</text>
</g>
<!-- ne290&#45;&#45;ne292 -->
<g id="edge10" class="edge">
<title>ne290&#45;&#45;ne292</title>
<path fill="none" stroke="black" d="M365.71,-394.24C396.45,-393.46 432.55,-392.54 463.29,-391.76"/>
</g>
<!-- ne996 -->
<g id="node14" class="node">
<title>ne996</title>
<path fill="white" stroke="black" stroke-width="2" d="M771,-337C771,-337 896,-337 896,-337 902,-337 908,-343 908,-349 908,-349 908,-427 908,-427 908,-433 902,-439 896,-439 896,-439 771,-439 771,-439 765,-439 759,-433 759,-427 759,-427 759,-349 759,-349 759,-343 765,-337 771,-337"/>
<polygon fill="white" stroke="none" points="767,-341 767,-435 900,-435 900,-341 767,-341"/>
<polygon fill="black" stroke="none" points="769,-412 769,-433 898,-433 898,-412 769,-412"/>
<text text-anchor="start" x="812.88" y="-416.7" font-family="Courier New" font-size="14.00" fill="white">ne996</text>
<polygon fill="grey" stroke="none" points="769,-389 769,-410 824,-410 824,-389 769,-389"/>
<text text-anchor="start" x="771.75" y="-393.7" font-family="Courier New" font-size="14.00">Switch</text>
<text text-anchor="start" x="829" y="-393.7" font-family="Courier New" font-size="14.00">Sw04</text>
<polygon fill="grey" stroke="none" points="769,-366 769,-387 824,-387 824,-366 769,-366"/>
<text text-anchor="start" x="771.75" y="-370.7" font-family="Courier New" font-size="14.00">Border</text>
<text text-anchor="start" x="829" y="-370.7" font-family="Courier New" font-size="14.00">SB01</text>
<polygon fill="grey" stroke="none" points="769,-343 769,-364 824,-364 824,-343 769,-343"/>
<text text-anchor="start" x="771.75" y="-347.7" font-family="Courier New" font-size="14.00">Signal</text>
<text text-anchor="start" x="829" y="-347.7" font-family="Courier New" font-size="14.00">J38 S135</text>
</g>
<!-- ne292&#45;&#45;ne996 -->
<g id="edge11" class="edge">
<title>ne292&#45;&#45;ne996</title>
<path fill="none" stroke="black" d="M603.99,-389.53C650.43,-389.22 711.43,-388.81 758.73,-388.5"/>
</g>
<!-- ne997 -->
<g id="node18" class="node">
<title>ne997</title>
<path fill="white" stroke="black" stroke-width="2" d="M1086.88,-287C1086.88,-287 1131.12,-287 1131.12,-287 1137.12,-287 1143.12,-293 1143.12,-299 1143.12,-299 1143.12,-311 1143.12,-311 1143.12,-317 1137.12,-323 1131.12,-323 1131.12,-323 1086.88,-323 1086.88,-323 1080.88,-323 1074.88,-317 1074.88,-311 1074.88,-311 1074.88,-299 1074.88,-299 1074.88,-293 1080.88,-287 1086.88,-287"/>
<polygon fill="white" stroke="none" points="1082.88,-292.25 1082.88,-318 1135.12,-318 1135.12,-292.25 1082.88,-292.25"/>
<polygon fill="black" stroke="none" points="1084.88,-294.25 1084.88,-316 1133.12,-316 1133.12,-294.25 1084.88,-294.25"/>
<text text-anchor="start" x="1088.38" y="-299.7" font-family="Courier New" font-size="14.00" fill="white">ne997</text>
</g>
<!-- ne996&#45;&#45;ne997 -->
<g id="edge53" class="edge">
<title>ne996&#45;&#45;ne997</title>
<path fill="none" stroke="black" d="M908.15,-365.65C962.26,-349.23 1033.25,-327.68 1074.43,-315.19"/>
</g>
<!-- ne384 -->
<g id="node16" class="node">
<title>ne384</title>
<path fill="white" stroke="black" stroke-width="2" d="M1063,-53.5C1063,-53.5 1155,-53.5 1155,-53.5 1161,-53.5 1167,-59.5 1167,-65.5 1167,-65.5 1167,-120.5 1167,-120.5 1167,-126.5 1161,-132.5 1155,-132.5 1155,-132.5 1063,-132.5 1063,-132.5 1057,-132.5 1051,-126.5 1051,-120.5 1051,-120.5 1051,-65.5 1051,-65.5 1051,-59.5 1057,-53.5 1063,-53.5"/>
<polygon fill="white" stroke="none" points="1059,-57.5 1059,-128.5 1159,-128.5 1159,-57.5 1059,-57.5"/>
<polygon fill="black" stroke="none" points="1061,-105.5 1061,-126.5 1157,-126.5 1157,-105.5 1061,-105.5"/>
<text text-anchor="start" x="1088.38" y="-110.2" font-family="Courier New" font-size="14.00" fill="white">ne384</text>
<polygon fill="grey" stroke="none" points="1061,-82.5 1061,-103.5 1116,-103.5 1116,-82.5 1061,-82.5"/>
<text text-anchor="start" x="1063.75" y="-87.2" font-family="Courier New" font-size="14.00">Switch</text>
<text text-anchor="start" x="1121" y="-87.2" font-family="Courier New" font-size="14.00">Sw02</text>
<polygon fill="grey" stroke="none" points="1061,-59.5 1061,-80.5 1116,-80.5 1116,-59.5 1061,-59.5"/>
<text text-anchor="start" x="1063.75" y="-64.2" font-family="Courier New" font-size="14.00">Signal</text>
<text text-anchor="start" x="1121" y="-64.2" font-family="Courier New" font-size="14.00">B79</text>
</g>
<!-- ne297&#45;&#45;ne384 -->
<g id="edge13" class="edge">
<title>ne297&#45;&#45;ne384</title>
<path fill="none" stroke="black" d="M908.15,-159.49C952.93,-144.6 1009.26,-125.85 1050.7,-112.07"/>
</g>
<!-- ne995 -->
<g id="node17" class="node">
<title>ne995</title>
<path fill="white" stroke="black" stroke-width="2" d="M1030,-151.5C1030,-151.5 1188,-151.5 1188,-151.5 1194,-151.5 1200,-157.5 1200,-163.5 1200,-163.5 1200,-218.5 1200,-218.5 1200,-224.5 1194,-230.5 1188,-230.5 1188,-230.5 1030,-230.5 1030,-230.5 1024,-230.5 1018,-224.5 1018,-218.5 1018,-218.5 1018,-163.5 1018,-163.5 1018,-157.5 1024,-151.5 1030,-151.5"/>
<polygon fill="white" stroke="none" points="1026,-155.5 1026,-226.5 1192,-226.5 1192,-155.5 1026,-155.5"/>
<polygon fill="black" stroke="none" points="1028,-203.5 1028,-224.5 1190,-224.5 1190,-203.5 1028,-203.5"/>
<text text-anchor="start" x="1088.38" y="-208.2" font-family="Courier New" font-size="14.00" fill="white">ne995</text>
<polygon fill="grey" stroke="none" points="1028,-180.5 1028,-201.5 1116,-201.5 1116,-180.5 1028,-180.5"/>
<text text-anchor="start" x="1030.75" y="-185.2" font-family="Courier New" font-size="14.00">BufferStop</text>
<text text-anchor="start" x="1121" y="-185.2" font-family="Courier New" font-size="14.00">Buf05</text>
<polygon fill="grey" stroke="none" points="1028,-157.5 1028,-178.5 1116,-178.5 1116,-157.5 1028,-157.5"/>
<text text-anchor="start" x="1063.5" y="-162.2" font-family="Courier New" font-size="14.00">Signal</text>
<text text-anchor="start" x="1121" y="-162.2" font-family="Courier New" font-size="14.00">T27 C131</text>
</g>
<!-- ne297&#45;&#45;ne995 -->
<g id="edge14" class="edge">
<title>ne297&#45;&#45;ne995</title>
<path fill="none" stroke="black" d="M908.15,-185.89C941.85,-186.75 982.1,-187.78 1017.62,-188.69"/>
</g>
<!-- ne297&#45;&#45;ne997 -->
<g id="edge15" class="edge">
<title>ne297&#45;&#45;ne997</title>
<path fill="none" stroke="black" d="M908.15,-216.58C962.26,-240.52 1033.25,-271.93 1074.43,-290.15"/>
</g>
<!-- ne400 -->
<g id="node19" class="node">
<title>ne400</title>
<path fill="white" stroke="black" stroke-width="2" d="M24,-1033.5C24,-1033.5 149,-1033.5 149,-1033.5 155,-1033.5 161,-1039.5 161,-1045.5 161,-1045.5 161,-1100.5 161,-1100.5 161,-1106.5 155,-1112.5 149,-1112.5 149,-1112.5 24,-1112.5 24,-1112.5 18,-1112.5 12,-1106.5 12,-1100.5 12,-1100.5 12,-1045.5 12,-1045.5 12,-1039.5 18,-1033.5 24,-1033.5"/>
<polygon fill="white" stroke="none" points="20,-1037.5 20,-1108.5 153,-1108.5 153,-1037.5 20,-1037.5"/>
<polygon fill="black" stroke="none" points="22,-1085.5 22,-1106.5 151,-1106.5 151,-1085.5 22,-1085.5"/>
<text text-anchor="start" x="65.88" y="-1090.2" font-family="Courier New" font-size="14.00" fill="white">ne400</text>
<polygon fill="grey" stroke="none" points="22,-1062.5 22,-1083.5 77,-1083.5 77,-1062.5 22,-1062.5"/>
<text text-anchor="start" x="24.75" y="-1067.2" font-family="Courier New" font-size="14.00">Switch</text>
<text text-anchor="start" x="82" y="-1067.2" font-family="Courier New" font-size="14.00">D07 Sw02</text>
<polygon fill="grey" stroke="none" points="22,-1039.5 22,-1060.5 77,-1060.5 77,-1039.5 22,-1039.5"/>
<text text-anchor="start" x="24.75" y="-1044.2" font-family="Courier New" font-size="14.00">Signal</text>
<text text-anchor="start" x="82" y="-1044.2" font-family="Courier New" font-size="14.00">S83 S92</text>
</g>
<!-- ne404 -->
<g id="node20" class="node">
<title>ne404</title>
<path fill="white" stroke="black" stroke-width="2" d="M237.5,-1002C237.5,-1002 353.5,-1002 353.5,-1002 359.5,-1002 365.5,-1008 365.5,-1014 365.5,-1014 365.5,-1046 365.5,-1046 365.5,-1052 359.5,-1058 353.5,-1058 353.5,-1058 237.5,-1058 237.5,-1058 231.5,-1058 225.5,-1052 225.5,-1046 225.5,-1046 225.5,-1014 225.5,-1014 225.5,-1008 231.5,-1002 237.5,-1002"/>
<polygon fill="white" stroke="none" points="233.5,-1006 233.5,-1054 357.5,-1054 357.5,-1006 233.5,-1006"/>
<polygon fill="black" stroke="none" points="235.5,-1031 235.5,-1052 355.5,-1052 355.5,-1031 235.5,-1031"/>
<text text-anchor="start" x="274.88" y="-1035.7" font-family="Courier New" font-size="14.00" fill="white">ne404</text>
<polygon fill="grey" stroke="none" points="235.5,-1008 235.5,-1029 290.5,-1029 290.5,-1008 235.5,-1008"/>
<text text-anchor="start" x="238.25" y="-1012.7" font-family="Courier New" font-size="14.00">Signal</text>
<text text-anchor="start" x="295.12" y="-1012.7" font-family="Courier New" font-size="14.00">C82 C85</text>
</g>
<!-- ne400&#45;&#45;ne404 -->
<g id="edge16" class="edge">
<title>ne400&#45;&#45;ne404</title>
<path fill="none" stroke="black" d="M161.36,-1057.66C182.14,-1053.34 204.66,-1048.66 225.17,-1044.4"/>
</g>
<!-- ne407 -->
<g id="node21" class="node">
<title>ne407</title>
<path fill="white" stroke="black" stroke-width="2" d="M249.5,-903.5C249.5,-903.5 341.5,-903.5 341.5,-903.5 347.5,-903.5 353.5,-909.5 353.5,-915.5 353.5,-915.5 353.5,-970.5 353.5,-970.5 353.5,-976.5 347.5,-982.5 341.5,-982.5 341.5,-982.5 249.5,-982.5 249.5,-982.5 243.5,-982.5 237.5,-976.5 237.5,-970.5 237.5,-970.5 237.5,-915.5 237.5,-915.5 237.5,-909.5 243.5,-903.5 249.5,-903.5"/>
<polygon fill="white" stroke="none" points="245.5,-907.5 245.5,-978.5 345.5,-978.5 345.5,-907.5 245.5,-907.5"/>
<polygon fill="black" stroke="none" points="247.5,-955.5 247.5,-976.5 343.5,-976.5 343.5,-955.5 247.5,-955.5"/>
<text text-anchor="start" x="274.88" y="-960.2" font-family="Courier New" font-size="14.00" fill="white">ne407</text>
<polygon fill="grey" stroke="none" points="247.5,-932.5 247.5,-953.5 302.5,-953.5 302.5,-932.5 247.5,-932.5"/>
<text text-anchor="start" x="250.25" y="-937.2" font-family="Courier New" font-size="14.00">Switch</text>
<text text-anchor="start" x="307.5" y="-937.2" font-family="Courier New" font-size="14.00">D16</text>
<polygon fill="grey" stroke="none" points="247.5,-909.5 247.5,-930.5 302.5,-930.5 302.5,-909.5 247.5,-909.5"/>
<text text-anchor="start" x="250.25" y="-914.2" font-family="Courier New" font-size="14.00">Signal</text>
<text text-anchor="start" x="307.5" y="-914.2" font-family="Courier New" font-size="14.00">S102</text>
</g>
<!-- ne400&#45;&#45;ne407 -->
<g id="edge17" class="edge">
<title>ne400&#45;&#45;ne407</title>
<path fill="none" stroke="black" d="M146.73,-1033.1C166.4,-1020.09 188.51,-1005.72 209,-993 218.06,-987.38 227.74,-981.54 237.22,-975.93"/>
</g>
<!-- ne993 -->
<g id="node22" class="node">
<title>ne993</title>
<path fill="white" stroke="black" stroke-width="2" d="M221,-1115.5C221,-1115.5 370,-1115.5 370,-1115.5 376,-1115.5 382,-1121.5 382,-1127.5 382,-1127.5 382,-1182.5 382,-1182.5 382,-1188.5 376,-1194.5 370,-1194.5 370,-1194.5 221,-1194.5 221,-1194.5 215,-1194.5 209,-1188.5 209,-1182.5 209,-1182.5 209,-1127.5 209,-1127.5 209,-1121.5 215,-1115.5 221,-1115.5"/>
<polygon fill="white" stroke="none" points="217,-1119.5 217,-1190.5 374,-1190.5 374,-1119.5 217,-1119.5"/>
<polygon fill="black" stroke="none" points="219,-1167.5 219,-1188.5 372,-1188.5 372,-1167.5 219,-1167.5"/>
<text text-anchor="start" x="274.88" y="-1172.2" font-family="Courier New" font-size="14.00" fill="white">ne993</text>
<polygon fill="grey" stroke="none" points="219,-1144.5 219,-1165.5 307,-1165.5 307,-1144.5 219,-1144.5"/>
<text text-anchor="start" x="221.75" y="-1149.2" font-family="Courier New" font-size="14.00">BufferStop</text>
<text text-anchor="start" x="312" y="-1149.2" font-family="Courier New" font-size="14.00">Buf08</text>
<polygon fill="grey" stroke="none" points="219,-1121.5 219,-1142.5 307,-1142.5 307,-1121.5 219,-1121.5"/>
<text text-anchor="start" x="254.5" y="-1126.2" font-family="Courier New" font-size="14.00">Signal</text>
<text text-anchor="start" x="311.62" y="-1126.2" font-family="Courier New" font-size="14.00">T25 C91</text>
</g>
<!-- ne400&#45;&#45;ne993 -->
<g id="edge18" class="edge">
<title>ne400&#45;&#45;ne993</title>
<path fill="none" stroke="black" d="M161.36,-1102.26C176.68,-1108.33 192.95,-1114.77 208.67,-1121"/>
</g>
<!-- ne400&#45;&#45;ne994 -->
<g id="edge19" class="edge">
<title>ne400&#45;&#45;ne994</title>
<path fill="none" stroke="black" d="M161.49,-1076.75C249.78,-1080.9 401.87,-1087 532.5,-1087 532.5,-1087 532.5,-1087 834.5,-1087 997.16,-1087 1038.35,-1086.11 1200,-1068 1230,-1064.64 1263.81,-1058.61 1288.13,-1053.87"/>
</g>
<!-- ne404&#45;&#45;ne61 -->
<g id="edge20" class="edge">
<title>ne404&#45;&#45;ne61</title>
<path fill="none" stroke="black" d="M360.46,-1001.58C367.73,-998.35 375.02,-995.1 382,-992 414.4,-977.59 450.73,-961.42 479.57,-948.57"/>
</g>
<!-- ne98 -->
<g id="node24" class="node">
<title>ne98</title>
<path fill="white" stroke="black" stroke-width="2" d="M430,-666C430,-666 637,-666 637,-666 643,-666 649,-672 649,-678 649,-678 649,-756 649,-756 649,-762 643,-768 637,-768 637,-768 430,-768 430,-768 424,-768 418,-762 418,-756 418,-756 418,-678 418,-678 418,-672 424,-666 430,-666"/>
<polygon fill="white" stroke="none" points="426,-670 426,-764 641,-764 641,-670 426,-670"/>
<polygon fill="black" stroke="none" points="428,-741 428,-762 639,-762 639,-741 428,-741"/>
<text text-anchor="start" x="517" y="-745.7" font-family="Courier New" font-size="14.00" fill="white">ne98</text>
<polygon fill="grey" stroke="none" points="428,-718 428,-739 541,-739 541,-718 428,-718"/>
<text text-anchor="start" x="488.5" y="-722.7" font-family="Courier New" font-size="14.00">Border</text>
<text text-anchor="start" x="546" y="-722.7" font-family="Courier New" font-size="14.00">SB02</text>
<polygon fill="grey" stroke="none" points="428,-695 428,-716 541,-716 541,-695 428,-695"/>
<text text-anchor="start" x="430.88" y="-699.7" font-family="Courier New" font-size="14.00">LevelCrossing</text>
<text text-anchor="start" x="546" y="-699.7" font-family="Courier New" font-size="14.00">Lc01 Lc02</text>
<polygon fill="grey" stroke="none" points="428,-672 428,-693 541,-693 541,-672 428,-672"/>
<text text-anchor="start" x="488.5" y="-676.7" font-family="Courier New" font-size="14.00">Signal</text>
<text text-anchor="start" x="545.62" y="-676.7" font-family="Courier New" font-size="14.00">L30 X52 X53</text>
</g>
<!-- ne98&#45;&#45;ne99 -->
<g id="edge22" class="edge">
<title>ne98&#45;&#45;ne99</title>
<path fill="none" stroke="black" d="M649.29,-748.59C694.21,-760.95 743.53,-774.52 779.66,-784.46"/>
</g>
<!-- ne98&#45;&#45;ne996 -->
<g id="edge21" class="edge">
<title>ne98&#45;&#45;ne996</title>
<path fill="none" stroke="black" d="M640.75,-665.87C643.72,-662.75 646.49,-659.47 649,-656 703.77,-580.37 626.62,-521.88 685,-449 703.37,-426.08 731.81,-411.68 758.84,-402.67"/>
</g>
<!-- ne100 -->
<g id="node25" class="node">
<title>ne100</title>
<path fill="white" stroke="black" stroke-width="2" d="M697,-858C697,-858 970,-858 970,-858 976,-858 982,-864 982,-870 982,-870 982,-948 982,-948 982,-954 976,-960 970,-960 970,-960 697,-960 697,-960 691,-960 685,-954 685,-948 685,-948 685,-870 685,-870 685,-864 691,-858 697,-858"/>
<polygon fill="white" stroke="none" points="693,-862 693,-956 974,-956 974,-862 693,-862"/>
<polygon fill="black" stroke="none" points="695,-933 695,-954 972,-954 972,-933 695,-933"/>
<text text-anchor="start" x="812.88" y="-937.7" font-family="Courier New" font-size="14.00" fill="white">ne100</text>
<polygon fill="grey" stroke="none" points="695,-910 695,-931 808,-931 808,-910 695,-910"/>
<text text-anchor="start" x="755.5" y="-914.7" font-family="Courier New" font-size="14.00">Border</text>
<text text-anchor="start" x="813" y="-914.7" font-family="Courier New" font-size="14.00">SB04</text>
<polygon fill="grey" stroke="none" points="695,-887 695,-908 808,-908 808,-887 695,-887"/>
<text text-anchor="start" x="697.88" y="-891.7" font-family="Courier New" font-size="14.00">LevelCrossing</text>
<text text-anchor="start" x="812.62" y="-891.7" font-family="Courier New" font-size="14.00">Lc03 Lc04 Lc05 Lc06</text>
<polygon fill="grey" stroke="none" points="695,-864 695,-885 808,-885 808,-864 695,-864"/>
<text text-anchor="start" x="755.5" y="-868.7" font-family="Courier New" font-size="14.00">Signal</text>
<text text-anchor="start" x="812.62" y="-868.7" font-family="Courier New" font-size="14.00">L31 X58 X59 X60 X61</text>
</g>
<!-- ne100&#45;&#45;ne992 -->
<g id="edge23" class="edge">
<title>ne100&#45;&#45;ne992</title>
<path fill="none" stroke="black" d="M978.06,-960.44C997.53,-967.42 1016.82,-974.33 1034.34,-980.61"/>
</g>
<!-- ne101 -->
<g id="node26" class="node">
<title>ne101</title>
<path fill="white" stroke="black" stroke-width="2" d="M1051,-857.5C1051,-857.5 1167,-857.5 1167,-857.5 1173,-857.5 1179,-863.5 1179,-869.5 1179,-869.5 1179,-924.5 1179,-924.5 1179,-930.5 1173,-936.5 1167,-936.5 1167,-936.5 1051,-936.5 1051,-936.5 1045,-936.5 1039,-930.5 1039,-924.5 1039,-924.5 1039,-869.5 1039,-869.5 1039,-863.5 1045,-857.5 1051,-857.5"/>
<polygon fill="white" stroke="none" points="1047,-861.5 1047,-932.5 1171,-932.5 1171,-861.5 1047,-861.5"/>
<polygon fill="black" stroke="none" points="1049,-909.5 1049,-930.5 1169,-930.5 1169,-909.5 1049,-909.5"/>
<text text-anchor="start" x="1088.38" y="-914.2" font-family="Courier New" font-size="14.00" fill="white">ne101</text>
<polygon fill="grey" stroke="none" points="1049,-886.5 1049,-907.5 1104,-907.5 1104,-886.5 1049,-886.5"/>
<text text-anchor="start" x="1051.75" y="-891.2" font-family="Courier New" font-size="14.00">Switch</text>
<text text-anchor="start" x="1109" y="-891.2" font-family="Courier New" font-size="14.00">D09</text>
<polygon fill="grey" stroke="none" points="1049,-863.5 1049,-884.5 1104,-884.5 1104,-863.5 1049,-863.5"/>
<text text-anchor="start" x="1051.75" y="-868.2" font-family="Courier New" font-size="14.00">Signal</text>
<text text-anchor="start" x="1108.62" y="-868.2" font-family="Courier New" font-size="14.00">J43 S67</text>
</g>
<!-- ne100&#45;&#45;ne101 -->
<g id="edge24" class="edge">
<title>ne100&#45;&#45;ne101</title>
<path fill="none" stroke="black" d="M982.46,-902.51C1002.09,-901.65 1021.42,-900.8 1038.8,-900.04"/>
</g>
<!-- ne101&#45;&#45;ne912 -->
<g id="edge25" class="edge">
<title>ne101&#45;&#45;ne912</title>
<path fill="none" stroke="black" d="M1179.25,-868.51C1201.18,-859.49 1225.49,-849.49 1247.72,-840.35"/>
</g>
<!-- ne910 -->
<g id="node28" class="node">
<title>ne910</title>
<path fill="white" stroke="black" stroke-width="2" d="M1490,-543.5C1490,-543.5 1573,-543.5 1573,-543.5 1579,-543.5 1585,-549.5 1585,-555.5 1585,-555.5 1585,-610.5 1585,-610.5 1585,-616.5 1579,-622.5 1573,-622.5 1573,-622.5 1490,-622.5 1490,-622.5 1484,-622.5 1478,-616.5 1478,-610.5 1478,-610.5 1478,-555.5 1478,-555.5 1478,-549.5 1484,-543.5 1490,-543.5"/>
<polygon fill="white" stroke="none" points="1486,-547.5 1486,-618.5 1577,-618.5 1577,-547.5 1486,-547.5"/>
<polygon fill="black" stroke="none" points="1488,-595.5 1488,-616.5 1575,-616.5 1575,-595.5 1488,-595.5"/>
<text text-anchor="start" x="1510.88" y="-600.2" font-family="Courier New" font-size="14.00" fill="white">ne910</text>
<polygon fill="grey" stroke="none" points="1488,-572.5 1488,-593.5 1543,-593.5 1543,-572.5 1488,-572.5"/>
<text text-anchor="start" x="1490.75" y="-577.2" font-family="Courier New" font-size="14.00">Switch</text>
<text text-anchor="start" x="1547.62" y="-577.2" font-family="Courier New" font-size="14.00">D10</text>
<polygon fill="grey" stroke="none" points="1488,-549.5 1488,-570.5 1543,-570.5 1543,-549.5 1488,-549.5"/>
<text text-anchor="start" x="1490.75" y="-554.2" font-family="Courier New" font-size="14.00">Signal</text>
<text text-anchor="start" x="1547.62" y="-554.2" font-family="Courier New" font-size="14.00">S90</text>
</g>
<!-- ne101&#45;&#45;ne910 -->
<g id="edge26" class="edge">
<title>ne101&#45;&#45;ne910</title>
<path fill="none" stroke="black" d="M1179.4,-906.35C1245,-911.32 1342.96,-908.3 1409,-859 1486.09,-801.45 1515.11,-684.32 1525.35,-622.79"/>
</g>
<!-- ne102 -->
<g id="node29" class="node">
<title>ne102</title>
<path fill="white" stroke="black" stroke-width="2" d="M459,-567.5C459,-567.5 608,-567.5 608,-567.5 614,-567.5 620,-573.5 620,-579.5 620,-579.5 620,-634.5 620,-634.5 620,-640.5 614,-646.5 608,-646.5 608,-646.5 459,-646.5 459,-646.5 453,-646.5 447,-640.5 447,-634.5 447,-634.5 447,-579.5 447,-579.5 447,-573.5 453,-567.5 459,-567.5"/>
<polygon fill="white" stroke="none" points="455,-571.5 455,-642.5 612,-642.5 612,-571.5 455,-571.5"/>
<polygon fill="black" stroke="none" points="457,-619.5 457,-640.5 610,-640.5 610,-619.5 457,-619.5"/>
<text text-anchor="start" x="512.88" y="-624.2" font-family="Courier New" font-size="14.00" fill="white">ne102</text>
<polygon fill="grey" stroke="none" points="457,-596.5 457,-617.5 545,-617.5 545,-596.5 457,-596.5"/>
<text text-anchor="start" x="459.75" y="-601.2" font-family="Courier New" font-size="14.00">BufferStop</text>
<text text-anchor="start" x="550" y="-601.2" font-family="Courier New" font-size="14.00">Buf02</text>
<polygon fill="grey" stroke="none" points="457,-573.5 457,-594.5 545,-594.5 545,-573.5 457,-573.5"/>
<text text-anchor="start" x="492.5" y="-578.2" font-family="Courier New" font-size="14.00">Signal</text>
<text text-anchor="start" x="549.62" y="-578.2" font-family="Courier New" font-size="14.00">T11 T12</text>
</g>
<!-- ne102&#45;&#45;ne114 -->
<g id="edge27" class="edge">
<title>ne102&#45;&#45;ne114</title>
<path fill="none" stroke="black" d="M620.29,-607.29C658.47,-607.42 703.43,-607.57 742.12,-607.7"/>
</g>
<!-- ne104 -->
<g id="node30" class="node">
<title>ne104</title>
<path fill="white" stroke="black" stroke-width="2" d="M759,-0.5C759,-0.5 908,-0.5 908,-0.5 914,-0.5 920,-6.5 920,-12.5 920,-12.5 920,-67.5 920,-67.5 920,-73.5 914,-79.5 908,-79.5 908,-79.5 759,-79.5 759,-79.5 753,-79.5 747,-73.5 747,-67.5 747,-67.5 747,-12.5 747,-12.5 747,-6.5 753,-0.5 759,-0.5"/>
<polygon fill="white" stroke="none" points="755,-4.5 755,-75.5 912,-75.5 912,-4.5 755,-4.5"/>
<polygon fill="black" stroke="none" points="757,-52.5 757,-73.5 910,-73.5 910,-52.5 757,-52.5"/>
<text text-anchor="start" x="812.88" y="-57.2" font-family="Courier New" font-size="14.00" fill="white">ne104</text>
<polygon fill="grey" stroke="none" points="757,-29.5 757,-50.5 845,-50.5 845,-29.5 757,-29.5"/>
<text text-anchor="start" x="759.75" y="-34.2" font-family="Courier New" font-size="14.00">BufferStop</text>
<text text-anchor="start" x="850" y="-34.2" font-family="Courier New" font-size="14.00">Buf03</text>
<polygon fill="grey" stroke="none" points="757,-6.5 757,-27.5 845,-27.5 845,-6.5 757,-6.5"/>
<text text-anchor="start" x="792.5" y="-11.2" font-family="Courier New" font-size="14.00">Signal</text>
<text text-anchor="start" x="849.62" y="-11.2" font-family="Courier New" font-size="14.00">T13 T14</text>
</g>
<!-- ne104&#45;&#45;ne384 -->
<g id="edge28" class="edge">
<title>ne104&#45;&#45;ne384</title>
<path fill="none" stroke="black" d="M920.29,-56.62C962.74,-64.85 1012.84,-74.56 1050.6,-81.88"/>
</g>
<!-- ne110 -->
<g id="node31" class="node">
<title>ne110</title>
<path fill="white" stroke="black" stroke-width="2" d="M45,-114C45,-114 128,-114 128,-114 134,-114 140,-120 140,-126 140,-126 140,-158 140,-158 140,-164 134,-170 128,-170 128,-170 45,-170 45,-170 39,-170 33,-164 33,-158 33,-158 33,-126 33,-126 33,-120 39,-114 45,-114"/>
<polygon fill="white" stroke="none" points="41,-118 41,-166 132,-166 132,-118 41,-118"/>
<polygon fill="black" stroke="none" points="43,-143 43,-164 130,-164 130,-143 43,-143"/>
<text text-anchor="start" x="65.88" y="-147.7" font-family="Courier New" font-size="14.00" fill="white">ne110</text>
<polygon fill="grey" stroke="none" points="43,-120 43,-141 98,-141 98,-120 43,-120"/>
<text text-anchor="start" x="45.75" y="-124.7" font-family="Courier New" font-size="14.00">Signal</text>
<text text-anchor="start" x="102.62" y="-124.7" font-family="Courier New" font-size="14.00">B76</text>
</g>
<!-- ne110&#45;&#45;ne288 -->
<g id="edge30" class="edge">
<title>ne110&#45;&#45;ne288</title>
<path fill="none" stroke="black" d="M140.27,-150.67C171.41,-155.78 210.7,-162.24 241.83,-167.35"/>
</g>
<!-- ne110&#45;&#45;ne384 -->
<g id="edge29" class="edge">
<title>ne110&#45;&#45;ne384</title>
<path fill="none" stroke="black" d="M140.33,-134.49C161.62,-131.72 186.44,-128.82 209,-127 526.21,-101.47 907.96,-95.04 1050.58,-93.48"/>
</g>
<!-- ne111 -->
<g id="node32" class="node">
<title>ne111</title>
<path fill="white" stroke="black" stroke-width="2" d="M64.38,-362C64.38,-362 108.62,-362 108.62,-362 114.62,-362 120.62,-368 120.62,-374 120.62,-374 120.62,-386 120.62,-386 120.62,-392 114.62,-398 108.62,-398 108.62,-398 64.38,-398 64.38,-398 58.38,-398 52.38,-392 52.38,-386 52.38,-386 52.38,-374 52.38,-374 52.38,-368 58.38,-362 64.38,-362"/>
<polygon fill="white" stroke="none" points="60.38,-367.25 60.38,-393 112.62,-393 112.62,-367.25 60.38,-367.25"/>
<polygon fill="black" stroke="none" points="62.38,-369.25 62.38,-391 110.62,-391 110.62,-369.25 62.38,-369.25"/>
<text text-anchor="start" x="65.88" y="-374.7" font-family="Courier New" font-size="14.00" fill="white">ne111</text>
</g>
<!-- ne111&#45;&#45;ne290 -->
<g id="edge31" class="edge">
<title>ne111&#45;&#45;ne290</title>
<path fill="none" stroke="black" d="M120.76,-382.57C148.87,-384.74 190.08,-387.93 225.31,-390.65"/>
</g>
<!-- ne377 -->
<g id="node33" class="node">
<title>ne377</title>
<path fill="white" stroke="black" stroke-width="2" d="M221,-235C221,-235 370,-235 370,-235 376,-235 382,-241 382,-247 382,-247 382,-325 382,-325 382,-331 376,-337 370,-337 370,-337 221,-337 221,-337 215,-337 209,-331 209,-325 209,-325 209,-247 209,-247 209,-241 215,-235 221,-235"/>
<polygon fill="white" stroke="none" points="217,-239 217,-333 374,-333 374,-239 217,-239"/>
<polygon fill="black" stroke="none" points="219,-310 219,-331 372,-331 372,-310 219,-310"/>
<text text-anchor="start" x="274.88" y="-314.7" font-family="Courier New" font-size="14.00" fill="white">ne377</text>
<polygon fill="grey" stroke="none" points="219,-287 219,-308 307,-308 307,-287 219,-287"/>
<text text-anchor="start" x="254.5" y="-291.7" font-family="Courier New" font-size="14.00">Switch</text>
<text text-anchor="start" x="312" y="-291.7" font-family="Courier New" font-size="14.00">D15</text>
<polygon fill="grey" stroke="none" points="219,-264 219,-285 307,-285 307,-264 219,-264"/>
<text text-anchor="start" x="221.75" y="-268.7" font-family="Courier New" font-size="14.00">BufferStop</text>
<text text-anchor="start" x="312" y="-268.7" font-family="Courier New" font-size="14.00">Buf04</text>
<polygon fill="grey" stroke="none" points="219,-241 219,-262 307,-262 307,-241 219,-241"/>
<text text-anchor="start" x="254.5" y="-245.7" font-family="Courier New" font-size="14.00">Signal</text>
<text text-anchor="start" x="311.62" y="-245.7" font-family="Courier New" font-size="14.00">T03 T04</text>
</g>
<!-- ne111&#45;&#45;ne377 -->
<g id="edge32" class="edge">
<title>ne111&#45;&#45;ne377</title>
<path fill="none" stroke="black" d="M120.76,-364.9C144.53,-354.1 177.66,-339.06 208.62,-325"/>
</g>
<!-- ne113 -->
<g id="node34" class="node">
<title>ne113</title>
<path fill="white" stroke="black" stroke-width="2" d="M12,-246.5C12,-246.5 161,-246.5 161,-246.5 167,-246.5 173,-252.5 173,-258.5 173,-258.5 173,-313.5 173,-313.5 173,-319.5 167,-325.5 161,-325.5 161,-325.5 12,-325.5 12,-325.5 6,-325.5 0,-319.5 0,-313.5 0,-313.5 0,-258.5 0,-258.5 0,-252.5 6,-246.5 12,-246.5"/>
<polygon fill="white" stroke="none" points="8,-250.5 8,-321.5 165,-321.5 165,-250.5 8,-250.5"/>
<polygon fill="black" stroke="none" points="10,-298.5 10,-319.5 163,-319.5 163,-298.5 10,-298.5"/>
<text text-anchor="start" x="65.88" y="-303.2" font-family="Courier New" font-size="14.00" fill="white">ne113</text>
<polygon fill="grey" stroke="none" points="10,-275.5 10,-296.5 98,-296.5 98,-275.5 10,-275.5"/>
<text text-anchor="start" x="12.75" y="-280.2" font-family="Courier New" font-size="14.00">BufferStop</text>
<text text-anchor="start" x="103" y="-280.2" font-family="Courier New" font-size="14.00">Buf06</text>
<polygon fill="grey" stroke="none" points="10,-252.5 10,-273.5 98,-273.5 98,-252.5 10,-252.5"/>
<text text-anchor="start" x="45.5" y="-257.2" font-family="Courier New" font-size="14.00">Signal</text>
<text text-anchor="start" x="102.62" y="-257.2" font-family="Courier New" font-size="14.00">T15 T16</text>
</g>
<!-- ne113&#45;&#45;ne377 -->
<g id="edge33" class="edge">
<title>ne113&#45;&#45;ne377</title>
<path fill="none" stroke="black" d="M173.49,-286C185.15,-286 197.12,-286 208.78,-286"/>
</g>
<!-- ne122 -->
<g id="node35" class="node">
<title>ne122</title>
<path fill="white" stroke="black" stroke-width="2" d="M12,-922.5C12,-922.5 161,-922.5 161,-922.5 167,-922.5 173,-928.5 173,-934.5 173,-934.5 173,-989.5 173,-989.5 173,-995.5 167,-1001.5 161,-1001.5 161,-1001.5 12,-1001.5 12,-1001.5 6,-1001.5 0,-995.5 0,-989.5 0,-989.5 0,-934.5 0,-934.5 0,-928.5 6,-922.5 12,-922.5"/>
<polygon fill="white" stroke="none" points="8,-926.5 8,-997.5 165,-997.5 165,-926.5 8,-926.5"/>
<polygon fill="black" stroke="none" points="10,-974.5 10,-995.5 163,-995.5 163,-974.5 10,-974.5"/>
<text text-anchor="start" x="65.88" y="-979.2" font-family="Courier New" font-size="14.00" fill="white">ne122</text>
<polygon fill="grey" stroke="none" points="10,-951.5 10,-972.5 98,-972.5 98,-951.5 10,-951.5"/>
<text text-anchor="start" x="12.75" y="-956.2" font-family="Courier New" font-size="14.00">BufferStop</text>
<text text-anchor="start" x="103" y="-956.2" font-family="Courier New" font-size="14.00">Buf07</text>
<polygon fill="grey" stroke="none" points="10,-928.5 10,-949.5 98,-949.5 98,-928.5 10,-928.5"/>
<text text-anchor="start" x="45.5" y="-933.2" font-family="Courier New" font-size="14.00">Signal</text>
<text text-anchor="start" x="102.62" y="-933.2" font-family="Courier New" font-size="14.00">T17 T18</text>
</g>
<!-- ne122&#45;&#45;ne407 -->
<g id="edge34" class="edge">
<title>ne122&#45;&#45;ne407</title>
<path fill="none" stroke="black" d="M173.49,-954.11C194.93,-952.14 217.4,-950.08 237.08,-948.27"/>
</g>
<!-- ne123 -->
<g id="node36" class="node">
<title>ne123</title>
<path fill="white" stroke="black" stroke-width="2" d="M45,-847C45,-847 128,-847 128,-847 134,-847 140,-853 140,-859 140,-859 140,-891 140,-891 140,-897 134,-903 128,-903 128,-903 45,-903 45,-903 39,-903 33,-897 33,-891 33,-891 33,-859 33,-859 33,-853 39,-847 45,-847"/>
<polygon fill="white" stroke="none" points="41,-851 41,-899 132,-899 132,-851 41,-851"/>
<polygon fill="black" stroke="none" points="43,-876 43,-897 130,-897 130,-876 43,-876"/>
<text text-anchor="start" x="65.88" y="-880.7" font-family="Courier New" font-size="14.00" fill="white">ne123</text>
<polygon fill="grey" stroke="none" points="43,-853 43,-874 98,-874 98,-853 43,-853"/>
<text text-anchor="start" x="45.75" y="-857.7" font-family="Courier New" font-size="14.00">Signal</text>
<text text-anchor="start" x="102.62" y="-857.7" font-family="Courier New" font-size="14.00">B86</text>
</g>
<!-- ne123&#45;&#45;ne61 -->
<g id="edge36" class="edge">
<title>ne123&#45;&#45;ne61</title>
<path fill="none" stroke="black" d="M140.39,-876.2C199.5,-878.06 297.96,-882.69 382,-894 414.65,-898.39 450.83,-905.76 479.52,-912.21"/>
</g>
<!-- ne123&#45;&#45;ne407 -->
<g id="edge35" class="edge">
<title>ne123&#45;&#45;ne407</title>
<path fill="none" stroke="black" d="M140.27,-892.34C169.86,-902.05 206.79,-914.19 237.1,-924.14"/>
</g>
<!-- ne124 -->
<g id="node37" class="node">
<title>ne124</title>
<path fill="white" stroke="black" stroke-width="2" d="M273.38,-697C273.38,-697 317.62,-697 317.62,-697 323.62,-697 329.62,-703 329.62,-709 329.62,-709 329.62,-721 329.62,-721 329.62,-727 323.62,-733 317.62,-733 317.62,-733 273.38,-733 273.38,-733 267.38,-733 261.38,-727 261.38,-721 261.38,-721 261.38,-709 261.38,-709 261.38,-703 267.38,-697 273.38,-697"/>
<polygon fill="white" stroke="none" points="269.38,-702.25 269.38,-728 321.62,-728 321.62,-702.25 269.38,-702.25"/>
<polygon fill="black" stroke="none" points="271.38,-704.25 271.38,-726 319.62,-726 319.62,-704.25 271.38,-704.25"/>
<text text-anchor="start" x="274.88" y="-709.7" font-family="Courier New" font-size="14.00" fill="white">ne124</text>
</g>
<!-- ne124&#45;&#45;ne63 -->
<g id="edge37" class="edge">
<title>ne124&#45;&#45;ne63</title>
<path fill="none" stroke="black" d="M329.95,-733.19C354.17,-746.16 387.82,-763.74 418,-778 431,-784.14 444.97,-790.4 458.54,-796.3"/>
</g>
<!-- ne421 -->
<g id="node38" class="node">
<title>ne421</title>
<path fill="white" stroke="black" stroke-width="2" d="M459,-446C459,-446 608,-446 608,-446 614,-446 620,-452 620,-458 620,-458 620,-536 620,-536 620,-542 614,-548 608,-548 608,-548 459,-548 459,-548 453,-548 447,-542 447,-536 447,-536 447,-458 447,-458 447,-452 453,-446 459,-446"/>
<polygon fill="white" stroke="none" points="455,-450 455,-544 612,-544 612,-450 455,-450"/>
<polygon fill="black" stroke="none" points="457,-521 457,-542 610,-542 610,-521 457,-521"/>
<text text-anchor="start" x="512.88" y="-525.7" font-family="Courier New" font-size="14.00" fill="white">ne421</text>
<polygon fill="grey" stroke="none" points="457,-498 457,-519 545,-519 545,-498 457,-498"/>
<text text-anchor="start" x="492.5" y="-502.7" font-family="Courier New" font-size="14.00">Switch</text>
<text text-anchor="start" x="550" y="-502.7" font-family="Courier New" font-size="14.00">D19</text>
<polygon fill="grey" stroke="none" points="457,-475 457,-496 545,-496 545,-475 457,-475"/>
<text text-anchor="start" x="459.75" y="-479.7" font-family="Courier New" font-size="14.00">BufferStop</text>
<text text-anchor="start" x="550" y="-479.7" font-family="Courier New" font-size="14.00">Buf09</text>
<polygon fill="grey" stroke="none" points="457,-452 457,-473 545,-473 545,-452 457,-452"/>
<text text-anchor="start" x="492.5" y="-456.7" font-family="Courier New" font-size="14.00">Signal</text>
<text text-anchor="start" x="549.62" y="-456.7" font-family="Courier New" font-size="14.00">T05 T06</text>
</g>
<!-- ne124&#45;&#45;ne421 -->
<g id="edge38" class="edge">
<title>ne124&#45;&#45;ne421</title>
<path fill="none" stroke="black" d="M306.88,-697C325.72,-665.56 368.21,-600.01 418,-558 426.78,-550.59 436.61,-543.72 446.71,-537.45"/>
</g>
<!-- ne126 -->
<g id="node39" class="node">
<title>ne126</title>
<path fill="white" stroke="black" stroke-width="2" d="M221,-457.5C221,-457.5 370,-457.5 370,-457.5 376,-457.5 382,-463.5 382,-469.5 382,-469.5 382,-524.5 382,-524.5 382,-530.5 376,-536.5 370,-536.5 370,-536.5 221,-536.5 221,-536.5 215,-536.5 209,-530.5 209,-524.5 209,-524.5 209,-469.5 209,-469.5 209,-463.5 215,-457.5 221,-457.5"/>
<polygon fill="white" stroke="none" points="217,-461.5 217,-532.5 374,-532.5 374,-461.5 217,-461.5"/>
<polygon fill="black" stroke="none" points="219,-509.5 219,-530.5 372,-530.5 372,-509.5 219,-509.5"/>
<text text-anchor="start" x="274.88" y="-514.2" font-family="Courier New" font-size="14.00" fill="white">ne126</text>
<polygon fill="grey" stroke="none" points="219,-486.5 219,-507.5 307,-507.5 307,-486.5 219,-486.5"/>
<text text-anchor="start" x="221.75" y="-491.2" font-family="Courier New" font-size="14.00">BufferStop</text>
<text text-anchor="start" x="312" y="-491.2" font-family="Courier New" font-size="14.00">Buf10</text>
<polygon fill="grey" stroke="none" points="219,-463.5 219,-484.5 307,-484.5 307,-463.5 219,-463.5"/>
<text text-anchor="start" x="254.5" y="-468.2" font-family="Courier New" font-size="14.00">Signal</text>
<text text-anchor="start" x="311.62" y="-468.2" font-family="Courier New" font-size="14.00">T19 T20</text>
</g>
<!-- ne126&#45;&#45;ne421 -->
<g id="edge39" class="edge">
<title>ne126&#45;&#45;ne421</title>
<path fill="none" stroke="black" d="M382.37,-497C403.32,-497 425.74,-497 446.69,-497"/>
</g>
<!-- ne127 -->
<g id="node40" class="node">
<title>ne127</title>
<path fill="white" stroke="black" stroke-width="2" d="M767,-458.5C767,-458.5 900,-458.5 900,-458.5 906,-458.5 912,-464.5 912,-470.5 912,-470.5 912,-525.5 912,-525.5 912,-531.5 906,-537.5 900,-537.5 900,-537.5 767,-537.5 767,-537.5 761,-537.5 755,-531.5 755,-525.5 755,-525.5 755,-470.5 755,-470.5 755,-464.5 761,-458.5 767,-458.5"/>
<polygon fill="white" stroke="none" points="763,-462.5 763,-533.5 904,-533.5 904,-462.5 763,-462.5"/>
<polygon fill="black" stroke="none" points="765,-510.5 765,-531.5 902,-531.5 902,-510.5 765,-510.5"/>
<text text-anchor="start" x="812.88" y="-515.2" font-family="Courier New" font-size="14.00" fill="white">ne127</text>
<polygon fill="grey" stroke="none" points="765,-487.5 765,-508.5 820,-508.5 820,-487.5 765,-487.5"/>
<text text-anchor="start" x="767.75" y="-492.2" font-family="Courier New" font-size="14.00">Switch</text>
<text text-anchor="start" x="825" y="-492.2" font-family="Courier New" font-size="14.00">D12 D24</text>
<polygon fill="grey" stroke="none" points="765,-464.5 765,-485.5 820,-485.5 820,-464.5 765,-464.5"/>
<text text-anchor="start" x="767.75" y="-469.2" font-family="Courier New" font-size="14.00">Signal</text>
<text text-anchor="start" x="824.88" y="-469.2" font-family="Courier New" font-size="14.00">S113 S126</text>
</g>
<!-- ne127&#45;&#45;ne129 -->
<g id="edge40" class="edge">
<title>ne127&#45;&#45;ne129</title>
<path fill="none" stroke="black" d="M912.14,-521.56C957.94,-535.46 1014.69,-552.68 1055.3,-565.01"/>
</g>
<!-- ne450 -->
<g id="node41" class="node">
<title>ne450</title>
<path fill="white" stroke="black" stroke-width="2" d="M1457,-381C1457,-381 1606,-381 1606,-381 1612,-381 1618,-387 1618,-393 1618,-393 1618,-471 1618,-471 1618,-477 1612,-483 1606,-483 1606,-483 1457,-483 1457,-483 1451,-483 1445,-477 1445,-471 1445,-471 1445,-393 1445,-393 1445,-387 1451,-381 1457,-381"/>
<polygon fill="white" stroke="none" points="1453,-385 1453,-479 1610,-479 1610,-385 1453,-385"/>
<polygon fill="black" stroke="none" points="1455,-456 1455,-477 1608,-477 1608,-456 1455,-456"/>
<text text-anchor="start" x="1510.88" y="-460.7" font-family="Courier New" font-size="14.00" fill="white">ne450</text>
<polygon fill="grey" stroke="none" points="1455,-433 1455,-454 1543,-454 1543,-433 1455,-433"/>
<text text-anchor="start" x="1490.5" y="-437.7" font-family="Courier New" font-size="14.00">Switch</text>
<text text-anchor="start" x="1548" y="-437.7" font-family="Courier New" font-size="14.00">D12</text>
<polygon fill="grey" stroke="none" points="1455,-410 1455,-431 1543,-431 1543,-410 1455,-410"/>
<text text-anchor="start" x="1457.75" y="-414.7" font-family="Courier New" font-size="14.00">BufferStop</text>
<text text-anchor="start" x="1548" y="-414.7" font-family="Courier New" font-size="14.00">Buf14</text>
<polygon fill="grey" stroke="none" points="1455,-387 1455,-408 1543,-408 1543,-387 1455,-387"/>
<text text-anchor="start" x="1490.5" y="-391.7" font-family="Courier New" font-size="14.00">Signal</text>
<text text-anchor="start" x="1547.62" y="-391.7" font-family="Courier New" font-size="14.00">T07 T08</text>
</g>
<!-- ne127&#45;&#45;ne450 -->
<g id="edge41" class="edge">
<title>ne127&#45;&#45;ne450</title>
<path fill="none" stroke="black" d="M912.41,-480.72C936.01,-473.28 961.17,-462.99 982,-449 1002.41,-435.29 995.66,-417.27 1018,-407 1156.6,-343.26 1339.1,-375.98 1444.75,-404.64"/>
</g>
<!-- ne135 -->
<g id="node42" class="node">
<title>ne135</title>
<path fill="white" stroke="black" stroke-width="2" d="M1281,-468C1281,-468 1364,-468 1364,-468 1370,-468 1376,-474 1376,-480 1376,-480 1376,-512 1376,-512 1376,-518 1370,-524 1364,-524 1364,-524 1281,-524 1281,-524 1275,-524 1269,-518 1269,-512 1269,-512 1269,-480 1269,-480 1269,-474 1275,-468 1281,-468"/>
<polygon fill="white" stroke="none" points="1277,-472 1277,-520 1368,-520 1368,-472 1277,-472"/>
<polygon fill="black" stroke="none" points="1279,-497 1279,-518 1366,-518 1366,-497 1279,-497"/>
<text text-anchor="start" x="1301.88" y="-501.7" font-family="Courier New" font-size="14.00" fill="white">ne135</text>
<polygon fill="grey" stroke="none" points="1279,-474 1279,-495 1334,-495 1334,-474 1279,-474"/>
<text text-anchor="start" x="1281.75" y="-478.7" font-family="Courier New" font-size="14.00">Signal</text>
<text text-anchor="start" x="1338.62" y="-478.7" font-family="Courier New" font-size="14.00">B89</text>
</g>
<!-- ne127&#45;&#45;ne135 -->
<g id="edge42" class="edge">
<title>ne127&#45;&#45;ne135</title>
<path fill="none" stroke="black" d="M912.24,-502.01C986.25,-505.24 1100.74,-508.67 1200,-505 1222.51,-504.17 1247.32,-502.47 1268.62,-500.77"/>
</g>
<!-- ne134 -->
<g id="node43" class="node">
<title>ne134</title>
<path fill="white" stroke="black" stroke-width="2" d="M1034.5,-416.5C1034.5,-416.5 1183.5,-416.5 1183.5,-416.5 1189.5,-416.5 1195.5,-422.5 1195.5,-428.5 1195.5,-428.5 1195.5,-483.5 1195.5,-483.5 1195.5,-489.5 1189.5,-495.5 1183.5,-495.5 1183.5,-495.5 1034.5,-495.5 1034.5,-495.5 1028.5,-495.5 1022.5,-489.5 1022.5,-483.5 1022.5,-483.5 1022.5,-428.5 1022.5,-428.5 1022.5,-422.5 1028.5,-416.5 1034.5,-416.5"/>
<polygon fill="white" stroke="none" points="1030.5,-420.5 1030.5,-491.5 1187.5,-491.5 1187.5,-420.5 1030.5,-420.5"/>
<polygon fill="black" stroke="none" points="1032.5,-468.5 1032.5,-489.5 1185.5,-489.5 1185.5,-468.5 1032.5,-468.5"/>
<text text-anchor="start" x="1088.38" y="-473.2" font-family="Courier New" font-size="14.00" fill="white">ne134</text>
<polygon fill="grey" stroke="none" points="1032.5,-445.5 1032.5,-466.5 1120.5,-466.5 1120.5,-445.5 1032.5,-445.5"/>
<text text-anchor="start" x="1035.25" y="-450.2" font-family="Courier New" font-size="14.00">BufferStop</text>
<text text-anchor="start" x="1125.5" y="-450.2" font-family="Courier New" font-size="14.00">Buf13</text>
<polygon fill="grey" stroke="none" points="1032.5,-422.5 1032.5,-443.5 1120.5,-443.5 1120.5,-422.5 1032.5,-422.5"/>
<text text-anchor="start" x="1068" y="-427.2" font-family="Courier New" font-size="14.00">Signal</text>
<text text-anchor="start" x="1125.12" y="-427.2" font-family="Courier New" font-size="14.00">T23 T24</text>
</g>
<!-- ne127&#45;&#45;ne134 -->
<g id="edge43" class="edge">
<title>ne127&#45;&#45;ne134</title>
<path fill="none" stroke="black" d="M912.14,-486.08C946.57,-480.79 987.19,-474.55 1022.48,-469.13"/>
</g>
<!-- ne135&#45;&#45;ne910 -->
<g id="edge51" class="edge">
<title>ne135&#45;&#45;ne910</title>
<path fill="none" stroke="black" d="M1376.27,-518.18C1407.41,-531.27 1446.7,-547.78 1477.83,-560.86"/>
</g>
<!-- ne130&#45;&#45;ne910 -->
<g id="edge46" class="edge">
<title>ne130&#45;&#45;ne910</title>
<path fill="none" stroke="black" d="M1397.36,-583C1423.94,-583 1453.38,-583 1477.8,-583"/>
</g>
<!-- ne130&#45;&#45;ne450 -->
<g id="edge45" class="edge">
<title>ne130&#45;&#45;ne450</title>
<path fill="none" stroke="black" d="M1395.46,-543.02C1400.1,-540.05 1404.65,-537.04 1409,-534 1430.91,-518.71 1453.66,-500.36 1473.46,-483.47"/>
</g>
<!-- ne131 -->
<g id="node45" class="node">
<title>ne131</title>
<path fill="white" stroke="black" stroke-width="2" d="M1086.88,-727C1086.88,-727 1131.12,-727 1131.12,-727 1137.12,-727 1143.12,-733 1143.12,-739 1143.12,-739 1143.12,-751 1143.12,-751 1143.12,-757 1137.12,-763 1131.12,-763 1131.12,-763 1086.88,-763 1086.88,-763 1080.88,-763 1074.88,-757 1074.88,-751 1074.88,-751 1074.88,-739 1074.88,-739 1074.88,-733 1080.88,-727 1086.88,-727"/>
<polygon fill="white" stroke="none" points="1082.88,-732.25 1082.88,-758 1135.12,-758 1135.12,-732.25 1082.88,-732.25"/>
<polygon fill="black" stroke="none" points="1084.88,-734.25 1084.88,-756 1133.12,-756 1133.12,-734.25 1084.88,-734.25"/>
<text text-anchor="start" x="1088.38" y="-739.7" font-family="Courier New" font-size="14.00" fill="white">ne131</text>
</g>
<!-- ne131&#45;&#45;ne912 -->
<g id="edge47" class="edge">
<title>ne131&#45;&#45;ne912</title>
<path fill="none" stroke="black" d="M1143.51,-755.3C1171.47,-763.89 1212.32,-776.45 1247.84,-787.36"/>
</g>
<!-- ne465 -->
<g id="node46" class="node">
<title>ne465</title>
<path fill="white" stroke="black" stroke-width="2" d="M1248,-645C1248,-645 1397,-645 1397,-645 1403,-645 1409,-651 1409,-657 1409,-657 1409,-735 1409,-735 1409,-741 1403,-747 1397,-747 1397,-747 1248,-747 1248,-747 1242,-747 1236,-741 1236,-735 1236,-735 1236,-657 1236,-657 1236,-651 1242,-645 1248,-645"/>
<polygon fill="white" stroke="none" points="1244,-649 1244,-743 1401,-743 1401,-649 1244,-649"/>
<polygon fill="black" stroke="none" points="1246,-720 1246,-741 1399,-741 1399,-720 1246,-720"/>
<text text-anchor="start" x="1301.88" y="-724.7" font-family="Courier New" font-size="14.00" fill="white">ne465</text>
<polygon fill="grey" stroke="none" points="1246,-697 1246,-718 1334,-718 1334,-697 1246,-697"/>
<text text-anchor="start" x="1281.5" y="-701.7" font-family="Courier New" font-size="14.00">Switch</text>
<text text-anchor="start" x="1339" y="-701.7" font-family="Courier New" font-size="14.00">D21</text>
<polygon fill="grey" stroke="none" points="1246,-674 1246,-695 1334,-695 1334,-674 1246,-674"/>
<text text-anchor="start" x="1248.75" y="-678.7" font-family="Courier New" font-size="14.00">BufferStop</text>
<text text-anchor="start" x="1339" y="-678.7" font-family="Courier New" font-size="14.00">Buf11</text>
<polygon fill="grey" stroke="none" points="1246,-651 1246,-672 1334,-672 1334,-651 1246,-651"/>
<text text-anchor="start" x="1281.5" y="-655.7" font-family="Courier New" font-size="14.00">Signal</text>
<text text-anchor="start" x="1338.62" y="-655.7" font-family="Courier New" font-size="14.00">T09 T10</text>
</g>
<!-- ne131&#45;&#45;ne465 -->
<g id="edge48" class="edge">
<title>ne131&#45;&#45;ne465</title>
<path fill="none" stroke="black" d="M1143.51,-737.24C1168.32,-731.49 1203.29,-723.39 1235.68,-715.88"/>
</g>
<!-- ne133 -->
<g id="node47" class="node">
<title>ne133</title>
<path fill="white" stroke="black" stroke-width="2" d="M1034.5,-628.5C1034.5,-628.5 1183.5,-628.5 1183.5,-628.5 1189.5,-628.5 1195.5,-634.5 1195.5,-640.5 1195.5,-640.5 1195.5,-695.5 1195.5,-695.5 1195.5,-701.5 1189.5,-707.5 1183.5,-707.5 1183.5,-707.5 1034.5,-707.5 1034.5,-707.5 1028.5,-707.5 1022.5,-701.5 1022.5,-695.5 1022.5,-695.5 1022.5,-640.5 1022.5,-640.5 1022.5,-634.5 1028.5,-628.5 1034.5,-628.5"/>
<polygon fill="white" stroke="none" points="1030.5,-632.5 1030.5,-703.5 1187.5,-703.5 1187.5,-632.5 1030.5,-632.5"/>
<polygon fill="black" stroke="none" points="1032.5,-680.5 1032.5,-701.5 1185.5,-701.5 1185.5,-680.5 1032.5,-680.5"/>
<text text-anchor="start" x="1088.38" y="-685.2" font-family="Courier New" font-size="14.00" fill="white">ne133</text>
<polygon fill="grey" stroke="none" points="1032.5,-657.5 1032.5,-678.5 1120.5,-678.5 1120.5,-657.5 1032.5,-657.5"/>
<text text-anchor="start" x="1035.25" y="-662.2" font-family="Courier New" font-size="14.00">BufferStop</text>
<text text-anchor="start" x="1125.5" y="-662.2" font-family="Courier New" font-size="14.00">Buf12</text>
<polygon fill="grey" stroke="none" points="1032.5,-634.5 1032.5,-655.5 1120.5,-655.5 1120.5,-634.5 1032.5,-634.5"/>
<text text-anchor="start" x="1068" y="-639.2" font-family="Courier New" font-size="14.00">Signal</text>
<text text-anchor="start" x="1125.12" y="-639.2" font-family="Courier New" font-size="14.00">T21 T22</text>
</g>
<!-- ne133&#45;&#45;ne465 -->
<g id="edge50" class="edge">
<title>ne133&#45;&#45;ne465</title>
<path fill="none" stroke="black" d="M1195.72,-679.35C1208.89,-681.09 1222.49,-682.89 1235.66,-684.64"/>
</g>
</g>
</svg>
