<?xml version="1.0" encoding="UTF-8" standalone="no"?>
<!DOCTYPE svg PUBLIC "-//W3C//DTD SVG 1.1//EN"
 "http://www.w3.org/Graphics/SVG/1.1/DTD/svg11.dtd">
<!-- Generated by graphviz version 9.0.0 (20230911.1827)
 -->
<!-- Title: finite_state_machine Pages: 1 -->
<svg width="769pt" height="726pt"
 viewBox="0.00 0.00 769.00 726.00" xmlns="http://www.w3.org/2000/svg" xmlns:xlink="http://www.w3.org/1999/xlink">
<g id="graph0" class="graph" transform="scale(1 1) rotate(0) translate(4 722)">
<title>finite_state_machine</title>
<polygon fill="white" stroke="none" points="-4,4 -4,-722 765,-722 765,4 -4,4"/>
<!-- ne1 -->
<g id="node1" class="node">
<title>ne1</title>
<path fill="white" stroke="black" stroke-width="2" d="M368,-364C368,-364 484,-364 484,-364 490,-364 496,-370 496,-376 496,-376 496,-454 496,-454 496,-460 490,-466 484,-466 484,-466 368,-466 368,-466 362,-466 356,-460 356,-454 356,-454 356,-376 356,-376 356,-370 362,-364 368,-364"/>
<polygon fill="white" stroke="none" points="364,-368 364,-462 488,-462 488,-368 364,-368"/>
<polygon fill="black" stroke="none" points="366,-439 366,-460 486,-460 486,-439 366,-439"/>
<text text-anchor="start" x="413.62" y="-443.7" font-family="Courier New" font-size="14.00" fill="white">ne1</text>
<polygon fill="grey" stroke="none" points="366,-416 366,-437 421,-437 421,-416 366,-416"/>
<text text-anchor="start" x="368.75" y="-420.7" font-family="Courier New" font-size="14.00">Switch</text>
<text text-anchor="start" x="426" y="-420.7" font-family="Courier New" font-size="14.00">Sw04</text>
<polygon fill="grey" stroke="none" points="366,-393 366,-414 421,-414 421,-393 366,-393"/>
<text text-anchor="start" x="368.75" y="-397.7" font-family="Courier New" font-size="14.00">Border</text>
<text text-anchor="start" x="426" y="-397.7" font-family="Courier New" font-size="14.00">Buf01</text>
<polygon fill="grey" stroke="none" points="366,-370 366,-391 421,-391 421,-370 366,-370"/>
<text text-anchor="start" x="368.75" y="-374.7" font-family="Courier New" font-size="14.00">Signal</text>
<text text-anchor="start" x="425.62" y="-374.7" font-family="Courier New" font-size="14.00">L07 S22</text>
</g>
<!-- ne8 -->
<g id="node2" class="node">
<title>ne8</title>
<path fill="white" stroke="black" stroke-width="2" d="M633,-463.5C633,-463.5 749,-463.5 749,-463.5 755,-463.5 761,-469.5 761,-475.5 761,-475.5 761,-530.5 761,-530.5 761,-536.5 755,-542.5 749,-542.5 749,-542.5 633,-542.5 633,-542.5 627,-542.5 621,-536.5 621,-530.5 621,-530.5 621,-475.5 621,-475.5 621,-469.5 627,-463.5 633,-463.5"/>
<polygon fill="white" stroke="none" points="629,-467.5 629,-538.5 753,-538.5 753,-467.5 629,-467.5"/>
<polygon fill="black" stroke="none" points="631,-515.5 631,-536.5 751,-536.5 751,-515.5 631,-515.5"/>
<text text-anchor="start" x="678.62" y="-520.2" font-family="Courier New" font-size="14.00" fill="white">ne8</text>
<polygon fill="grey" stroke="none" points="631,-492.5 631,-513.5 686,-513.5 686,-492.5 631,-492.5"/>
<text text-anchor="start" x="633.75" y="-497.2" font-family="Courier New" font-size="14.00">Switch</text>
<text text-anchor="start" x="691" y="-497.2" font-family="Courier New" font-size="14.00">Sw12</text>
<polygon fill="grey" stroke="none" points="631,-469.5 631,-490.5 686,-490.5 686,-469.5 631,-469.5"/>
<text text-anchor="start" x="633.75" y="-474.2" font-family="Courier New" font-size="14.00">Signal</text>
<text text-anchor="start" x="690.62" y="-474.2" font-family="Courier New" font-size="14.00">C21 S32</text>
</g>
<!-- ne1&#45;&#45;ne8 -->
<g id="edge1" class="edge">
<title>ne1&#45;&#45;ne8</title>
<path fill="none" stroke="black" d="M496.44,-438.24C534.8,-451.07 582.28,-466.96 620.62,-479.79"/>
<text text-anchor="middle" x="589.5" y="-474.45" font-family="Times New Roman,serif" font-size="14.00">R_X</text>
</g>
<!-- ne9 -->
<g id="node3" class="node">
<title>ne9</title>
<path fill="white" stroke="black" stroke-width="2" d="M645,-156C645,-156 737,-156 737,-156 743,-156 749,-162 749,-168 749,-168 749,-200 749,-200 749,-206 743,-212 737,-212 737,-212 645,-212 645,-212 639,-212 633,-206 633,-200 633,-200 633,-168 633,-168 633,-162 639,-156 645,-156"/>
<polygon fill="white" stroke="none" points="641,-160 641,-208 741,-208 741,-160 641,-160"/>
<polygon fill="black" stroke="none" points="643,-185 643,-206 739,-206 739,-185 643,-185"/>
<text text-anchor="start" x="678.62" y="-189.7" font-family="Courier New" font-size="14.00" fill="white">ne9</text>
<polygon fill="grey" stroke="none" points="643,-162 643,-183 698,-183 698,-162 643,-162"/>
<text text-anchor="start" x="645.75" y="-166.7" font-family="Courier New" font-size="14.00">Switch</text>
<text text-anchor="start" x="703" y="-166.7" font-family="Courier New" font-size="14.00">Sw07</text>
</g>
<!-- ne1&#45;&#45;ne9 -->
<g id="edge2" class="edge">
<title>ne1&#45;&#45;ne9</title>
<path fill="none" stroke="black" d="M496.21,-390.75C517.28,-381.48 539.69,-369.55 558,-355 609.38,-314.17 652.2,-249.25 674.15,-212.26"/>
<text text-anchor="middle" x="589.5" y="-337.45" font-family="Times New Roman,serif" font-size="14.00">R_X</text>
</g>
<!-- ne12 -->
<g id="node4" class="node">
<title>ne12</title>
<path fill="white" stroke="black" stroke-width="2" d="M57.5,-463.5C57.5,-463.5 173.5,-463.5 173.5,-463.5 179.5,-463.5 185.5,-469.5 185.5,-475.5 185.5,-475.5 185.5,-530.5 185.5,-530.5 185.5,-536.5 179.5,-542.5 173.5,-542.5 173.5,-542.5 57.5,-542.5 57.5,-542.5 51.5,-542.5 45.5,-536.5 45.5,-530.5 45.5,-530.5 45.5,-475.5 45.5,-475.5 45.5,-469.5 51.5,-463.5 57.5,-463.5"/>
<polygon fill="white" stroke="none" points="53.5,-467.5 53.5,-538.5 177.5,-538.5 177.5,-467.5 53.5,-467.5"/>
<polygon fill="black" stroke="none" points="55.5,-515.5 55.5,-536.5 175.5,-536.5 175.5,-515.5 55.5,-515.5"/>
<text text-anchor="start" x="99" y="-520.2" font-family="Courier New" font-size="14.00" fill="white">ne12</text>
<polygon fill="grey" stroke="none" points="55.5,-492.5 55.5,-513.5 110.5,-513.5 110.5,-492.5 55.5,-492.5"/>
<text text-anchor="start" x="58.25" y="-497.2" font-family="Courier New" font-size="14.00">Switch</text>
<text text-anchor="start" x="115.5" y="-497.2" font-family="Courier New" font-size="14.00">Sw13</text>
<polygon fill="grey" stroke="none" points="55.5,-469.5 55.5,-490.5 110.5,-490.5 110.5,-469.5 55.5,-469.5"/>
<text text-anchor="start" x="58.25" y="-474.2" font-family="Courier New" font-size="14.00">Signal</text>
<text text-anchor="start" x="115.12" y="-474.2" font-family="Courier New" font-size="14.00">C25 S35</text>
</g>
<!-- ne2 -->
<g id="node5" class="node">
<title>ne2</title>
<path fill="white" stroke="black" stroke-width="2" d="M368,-243C368,-243 484,-243 484,-243 490,-243 496,-249 496,-255 496,-255 496,-333 496,-333 496,-339 490,-345 484,-345 484,-345 368,-345 368,-345 362,-345 356,-339 356,-333 356,-333 356,-255 356,-255 356,-249 362,-243 368,-243"/>
<polygon fill="white" stroke="none" points="364,-247 364,-341 488,-341 488,-247 364,-247"/>
<polygon fill="black" stroke="none" points="366,-318 366,-339 486,-339 486,-318 366,-318"/>
<text text-anchor="start" x="413.62" y="-322.7" font-family="Courier New" font-size="14.00" fill="white">ne2</text>
<polygon fill="grey" stroke="none" points="366,-295 366,-316 421,-316 421,-295 366,-295"/>
<text text-anchor="start" x="368.75" y="-299.7" font-family="Courier New" font-size="14.00">Switch</text>
<text text-anchor="start" x="426" y="-299.7" font-family="Courier New" font-size="14.00">Sw06</text>
<polygon fill="grey" stroke="none" points="366,-272 366,-293 421,-293 421,-272 366,-272"/>
<text text-anchor="start" x="368.75" y="-276.7" font-family="Courier New" font-size="14.00">Border</text>
<text text-anchor="start" x="426" y="-276.7" font-family="Courier New" font-size="14.00">Buf03</text>
<polygon fill="grey" stroke="none" points="366,-249 366,-270 421,-270 421,-249 366,-249"/>
<text text-anchor="start" x="368.75" y="-253.7" font-family="Courier New" font-size="14.00">Signal</text>
<text text-anchor="start" x="425.62" y="-253.7" font-family="Courier New" font-size="14.00">L08 S27</text>
</g>
<!-- ne12&#45;&#45;ne2 -->
<g id="edge3" class="edge">
<title>ne12&#45;&#45;ne2</title>
<path fill="none" stroke="black" d="M157.85,-463.19C192.37,-431.31 243.86,-386.81 294,-355 313.17,-342.84 335.16,-331.65 355.58,-322.27"/>
<text text-anchor="middle" x="262.5" y="-385.45" font-family="Times New Roman,serif" font-size="14.00">R_X</text>
</g>
<!-- ne23 -->
<g id="node6" class="node">
<title>ne23</title>
<path fill="white" stroke="black" stroke-width="2" d="M368,-540.5C368,-540.5 484,-540.5 484,-540.5 490,-540.5 496,-546.5 496,-552.5 496,-552.5 496,-607.5 496,-607.5 496,-613.5 490,-619.5 484,-619.5 484,-619.5 368,-619.5 368,-619.5 362,-619.5 356,-613.5 356,-607.5 356,-607.5 356,-552.5 356,-552.5 356,-546.5 362,-540.5 368,-540.5"/>
<polygon fill="white" stroke="none" points="364,-544.5 364,-615.5 488,-615.5 488,-544.5 364,-544.5"/>
<polygon fill="black" stroke="none" points="366,-592.5 366,-613.5 486,-613.5 486,-592.5 366,-592.5"/>
<text text-anchor="start" x="409.5" y="-597.2" font-family="Courier New" font-size="14.00" fill="white">ne23</text>
<polygon fill="grey" stroke="none" points="366,-569.5 366,-590.5 421,-590.5 421,-569.5 366,-569.5"/>
<text text-anchor="start" x="368.75" y="-574.2" font-family="Courier New" font-size="14.00">Border</text>
<text text-anchor="start" x="426" y="-574.2" font-family="Courier New" font-size="14.00">Buf04</text>
<polygon fill="grey" stroke="none" points="366,-546.5 366,-567.5 421,-567.5 421,-546.5 366,-546.5"/>
<text text-anchor="start" x="368.75" y="-551.2" font-family="Courier New" font-size="14.00">Signal</text>
<text text-anchor="start" x="425.62" y="-551.2" font-family="Courier New" font-size="14.00">J13 J14</text>
</g>
<!-- ne12&#45;&#45;ne23 -->
<g id="edge4" class="edge">
<title>ne12&#45;&#45;ne23</title>
<path fill="none" stroke="black" d="M185.73,-520.28C236.45,-532.94 305,-550.05 355.73,-562.71"/>
<text text-anchor="middle" x="262.5" y="-543.45" font-family="Times New Roman,serif" font-size="14.00">R_X</text>
</g>
<!-- ne24 -->
<g id="node7" class="node">
<title>ne24</title>
<path fill="white" stroke="black" stroke-width="2" d="M408,-485C408,-485 444,-485 444,-485 450,-485 456,-491 456,-497 456,-497 456,-509 456,-509 456,-515 450,-521 444,-521 444,-521 408,-521 408,-521 402,-521 396,-515 396,-509 396,-509 396,-497 396,-497 396,-491 402,-485 408,-485"/>
<polygon fill="white" stroke="none" points="404,-490.25 404,-516 448,-516 448,-490.25 404,-490.25"/>
<polygon fill="black" stroke="none" points="406,-492.25 406,-514 446,-514 446,-492.25 406,-492.25"/>
<text text-anchor="start" x="409.5" y="-497.7" font-family="Courier New" font-size="14.00" fill="white">ne24</text>
</g>
<!-- ne12&#45;&#45;ne24 -->
<g id="edge5" class="edge">
<title>ne12&#45;&#45;ne24</title>
<path fill="none" stroke="black" d="M185.73,-503C251.64,-503 347.66,-503 395.55,-503"/>
<text text-anchor="middle" x="262.5" y="-505.45" font-family="Times New Roman,serif" font-size="14.00">R_X</text>
</g>
<!-- ne24&#45;&#45;ne8 -->
<g id="edge10" class="edge">
<title>ne24&#45;&#45;ne8</title>
<path fill="none" stroke="black" d="M456.4,-503C495.88,-503 567.23,-503 620.72,-503"/>
<text text-anchor="middle" x="589.5" y="-505.45" font-family="Times New Roman,serif" font-size="14.00">R_X</text>
</g>
<!-- ne13 -->
<g id="node8" class="node">
<title>ne13</title>
<path fill="white" stroke="black" stroke-width="2" d="M12,-231.5C12,-231.5 219,-231.5 219,-231.5 225,-231.5 231,-237.5 231,-243.5 231,-243.5 231,-344.5 231,-344.5 231,-350.5 225,-356.5 219,-356.5 219,-356.5 12,-356.5 12,-356.5 6,-356.5 0,-350.5 0,-344.5 0,-344.5 0,-243.5 0,-243.5 0,-237.5 6,-231.5 12,-231.5"/>
<polygon fill="white" stroke="none" points="8,-235.5 8,-352.5 223,-352.5 223,-235.5 8,-235.5"/>
<polygon fill="black" stroke="none" points="10,-329.5 10,-350.5 221,-350.5 221,-329.5 10,-329.5"/>
<text text-anchor="start" x="99" y="-334.2" font-family="Courier New" font-size="14.00" fill="white">ne13</text>
<polygon fill="grey" stroke="none" points="10,-306.5 10,-327.5 123,-327.5 123,-306.5 10,-306.5"/>
<text text-anchor="start" x="37.5" y="-311.2" font-family="Courier New" font-size="14.00">BufferStop</text>
<text text-anchor="start" x="128" y="-311.2" font-family="Courier New" font-size="14.00">Buf08</text>
<polygon fill="grey" stroke="none" points="10,-283.5 10,-304.5 123,-304.5 123,-283.5 10,-283.5"/>
<text text-anchor="start" x="12.88" y="-288.2" font-family="Courier New" font-size="14.00">LevelCrossing</text>
<text text-anchor="start" x="128" y="-288.2" font-family="Courier New" font-size="14.00">Lc08</text>
<polygon fill="grey" stroke="none" points="10,-260.5 10,-281.5 123,-281.5 123,-260.5 10,-260.5"/>
<text text-anchor="start" x="54" y="-265.2" font-family="Courier New" font-size="14.00">Platform</text>
<text text-anchor="start" x="128" y="-265.2" font-family="Courier New" font-size="14.00">Plat13</text>
<polygon fill="grey" stroke="none" points="10,-237.5 10,-258.5 123,-258.5 123,-237.5 10,-237.5"/>
<text text-anchor="start" x="70.5" y="-242.2" font-family="Courier New" font-size="14.00">Signal</text>
<text text-anchor="start" x="127.62" y="-242.2" font-family="Courier New" font-size="14.00">T01 T02 P20</text>
</g>
<!-- ne13&#45;&#45;ne2 -->
<g id="edge6" class="edge">
<title>ne13&#45;&#45;ne2</title>
<path fill="none" stroke="black" d="M231.37,-294C273.17,-294 319.11,-294 355.74,-294"/>
<text text-anchor="middle" x="262.5" y="-296.45" font-family="Times New Roman,serif" font-size="14.00">R_X</text>
</g>
<!-- ne14 -->
<g id="node9" class="node">
<title>ne14</title>
<path fill="white" stroke="black" stroke-width="2" d="M306,-0.5C306,-0.5 546,-0.5 546,-0.5 552,-0.5 558,-6.5 558,-12.5 558,-12.5 558,-113.5 558,-113.5 558,-119.5 552,-125.5 546,-125.5 546,-125.5 306,-125.5 306,-125.5 300,-125.5 294,-119.5 294,-113.5 294,-113.5 294,-12.5 294,-12.5 294,-6.5 300,-0.5 306,-0.5"/>
<polygon fill="white" stroke="none" points="302,-4.5 302,-121.5 550,-121.5 550,-4.5 302,-4.5"/>
<polygon fill="black" stroke="none" points="304,-98.5 304,-119.5 548,-119.5 548,-98.5 304,-98.5"/>
<text text-anchor="start" x="409.5" y="-103.2" font-family="Courier New" font-size="14.00" fill="white">ne14</text>
<polygon fill="grey" stroke="none" points="304,-75.5 304,-96.5 417,-96.5 417,-75.5 304,-75.5"/>
<text text-anchor="start" x="331.5" y="-80.2" font-family="Courier New" font-size="14.00">BufferStop</text>
<text text-anchor="start" x="422" y="-80.2" font-family="Courier New" font-size="14.00">Buf06</text>
<polygon fill="grey" stroke="none" points="304,-52.5 304,-73.5 417,-73.5 417,-52.5 304,-52.5"/>
<text text-anchor="start" x="306.88" y="-57.2" font-family="Courier New" font-size="14.00">LevelCrossing</text>
<text text-anchor="start" x="422" y="-57.2" font-family="Courier New" font-size="14.00">Lc06</text>
<polygon fill="grey" stroke="none" points="304,-29.5 304,-50.5 417,-50.5 417,-29.5 304,-29.5"/>
<text text-anchor="start" x="348" y="-34.2" font-family="Courier New" font-size="14.00">Platform</text>
<text text-anchor="start" x="422" y="-34.2" font-family="Courier New" font-size="14.00">Plat11</text>
<polygon fill="grey" stroke="none" points="304,-6.5 304,-27.5 417,-27.5 417,-6.5 304,-6.5"/>
<text text-anchor="start" x="364.5" y="-11.2" font-family="Courier New" font-size="14.00">Signal</text>
<text text-anchor="start" x="421.62" y="-11.2" font-family="Courier New" font-size="14.00">T03 T04 X15 X16</text>
</g>
<!-- ne14&#45;&#45;ne9 -->
<g id="edge7" class="edge">
<title>ne14&#45;&#45;ne9</title>
<path fill="none" stroke="black" d="M558.5,-123.5C584.57,-135.49 610.64,-147.49 632.61,-157.6"/>
<text text-anchor="middle" x="589.5" y="-144.45" font-family="Times New Roman,serif" font-size="14.00">R_X</text>
</g>
<!-- ne15 -->
<g id="node10" class="node">
<title>ne15</title>
<path fill="white" stroke="black" stroke-width="2" d="M335,-144.5C335,-144.5 517,-144.5 517,-144.5 523,-144.5 529,-150.5 529,-156.5 529,-156.5 529,-211.5 529,-211.5 529,-217.5 523,-223.5 517,-223.5 517,-223.5 335,-223.5 335,-223.5 329,-223.5 323,-217.5 323,-211.5 323,-211.5 323,-156.5 323,-156.5 323,-150.5 329,-144.5 335,-144.5"/>
<polygon fill="white" stroke="none" points="331,-148.5 331,-219.5 521,-219.5 521,-148.5 331,-148.5"/>
<polygon fill="black" stroke="none" points="333,-196.5 333,-217.5 519,-217.5 519,-196.5 333,-196.5"/>
<text text-anchor="start" x="409.5" y="-201.2" font-family="Courier New" font-size="14.00" fill="white">ne15</text>
<polygon fill="grey" stroke="none" points="333,-173.5 333,-194.5 421,-194.5 421,-173.5 333,-173.5"/>
<text text-anchor="start" x="335.75" y="-178.2" font-family="Courier New" font-size="14.00">BufferStop</text>
<text text-anchor="start" x="426" y="-178.2" font-family="Courier New" font-size="14.00">Buf09</text>
<polygon fill="grey" stroke="none" points="333,-150.5 333,-171.5 421,-171.5 421,-150.5 333,-150.5"/>
<text text-anchor="start" x="368.5" y="-155.2" font-family="Courier New" font-size="14.00">Signal</text>
<text text-anchor="start" x="425.62" y="-155.2" font-family="Courier New" font-size="14.00">T05 T06 C29</text>
</g>
<!-- ne15&#45;&#45;ne9 -->
<g id="edge8" class="edge">
<title>ne15&#45;&#45;ne9</title>
<path fill="none" stroke="black" d="M529.44,-184C564.48,-184 602.43,-184 632.63,-184"/>
<text text-anchor="middle" x="589.5" y="-186.45" font-family="Times New Roman,serif" font-size="14.00">R_X</text>
</g>
<!-- ne22 -->
<g id="node11" class="node">
<title>ne22</title>
<path fill="white" stroke="black" stroke-width="2" d="M351.5,-638.5C351.5,-638.5 500.5,-638.5 500.5,-638.5 506.5,-638.5 512.5,-644.5 512.5,-650.5 512.5,-650.5 512.5,-705.5 512.5,-705.5 512.5,-711.5 506.5,-717.5 500.5,-717.5 500.5,-717.5 351.5,-717.5 351.5,-717.5 345.5,-717.5 339.5,-711.5 339.5,-705.5 339.5,-705.5 339.5,-650.5 339.5,-650.5 339.5,-644.5 345.5,-638.5 351.5,-638.5"/>
<polygon fill="white" stroke="none" points="347.5,-642.5 347.5,-713.5 504.5,-713.5 504.5,-642.5 347.5,-642.5"/>
<polygon fill="black" stroke="none" points="349.5,-690.5 349.5,-711.5 502.5,-711.5 502.5,-690.5 349.5,-690.5"/>
<text text-anchor="start" x="409.5" y="-695.2" font-family="Courier New" font-size="14.00" fill="white">ne22</text>
<polygon fill="grey" stroke="none" points="349.5,-667.5 349.5,-688.5 404.5,-688.5 404.5,-667.5 349.5,-667.5"/>
<text text-anchor="start" x="352.25" y="-672.2" font-family="Courier New" font-size="14.00">Border</text>
<text text-anchor="start" x="409.5" y="-672.2" font-family="Courier New" font-size="14.00">Buf02</text>
<polygon fill="grey" stroke="none" points="349.5,-644.5 349.5,-665.5 404.5,-665.5 404.5,-644.5 349.5,-644.5"/>
<text text-anchor="start" x="352.25" y="-649.2" font-family="Courier New" font-size="14.00">Signal</text>
<text text-anchor="start" x="409.12" y="-649.2" font-family="Courier New" font-size="14.00">L09 J11 J12</text>
</g>
<!-- ne22&#45;&#45;ne8 -->
<g id="edge9" class="edge">
<title>ne22&#45;&#45;ne8</title>
<path fill="none" stroke="black" d="M512.89,-651.59C528.44,-645.23 544.11,-637.71 558,-629 595.44,-605.52 631.28,-570.22 656.13,-542.95"/>
<text text-anchor="middle" x="589.5" y="-617.45" font-family="Times New Roman,serif" font-size="14.00">R_X</text>
</g>
</g>
</svg>
