<?xml version="1.0" encoding="UTF-8" standalone="no"?>
<!DOCTYPE svg PUBLIC "-//W3C//DTD SVG 1.1//EN"
 "http://www.w3.org/Graphics/SVG/1.1/DTD/svg11.dtd">
<!-- Generated by graphviz version 9.0.0 (20230911.1827)
 -->
<!-- Title: finite_state_machine Pages: 1 -->
<svg width="1109pt" height="576pt"
 viewBox="0.00 0.00 1109.00 576.00" xmlns="http://www.w3.org/2000/svg" xmlns:xlink="http://www.w3.org/1999/xlink">
<g id="graph0" class="graph" transform="scale(1 1) rotate(0) translate(4 572)">
<title>finite_state_machine</title>
<polygon fill="white" stroke="none" points="-4,4 -4,-572 1105,-572 1105,4 -4,4"/>
<!-- ne1 -->
<g id="node1" class="node">
<title>ne1</title>
<path fill="white" stroke="black" stroke-width="2" d="M517,-320C517,-320 633,-320 633,-320 639,-320 645,-326 645,-332 645,-332 645,-410 645,-410 645,-416 639,-422 633,-422 633,-422 517,-422 517,-422 511,-422 505,-416 505,-410 505,-410 505,-332 505,-332 505,-326 511,-320 517,-320"/>
<polygon fill="white" stroke="none" points="513,-324 513,-418 637,-418 637,-324 513,-324"/>
<polygon fill="black" stroke="none" points="515,-395 515,-416 635,-416 635,-395 515,-395"/>
<text text-anchor="start" x="562.62" y="-399.7" font-family="Courier New" font-size="14.00" fill="white">ne1</text>
<polygon fill="grey" stroke="none" points="515,-372 515,-393 570,-393 570,-372 515,-372"/>
<text text-anchor="start" x="517.75" y="-376.7" font-family="Courier New" font-size="14.00">Switch</text>
<text text-anchor="start" x="575" y="-376.7" font-family="Courier New" font-size="14.00">Sw04</text>
<polygon fill="grey" stroke="none" points="515,-349 515,-370 570,-370 570,-349 515,-349"/>
<text text-anchor="start" x="517.75" y="-353.7" font-family="Courier New" font-size="14.00">Border</text>
<text text-anchor="start" x="575" y="-353.7" font-family="Courier New" font-size="14.00">Buf01</text>
<polygon fill="grey" stroke="none" points="515,-326 515,-347 570,-347 570,-326 515,-326"/>
<text text-anchor="start" x="517.75" y="-330.7" font-family="Courier New" font-size="14.00">Signal</text>
<text text-anchor="start" x="574.62" y="-330.7" font-family="Courier New" font-size="14.00">L07 S22</text>
</g>
<!-- ne8 -->
<g id="node2" class="node">
<title>ne8</title>
<path fill="white" stroke="black" stroke-width="2" d="M788,-197.5C788,-197.5 904,-197.5 904,-197.5 910,-197.5 916,-203.5 916,-209.5 916,-209.5 916,-264.5 916,-264.5 916,-270.5 910,-276.5 904,-276.5 904,-276.5 788,-276.5 788,-276.5 782,-276.5 776,-270.5 776,-264.5 776,-264.5 776,-209.5 776,-209.5 776,-203.5 782,-197.5 788,-197.5"/>
<polygon fill="white" stroke="none" points="784,-201.5 784,-272.5 908,-272.5 908,-201.5 784,-201.5"/>
<polygon fill="black" stroke="none" points="786,-249.5 786,-270.5 906,-270.5 906,-249.5 786,-249.5"/>
<text text-anchor="start" x="833.62" y="-254.2" font-family="Courier New" font-size="14.00" fill="white">ne8</text>
<polygon fill="grey" stroke="none" points="786,-226.5 786,-247.5 841,-247.5 841,-226.5 786,-226.5"/>
<text text-anchor="start" x="788.75" y="-231.2" font-family="Courier New" font-size="14.00">Switch</text>
<text text-anchor="start" x="846" y="-231.2" font-family="Courier New" font-size="14.00">Sw12</text>
<polygon fill="grey" stroke="none" points="786,-203.5 786,-224.5 841,-224.5 841,-203.5 786,-203.5"/>
<text text-anchor="start" x="788.75" y="-208.2" font-family="Courier New" font-size="14.00">Signal</text>
<text text-anchor="start" x="845.62" y="-208.2" font-family="Courier New" font-size="14.00">C21 S32</text>
</g>
<!-- ne1&#45;&gt;ne8 -->
<g id="edge1" class="edge">
<title>ne1&#45;&gt;ne8</title>
<path fill="none" stroke="black" d="M645.39,-340.2C665.4,-331.05 687.17,-320.85 707,-311 726.09,-301.52 746.43,-290.91 765.47,-280.74"/>
<polygon fill="black" stroke="black" points="767.1,-283.84 774.26,-276.03 763.79,-277.67 767.1,-283.84"/>
</g>
<!-- ne9 -->
<g id="node3" class="node">
<title>ne9</title>
<path fill="white" stroke="black" stroke-width="2" d="M997,-376C997,-376 1089,-376 1089,-376 1095,-376 1101,-382 1101,-388 1101,-388 1101,-420 1101,-420 1101,-426 1095,-432 1089,-432 1089,-432 997,-432 997,-432 991,-432 985,-426 985,-420 985,-420 985,-388 985,-388 985,-382 991,-376 997,-376"/>
<polygon fill="white" stroke="none" points="993,-380 993,-428 1093,-428 1093,-380 993,-380"/>
<polygon fill="black" stroke="none" points="995,-405 995,-426 1091,-426 1091,-405 995,-405"/>
<text text-anchor="start" x="1030.62" y="-409.7" font-family="Courier New" font-size="14.00" fill="white">ne9</text>
<polygon fill="grey" stroke="none" points="995,-382 995,-403 1050,-403 1050,-382 995,-382"/>
<text text-anchor="start" x="997.75" y="-386.7" font-family="Courier New" font-size="14.00">Switch</text>
<text text-anchor="start" x="1055" y="-386.7" font-family="Courier New" font-size="14.00">Sw07</text>
</g>
<!-- ne1&#45;&gt;ne9 -->
<g id="edge2" class="edge">
<title>ne1&#45;&gt;ne9</title>
<path fill="none" stroke="black" d="M645.27,-372.03C720.29,-373.69 843.41,-377.97 949,-389 956.94,-389.83 965.23,-390.89 973.46,-392.06"/>
<polygon fill="black" stroke="black" points="972.68,-395.48 983.09,-393.49 973.71,-388.56 972.68,-395.48"/>
</g>
<!-- ne8&#45;&gt;ne9 -->
<g id="edge3" class="edge">
<title>ne8&#45;&gt;ne9</title>
<path fill="none" stroke="black" d="M893.21,-276.58C925.74,-304.44 968.92,-341.42 1000.38,-368.36"/>
<polygon fill="black" stroke="black" points="997.91,-370.85 1007.78,-374.69 1002.46,-365.53 997.91,-370.85"/>
</g>
<!-- ne12 -->
<g id="node4" class="node">
<title>ne12</title>
<path fill="white" stroke="black" stroke-width="2" d="M12,-136.5C12,-136.5 128,-136.5 128,-136.5 134,-136.5 140,-142.5 140,-148.5 140,-148.5 140,-203.5 140,-203.5 140,-209.5 134,-215.5 128,-215.5 128,-215.5 12,-215.5 12,-215.5 6,-215.5 0,-209.5 0,-203.5 0,-203.5 0,-148.5 0,-148.5 0,-142.5 6,-136.5 12,-136.5"/>
<polygon fill="white" stroke="none" points="8,-140.5 8,-211.5 132,-211.5 132,-140.5 8,-140.5"/>
<polygon fill="black" stroke="none" points="10,-188.5 10,-209.5 130,-209.5 130,-188.5 10,-188.5"/>
<text text-anchor="start" x="53.5" y="-193.2" font-family="Courier New" font-size="14.00" fill="white">ne12</text>
<polygon fill="grey" stroke="none" points="10,-165.5 10,-186.5 65,-186.5 65,-165.5 10,-165.5"/>
<text text-anchor="start" x="12.75" y="-170.2" font-family="Courier New" font-size="14.00">Switch</text>
<text text-anchor="start" x="70" y="-170.2" font-family="Courier New" font-size="14.00">Sw13</text>
<polygon fill="grey" stroke="none" points="10,-142.5 10,-163.5 65,-163.5 65,-142.5 10,-142.5"/>
<text text-anchor="start" x="12.75" y="-147.2" font-family="Courier New" font-size="14.00">Signal</text>
<text text-anchor="start" x="69.62" y="-147.2" font-family="Courier New" font-size="14.00">C25 S35</text>
</g>
<!-- ne2 -->
<g id="node5" class="node">
<title>ne2</title>
<path fill="white" stroke="black" stroke-width="2" d="M517,-199C517,-199 633,-199 633,-199 639,-199 645,-205 645,-211 645,-211 645,-289 645,-289 645,-295 639,-301 633,-301 633,-301 517,-301 517,-301 511,-301 505,-295 505,-289 505,-289 505,-211 505,-211 505,-205 511,-199 517,-199"/>
<polygon fill="white" stroke="none" points="513,-203 513,-297 637,-297 637,-203 513,-203"/>
<polygon fill="black" stroke="none" points="515,-274 515,-295 635,-295 635,-274 515,-274"/>
<text text-anchor="start" x="562.62" y="-278.7" font-family="Courier New" font-size="14.00" fill="white">ne2</text>
<polygon fill="grey" stroke="none" points="515,-251 515,-272 570,-272 570,-251 515,-251"/>
<text text-anchor="start" x="517.75" y="-255.7" font-family="Courier New" font-size="14.00">Switch</text>
<text text-anchor="start" x="575" y="-255.7" font-family="Courier New" font-size="14.00">Sw06</text>
<polygon fill="grey" stroke="none" points="515,-228 515,-249 570,-249 570,-228 515,-228"/>
<text text-anchor="start" x="517.75" y="-232.7" font-family="Courier New" font-size="14.00">Border</text>
<text text-anchor="start" x="575" y="-232.7" font-family="Courier New" font-size="14.00">Buf03</text>
<polygon fill="grey" stroke="none" points="515,-205 515,-226 570,-226 570,-205 515,-205"/>
<text text-anchor="start" x="517.75" y="-209.7" font-family="Courier New" font-size="14.00">Signal</text>
<text text-anchor="start" x="574.62" y="-209.7" font-family="Courier New" font-size="14.00">L08 S27</text>
</g>
<!-- ne12&#45;&gt;ne2 -->
<g id="edge4" class="edge">
<title>ne12&#45;&gt;ne2</title>
<path fill="none" stroke="black" d="M140.26,-212.7C151.92,-217.6 164.11,-221.97 176,-225 283.48,-252.41 412.32,-255.3 493.68,-253.63"/>
<polygon fill="black" stroke="black" points="493.41,-257.14 503.33,-253.4 493.25,-250.14 493.41,-257.14"/>
</g>
<!-- ne13 -->
<g id="node6" class="node">
<title>ne13</title>
<path fill="white" stroke="black" stroke-width="2" d="M188,-272.5C188,-272.5 395,-272.5 395,-272.5 401,-272.5 407,-278.5 407,-284.5 407,-284.5 407,-385.5 407,-385.5 407,-391.5 401,-397.5 395,-397.5 395,-397.5 188,-397.5 188,-397.5 182,-397.5 176,-391.5 176,-385.5 176,-385.5 176,-284.5 176,-284.5 176,-278.5 182,-272.5 188,-272.5"/>
<polygon fill="white" stroke="none" points="184,-276.5 184,-393.5 399,-393.5 399,-276.5 184,-276.5"/>
<polygon fill="black" stroke="none" points="186,-370.5 186,-391.5 397,-391.5 397,-370.5 186,-370.5"/>
<text text-anchor="start" x="275" y="-375.2" font-family="Courier New" font-size="14.00" fill="white">ne13</text>
<polygon fill="grey" stroke="none" points="186,-347.5 186,-368.5 299,-368.5 299,-347.5 186,-347.5"/>
<text text-anchor="start" x="213.5" y="-352.2" font-family="Courier New" font-size="14.00">BufferStop</text>
<text text-anchor="start" x="304" y="-352.2" font-family="Courier New" font-size="14.00">Buf08</text>
<polygon fill="grey" stroke="none" points="186,-324.5 186,-345.5 299,-345.5 299,-324.5 186,-324.5"/>
<text text-anchor="start" x="188.88" y="-329.2" font-family="Courier New" font-size="14.00">LevelCrossing</text>
<text text-anchor="start" x="304" y="-329.2" font-family="Courier New" font-size="14.00">Lc08</text>
<polygon fill="grey" stroke="none" points="186,-301.5 186,-322.5 299,-322.5 299,-301.5 186,-301.5"/>
<text text-anchor="start" x="230" y="-306.2" font-family="Courier New" font-size="14.00">Platform</text>
<text text-anchor="start" x="304" y="-306.2" font-family="Courier New" font-size="14.00">Plat13</text>
<polygon fill="grey" stroke="none" points="186,-278.5 186,-299.5 299,-299.5 299,-278.5 186,-278.5"/>
<text text-anchor="start" x="246.5" y="-283.2" font-family="Courier New" font-size="14.00">Signal</text>
<text text-anchor="start" x="303.62" y="-283.2" font-family="Courier New" font-size="14.00">T01 T02 P20</text>
</g>
<!-- ne12&#45;&gt;ne13 -->
<g id="edge5" class="edge">
<title>ne12&#45;&gt;ne13</title>
<path fill="none" stroke="black" d="M120.65,-215.94C137.96,-229.56 157.65,-244.69 176,-258 179.4,-260.47 182.87,-262.95 186.39,-265.45"/>
<polygon fill="black" stroke="black" points="184.36,-268.3 194.55,-271.2 188.39,-262.58 184.36,-268.3"/>
</g>
<!-- ne23 -->
<g id="node7" class="node">
<title>ne23</title>
<path fill="white" stroke="black" stroke-width="2" d="M233.5,-0.5C233.5,-0.5 349.5,-0.5 349.5,-0.5 355.5,-0.5 361.5,-6.5 361.5,-12.5 361.5,-12.5 361.5,-67.5 361.5,-67.5 361.5,-73.5 355.5,-79.5 349.5,-79.5 349.5,-79.5 233.5,-79.5 233.5,-79.5 227.5,-79.5 221.5,-73.5 221.5,-67.5 221.5,-67.5 221.5,-12.5 221.5,-12.5 221.5,-6.5 227.5,-0.5 233.5,-0.5"/>
<polygon fill="white" stroke="none" points="229.5,-4.5 229.5,-75.5 353.5,-75.5 353.5,-4.5 229.5,-4.5"/>
<polygon fill="black" stroke="none" points="231.5,-52.5 231.5,-73.5 351.5,-73.5 351.5,-52.5 231.5,-52.5"/>
<text text-anchor="start" x="275" y="-57.2" font-family="Courier New" font-size="14.00" fill="white">ne23</text>
<polygon fill="grey" stroke="none" points="231.5,-29.5 231.5,-50.5 286.5,-50.5 286.5,-29.5 231.5,-29.5"/>
<text text-anchor="start" x="234.25" y="-34.2" font-family="Courier New" font-size="14.00">Border</text>
<text text-anchor="start" x="291.5" y="-34.2" font-family="Courier New" font-size="14.00">Buf04</text>
<polygon fill="grey" stroke="none" points="231.5,-6.5 231.5,-27.5 286.5,-27.5 286.5,-6.5 231.5,-6.5"/>
<text text-anchor="start" x="234.25" y="-11.2" font-family="Courier New" font-size="14.00">Signal</text>
<text text-anchor="start" x="291.12" y="-11.2" font-family="Courier New" font-size="14.00">J13 J14</text>
</g>
<!-- ne12&#45;&gt;ne23 -->
<g id="edge6" class="edge">
<title>ne12&#45;&gt;ne23</title>
<path fill="none" stroke="black" d="M117.47,-136.11C135.16,-121.9 155.91,-106.37 176,-94 187.04,-87.2 199.07,-80.67 211.05,-74.64"/>
<polygon fill="black" stroke="black" points="212.3,-77.93 219.72,-70.37 209.2,-71.65 212.3,-77.93"/>
</g>
<!-- ne24 -->
<g id="node8" class="node">
<title>ne24</title>
<path fill="white" stroke="black" stroke-width="2" d="M557,-101C557,-101 593,-101 593,-101 599,-101 605,-107 605,-113 605,-113 605,-125 605,-125 605,-131 599,-137 593,-137 593,-137 557,-137 557,-137 551,-137 545,-131 545,-125 545,-125 545,-113 545,-113 545,-107 551,-101 557,-101"/>
<polygon fill="white" stroke="none" points="553,-106.25 553,-132 597,-132 597,-106.25 553,-106.25"/>
<polygon fill="black" stroke="none" points="555,-108.25 555,-130 595,-130 595,-108.25 555,-108.25"/>
<text text-anchor="start" x="558.5" y="-113.7" font-family="Courier New" font-size="14.00" fill="white">ne24</text>
</g>
<!-- ne12&#45;&gt;ne24 -->
<g id="edge7" class="edge">
<title>ne12&#45;&gt;ne24</title>
<path fill="none" stroke="black" d="M140.44,-138.74C152.03,-133.94 164.15,-129.76 176,-127 303.53,-97.36 460.28,-107.21 533.15,-114.33"/>
<polygon fill="black" stroke="black" points="532.72,-117.81 543.02,-115.34 533.42,-110.84 532.72,-117.81"/>
</g>
<!-- ne13&#45;&gt;ne2 -->
<g id="edge8" class="edge">
<title>ne13&#45;&gt;ne2</title>
<path fill="none" stroke="black" d="M407.4,-300.3C436.4,-291.55 466.91,-282.34 493.78,-274.22"/>
<polygon fill="black" stroke="black" points="494.66,-277.61 503.22,-271.37 492.64,-270.91 494.66,-277.61"/>
</g>
<!-- ne23&#45;&gt;ne24 -->
<g id="edge14" class="edge">
<title>ne23&#45;&gt;ne24</title>
<path fill="none" stroke="black" d="M361.72,-59.43C415.79,-74.6 489.02,-95.15 533.81,-107.72"/>
<polygon fill="black" stroke="black" points="532.8,-111.07 543.38,-110.41 534.69,-104.33 532.8,-111.07"/>
</g>
<!-- ne24&#45;&gt;ne8 -->
<g id="edge15" class="edge">
<title>ne24&#45;&gt;ne8</title>
<path fill="none" stroke="black" d="M605.35,-125.02C632.39,-131.1 673.3,-141.63 707,-156 729.83,-165.74 753.54,-178.54 774.73,-191.09"/>
<polygon fill="black" stroke="black" points="772.92,-194.09 783.29,-196.24 776.52,-188.09 772.92,-194.09"/>
</g>
<!-- ne14 -->
<g id="node9" class="node">
<title>ne14</title>
<path fill="white" stroke="black" stroke-width="2" d="M455,-442.5C455,-442.5 695,-442.5 695,-442.5 701,-442.5 707,-448.5 707,-454.5 707,-454.5 707,-555.5 707,-555.5 707,-561.5 701,-567.5 695,-567.5 695,-567.5 455,-567.5 455,-567.5 449,-567.5 443,-561.5 443,-555.5 443,-555.5 443,-454.5 443,-454.5 443,-448.5 449,-442.5 455,-442.5"/>
<polygon fill="white" stroke="none" points="451,-446.5 451,-563.5 699,-563.5 699,-446.5 451,-446.5"/>
<polygon fill="black" stroke="none" points="453,-540.5 453,-561.5 697,-561.5 697,-540.5 453,-540.5"/>
<text text-anchor="start" x="558.5" y="-545.2" font-family="Courier New" font-size="14.00" fill="white">ne14</text>
<polygon fill="grey" stroke="none" points="453,-517.5 453,-538.5 566,-538.5 566,-517.5 453,-517.5"/>
<text text-anchor="start" x="480.5" y="-522.2" font-family="Courier New" font-size="14.00">BufferStop</text>
<text text-anchor="start" x="571" y="-522.2" font-family="Courier New" font-size="14.00">Buf06</text>
<polygon fill="grey" stroke="none" points="453,-494.5 453,-515.5 566,-515.5 566,-494.5 453,-494.5"/>
<text text-anchor="start" x="455.88" y="-499.2" font-family="Courier New" font-size="14.00">LevelCrossing</text>
<text text-anchor="start" x="571" y="-499.2" font-family="Courier New" font-size="14.00">Lc06</text>
<polygon fill="grey" stroke="none" points="453,-471.5 453,-492.5 566,-492.5 566,-471.5 453,-471.5"/>
<text text-anchor="start" x="497" y="-476.2" font-family="Courier New" font-size="14.00">Platform</text>
<text text-anchor="start" x="571" y="-476.2" font-family="Courier New" font-size="14.00">Plat11</text>
<polygon fill="grey" stroke="none" points="453,-448.5 453,-469.5 566,-469.5 566,-448.5 453,-448.5"/>
<text text-anchor="start" x="513.5" y="-453.2" font-family="Courier New" font-size="14.00">Signal</text>
<text text-anchor="start" x="570.62" y="-453.2" font-family="Courier New" font-size="14.00">T03 T04 X15 X16</text>
</g>
<!-- ne14&#45;&gt;ne9 -->
<g id="edge9" class="edge">
<title>ne14&#45;&gt;ne9</title>
<path fill="none" stroke="black" d="M707.07,-519.67C780.77,-522.84 872.95,-518.12 949,-487 973.27,-477.07 995.4,-457.94 1011.98,-440.55"/>
<polygon fill="black" stroke="black" points="1014.44,-443.05 1018.63,-433.32 1009.29,-438.31 1014.44,-443.05"/>
</g>
<!-- ne15 -->
<g id="node10" class="node">
<title>ne15</title>
<path fill="white" stroke="black" stroke-width="2" d="M755,-398.5C755,-398.5 937,-398.5 937,-398.5 943,-398.5 949,-404.5 949,-410.5 949,-410.5 949,-465.5 949,-465.5 949,-471.5 943,-477.5 937,-477.5 937,-477.5 755,-477.5 755,-477.5 749,-477.5 743,-471.5 743,-465.5 743,-465.5 743,-410.5 743,-410.5 743,-404.5 749,-398.5 755,-398.5"/>
<polygon fill="white" stroke="none" points="751,-402.5 751,-473.5 941,-473.5 941,-402.5 751,-402.5"/>
<polygon fill="black" stroke="none" points="753,-450.5 753,-471.5 939,-471.5 939,-450.5 753,-450.5"/>
<text text-anchor="start" x="829.5" y="-455.2" font-family="Courier New" font-size="14.00" fill="white">ne15</text>
<polygon fill="grey" stroke="none" points="753,-427.5 753,-448.5 841,-448.5 841,-427.5 753,-427.5"/>
<text text-anchor="start" x="755.75" y="-432.2" font-family="Courier New" font-size="14.00">BufferStop</text>
<text text-anchor="start" x="846" y="-432.2" font-family="Courier New" font-size="14.00">Buf09</text>
<polygon fill="grey" stroke="none" points="753,-404.5 753,-425.5 841,-425.5 841,-404.5 753,-404.5"/>
<text text-anchor="start" x="788.5" y="-409.2" font-family="Courier New" font-size="14.00">Signal</text>
<text text-anchor="start" x="845.62" y="-409.2" font-family="Courier New" font-size="14.00">T05 T06 C29</text>
</g>
<!-- ne14&#45;&gt;ne15 -->
<g id="edge10" class="edge">
<title>ne14&#45;&gt;ne15</title>
<path fill="none" stroke="black" d="M707.35,-472.29C715.51,-470.25 723.68,-468.22 731.76,-466.21"/>
<polygon fill="black" stroke="black" points="732.36,-469.66 741.22,-463.85 730.67,-462.87 732.36,-469.66"/>
</g>
<!-- ne15&#45;&gt;ne9 -->
<g id="edge11" class="edge">
<title>ne15&#45;&gt;ne9</title>
<path fill="none" stroke="black" d="M949.35,-420.15C957.51,-418.73 965.62,-417.32 973.45,-415.95"/>
<polygon fill="black" stroke="black" points="973.97,-419.41 983.22,-414.25 972.77,-412.52 973.97,-419.41"/>
</g>
<!-- ne22 -->
<g id="node11" class="node">
<title>ne22</title>
<path fill="white" stroke="black" stroke-width="2" d="M217,-136.5C217,-136.5 366,-136.5 366,-136.5 372,-136.5 378,-142.5 378,-148.5 378,-148.5 378,-203.5 378,-203.5 378,-209.5 372,-215.5 366,-215.5 366,-215.5 217,-215.5 217,-215.5 211,-215.5 205,-209.5 205,-203.5 205,-203.5 205,-148.5 205,-148.5 205,-142.5 211,-136.5 217,-136.5"/>
<polygon fill="white" stroke="none" points="213,-140.5 213,-211.5 370,-211.5 370,-140.5 213,-140.5"/>
<polygon fill="black" stroke="none" points="215,-188.5 215,-209.5 368,-209.5 368,-188.5 215,-188.5"/>
<text text-anchor="start" x="275" y="-193.2" font-family="Courier New" font-size="14.00" fill="white">ne22</text>
<polygon fill="grey" stroke="none" points="215,-165.5 215,-186.5 270,-186.5 270,-165.5 215,-165.5"/>
<text text-anchor="start" x="217.75" y="-170.2" font-family="Courier New" font-size="14.00">Border</text>
<text text-anchor="start" x="275" y="-170.2" font-family="Courier New" font-size="14.00">Buf02</text>
<polygon fill="grey" stroke="none" points="215,-142.5 215,-163.5 270,-163.5 270,-142.5 215,-142.5"/>
<text text-anchor="start" x="217.75" y="-147.2" font-family="Courier New" font-size="14.00">Signal</text>
<text text-anchor="start" x="274.62" y="-147.2" font-family="Courier New" font-size="14.00">L09 J11 J12</text>
</g>
<!-- ne22&#45;&gt;ne8 -->
<g id="edge12" class="edge">
<title>ne22&#45;&gt;ne8</title>
<path fill="none" stroke="black" d="M378.25,-171.18C462.64,-168.19 594.79,-168.23 707,-189 726.08,-192.53 746.08,-198.24 764.74,-204.5"/>
<polygon fill="black" stroke="black" points="763.53,-207.79 774.13,-207.75 765.82,-201.17 763.53,-207.79"/>
</g>
<!-- ne22&#45;&gt;ne24 -->
<g id="edge13" class="edge">
<title>ne22&#45;&gt;ne24</title>
<path fill="none" stroke="black" d="M378.49,-158.59C430,-148.16 493.09,-135.38 533.42,-127.22"/>
<polygon fill="black" stroke="black" points="534.07,-130.66 543.18,-125.24 532.68,-123.8 534.07,-130.66"/>
</g>
</g>
</svg>
