<?xml version="1.0" encoding="UTF-8" standalone="no"?>
<!DOCTYPE svg PUBLIC "-//W3C//DTD SVG 1.1//EN"
 "http://www.w3.org/Graphics/SVG/1.1/DTD/svg11.dtd">
<!-- Generated by graphviz version 9.0.0 (20230911.1827)
 -->
<!-- Title: finite_state_machine Pages: 1 -->
<svg width="21600pt" height="10869pt"
 viewBox="0.00 0.00 21600.00 10868.93" xmlns="http://www.w3.org/2000/svg" xmlns:xlink="http://www.w3.org/1999/xlink">
<g id="graph0" class="graph" transform="scale(29.0225 29.0225) rotate(0) translate(4 370.5)">
<title>finite_state_machine</title>
<polygon fill="white" stroke="none" points="-4,4 -4,-370.5 740.25,-370.5 740.25,4 -4,4"/>
<!-- ne1 -->
<g id="node1" class="node">
<title>ne1</title>
<path fill="white" stroke="black" stroke-width="2" d="M218.5,-264C218.5,-264 400.5,-264 400.5,-264 406.5,-264 412.5,-270 412.5,-276 412.5,-276 412.5,-354 412.5,-354 412.5,-360 406.5,-366 400.5,-366 400.5,-366 218.5,-366 218.5,-366 212.5,-366 206.5,-360 206.5,-354 206.5,-354 206.5,-276 206.5,-276 206.5,-270 212.5,-264 218.5,-264"/>
<polygon fill="white" stroke="none" points="214.5,-268 214.5,-362 404.5,-362 404.5,-268 214.5,-268"/>
<polygon fill="black" stroke="none" points="216.5,-339 216.5,-360 402.5,-360 402.5,-339 216.5,-339"/>
<text text-anchor="start" x="297.12" y="-343.7" font-family="Courier New" font-size="14.00" fill="white">ne1</text>
<polygon fill="red" stroke="none" points="216.5,-316 216.5,-337 304.5,-337 304.5,-316 216.5,-316"/>
<text text-anchor="start" x="252" y="-320.7" font-family="Courier New" font-size="14.00">Switch</text>
<text text-anchor="start" x="309.5" y="-320.7" font-family="Courier New" font-size="14.00">Sw18</text>
<polygon fill="olive" stroke="none" points="216.5,-293 216.5,-314 304.5,-314 304.5,-293 216.5,-293"/>
<text text-anchor="start" x="219.25" y="-297.7" font-family="Courier New" font-size="14.00">BufferStop</text>
<text text-anchor="start" x="309.5" y="-297.7" font-family="Courier New" font-size="14.00">Buf01</text>
<polygon fill="yellowgreen" stroke="none" points="216.5,-270 216.5,-291 304.5,-291 304.5,-270 216.5,-270"/>
<text text-anchor="start" x="252" y="-274.7" font-family="Courier New" font-size="14.00">Signal</text>
<text text-anchor="start" x="309.12" y="-274.7" font-family="Courier New" font-size="14.00">T01 T02 S14</text>
</g>
<!-- ne1&#45;&#45;ne1 -->
<g id="edge1" class="edge">
<title>ne1&#45;&#45;ne1</title>
<path fill="none" stroke="black" d="M412.77,-327.02C423.58,-324.67 430.5,-320.67 430.5,-315 430.5,-309.33 423.58,-305.33 412.77,-302.98"/>
<text text-anchor="middle" x="445.88" y="-309.57" font-family="Times New Roman,serif" font-size="14.00">R_01</text>
</g>
<!-- ne40 -->
<g id="node3" class="node">
<title>ne40</title>
<path fill="white" stroke="black" stroke-width="2" d="M148.5,-143.75C148.5,-143.75 240.5,-143.75 240.5,-143.75 246.5,-143.75 252.5,-149.75 252.5,-155.75 252.5,-155.75 252.5,-187.75 252.5,-187.75 252.5,-193.75 246.5,-199.75 240.5,-199.75 240.5,-199.75 148.5,-199.75 148.5,-199.75 142.5,-199.75 136.5,-193.75 136.5,-187.75 136.5,-187.75 136.5,-155.75 136.5,-155.75 136.5,-149.75 142.5,-143.75 148.5,-143.75"/>
<polygon fill="white" stroke="none" points="144.5,-147.75 144.5,-195.75 244.5,-195.75 244.5,-147.75 144.5,-147.75"/>
<polygon fill="black" stroke="none" points="146.5,-172.75 146.5,-193.75 242.5,-193.75 242.5,-172.75 146.5,-172.75"/>
<text text-anchor="start" x="178" y="-177.45" font-family="Courier New" font-size="14.00" fill="white">ne40</text>
<polygon fill="red" stroke="none" points="146.5,-149.75 146.5,-170.75 201.5,-170.75 201.5,-149.75 146.5,-149.75"/>
<text text-anchor="start" x="149.25" y="-154.45" font-family="Courier New" font-size="14.00">Switch</text>
<text text-anchor="start" x="206.5" y="-154.45" font-family="Courier New" font-size="14.00">Sw14</text>
</g>
<!-- ne1&#45;&#45;ne40 -->
<g id="edge9" class="edge">
<title>ne1&#45;&#45;ne40</title>
<path fill="none" stroke="black" d="M278.65,-263.71C270.89,-252.21 262.27,-240.27 253.5,-229.75 244.93,-219.46 234.7,-209.05 225.18,-199.98"/>
<text text-anchor="middle" x="279.88" y="-232.2" font-family="Times New Roman,serif" font-size="14.00">R_07</text>
</g>
<!-- ne1&#45;&#45;ne40 -->
<g id="edge11" class="edge">
<title>ne1&#45;&#45;ne40</title>
<path fill="none" stroke="black" d="M311.26,-263.56C309.65,-251.69 306.2,-239.63 299.5,-229.75 288.27,-213.18 270.58,-201.01 252.91,-192.26"/>
<text text-anchor="middle" x="321.88" y="-232.2" font-family="Times New Roman,serif" font-size="14.00">R_08</text>
</g>
<!-- ne41 -->
<g id="node7" class="node">
<title>ne41</title>
<path fill="white" stroke="black" stroke-width="2" d="M411,-143.75C411,-143.75 494,-143.75 494,-143.75 500,-143.75 506,-149.75 506,-155.75 506,-155.75 506,-187.75 506,-187.75 506,-193.75 500,-199.75 494,-199.75 494,-199.75 411,-199.75 411,-199.75 405,-199.75 399,-193.75 399,-187.75 399,-187.75 399,-155.75 399,-155.75 399,-149.75 405,-143.75 411,-143.75"/>
<polygon fill="white" stroke="none" points="407,-147.75 407,-195.75 498,-195.75 498,-147.75 407,-147.75"/>
<polygon fill="black" stroke="none" points="409,-172.75 409,-193.75 496,-193.75 496,-172.75 409,-172.75"/>
<text text-anchor="start" x="436" y="-177.45" font-family="Courier New" font-size="14.00" fill="white">ne41</text>
<polygon fill="yellowgreen" stroke="none" points="409,-149.75 409,-170.75 464,-170.75 464,-149.75 409,-149.75"/>
<text text-anchor="start" x="411.75" y="-154.45" font-family="Courier New" font-size="14.00">Signal</text>
<text text-anchor="start" x="468.62" y="-154.45" font-family="Courier New" font-size="14.00">B18</text>
</g>
<!-- ne1&#45;&#45;ne41 -->
<g id="edge8" class="edge">
<title>ne1&#45;&#45;ne41</title>
<path fill="none" stroke="black" d="M352.13,-263.9C362.5,-252.39 373.77,-240.41 384.75,-229.75 395.12,-219.69 407.01,-209.33 417.9,-200.25"/>
<text text-anchor="middle" x="399.88" y="-232.2" font-family="Times New Roman,serif" font-size="14.00">R_06</text>
</g>
<!-- ne31 -->
<g id="node2" class="node">
<title>ne31</title>
<path fill="white" stroke="black" stroke-width="2" d="M12,-275.5C12,-275.5 161,-275.5 161,-275.5 167,-275.5 173,-281.5 173,-287.5 173,-287.5 173,-342.5 173,-342.5 173,-348.5 167,-354.5 161,-354.5 161,-354.5 12,-354.5 12,-354.5 6,-354.5 0,-348.5 0,-342.5 0,-342.5 0,-287.5 0,-287.5 0,-281.5 6,-275.5 12,-275.5"/>
<polygon fill="white" stroke="none" points="8,-279.5 8,-350.5 165,-350.5 165,-279.5 8,-279.5"/>
<polygon fill="black" stroke="none" points="10,-327.5 10,-348.5 163,-348.5 163,-327.5 10,-327.5"/>
<text text-anchor="start" x="70" y="-332.2" font-family="Courier New" font-size="14.00" fill="white">ne31</text>
<polygon fill="olive" stroke="none" points="10,-304.5 10,-325.5 98,-325.5 98,-304.5 10,-304.5"/>
<text text-anchor="start" x="12.75" y="-309.2" font-family="Courier New" font-size="14.00">BufferStop</text>
<text text-anchor="start" x="103" y="-309.2" font-family="Courier New" font-size="14.00">Buf03</text>
<polygon fill="yellowgreen" stroke="none" points="10,-281.5 10,-302.5 98,-302.5 98,-281.5 10,-281.5"/>
<text text-anchor="start" x="45.5" y="-286.2" font-family="Courier New" font-size="14.00">Signal</text>
<text text-anchor="start" x="102.62" y="-286.2" font-family="Courier New" font-size="14.00">T03 T04</text>
</g>
<!-- ne31&#45;&#45;ne40 -->
<g id="edge2" class="edge">
<title>ne31&#45;&#45;ne40</title>
<path fill="none" stroke="black" d="M61.13,-275.05C54.69,-260.04 51.81,-243.28 60.75,-229.75 77.59,-204.27 108.39,-190.14 136.19,-182.33"/>
<text text-anchor="middle" x="75.88" y="-232.2" font-family="Times New Roman,serif" font-size="14.00">R_02</text>
</g>
<!-- ne40&#45;&#45;ne1 -->
<g id="edge3" class="edge">
<title>ne40&#45;&#45;ne1</title>
<path fill="none" stroke="black" d="M173.79,-199.94C165.61,-214.19 160.01,-231.53 168.75,-245.5 177.97,-260.25 191.38,-271.9 206.31,-281.09"/>
<text text-anchor="middle" x="183.88" y="-232.2" font-family="Times New Roman,serif" font-size="14.00">R_02</text>
</g>
<!-- ne40&#45;&#45;ne1 -->
<g id="edge5" class="edge">
<title>ne40&#45;&#45;ne1</title>
<path fill="none" stroke="black" d="M201.32,-200.05C205.83,-214.5 212.77,-231.99 222.75,-245.5 227.43,-251.83 232.83,-257.89 238.61,-263.6"/>
<text text-anchor="middle" x="237.88" y="-232.2" font-family="Times New Roman,serif" font-size="14.00">R_03</text>
</g>
<!-- ne40&#45;&#45;ne31 -->
<g id="edge10" class="edge">
<title>ne40&#45;&#45;ne31</title>
<path fill="none" stroke="black" d="M145.97,-200.1C134.49,-208.41 123.15,-218.39 114.75,-229.75 104.93,-243.02 98.39,-259.92 94.09,-275.09"/>
<text text-anchor="middle" x="129.88" y="-232.2" font-family="Times New Roman,serif" font-size="14.00">R_07</text>
</g>
<!-- ne32 -->
<g id="node4" class="node">
<title>ne32</title>
<path fill="white" stroke="black" stroke-width="2" d="M120,-0.5C120,-0.5 269,-0.5 269,-0.5 275,-0.5 281,-6.5 281,-12.5 281,-12.5 281,-67.5 281,-67.5 281,-73.5 275,-79.5 269,-79.5 269,-79.5 120,-79.5 120,-79.5 114,-79.5 108,-73.5 108,-67.5 108,-67.5 108,-12.5 108,-12.5 108,-6.5 114,-0.5 120,-0.5"/>
<polygon fill="white" stroke="none" points="116,-4.5 116,-75.5 273,-75.5 273,-4.5 116,-4.5"/>
<polygon fill="black" stroke="none" points="118,-52.5 118,-73.5 271,-73.5 271,-52.5 118,-52.5"/>
<text text-anchor="start" x="178" y="-57.2" font-family="Courier New" font-size="14.00" fill="white">ne32</text>
<polygon fill="olive" stroke="none" points="118,-29.5 118,-50.5 206,-50.5 206,-29.5 118,-29.5"/>
<text text-anchor="start" x="120.75" y="-34.2" font-family="Courier New" font-size="14.00">BufferStop</text>
<text text-anchor="start" x="211" y="-34.2" font-family="Courier New" font-size="14.00">Buf21</text>
<polygon fill="yellowgreen" stroke="none" points="118,-6.5 118,-27.5 206,-27.5 206,-6.5 118,-6.5"/>
<text text-anchor="start" x="153.5" y="-11.2" font-family="Courier New" font-size="14.00">Signal</text>
<text text-anchor="start" x="210.62" y="-11.2" font-family="Courier New" font-size="14.00">T05 T06</text>
</g>
<!-- ne40&#45;&#45;ne32 -->
<g id="edge12" class="edge">
<title>ne40&#45;&#45;ne32</title>
<path fill="none" stroke="black" d="M176.84,-143.4C171.92,-134.33 167.25,-123.94 164.75,-113.75 161.99,-102.49 164.34,-90.68 168.71,-79.94"/>
<text text-anchor="middle" x="179.88" y="-100.45" font-family="Times New Roman,serif" font-size="14.00">R_08</text>
</g>
<!-- ne32&#45;&#45;ne40 -->
<g id="edge4" class="edge">
<title>ne32&#45;&#45;ne40</title>
<path fill="none" stroke="black" d="M198.79,-79.87C199.56,-90.82 199.98,-102.75 199.5,-113.75 199.07,-123.48 198.24,-134.11 197.38,-143.53"/>
<text text-anchor="middle" x="214.88" y="-100.45" font-family="Times New Roman,serif" font-size="14.00">R_03</text>
</g>
<!-- ne42 -->
<g id="node5" class="node">
<title>ne42</title>
<path fill="white" stroke="black" stroke-width="2" d="M493.5,-264C493.5,-264 675.5,-264 675.5,-264 681.5,-264 687.5,-270 687.5,-276 687.5,-276 687.5,-354 687.5,-354 687.5,-360 681.5,-366 675.5,-366 675.5,-366 493.5,-366 493.5,-366 487.5,-366 481.5,-360 481.5,-354 481.5,-354 481.5,-276 481.5,-276 481.5,-270 487.5,-264 493.5,-264"/>
<polygon fill="white" stroke="none" points="489.5,-268 489.5,-362 679.5,-362 679.5,-268 489.5,-268"/>
<polygon fill="black" stroke="none" points="491.5,-339 491.5,-360 677.5,-360 677.5,-339 491.5,-339"/>
<text text-anchor="start" x="568" y="-343.7" font-family="Courier New" font-size="14.00" fill="white">ne42</text>
<polygon fill="red" stroke="none" points="491.5,-316 491.5,-337 579.5,-337 579.5,-316 491.5,-316"/>
<text text-anchor="start" x="527" y="-320.7" font-family="Courier New" font-size="14.00">Switch</text>
<text text-anchor="start" x="584.5" y="-320.7" font-family="Courier New" font-size="14.00">Sw19</text>
<polygon fill="olive" stroke="none" points="491.5,-293 491.5,-314 579.5,-314 579.5,-293 491.5,-293"/>
<text text-anchor="start" x="494.25" y="-297.7" font-family="Courier New" font-size="14.00">BufferStop</text>
<text text-anchor="start" x="584.5" y="-297.7" font-family="Courier New" font-size="14.00">Buf29</text>
<polygon fill="yellowgreen" stroke="none" points="491.5,-270 491.5,-291 579.5,-291 579.5,-270 491.5,-270"/>
<text text-anchor="start" x="527" y="-274.7" font-family="Courier New" font-size="14.00">Signal</text>
<text text-anchor="start" x="584.12" y="-274.7" font-family="Courier New" font-size="14.00">T07 T08 H20</text>
</g>
<!-- ne42&#45;&#45;ne42 -->
<g id="edge6" class="edge">
<title>ne42&#45;&#45;ne42</title>
<path fill="none" stroke="black" d="M687.77,-327.02C698.58,-324.67 705.5,-320.67 705.5,-315 705.5,-309.33 698.58,-305.33 687.77,-302.98"/>
<text text-anchor="middle" x="720.88" y="-309.57" font-family="Times New Roman,serif" font-size="14.00">R_04</text>
</g>
<!-- ne43 -->
<g id="node6" class="node">
<title>ne43</title>
<path fill="white" stroke="black" stroke-width="2" d="M552,-132.25C552,-132.25 701,-132.25 701,-132.25 707,-132.25 713,-138.25 713,-144.25 713,-144.25 713,-199.25 713,-199.25 713,-205.25 707,-211.25 701,-211.25 701,-211.25 552,-211.25 552,-211.25 546,-211.25 540,-205.25 540,-199.25 540,-199.25 540,-144.25 540,-144.25 540,-138.25 546,-132.25 552,-132.25"/>
<polygon fill="white" stroke="none" points="548,-136.25 548,-207.25 705,-207.25 705,-136.25 548,-136.25"/>
<polygon fill="black" stroke="none" points="550,-184.25 550,-205.25 703,-205.25 703,-184.25 550,-184.25"/>
<text text-anchor="start" x="610" y="-188.95" font-family="Courier New" font-size="14.00" fill="white">ne43</text>
<polygon fill="olive" stroke="none" points="550,-161.25 550,-182.25 638,-182.25 638,-161.25 550,-161.25"/>
<text text-anchor="start" x="552.75" y="-165.95" font-family="Courier New" font-size="14.00">BufferStop</text>
<text text-anchor="start" x="643" y="-165.95" font-family="Courier New" font-size="14.00">Buf28</text>
<polygon fill="yellowgreen" stroke="none" points="550,-138.25 550,-159.25 638,-159.25 638,-138.25 550,-138.25"/>
<text text-anchor="start" x="585.5" y="-142.95" font-family="Courier New" font-size="14.00">Signal</text>
<text text-anchor="start" x="642.62" y="-142.95" font-family="Courier New" font-size="14.00">T09 T10</text>
</g>
<!-- ne42&#45;&#45;ne43 -->
<g id="edge16" class="edge">
<title>ne42&#45;&#45;ne43</title>
<path fill="none" stroke="black" d="M588.96,-263.91C590.75,-252.52 593.25,-240.58 596.75,-229.75 598.71,-223.7 601.27,-217.51 604.07,-211.56"/>
<text text-anchor="middle" x="611.88" y="-232.2" font-family="Times New Roman,serif" font-size="14.00">R_11</text>
</g>
<!-- ne42&#45;&#45;ne41 -->
<g id="edge14" class="edge">
<title>ne42&#45;&#45;ne41</title>
<path fill="none" stroke="black" d="M506.84,-263.7C500.34,-257.97 494.19,-251.88 488.75,-245.5 477.4,-232.19 468.54,-214.7 462.42,-200.21"/>
<text text-anchor="middle" x="503.88" y="-232.2" font-family="Times New Roman,serif" font-size="14.00">R_10</text>
</g>
<!-- ne43&#45;&#45;ne42 -->
<g id="edge7" class="edge">
<title>ne43&#45;&#45;ne42</title>
<path fill="none" stroke="black" d="M634.37,-211.5C635.25,-222.67 634.84,-234.74 631.5,-245.5 629.58,-251.7 626.88,-257.84 623.74,-263.74"/>
<text text-anchor="middle" x="648.88" y="-232.2" font-family="Times New Roman,serif" font-size="14.00">R_05</text>
</g>
<!-- ne41&#45;&#45;ne1 -->
<g id="edge15" class="edge">
<title>ne41&#45;&#45;ne1</title>
<path fill="none" stroke="black" d="M442.67,-200.07C436.46,-214.69 427.36,-232.35 415.5,-245.5 409.7,-251.93 403.17,-258 396.27,-263.68"/>
<text text-anchor="middle" x="440.88" y="-232.2" font-family="Times New Roman,serif" font-size="14.00">R_10</text>
</g>
<!-- ne41&#45;&#45;ne42 -->
<g id="edge13" class="edge">
<title>ne41&#45;&#45;ne42</title>
<path fill="none" stroke="black" d="M490.24,-199.98C501.49,-208.89 513.48,-219.21 523.5,-229.75 533.33,-240.09 542.91,-252.07 551.44,-263.69"/>
<text text-anchor="middle" x="551.88" y="-232.2" font-family="Times New Roman,serif" font-size="14.00">R_09</text>
</g>
</g>
</svg>
