<?xml version="1.0" encoding="UTF-8" standalone="no"?>
<!DOCTYPE svg PUBLIC "-//W3C//DTD SVG 1.1//EN"
 "http://www.w3.org/Graphics/SVG/1.1/DTD/svg11.dtd">
<!-- Generated by graphviz version 9.0.0 (20230911.1827)
 -->
<!-- Title: finite_state_machine Pages: 1 -->
<svg width="448pt" height="266pt"
 viewBox="0.00 0.00 448.15 266.22" xmlns="http://www.w3.org/2000/svg" xmlns:xlink="http://www.w3.org/1999/xlink">
<g id="graph0" class="graph" transform="scale(1 1) rotate(0) translate(4 262.22)">
<title>finite_state_machine</title>
<polygon fill="white" stroke="none" points="-4,4 -4,-262.22 444.15,-262.22 444.15,4 -4,4"/>
<!-- ne1 -->
<g id="node1" class="node">
<title>ne1</title>
<ellipse fill="lightgreen" stroke="lightgreen" cx="23.62" cy="-124.11" rx="23.62" ry="23.62"/>
<text text-anchor="middle" x="23.62" y="-118.69" font-family="Times New Roman,serif" font-size="14.00">ne1</text>
</g>
<!-- ne1&#45;&gt;ne1 -->
<g id="edge1" class="edge">
<title>ne1&#45;&gt;ne1</title>
<path fill="none" stroke="black" d="M13.25,-145.52C11.81,-156.2 15.27,-165.73 23.62,-165.73 28.71,-165.73 31.98,-162.19 33.43,-157.01"/>
<polygon fill="black" stroke="black" points="36.93,-157.19 33.92,-147.04 29.94,-156.85 36.93,-157.19"/>
<text text-anchor="middle" x="23.62" y="-168.18" font-family="Times New Roman,serif" font-size="14.00">R_01</text>
</g>
<!-- ne40 -->
<g id="node3" class="node">
<title>ne40</title>
<ellipse fill="lightgreen" stroke="lightgreen" cx="146.1" cy="-161.11" rx="28.11" ry="28.11"/>
<ellipse fill="none" stroke="lightgreen" cx="146.1" cy="-161.11" rx="32.11" ry="32.11"/>
<text text-anchor="middle" x="146.1" y="-155.69" font-family="Times New Roman,serif" font-size="14.00">ne40</text>
</g>
<!-- ne1&#45;&gt;ne40 -->
<g id="edge9" class="edge">
<title>ne1&#45;&gt;ne40</title>
<path fill="none" stroke="black" d="M30.07,-147.2C35.64,-165.1 46.25,-188.73 65.24,-200.11 80.91,-209.5 99.17,-201.86 114.27,-190.93"/>
<polygon fill="black" stroke="black" points="116.38,-193.73 122.03,-184.77 112.03,-188.25 116.38,-193.73"/>
<text text-anchor="middle" x="80.61" y="-206.56" font-family="Times New Roman,serif" font-size="14.00">R_07</text>
</g>
<!-- ne1&#45;&gt;ne40 -->
<g id="edge11" class="edge">
<title>ne1&#45;&gt;ne40</title>
<path fill="none" stroke="black" d="M39.26,-142.4C46.26,-149.69 55.28,-157.25 65.24,-161.11 77.02,-165.67 90.53,-166.99 103.05,-166.79"/>
<polygon fill="black" stroke="black" points="102.86,-170.3 112.67,-166.3 102.51,-163.31 102.86,-170.3"/>
<text text-anchor="middle" x="80.61" y="-168.56" font-family="Times New Roman,serif" font-size="14.00">R_08</text>
</g>
<!-- ne41 -->
<g id="node7" class="node">
<title>ne41</title>
<ellipse fill="lightgreen" stroke="lightgreen" cx="146.1" cy="-49.11" rx="28.11" ry="28.11"/>
<ellipse fill="none" stroke="lightgreen" cx="146.1" cy="-49.11" rx="32.11" ry="32.11"/>
<text text-anchor="middle" x="146.1" y="-43.69" font-family="Times New Roman,serif" font-size="14.00">ne41</text>
</g>
<!-- ne1&#45;&gt;ne41 -->
<g id="edge8" class="edge">
<title>ne1&#45;&gt;ne41</title>
<path fill="none" stroke="black" d="M42.34,-109.22C49.29,-103.66 57.45,-97.46 65.24,-92.36 78.38,-83.75 93.38,-75.3 106.81,-68.18"/>
<polygon fill="black" stroke="black" points="108.13,-71.44 115.37,-63.71 104.89,-65.23 108.13,-71.44"/>
<text text-anchor="middle" x="80.61" y="-95.56" font-family="Times New Roman,serif" font-size="14.00">R_06</text>
</g>
<!-- ne31 -->
<g id="node2" class="node">
<title>ne31</title>
<ellipse fill="lightgreen" stroke="lightgreen" cx="277.07" cy="-226.11" rx="28.11" ry="28.11"/>
<ellipse fill="none" stroke="lightgreen" cx="277.07" cy="-226.11" rx="32.11" ry="32.11"/>
<text text-anchor="middle" x="277.07" y="-220.69" font-family="Times New Roman,serif" font-size="14.00">ne31</text>
</g>
<!-- ne31&#45;&gt;ne40 -->
<g id="edge2" class="edge">
<title>ne31&#45;&gt;ne40</title>
<path fill="none" stroke="black" d="M249.07,-209.63C241.96,-205.48 234.24,-201.13 226.96,-197.36 213.84,-190.56 199.19,-183.71 186.05,-177.82"/>
<polygon fill="black" stroke="black" points="187.85,-174.79 177.28,-173.94 185.01,-181.19 187.85,-174.79"/>
<text text-anchor="middle" x="211.58" y="-199.56" font-family="Times New Roman,serif" font-size="14.00">R_02</text>
</g>
<!-- ne40&#45;&gt;ne1 -->
<g id="edge3" class="edge">
<title>ne40&#45;&gt;ne1</title>
<path fill="none" stroke="black" d="M115,-151.35C108.73,-149.34 102.15,-147.26 95.99,-145.36 83.54,-141.51 69.83,-137.4 57.78,-133.83"/>
<polygon fill="black" stroke="black" points="58.87,-130.5 48.29,-131.02 56.89,-137.21 58.87,-130.5"/>
<text text-anchor="middle" x="80.61" y="-147.56" font-family="Times New Roman,serif" font-size="14.00">R_02</text>
</g>
<!-- ne40&#45;&gt;ne1 -->
<g id="edge5" class="edge">
<title>ne40&#45;&gt;ne1</title>
<path fill="none" stroke="black" d="M125.08,-136.62C116.98,-128.58 106.96,-120.61 95.99,-116.36 83.8,-111.64 69.62,-112.09 57.12,-114.26"/>
<polygon fill="black" stroke="black" points="56.72,-110.77 47.7,-116.32 58.22,-117.6 56.72,-110.77"/>
<text text-anchor="middle" x="80.61" y="-118.56" font-family="Times New Roman,serif" font-size="14.00">R_03</text>
</g>
<!-- ne40&#45;&gt;ne31 -->
<g id="edge10" class="edge">
<title>ne40&#45;&gt;ne31</title>
<path fill="none" stroke="black" d="M165.71,-187.12C173.97,-196.78 184.47,-206.88 196.21,-213.11 207.51,-219.11 220.89,-222.48 233.43,-224.34"/>
<polygon fill="black" stroke="black" points="232.78,-227.79 243.12,-225.48 233.59,-220.84 232.78,-227.79"/>
<text text-anchor="middle" x="211.58" y="-224.56" font-family="Times New Roman,serif" font-size="14.00">R_07</text>
</g>
<!-- ne32 -->
<g id="node4" class="node">
<title>ne32</title>
<ellipse fill="lightgreen" stroke="lightgreen" cx="277.07" cy="-144.11" rx="28.11" ry="28.11"/>
<ellipse fill="none" stroke="lightgreen" cx="277.07" cy="-144.11" rx="32.11" ry="32.11"/>
<text text-anchor="middle" x="277.07" y="-138.69" font-family="Times New Roman,serif" font-size="14.00">ne32</text>
</g>
<!-- ne40&#45;&gt;ne32 -->
<g id="edge12" class="edge">
<title>ne40&#45;&gt;ne32</title>
<path fill="none" stroke="black" d="M178.32,-156.99C195.03,-154.79 215.85,-152.05 233.97,-149.66"/>
<polygon fill="black" stroke="black" points="234.18,-153.16 243.64,-148.39 233.26,-146.22 234.18,-153.16"/>
<text text-anchor="middle" x="211.58" y="-156.56" font-family="Times New Roman,serif" font-size="14.00">R_08</text>
</g>
<!-- ne32&#45;&gt;ne40 -->
<g id="edge4" class="edge">
<title>ne32&#45;&gt;ne40</title>
<path fill="none" stroke="black" d="M249.58,-127.11C233.92,-119.23 213.78,-112.9 196.21,-119.36 189.45,-121.84 182.99,-125.71 177.11,-130.12"/>
<polygon fill="black" stroke="black" points="175,-127.32 169.53,-136.39 179.47,-132.71 175,-127.32"/>
<text text-anchor="middle" x="211.58" y="-121.56" font-family="Times New Roman,serif" font-size="14.00">R_03</text>
</g>
<!-- ne42 -->
<g id="node5" class="node">
<title>ne42</title>
<ellipse fill="lightgreen" stroke="lightgreen" cx="277.07" cy="-32.11" rx="28.11" ry="28.11"/>
<text text-anchor="middle" x="277.07" y="-26.69" font-family="Times New Roman,serif" font-size="14.00">ne42</text>
</g>
<!-- ne42&#45;&gt;ne42 -->
<g id="edge6" class="edge">
<title>ne42&#45;&gt;ne42</title>
<path fill="none" stroke="black" d="M264.94,-57.72C263.94,-68.76 267.99,-78.22 277.07,-78.22 282.74,-78.22 286.45,-74.53 288.19,-69.06"/>
<polygon fill="black" stroke="black" points="291.67,-69.49 289.07,-59.22 284.69,-68.87 291.67,-69.49"/>
<text text-anchor="middle" x="277.07" y="-80.67" font-family="Times New Roman,serif" font-size="14.00">R_04</text>
</g>
<!-- ne43 -->
<g id="node6" class="node">
<title>ne43</title>
<ellipse fill="lightgreen" stroke="lightgreen" cx="408.04" cy="-32.11" rx="28.11" ry="28.11"/>
<ellipse fill="none" stroke="lightgreen" cx="408.04" cy="-32.11" rx="32.11" ry="32.11"/>
<text text-anchor="middle" x="408.04" y="-26.69" font-family="Times New Roman,serif" font-size="14.00">ne43</text>
</g>
<!-- ne42&#45;&gt;ne43 -->
<g id="edge16" class="edge">
<title>ne42&#45;&gt;ne43</title>
<path fill="none" stroke="black" d="M305.42,-32.11C322.52,-32.11 344.91,-32.11 364.32,-32.11"/>
<polygon fill="black" stroke="black" points="364.13,-35.61 374.13,-32.11 364.13,-28.61 364.13,-35.61"/>
<text text-anchor="middle" x="342.55" y="-34.56" font-family="Times New Roman,serif" font-size="14.00">R_11</text>
</g>
<!-- ne42&#45;&gt;ne41 -->
<g id="edge14" class="edge">
<title>ne42&#45;&gt;ne41</title>
<path fill="none" stroke="black" d="M248.85,-28.17C233.3,-26.66 213.51,-26.01 196.21,-29.36 192.99,-29.98 189.72,-30.81 186.47,-31.78"/>
<polygon fill="black" stroke="black" points="185.37,-28.46 177.05,-35.02 187.65,-35.08 185.37,-28.46"/>
<text text-anchor="middle" x="211.58" y="-32.56" font-family="Times New Roman,serif" font-size="14.00">R_10</text>
</g>
<!-- ne43&#45;&gt;ne42 -->
<g id="edge7" class="edge">
<title>ne43&#45;&gt;ne42</title>
<path fill="none" stroke="black" d="M377.89,-19.71C371.43,-17.49 364.54,-15.52 357.93,-14.36 344.47,-12 340.64,-12 327.18,-14.36 322.83,-15.12 318.36,-16.23 313.98,-17.54"/>
<polygon fill="black" stroke="black" points="313.17,-14.12 304.79,-20.6 315.38,-20.76 313.17,-14.12"/>
<text text-anchor="middle" x="342.55" y="-17.56" font-family="Times New Roman,serif" font-size="14.00">R_05</text>
</g>
<!-- ne41&#45;&gt;ne1 -->
<g id="edge15" class="edge">
<title>ne41&#45;&gt;ne1</title>
<path fill="none" stroke="black" d="M113.81,-45.06C98.14,-44.57 79.52,-46.46 65.24,-55.36 52.06,-63.58 42.63,-77.77 36.2,-91.14"/>
<polygon fill="black" stroke="black" points="33.06,-89.6 32.28,-100.16 39.48,-92.39 33.06,-89.6"/>
<text text-anchor="middle" x="80.61" y="-58.56" font-family="Times New Roman,serif" font-size="14.00">R_10</text>
</g>
<!-- ne41&#45;&gt;ne42 -->
<g id="edge13" class="edge">
<title>ne41&#45;&gt;ne42</title>
<path fill="none" stroke="black" d="M178.4,-51.5C193.21,-52.03 211.1,-51.78 226.96,-49.11 231.29,-48.38 235.75,-47.32 240.13,-46.07"/>
<polygon fill="black" stroke="black" points="240.85,-49.51 249.31,-43.14 238.72,-42.84 240.85,-49.51"/>
<text text-anchor="middle" x="211.58" y="-54.56" font-family="Times New Roman,serif" font-size="14.00">R_09</text>
</g>
</g>
</svg>
