<?xml version="1.0" encoding="UTF-8" standalone="no"?>
<!DOCTYPE svg PUBLIC "-//W3C//DTD SVG 1.1//EN"
 "http://www.w3.org/Graphics/SVG/1.1/DTD/svg11.dtd">
<!-- Generated by graphviz version 9.0.0 (20230911.1827)
 -->
<!-- Title: finite_state_machine Pages: 1 -->
<svg width="21600pt" height="10123pt"
 viewBox="0.00 0.00 21600.00 10122.53" xmlns="http://www.w3.org/2000/svg" xmlns:xlink="http://www.w3.org/1999/xlink">
<g id="graph0" class="graph" transform="scale(17.5967 17.5967) rotate(0) translate(4 571.25)">
<title>finite_state_machine</title>
<polygon fill="white" stroke="none" points="-4,4 -4,-571.25 1223.5,-571.25 1223.5,4 -4,4"/>
<!-- ne3 -->
<g id="node1" class="node">
<title>ne3</title>
<path fill="white" stroke="black" stroke-width="2" d="M119.5,-155.25C119.5,-155.25 367.5,-155.25 367.5,-155.25 373.5,-155.25 379.5,-161.25 379.5,-167.25 379.5,-167.25 379.5,-268.25 379.5,-268.25 379.5,-274.25 373.5,-280.25 367.5,-280.25 367.5,-280.25 119.5,-280.25 119.5,-280.25 113.5,-280.25 107.5,-274.25 107.5,-268.25 107.5,-268.25 107.5,-167.25 107.5,-167.25 107.5,-161.25 113.5,-155.25 119.5,-155.25"/>
<polygon fill="white" stroke="none" points="115.5,-159.25 115.5,-276.25 371.5,-276.25 371.5,-159.25 115.5,-159.25"/>
<polygon fill="black" stroke="none" points="117.5,-253.25 117.5,-274.25 369.5,-274.25 369.5,-253.25 117.5,-253.25"/>
<text text-anchor="start" x="231.12" y="-257.95" font-family="Courier New" font-size="14.00" fill="white">ne3</text>
<polygon fill="red" stroke="none" points="117.5,-230.25 117.5,-251.25 205.5,-251.25 205.5,-230.25 117.5,-230.25"/>
<text text-anchor="start" x="153" y="-234.95" font-family="Courier New" font-size="14.00">Switch</text>
<text text-anchor="start" x="210.5" y="-234.95" font-family="Courier New" font-size="14.00">Sw31</text>
<polygon fill="olive" stroke="none" points="117.5,-207.25 117.5,-228.25 205.5,-228.25 205.5,-207.25 117.5,-207.25"/>
<text text-anchor="start" x="120.25" y="-211.95" font-family="Courier New" font-size="14.00">BufferStop</text>
<text text-anchor="start" x="210.5" y="-211.95" font-family="Courier New" font-size="14.00">Buf05</text>
<polygon fill="cornflowerblue" stroke="none" points="117.5,-184.25 117.5,-205.25 205.5,-205.25 205.5,-184.25 117.5,-184.25"/>
<text text-anchor="start" x="136.5" y="-188.95" font-family="Courier New" font-size="14.00">Platform</text>
<text text-anchor="start" x="210.5" y="-188.95" font-family="Courier New" font-size="14.00">Plat10</text>
<polygon fill="yellowgreen" stroke="none" points="117.5,-161.25 117.5,-182.25 205.5,-182.25 205.5,-161.25 117.5,-161.25"/>
<text text-anchor="start" x="153" y="-165.95" font-family="Courier New" font-size="14.00">Signal</text>
<text text-anchor="start" x="210.12" y="-165.95" font-family="Courier New" font-size="14.00">T01 T02 J17 J21 S42</text>
</g>
<!-- ne3&#45;&#45;ne3 -->
<g id="edge1" class="edge">
<title>ne3&#45;&#45;ne3</title>
<path fill="none" stroke="black" d="M379.67,-222C390.68,-221.08 397.5,-219.66 397.5,-217.75 397.5,-215.84 390.68,-214.42 379.67,-213.5"/>
<text text-anchor="middle" x="412.88" y="-212.32" font-family="Times New Roman,serif" font-size="14.00">R_01</text>
</g>
<!-- ne3&#45;&#45;ne3 -->
<g id="edge16" class="edge">
<title>ne3&#45;&#45;ne3</title>
<path fill="none" stroke="black" d="M379.65,-228.42C407.82,-227.24 428.25,-223.68 428.25,-217.75 428.25,-211.82 407.82,-208.26 379.65,-207.08"/>
<text text-anchor="middle" x="443.62" y="-212.32" font-family="Times New Roman,serif" font-size="14.00">R_13</text>
</g>
<!-- ne3&#45;&#45;ne3 -->
<g id="edge17" class="edge">
<title>ne3&#45;&#45;ne3</title>
<path fill="none" stroke="black" d="M379.82,-234.39C423.59,-234.02 459,-228.47 459,-217.75 459,-207.03 423.59,-201.48 379.82,-201.11"/>
<text text-anchor="middle" x="474.38" y="-212.32" font-family="Times New Roman,serif" font-size="14.00">R_14</text>
</g>
<!-- ne46 -->
<g id="node6" class="node">
<title>ne46</title>
<path fill="white" stroke="black" stroke-width="2" d="M12,-0.5C12,-0.5 285,-0.5 285,-0.5 291,-0.5 297,-6.5 297,-12.5 297,-12.5 297,-90.5 297,-90.5 297,-96.5 291,-102.5 285,-102.5 285,-102.5 12,-102.5 12,-102.5 6,-102.5 0,-96.5 0,-90.5 0,-90.5 0,-12.5 0,-12.5 0,-6.5 6,-0.5 12,-0.5"/>
<polygon fill="white" stroke="none" points="8,-4.5 8,-98.5 289,-98.5 289,-4.5 8,-4.5"/>
<polygon fill="black" stroke="none" points="10,-75.5 10,-96.5 287,-96.5 287,-75.5 10,-75.5"/>
<text text-anchor="start" x="132" y="-80.2" font-family="Courier New" font-size="14.00" fill="white">ne46</text>
<polygon fill="darkcyan" stroke="none" points="10,-52.5 10,-73.5 123,-73.5 123,-52.5 10,-52.5"/>
<text text-anchor="start" x="12.88" y="-57.2" font-family="Courier New" font-size="14.00">LevelCrossing</text>
<text text-anchor="start" x="128" y="-57.2" font-family="Courier New" font-size="14.00">Lc10</text>
<polygon fill="cornflowerblue" stroke="none" points="10,-29.5 10,-50.5 123,-50.5 123,-29.5 10,-29.5"/>
<text text-anchor="start" x="54" y="-34.2" font-family="Courier New" font-size="14.00">Platform</text>
<text text-anchor="start" x="128" y="-34.2" font-family="Courier New" font-size="14.00">Plat13</text>
<polygon fill="yellowgreen" stroke="none" points="10,-6.5 10,-27.5 123,-27.5 123,-6.5 10,-6.5"/>
<text text-anchor="start" x="70.5" y="-11.2" font-family="Courier New" font-size="14.00">Signal</text>
<text text-anchor="start" x="127.62" y="-11.2" font-family="Courier New" font-size="14.00">J09 J10 J16 X31 C41</text>
</g>
<!-- ne3&#45;&#45;ne46 -->
<g id="edge30" class="edge">
<title>ne3&#45;&#45;ne46</title>
<path fill="none" stroke="black" d="M213.19,-154.87C207.23,-143.48 200.85,-131.78 194.5,-121 191.01,-115.07 187.21,-108.96 183.35,-102.94"/>
<text text-anchor="middle" x="217.88" y="-123.45" font-family="Times New Roman,serif" font-size="14.00">R_24</text>
</g>
<!-- ne53 -->
<g id="node7" class="node">
<title>ne53</title>
<path fill="white" stroke="black" stroke-width="2" d="M507.5,-23.5C507.5,-23.5 599.5,-23.5 599.5,-23.5 605.5,-23.5 611.5,-29.5 611.5,-35.5 611.5,-35.5 611.5,-67.5 611.5,-67.5 611.5,-73.5 605.5,-79.5 599.5,-79.5 599.5,-79.5 507.5,-79.5 507.5,-79.5 501.5,-79.5 495.5,-73.5 495.5,-67.5 495.5,-67.5 495.5,-35.5 495.5,-35.5 495.5,-29.5 501.5,-23.5 507.5,-23.5"/>
<polygon fill="white" stroke="none" points="503.5,-27.5 503.5,-75.5 603.5,-75.5 603.5,-27.5 503.5,-27.5"/>
<polygon fill="black" stroke="none" points="505.5,-52.5 505.5,-73.5 601.5,-73.5 601.5,-52.5 505.5,-52.5"/>
<text text-anchor="start" x="537" y="-57.2" font-family="Courier New" font-size="14.00" fill="white">ne53</text>
<polygon fill="red" stroke="none" points="505.5,-29.5 505.5,-50.5 560.5,-50.5 560.5,-29.5 505.5,-29.5"/>
<text text-anchor="start" x="508.25" y="-34.2" font-family="Courier New" font-size="14.00">Switch</text>
<text text-anchor="start" x="565.5" y="-34.2" font-family="Courier New" font-size="14.00">Sw33</text>
</g>
<!-- ne3&#45;&#45;ne53 -->
<g id="edge31" class="edge">
<title>ne3&#45;&#45;ne53</title>
<path fill="none" stroke="black" d="M379.82,-194.83C422.64,-182.96 467.97,-164.72 503.5,-136.75 522.21,-122.02 535.41,-98.21 543.53,-79.65"/>
<text text-anchor="middle" x="533.88" y="-123.45" font-family="Times New Roman,serif" font-size="14.00">R_25</text>
</g>
<!-- ne3&#45;&#45;ne53 -->
<g id="edge33" class="edge">
<title>ne3&#45;&#45;ne53</title>
<path fill="none" stroke="black" d="M266.46,-155.2C274.15,-141.98 284.1,-129.46 296.75,-121 354.69,-82.28 385.71,-122.88 452.5,-103 471.1,-97.46 490.42,-88.66 507.12,-79.94"/>
<text text-anchor="middle" x="311.88" y="-123.45" font-family="Times New Roman,serif" font-size="14.00">R_26</text>
</g>
<!-- ne40 -->
<g id="node2" class="node">
<title>ne40</title>
<path fill="white" stroke="black" stroke-width="2" d="M319,-441.75C319,-441.75 600,-441.75 600,-441.75 606,-441.75 612,-447.75 612,-453.75 612,-453.75 612,-554.75 612,-554.75 612,-560.75 606,-566.75 600,-566.75 600,-566.75 319,-566.75 319,-566.75 313,-566.75 307,-560.75 307,-554.75 307,-554.75 307,-453.75 307,-453.75 307,-447.75 313,-441.75 319,-441.75"/>
<polygon fill="white" stroke="none" points="315,-445.75 315,-562.75 604,-562.75 604,-445.75 315,-445.75"/>
<polygon fill="black" stroke="none" points="317,-539.75 317,-560.75 602,-560.75 602,-539.75 317,-539.75"/>
<text text-anchor="start" x="443" y="-544.45" font-family="Courier New" font-size="14.00" fill="white">ne40</text>
<polygon fill="red" stroke="none" points="317,-516.75 317,-537.75 405,-537.75 405,-516.75 317,-516.75"/>
<text text-anchor="start" x="352.5" y="-521.45" font-family="Courier New" font-size="14.00">Switch</text>
<text text-anchor="start" x="410" y="-521.45" font-family="Courier New" font-size="14.00">Sw27</text>
<polygon fill="olive" stroke="none" points="317,-493.75 317,-514.75 405,-514.75 405,-493.75 317,-493.75"/>
<text text-anchor="start" x="319.75" y="-498.45" font-family="Courier New" font-size="14.00">BufferStop</text>
<text text-anchor="start" x="410" y="-498.45" font-family="Courier New" font-size="14.00">Buf01</text>
<polygon fill="cornflowerblue" stroke="none" points="317,-470.75 317,-491.75 405,-491.75 405,-470.75 317,-470.75"/>
<text text-anchor="start" x="336" y="-475.45" font-family="Courier New" font-size="14.00">Platform</text>
<text text-anchor="start" x="410" y="-475.45" font-family="Courier New" font-size="14.00">Plat14</text>
<polygon fill="yellowgreen" stroke="none" points="317,-447.75 317,-468.75 405,-468.75 405,-447.75 317,-447.75"/>
<text text-anchor="start" x="352.5" y="-452.45" font-family="Courier New" font-size="14.00">Signal</text>
<text text-anchor="start" x="409.62" y="-452.45" font-family="Courier New" font-size="14.00">T03 T04 J24 J25 J26 S36</text>
</g>
<!-- ne40&#45;&#45;ne40 -->
<g id="edge2" class="edge">
<title>ne40&#45;&#45;ne40</title>
<path fill="none" stroke="black" d="M612.42,-507.31C623.33,-506.61 630,-505.6 630,-504.25 630,-502.9 623.33,-501.89 612.42,-501.19"/>
<text text-anchor="middle" x="645.38" y="-498.82" font-family="Times New Roman,serif" font-size="14.00">R_02</text>
</g>
<!-- ne40&#45;&#45;ne40 -->
<g id="edge18" class="edge">
<title>ne40&#45;&#45;ne40</title>
<path fill="none" stroke="black" d="M612.34,-512.11C640.67,-511.1 660.75,-508.48 660.75,-504.25 660.75,-500.02 640.67,-497.4 612.34,-496.39"/>
<text text-anchor="middle" x="676.12" y="-498.82" font-family="Times New Roman,serif" font-size="14.00">R_15</text>
</g>
<!-- ne40&#45;&#45;ne40 -->
<g id="edge19" class="edge">
<title>ne40&#45;&#45;ne40</title>
<path fill="none" stroke="black" d="M612.44,-516.68C656.69,-516.09 691.5,-511.95 691.5,-504.25 691.5,-496.55 656.69,-492.41 612.44,-491.82"/>
<text text-anchor="middle" x="706.88" y="-498.82" font-family="Times New Roman,serif" font-size="14.00">R_16</text>
</g>
<!-- ne40&#45;&#45;ne40 -->
<g id="edge20" class="edge">
<title>ne40&#45;&#45;ne40</title>
<path fill="none" stroke="black" d="M612.3,-520.89C671.53,-521.34 722.25,-515.79 722.25,-504.25 722.25,-492.71 671.53,-487.16 612.3,-487.61"/>
<text text-anchor="middle" x="737.62" y="-498.82" font-family="Times New Roman,serif" font-size="14.00">R_17</text>
</g>
<!-- ne48 -->
<g id="node4" class="node">
<title>ne48</title>
<path fill="white" stroke="black" stroke-width="2" d="M575.5,-333C575.5,-333 667.5,-333 667.5,-333 673.5,-333 679.5,-339 679.5,-345 679.5,-345 679.5,-377 679.5,-377 679.5,-383 673.5,-389 667.5,-389 667.5,-389 575.5,-389 575.5,-389 569.5,-389 563.5,-383 563.5,-377 563.5,-377 563.5,-345 563.5,-345 563.5,-339 569.5,-333 575.5,-333"/>
<polygon fill="white" stroke="none" points="571.5,-337 571.5,-385 671.5,-385 671.5,-337 571.5,-337"/>
<polygon fill="black" stroke="none" points="573.5,-362 573.5,-383 669.5,-383 669.5,-362 573.5,-362"/>
<text text-anchor="start" x="605" y="-366.7" font-family="Courier New" font-size="14.00" fill="white">ne48</text>
<polygon fill="red" stroke="none" points="573.5,-339 573.5,-360 628.5,-360 628.5,-339 573.5,-339"/>
<text text-anchor="start" x="576.25" y="-343.7" font-family="Courier New" font-size="14.00">Switch</text>
<text text-anchor="start" x="633.5" y="-343.7" font-family="Courier New" font-size="14.00">Sw29</text>
</g>
<!-- ne40&#45;&#45;ne48 -->
<g id="edge25" class="edge">
<title>ne40&#45;&#45;ne48</title>
<path fill="none" stroke="black" d="M449.15,-441.68C450,-429.38 453.27,-417.26 460.75,-407.5 473.45,-390.93 522.73,-378.6 563.41,-370.99"/>
<text text-anchor="middle" x="475.88" y="-409.95" font-family="Times New Roman,serif" font-size="14.00">R_21</text>
</g>
<!-- ne40&#45;&#45;ne48 -->
<g id="edge27" class="edge">
<title>ne40&#45;&#45;ne48</title>
<path fill="none" stroke="black" d="M487.83,-441.69C495.59,-429.25 504.91,-417.07 515.75,-407.5 529.31,-395.53 546.5,-386.34 563.06,-379.46"/>
<text text-anchor="middle" x="530.88" y="-409.95" font-family="Times New Roman,serif" font-size="14.00">R_22</text>
</g>
<!-- ne40&#45;&#45;ne46 -->
<g id="edge24" class="edge">
<title>ne40&#45;&#45;ne46</title>
<path fill="none" stroke="black" d="M306.63,-480.85C213.9,-457.57 107.36,-410.29 74.75,-314.5 64.42,-284.15 -8.43,-456.03 79.5,-154.75 84.84,-136.45 94.81,-118.52 105.54,-102.91"/>
<text text-anchor="middle" x="89.88" y="-301.2" font-family="Times New Roman,serif" font-size="14.00">R_20</text>
</g>
<!-- ne49 -->
<g id="node3" class="node">
<title>ne49</title>
<path fill="white" stroke="black" stroke-width="2" d="M837,-453.25C837,-453.25 1110,-453.25 1110,-453.25 1116,-453.25 1122,-459.25 1122,-465.25 1122,-465.25 1122,-543.25 1122,-543.25 1122,-549.25 1116,-555.25 1110,-555.25 1110,-555.25 837,-555.25 837,-555.25 831,-555.25 825,-549.25 825,-543.25 825,-543.25 825,-465.25 825,-465.25 825,-459.25 831,-453.25 837,-453.25"/>
<polygon fill="white" stroke="none" points="833,-457.25 833,-551.25 1114,-551.25 1114,-457.25 833,-457.25"/>
<polygon fill="black" stroke="none" points="835,-528.25 835,-549.25 1112,-549.25 1112,-528.25 835,-528.25"/>
<text text-anchor="start" x="957" y="-532.95" font-family="Courier New" font-size="14.00" fill="white">ne49</text>
<polygon fill="darkcyan" stroke="none" points="835,-505.25 835,-526.25 948,-526.25 948,-505.25 835,-505.25"/>
<text text-anchor="start" x="837.88" y="-509.95" font-family="Courier New" font-size="14.00">LevelCrossing</text>
<text text-anchor="start" x="953" y="-509.95" font-family="Courier New" font-size="14.00">Lc11</text>
<polygon fill="cornflowerblue" stroke="none" points="835,-482.25 835,-503.25 948,-503.25 948,-482.25 835,-482.25"/>
<text text-anchor="start" x="879" y="-486.95" font-family="Courier New" font-size="14.00">Platform</text>
<text text-anchor="start" x="953" y="-486.95" font-family="Courier New" font-size="14.00">Plat11</text>
<polygon fill="yellowgreen" stroke="none" points="835,-459.25 835,-480.25 948,-480.25 948,-459.25 835,-459.25"/>
<text text-anchor="start" x="895.5" y="-463.95" font-family="Courier New" font-size="14.00">Signal</text>
<text text-anchor="start" x="952.62" y="-463.95" font-family="Courier New" font-size="14.00">J05 J06 J11 J12 X33</text>
</g>
<!-- ne49&#45;&#45;ne49 -->
<g id="edge3" class="edge">
<title>ne49&#45;&#45;ne49</title>
<path fill="none" stroke="black" d="M1122.31,-510.43C1133.28,-509.05 1140,-506.98 1140,-504.25 1140,-501.52 1133.28,-499.45 1122.31,-498.07"/>
<text text-anchor="middle" x="1155.38" y="-498.82" font-family="Times New Roman,serif" font-size="14.00">R_03</text>
</g>
<!-- ne49&#45;&#45;ne49 -->
<g id="edge11" class="edge">
<title>ne49&#45;&#45;ne49</title>
<path fill="none" stroke="black" d="M1122.42,-520.03C1150.65,-518.06 1170.75,-512.8 1170.75,-504.25 1170.75,-495.7 1150.65,-490.44 1122.42,-488.47"/>
<text text-anchor="middle" x="1186.12" y="-498.82" font-family="Times New Roman,serif" font-size="14.00">R_09</text>
</g>
<!-- ne49&#45;&#45;ne48 -->
<g id="edge4" class="edge">
<title>ne49&#45;&#45;ne48</title>
<path fill="none" stroke="black" d="M847.91,-452.85C790.65,-429.88 725.62,-403.78 679.99,-385.47"/>
<text text-anchor="middle" x="780.88" y="-409.95" font-family="Times New Roman,serif" font-size="14.00">R_04</text>
</g>
<!-- ne49&#45;&#45;ne53 -->
<g id="edge9" class="edge">
<title>ne49&#45;&#45;ne53</title>
<path fill="none" stroke="black" d="M962.09,-452.97C953.75,-415.06 942.57,-361.69 934.75,-314.5 923.05,-243.9 961.17,-209 914.5,-154.75 875.15,-109.01 703.72,-75.93 611.96,-61.13"/>
<text text-anchor="middle" x="949.88" y="-301.2" font-family="Times New Roman,serif" font-size="14.00">R_08</text>
</g>
<!-- ne49&#45;&#45;ne53 -->
<g id="edge22" class="edge">
<title>ne49&#45;&#45;ne53</title>
<path fill="none" stroke="black" d="M982.29,-452.9C992.09,-380.55 999.52,-245.88 939.5,-154.75 903.51,-100.11 710.76,-70.46 611.97,-58.65"/>
<text text-anchor="middle" x="1001.88" y="-301.2" font-family="Times New Roman,serif" font-size="14.00">R_19</text>
</g>
<!-- ne48&#45;&#45;ne40 -->
<g id="edge5" class="edge">
<title>ne48&#45;&#45;ne40</title>
<path fill="none" stroke="black" d="M589.67,-389.39C582.76,-395.35 575.5,-401.63 568.75,-407.5 556.19,-418.42 542.84,-430.08 529.95,-441.36"/>
<text text-anchor="middle" x="583.88" y="-409.95" font-family="Times New Roman,serif" font-size="14.00">R_04</text>
</g>
<!-- ne48&#45;&#45;ne40 -->
<g id="edge36" class="edge">
<title>ne48&#45;&#45;ne40</title>
<path fill="none" stroke="black" d="M616.08,-389.44C612.77,-400.85 607.56,-413.64 599.5,-423.25 594.1,-429.68 588.04,-435.71 581.56,-441.33"/>
<text text-anchor="middle" x="623.88" y="-409.95" font-family="Times New Roman,serif" font-size="14.00">R_27</text>
</g>
<!-- ne48&#45;&#45;ne49 -->
<g id="edge26" class="edge">
<title>ne48&#45;&#45;ne49</title>
<path fill="none" stroke="black" d="M679.92,-372.88C715.49,-380.48 761.45,-392.03 800.5,-407.5 831.62,-419.83 864.13,-436.65 892.45,-452.76"/>
<text text-anchor="middle" x="849.88" y="-409.95" font-family="Times New Roman,serif" font-size="14.00">R_21</text>
</g>
<!-- ne50 -->
<g id="node5" class="node">
<title>ne50</title>
<path fill="white" stroke="black" stroke-width="2" d="M555.5,-166.75C555.5,-166.75 795.5,-166.75 795.5,-166.75 801.5,-166.75 807.5,-172.75 807.5,-178.75 807.5,-178.75 807.5,-256.75 807.5,-256.75 807.5,-262.75 801.5,-268.75 795.5,-268.75 795.5,-268.75 555.5,-268.75 555.5,-268.75 549.5,-268.75 543.5,-262.75 543.5,-256.75 543.5,-256.75 543.5,-178.75 543.5,-178.75 543.5,-172.75 549.5,-166.75 555.5,-166.75"/>
<polygon fill="white" stroke="none" points="551.5,-170.75 551.5,-264.75 799.5,-264.75 799.5,-170.75 551.5,-170.75"/>
<polygon fill="black" stroke="none" points="553.5,-241.75 553.5,-262.75 797.5,-262.75 797.5,-241.75 553.5,-241.75"/>
<text text-anchor="start" x="659" y="-246.45" font-family="Courier New" font-size="14.00" fill="white">ne50</text>
<polygon fill="darkcyan" stroke="none" points="553.5,-218.75 553.5,-239.75 666.5,-239.75 666.5,-218.75 553.5,-218.75"/>
<text text-anchor="start" x="556.38" y="-223.45" font-family="Courier New" font-size="14.00">LevelCrossing</text>
<text text-anchor="start" x="671.5" y="-223.45" font-family="Courier New" font-size="14.00">Lc09</text>
<polygon fill="cornflowerblue" stroke="none" points="553.5,-195.75 553.5,-216.75 666.5,-216.75 666.5,-195.75 553.5,-195.75"/>
<text text-anchor="start" x="597.5" y="-200.45" font-family="Courier New" font-size="14.00">Platform</text>
<text text-anchor="start" x="671.5" y="-200.45" font-family="Courier New" font-size="14.00">Plat12</text>
<polygon fill="yellowgreen" stroke="none" points="553.5,-172.75 553.5,-193.75 666.5,-193.75 666.5,-172.75 553.5,-172.75"/>
<text text-anchor="start" x="614" y="-177.45" font-family="Courier New" font-size="14.00">Signal</text>
<text text-anchor="start" x="671.12" y="-177.45" font-family="Courier New" font-size="14.00">J07 J13 J14 B46</text>
</g>
<!-- ne48&#45;&#45;ne50 -->
<g id="edge28" class="edge">
<title>ne48&#45;&#45;ne50</title>
<path fill="none" stroke="black" d="M618.83,-332.64C618.61,-321.87 619.4,-309.51 622.75,-298.75 625.91,-288.58 630.79,-278.5 636.33,-269.09"/>
<text text-anchor="middle" x="637.88" y="-301.2" font-family="Times New Roman,serif" font-size="14.00">R_22</text>
</g>
<!-- ne50&#45;&#45;ne48 -->
<g id="edge35" class="edge">
<title>ne50&#45;&#45;ne48</title>
<path fill="none" stroke="black" d="M667.74,-269.14C664.43,-284.13 659.82,-300.32 653.5,-314.5 650.75,-320.67 647.11,-326.87 643.27,-332.62"/>
<text text-anchor="middle" x="673.88" y="-301.2" font-family="Times New Roman,serif" font-size="14.00">R_27</text>
</g>
<!-- ne50&#45;&#45;ne50 -->
<g id="edge6" class="edge">
<title>ne50&#45;&#45;ne50</title>
<path fill="none" stroke="black" d="M807.64,-224.19C818.65,-222.8 825.5,-220.66 825.5,-217.75 825.5,-214.84 818.65,-212.7 807.64,-211.31"/>
<text text-anchor="middle" x="840.88" y="-212.32" font-family="Times New Roman,serif" font-size="14.00">R_05</text>
</g>
<!-- ne50&#45;&#45;ne50 -->
<g id="edge14" class="edge">
<title>ne50&#45;&#45;ne50</title>
<path fill="none" stroke="black" d="M807.86,-233.8C835.86,-232.08 856.25,-226.73 856.25,-217.75 856.25,-208.77 835.86,-203.42 807.86,-201.7"/>
<text text-anchor="middle" x="871.62" y="-212.32" font-family="Times New Roman,serif" font-size="14.00">R_11</text>
</g>
<!-- ne50&#45;&#45;ne53 -->
<g id="edge12" class="edge">
<title>ne50&#45;&#45;ne53</title>
<path fill="none" stroke="black" d="M608.25,-166.43C598.82,-157.31 589.92,-147.3 582.75,-136.75 571.09,-119.59 563.63,-97.31 559.16,-79.97"/>
<text text-anchor="middle" x="597.88" y="-123.45" font-family="Times New Roman,serif" font-size="14.00">R_10</text>
</g>
<!-- ne46&#45;&#45;ne3 -->
<g id="edge29" class="edge">
<title>ne46&#45;&#45;ne3</title>
<path fill="none" stroke="black" d="M152.49,-102.71C154.78,-114.33 158.31,-126.34 163.75,-136.75 167.02,-143.01 170.95,-149.09 175.28,-154.92"/>
<text text-anchor="middle" x="178.88" y="-123.45" font-family="Times New Roman,serif" font-size="14.00">R_23</text>
</g>
<!-- ne46&#45;&#45;ne40 -->
<g id="edge8" class="edge">
<title>ne46&#45;&#45;ne40</title>
<path fill="none" stroke="black" d="M118.39,-102.63C93.62,-150.96 67.25,-224.79 98.5,-280.75 143.09,-360.62 229.44,-415.37 306.5,-450.58"/>
<text text-anchor="middle" x="134.88" y="-301.2" font-family="Times New Roman,serif" font-size="14.00">R_07</text>
</g>
<!-- ne46&#45;&#45;ne46 -->
<g id="edge7" class="edge">
<title>ne46&#45;&#45;ne46</title>
<path fill="none" stroke="black" d="M297.31,-55.09C308.28,-54.28 315,-53.09 315,-51.5 315,-49.91 308.28,-48.72 297.31,-47.91"/>
<text text-anchor="middle" x="330.38" y="-46.08" font-family="Times New Roman,serif" font-size="14.00">R_06</text>
</g>
<!-- ne46&#45;&#45;ne46 -->
<g id="edge15" class="edge">
<title>ne46&#45;&#45;ne46</title>
<path fill="none" stroke="black" d="M297.42,-60.66C325.65,-59.51 345.75,-56.46 345.75,-51.5 345.75,-46.54 325.65,-43.49 297.42,-42.34"/>
<text text-anchor="middle" x="361.12" y="-46.08" font-family="Times New Roman,serif" font-size="14.00">R_12</text>
</g>
<!-- ne46&#45;&#45;ne46 -->
<g id="edge21" class="edge">
<title>ne46&#45;&#45;ne46</title>
<path fill="none" stroke="black" d="M297.37,-65.94C341.53,-65.34 376.5,-60.53 376.5,-51.5 376.5,-42.47 341.53,-37.66 297.37,-37.06"/>
<text text-anchor="middle" x="391.88" y="-46.08" font-family="Times New Roman,serif" font-size="14.00">R_18</text>
</g>
<!-- ne53&#45;&#45;ne3 -->
<g id="edge10" class="edge">
<title>ne53&#45;&#45;ne3</title>
<path fill="none" stroke="black" d="M505.36,-79.98C489,-88.39 470.34,-97 452.5,-103 411.46,-116.82 395.86,-102.41 356.75,-121 338.61,-129.62 321.02,-141.88 305.31,-154.76"/>
<text text-anchor="middle" x="371.88" y="-123.45" font-family="Times New Roman,serif" font-size="14.00">R_08</text>
</g>
<!-- ne53&#45;&#45;ne3 -->
<g id="edge13" class="edge">
<title>ne53&#45;&#45;ne3</title>
<path fill="none" stroke="black" d="M498.76,-79.97C483.78,-87.46 467.52,-95.57 452.5,-103 436.2,-111.07 431.86,-112.57 415.75,-121 403.01,-127.66 400.06,-129.76 387.5,-136.75 376.88,-142.66 365.82,-148.81 354.75,-154.97"/>
<text text-anchor="middle" x="430.88" y="-123.45" font-family="Times New Roman,serif" font-size="14.00">R_10</text>
</g>
<!-- ne53&#45;&#45;ne3 -->
<g id="edge23" class="edge">
<title>ne53&#45;&#45;ne3</title>
<path fill="none" stroke="black" d="M523.84,-79.73C503.26,-97.63 474.59,-120.62 446.5,-136.75 425.64,-148.73 402.64,-159.68 379.84,-169.39"/>
<text text-anchor="middle" x="483.88" y="-123.45" font-family="Times New Roman,serif" font-size="14.00">R_19</text>
</g>
<!-- ne53&#45;&#45;ne49 -->
<g id="edge32" class="edge">
<title>ne53&#45;&#45;ne49</title>
<path fill="none" stroke="black" d="M611.59,-57.75C716.66,-68.6 931.51,-97.41 975.5,-154.75 1048.42,-249.81 1028.92,-307.11 999.5,-423.25 997.06,-432.88 994.08,-443.03 991.03,-452.76"/>
<text text-anchor="middle" x="1039.88" y="-301.2" font-family="Times New Roman,serif" font-size="14.00">R_25</text>
</g>
<!-- ne53&#45;&#45;ne50 -->
<g id="edge34" class="edge">
<title>ne53&#45;&#45;ne50</title>
<path fill="none" stroke="black" d="M578.96,-79.73C590.01,-91.99 602.83,-106.87 613.5,-121 624.36,-135.38 635.34,-151.63 644.97,-166.62"/>
<text text-anchor="middle" x="638.88" y="-123.45" font-family="Times New Roman,serif" font-size="14.00">R_26</text>
</g>
</g>
</svg>
