<?xml version="1.0" encoding="UTF-8" standalone="no"?>
<!DOCTYPE svg PUBLIC "-//W3C//DTD SVG 1.1//EN"
 "http://www.w3.org/Graphics/SVG/1.1/DTD/svg11.dtd">
<!-- Generated by graphviz version 9.0.0 (20230911.1827)
 -->
<!-- Title: finite_state_machine Pages: 1 -->
<svg width="2076pt" height="467pt"
 viewBox="0.00 0.00 2075.50 467.03" xmlns="http://www.w3.org/2000/svg" xmlns:xlink="http://www.w3.org/1999/xlink">
<g id="graph0" class="graph" transform="scale(1 1) rotate(0) translate(4 463.03)">
<title>finite_state_machine</title>
<polygon fill="white" stroke="none" points="-4,4 -4,-463.03 2071.5,-463.03 2071.5,4 -4,4"/>
<!-- ne3 -->
<g id="node1" class="node">
<title>ne3</title>
<path fill="white" stroke="black" stroke-width="2" d="M12,-54.53C12,-54.53 260,-54.53 260,-54.53 266,-54.53 272,-60.53 272,-66.53 272,-66.53 272,-167.53 272,-167.53 272,-173.53 266,-179.53 260,-179.53 260,-179.53 12,-179.53 12,-179.53 6,-179.53 0,-173.53 0,-167.53 0,-167.53 0,-66.53 0,-66.53 0,-60.53 6,-54.53 12,-54.53"/>
<polygon fill="white" stroke="none" points="8,-58.53 8,-175.53 264,-175.53 264,-58.53 8,-58.53"/>
<polygon fill="black" stroke="none" points="10,-152.53 10,-173.53 262,-173.53 262,-152.53 10,-152.53"/>
<text text-anchor="start" x="123.62" y="-157.23" font-family="Courier New" font-size="14.00" fill="white">ne3</text>
<polygon fill="red" stroke="none" points="10,-129.53 10,-150.53 98,-150.53 98,-129.53 10,-129.53"/>
<text text-anchor="start" x="45.5" y="-134.23" font-family="Courier New" font-size="14.00">Switch</text>
<text text-anchor="start" x="103" y="-134.23" font-family="Courier New" font-size="14.00">Sw31</text>
<polygon fill="olive" stroke="none" points="10,-106.53 10,-127.53 98,-127.53 98,-106.53 10,-106.53"/>
<text text-anchor="start" x="12.75" y="-111.23" font-family="Courier New" font-size="14.00">BufferStop</text>
<text text-anchor="start" x="103" y="-111.23" font-family="Courier New" font-size="14.00">Buf05</text>
<polygon fill="cornflowerblue" stroke="none" points="10,-83.53 10,-104.53 98,-104.53 98,-83.53 10,-83.53"/>
<text text-anchor="start" x="29" y="-88.23" font-family="Courier New" font-size="14.00">Platform</text>
<text text-anchor="start" x="103" y="-88.23" font-family="Courier New" font-size="14.00">Plat10</text>
<polygon fill="yellowgreen" stroke="none" points="10,-60.53 10,-81.53 98,-81.53 98,-60.53 10,-60.53"/>
<text text-anchor="start" x="45.5" y="-65.23" font-family="Courier New" font-size="14.00">Signal</text>
<text text-anchor="start" x="102.62" y="-65.23" font-family="Courier New" font-size="14.00">T01 T02 J17 J21 S42</text>
</g>
<!-- ne3&#45;&#45;ne3 -->
<g id="edge1" class="edge">
<title>ne3&#45;&#45;ne3</title>
<path fill="none" stroke="black" d="M126.12,-179.86C127.47,-190.59 130.76,-198.03 136,-198.03 141.24,-198.03 144.53,-190.59 145.88,-179.86"/>
<text text-anchor="middle" x="136" y="-200.48" font-family="Times New Roman,serif" font-size="14.00">R_01</text>
</g>
<!-- ne3&#45;&#45;ne3 -->
<g id="edge16" class="edge">
<title>ne3&#45;&#45;ne3</title>
<path fill="none" stroke="black" d="M114.83,-179.87C115.05,-200.04 122.11,-216.03 136,-216.03 149.89,-216.03 156.95,-200.04 157.17,-179.87"/>
<text text-anchor="middle" x="136" y="-218.48" font-family="Times New Roman,serif" font-size="14.00">R_13</text>
</g>
<!-- ne3&#45;&#45;ne3 -->
<g id="edge17" class="edge">
<title>ne3&#45;&#45;ne3</title>
<path fill="none" stroke="black" d="M104.84,-179.92C101.55,-208.83 111.93,-234.03 136,-234.03 160.07,-234.03 170.45,-208.83 167.16,-179.92"/>
<text text-anchor="middle" x="136" y="-236.48" font-family="Times New Roman,serif" font-size="14.00">R_14</text>
</g>
<!-- ne46 -->
<g id="node6" class="node">
<title>ne46</title>
<path fill="white" stroke="black" stroke-width="2" d="M350.75,-185.03C350.75,-185.03 623.75,-185.03 623.75,-185.03 629.75,-185.03 635.75,-191.03 635.75,-197.03 635.75,-197.03 635.75,-275.03 635.75,-275.03 635.75,-281.03 629.75,-287.03 623.75,-287.03 623.75,-287.03 350.75,-287.03 350.75,-287.03 344.75,-287.03 338.75,-281.03 338.75,-275.03 338.75,-275.03 338.75,-197.03 338.75,-197.03 338.75,-191.03 344.75,-185.03 350.75,-185.03"/>
<polygon fill="white" stroke="none" points="346.75,-189.03 346.75,-283.03 627.75,-283.03 627.75,-189.03 346.75,-189.03"/>
<polygon fill="black" stroke="none" points="348.75,-260.03 348.75,-281.03 625.75,-281.03 625.75,-260.03 348.75,-260.03"/>
<text text-anchor="start" x="470.75" y="-264.73" font-family="Courier New" font-size="14.00" fill="white">ne46</text>
<polygon fill="darkcyan" stroke="none" points="348.75,-237.03 348.75,-258.03 461.75,-258.03 461.75,-237.03 348.75,-237.03"/>
<text text-anchor="start" x="351.62" y="-241.73" font-family="Courier New" font-size="14.00">LevelCrossing</text>
<text text-anchor="start" x="466.75" y="-241.73" font-family="Courier New" font-size="14.00">Lc10</text>
<polygon fill="cornflowerblue" stroke="none" points="348.75,-214.03 348.75,-235.03 461.75,-235.03 461.75,-214.03 348.75,-214.03"/>
<text text-anchor="start" x="392.75" y="-218.73" font-family="Courier New" font-size="14.00">Platform</text>
<text text-anchor="start" x="466.75" y="-218.73" font-family="Courier New" font-size="14.00">Plat13</text>
<polygon fill="yellowgreen" stroke="none" points="348.75,-191.03 348.75,-212.03 461.75,-212.03 461.75,-191.03 348.75,-191.03"/>
<text text-anchor="start" x="409.25" y="-195.73" font-family="Courier New" font-size="14.00">Signal</text>
<text text-anchor="start" x="466.38" y="-195.73" font-family="Courier New" font-size="14.00">J09 J10 J16 X31 C41</text>
</g>
<!-- ne3&#45;&#45;ne46 -->
<g id="edge30" class="edge">
<title>ne3&#45;&#45;ne46</title>
<path fill="none" stroke="black" d="M242.86,-179.95C258.33,-187.51 274.33,-194.5 290,-200.03 305.43,-205.48 321.86,-210.14 338.38,-214.12"/>
<text text-anchor="middle" x="305.38" y="-210.48" font-family="Times New Roman,serif" font-size="14.00">R_24</text>
</g>
<!-- ne53 -->
<g id="node7" class="node">
<title>ne53</title>
<path fill="white" stroke="black" stroke-width="2" d="M1599.75,-127.03C1599.75,-127.03 1691.75,-127.03 1691.75,-127.03 1697.75,-127.03 1703.75,-133.03 1703.75,-139.03 1703.75,-139.03 1703.75,-171.03 1703.75,-171.03 1703.75,-177.03 1697.75,-183.03 1691.75,-183.03 1691.75,-183.03 1599.75,-183.03 1599.75,-183.03 1593.75,-183.03 1587.75,-177.03 1587.75,-171.03 1587.75,-171.03 1587.75,-139.03 1587.75,-139.03 1587.75,-133.03 1593.75,-127.03 1599.75,-127.03"/>
<polygon fill="white" stroke="none" points="1595.75,-131.03 1595.75,-179.03 1695.75,-179.03 1695.75,-131.03 1595.75,-131.03"/>
<polygon fill="black" stroke="none" points="1597.75,-156.03 1597.75,-177.03 1693.75,-177.03 1693.75,-156.03 1597.75,-156.03"/>
<text text-anchor="start" x="1629.25" y="-160.73" font-family="Courier New" font-size="14.00" fill="white">ne53</text>
<polygon fill="red" stroke="none" points="1597.75,-133.03 1597.75,-154.03 1652.75,-154.03 1652.75,-133.03 1597.75,-133.03"/>
<text text-anchor="start" x="1600.5" y="-137.73" font-family="Courier New" font-size="14.00">Switch</text>
<text text-anchor="start" x="1657.75" y="-137.73" font-family="Courier New" font-size="14.00">Sw33</text>
</g>
<!-- ne3&#45;&#45;ne53 -->
<g id="edge31" class="edge">
<title>ne3&#45;&#45;ne53</title>
<path fill="none" stroke="black" d="M272.19,-139.21C336.8,-147.99 415.33,-156.03 486.25,-156.03 486.25,-156.03 486.25,-156.03 1041.88,-156.03 1242.31,-156.03 1480.23,-155.47 1587.39,-155.19"/>
<text text-anchor="middle" x="1040.88" y="-158.48" font-family="Times New Roman,serif" font-size="14.00">R_25</text>
</g>
<!-- ne3&#45;&#45;ne53 -->
<g id="edge33" class="edge">
<title>ne3&#45;&#45;ne53</title>
<path fill="none" stroke="black" d="M272.17,-117.03C336.94,-117.03 415.61,-117.03 486.25,-117.03 486.25,-117.03 486.25,-117.03 1390,-117.03 1458.42,-117.03 1536.05,-130.6 1587.44,-141.52"/>
<text text-anchor="middle" x="1040.88" y="-119.48" font-family="Times New Roman,serif" font-size="14.00">R_26</text>
</g>
<!-- ne40 -->
<g id="node2" class="node">
<title>ne40</title>
<path fill="white" stroke="black" stroke-width="2" d="M714.5,-198.53C714.5,-198.53 995.5,-198.53 995.5,-198.53 1001.5,-198.53 1007.5,-204.53 1007.5,-210.53 1007.5,-210.53 1007.5,-311.53 1007.5,-311.53 1007.5,-317.53 1001.5,-323.53 995.5,-323.53 995.5,-323.53 714.5,-323.53 714.5,-323.53 708.5,-323.53 702.5,-317.53 702.5,-311.53 702.5,-311.53 702.5,-210.53 702.5,-210.53 702.5,-204.53 708.5,-198.53 714.5,-198.53"/>
<polygon fill="white" stroke="none" points="710.5,-202.53 710.5,-319.53 999.5,-319.53 999.5,-202.53 710.5,-202.53"/>
<polygon fill="black" stroke="none" points="712.5,-296.53 712.5,-317.53 997.5,-317.53 997.5,-296.53 712.5,-296.53"/>
<text text-anchor="start" x="838.5" y="-301.23" font-family="Courier New" font-size="14.00" fill="white">ne40</text>
<polygon fill="red" stroke="none" points="712.5,-273.53 712.5,-294.53 800.5,-294.53 800.5,-273.53 712.5,-273.53"/>
<text text-anchor="start" x="748" y="-278.23" font-family="Courier New" font-size="14.00">Switch</text>
<text text-anchor="start" x="805.5" y="-278.23" font-family="Courier New" font-size="14.00">Sw27</text>
<polygon fill="olive" stroke="none" points="712.5,-250.53 712.5,-271.53 800.5,-271.53 800.5,-250.53 712.5,-250.53"/>
<text text-anchor="start" x="715.25" y="-255.23" font-family="Courier New" font-size="14.00">BufferStop</text>
<text text-anchor="start" x="805.5" y="-255.23" font-family="Courier New" font-size="14.00">Buf01</text>
<polygon fill="cornflowerblue" stroke="none" points="712.5,-227.53 712.5,-248.53 800.5,-248.53 800.5,-227.53 712.5,-227.53"/>
<text text-anchor="start" x="731.5" y="-232.23" font-family="Courier New" font-size="14.00">Platform</text>
<text text-anchor="start" x="805.5" y="-232.23" font-family="Courier New" font-size="14.00">Plat14</text>
<polygon fill="yellowgreen" stroke="none" points="712.5,-204.53 712.5,-225.53 800.5,-225.53 800.5,-204.53 712.5,-204.53"/>
<text text-anchor="start" x="748" y="-209.23" font-family="Courier New" font-size="14.00">Signal</text>
<text text-anchor="start" x="805.12" y="-209.23" font-family="Courier New" font-size="14.00">T03 T04 J24 J25 J26 S36</text>
</g>
<!-- ne40&#45;&#45;ne40 -->
<g id="edge2" class="edge">
<title>ne40&#45;&#45;ne40</title>
<path fill="none" stroke="black" d="M846.87,-323.86C847.98,-334.59 850.69,-342.03 855,-342.03 859.31,-342.03 862.02,-334.59 863.13,-323.86"/>
<text text-anchor="middle" x="855" y="-344.48" font-family="Times New Roman,serif" font-size="14.00">R_02</text>
</g>
<!-- ne40&#45;&#45;ne40 -->
<g id="edge18" class="edge">
<title>ne40&#45;&#45;ne40</title>
<path fill="none" stroke="black" d="M837.58,-323.87C837.76,-344.04 843.56,-360.03 855,-360.03 866.44,-360.03 872.24,-344.04 872.42,-323.87"/>
<text text-anchor="middle" x="855" y="-362.48" font-family="Times New Roman,serif" font-size="14.00">R_15</text>
</g>
<!-- ne40&#45;&#45;ne40 -->
<g id="edge19" class="edge">
<title>ne40&#45;&#45;ne40</title>
<path fill="none" stroke="black" d="M829.35,-323.92C826.64,-352.83 835.19,-378.03 855,-378.03 874.81,-378.03 883.36,-352.83 880.65,-323.92"/>
<text text-anchor="middle" x="855" y="-380.48" font-family="Times New Roman,serif" font-size="14.00">R_16</text>
</g>
<!-- ne40&#45;&#45;ne40 -->
<g id="edge20" class="edge">
<title>ne40&#45;&#45;ne40</title>
<path fill="none" stroke="black" d="M822.26,-323.87C815.13,-361.09 826.05,-396.03 855,-396.03 883.95,-396.03 894.87,-361.09 887.74,-323.87"/>
<text text-anchor="middle" x="855" y="-398.48" font-family="Times New Roman,serif" font-size="14.00">R_17</text>
</g>
<!-- ne48 -->
<g id="node4" class="node">
<title>ne48</title>
<path fill="white" stroke="black" stroke-width="2" d="M1086.25,-263.03C1086.25,-263.03 1178.25,-263.03 1178.25,-263.03 1184.25,-263.03 1190.25,-269.03 1190.25,-275.03 1190.25,-275.03 1190.25,-307.03 1190.25,-307.03 1190.25,-313.03 1184.25,-319.03 1178.25,-319.03 1178.25,-319.03 1086.25,-319.03 1086.25,-319.03 1080.25,-319.03 1074.25,-313.03 1074.25,-307.03 1074.25,-307.03 1074.25,-275.03 1074.25,-275.03 1074.25,-269.03 1080.25,-263.03 1086.25,-263.03"/>
<polygon fill="white" stroke="none" points="1082.25,-267.03 1082.25,-315.03 1182.25,-315.03 1182.25,-267.03 1082.25,-267.03"/>
<polygon fill="black" stroke="none" points="1084.25,-292.03 1084.25,-313.03 1180.25,-313.03 1180.25,-292.03 1084.25,-292.03"/>
<text text-anchor="start" x="1115.75" y="-296.73" font-family="Courier New" font-size="14.00" fill="white">ne48</text>
<polygon fill="red" stroke="none" points="1084.25,-269.03 1084.25,-290.03 1139.25,-290.03 1139.25,-269.03 1084.25,-269.03"/>
<text text-anchor="start" x="1087" y="-273.73" font-family="Courier New" font-size="14.00">Switch</text>
<text text-anchor="start" x="1144.25" y="-273.73" font-family="Courier New" font-size="14.00">Sw29</text>
</g>
<!-- ne40&#45;&#45;ne48 -->
<g id="edge25" class="edge">
<title>ne40&#45;&#45;ne48</title>
<path fill="none" stroke="black" d="M1007.81,-312.39C1024.07,-314.08 1040.43,-314.2 1056.25,-312.03 1062.01,-311.24 1067.95,-310.12 1073.85,-308.81"/>
<text text-anchor="middle" x="1040.88" y="-315.48" font-family="Times New Roman,serif" font-size="14.00">R_21</text>
</g>
<!-- ne40&#45;&#45;ne48 -->
<g id="edge27" class="edge">
<title>ne40&#45;&#45;ne48</title>
<path fill="none" stroke="black" d="M1007.71,-277.56C1031.27,-280.13 1054.27,-282.64 1073.91,-284.78"/>
<text text-anchor="middle" x="1040.88" y="-284.48" font-family="Times New Roman,serif" font-size="14.00">R_22</text>
</g>
<!-- ne40&#45;&#45;ne46 -->
<g id="edge24" class="edge">
<title>ne40&#45;&#45;ne46</title>
<path fill="none" stroke="black" d="M702.21,-229.31C696.24,-228.54 690.32,-227.85 684.5,-227.28 668.8,-225.73 652.37,-225.03 635.98,-224.92"/>
<text text-anchor="middle" x="669.12" y="-229.48" font-family="Times New Roman,serif" font-size="14.00">R_20</text>
</g>
<!-- ne49 -->
<g id="node3" class="node">
<title>ne49</title>
<path fill="white" stroke="black" stroke-width="2" d="M1782.5,-182.03C1782.5,-182.03 2055.5,-182.03 2055.5,-182.03 2061.5,-182.03 2067.5,-188.03 2067.5,-194.03 2067.5,-194.03 2067.5,-272.03 2067.5,-272.03 2067.5,-278.03 2061.5,-284.03 2055.5,-284.03 2055.5,-284.03 1782.5,-284.03 1782.5,-284.03 1776.5,-284.03 1770.5,-278.03 1770.5,-272.03 1770.5,-272.03 1770.5,-194.03 1770.5,-194.03 1770.5,-188.03 1776.5,-182.03 1782.5,-182.03"/>
<polygon fill="white" stroke="none" points="1778.5,-186.03 1778.5,-280.03 2059.5,-280.03 2059.5,-186.03 1778.5,-186.03"/>
<polygon fill="black" stroke="none" points="1780.5,-257.03 1780.5,-278.03 2057.5,-278.03 2057.5,-257.03 1780.5,-257.03"/>
<text text-anchor="start" x="1902.5" y="-261.73" font-family="Courier New" font-size="14.00" fill="white">ne49</text>
<polygon fill="darkcyan" stroke="none" points="1780.5,-234.03 1780.5,-255.03 1893.5,-255.03 1893.5,-234.03 1780.5,-234.03"/>
<text text-anchor="start" x="1783.38" y="-238.73" font-family="Courier New" font-size="14.00">LevelCrossing</text>
<text text-anchor="start" x="1898.5" y="-238.73" font-family="Courier New" font-size="14.00">Lc11</text>
<polygon fill="cornflowerblue" stroke="none" points="1780.5,-211.03 1780.5,-232.03 1893.5,-232.03 1893.5,-211.03 1780.5,-211.03"/>
<text text-anchor="start" x="1824.5" y="-215.73" font-family="Courier New" font-size="14.00">Platform</text>
<text text-anchor="start" x="1898.5" y="-215.73" font-family="Courier New" font-size="14.00">Plat11</text>
<polygon fill="yellowgreen" stroke="none" points="1780.5,-188.03 1780.5,-209.03 1893.5,-209.03 1893.5,-188.03 1780.5,-188.03"/>
<text text-anchor="start" x="1841" y="-192.73" font-family="Courier New" font-size="14.00">Signal</text>
<text text-anchor="start" x="1898.12" y="-192.73" font-family="Courier New" font-size="14.00">J05 J06 J11 J12 X33</text>
</g>
<!-- ne49&#45;&#45;ne49 -->
<g id="edge3" class="edge">
<title>ne49&#45;&#45;ne49</title>
<path fill="none" stroke="black" d="M1902.55,-284.25C1904.28,-294.88 1909.76,-302.53 1919,-302.53 1928.24,-302.53 1933.72,-294.88 1935.45,-284.25"/>
<text text-anchor="middle" x="1919" y="-304.98" font-family="Times New Roman,serif" font-size="14.00">R_03</text>
</g>
<!-- ne49&#45;&#45;ne49 -->
<g id="edge11" class="edge">
<title>ne49&#45;&#45;ne49</title>
<path fill="none" stroke="black" d="M1885.03,-284.26C1883.52,-304.07 1894.84,-320.53 1919,-320.53 1943.16,-320.53 1954.48,-304.07 1952.97,-284.26"/>
<text text-anchor="middle" x="1919" y="-322.98" font-family="Times New Roman,serif" font-size="14.00">R_09</text>
</g>
<!-- ne49&#45;&#45;ne48 -->
<g id="edge4" class="edge">
<title>ne49&#45;&#45;ne48</title>
<path fill="none" stroke="black" d="M1795.34,-284.37C1718.13,-313.85 1615.54,-347.94 1521,-363.03 1405.13,-381.52 1370.28,-393.59 1257,-363.03 1225.44,-354.52 1193.65,-335.75 1170.2,-319.51"/>
<text text-anchor="middle" x="1554.38" y="-361.48" font-family="Times New Roman,serif" font-size="14.00">R_04</text>
</g>
<!-- ne49&#45;&#45;ne53 -->
<g id="edge9" class="edge">
<title>ne49&#45;&#45;ne53</title>
<path fill="none" stroke="black" d="M1770.13,-190.51C1746.62,-183.75 1723.61,-177.13 1703.94,-171.48"/>
<text text-anchor="middle" x="1737.12" y="-187.48" font-family="Times New Roman,serif" font-size="14.00">R_08</text>
</g>
<!-- ne49&#45;&#45;ne53 -->
<g id="edge22" class="edge">
<title>ne49&#45;&#45;ne53</title>
<path fill="none" stroke="black" d="M1819.03,-181.68C1797.61,-172.64 1774.71,-164.47 1752.5,-159.28 1737.02,-155.66 1719.93,-154 1704.08,-153.39"/>
<text text-anchor="middle" x="1737.12" y="-162.48" font-family="Times New Roman,serif" font-size="14.00">R_19</text>
</g>
<!-- ne48&#45;&#45;ne40 -->
<g id="edge5" class="edge">
<title>ne48&#45;&#45;ne40</title>
<path fill="none" stroke="black" d="M1074.77,-262.64C1068.64,-260.46 1062.39,-258.6 1056.25,-257.28 1040.7,-253.94 1024.31,-251.91 1007.88,-250.84"/>
<text text-anchor="middle" x="1040.88" y="-259.48" font-family="Times New Roman,serif" font-size="14.00">R_04</text>
</g>
<!-- ne48&#45;&#45;ne40 -->
<g id="edge36" class="edge">
<title>ne48&#45;&#45;ne40</title>
<path fill="none" stroke="black" d="M1104.07,-262.53C1090.9,-250.75 1074.07,-238.43 1056.25,-232.28 1040.81,-226.95 1024.37,-224.51 1007.81,-224.08"/>
<text text-anchor="middle" x="1040.88" y="-234.48" font-family="Times New Roman,serif" font-size="14.00">R_27</text>
</g>
<!-- ne48&#45;&#45;ne49 -->
<g id="edge26" class="edge">
<title>ne48&#45;&#45;ne49</title>
<path fill="none" stroke="black" d="M1156.71,-319.44C1179.31,-343.96 1216.03,-376.85 1257,-386.03 1371.49,-411.68 1403.96,-394.39 1521,-386.03 1603.84,-380.11 1626.07,-376.42 1703.75,-347.03 1748.08,-330.26 1794.83,-306.21 1833.3,-284.52"/>
<text text-anchor="middle" x="1554.38" y="-386.48" font-family="Times New Roman,serif" font-size="14.00">R_21</text>
</g>
<!-- ne50 -->
<g id="node5" class="node">
<title>ne50</title>
<path fill="white" stroke="black" stroke-width="2" d="M1269,-184.03C1269,-184.03 1509,-184.03 1509,-184.03 1515,-184.03 1521,-190.03 1521,-196.03 1521,-196.03 1521,-274.03 1521,-274.03 1521,-280.03 1515,-286.03 1509,-286.03 1509,-286.03 1269,-286.03 1269,-286.03 1263,-286.03 1257,-280.03 1257,-274.03 1257,-274.03 1257,-196.03 1257,-196.03 1257,-190.03 1263,-184.03 1269,-184.03"/>
<polygon fill="white" stroke="none" points="1265,-188.03 1265,-282.03 1513,-282.03 1513,-188.03 1265,-188.03"/>
<polygon fill="black" stroke="none" points="1267,-259.03 1267,-280.03 1511,-280.03 1511,-259.03 1267,-259.03"/>
<text text-anchor="start" x="1372.5" y="-263.73" font-family="Courier New" font-size="14.00" fill="white">ne50</text>
<polygon fill="darkcyan" stroke="none" points="1267,-236.03 1267,-257.03 1380,-257.03 1380,-236.03 1267,-236.03"/>
<text text-anchor="start" x="1269.88" y="-240.73" font-family="Courier New" font-size="14.00">LevelCrossing</text>
<text text-anchor="start" x="1385" y="-240.73" font-family="Courier New" font-size="14.00">Lc09</text>
<polygon fill="cornflowerblue" stroke="none" points="1267,-213.03 1267,-234.03 1380,-234.03 1380,-213.03 1267,-213.03"/>
<text text-anchor="start" x="1311" y="-217.73" font-family="Courier New" font-size="14.00">Platform</text>
<text text-anchor="start" x="1385" y="-217.73" font-family="Courier New" font-size="14.00">Plat12</text>
<polygon fill="yellowgreen" stroke="none" points="1267,-190.03 1267,-211.03 1380,-211.03 1380,-190.03 1267,-190.03"/>
<text text-anchor="start" x="1327.5" y="-194.73" font-family="Courier New" font-size="14.00">Signal</text>
<text text-anchor="start" x="1384.62" y="-194.73" font-family="Courier New" font-size="14.00">J07 J13 J14 B46</text>
</g>
<!-- ne48&#45;&#45;ne50 -->
<g id="edge28" class="edge">
<title>ne48&#45;&#45;ne50</title>
<path fill="none" stroke="black" d="M1190.74,-278.39C1210.48,-274.05 1233.46,-269 1256.61,-263.91"/>
<text text-anchor="middle" x="1223.62" y="-276.48" font-family="Times New Roman,serif" font-size="14.00">R_22</text>
</g>
<!-- ne50&#45;&#45;ne48 -->
<g id="edge35" class="edge">
<title>ne50&#45;&#45;ne48</title>
<path fill="none" stroke="black" d="M1256.66,-237.89C1240.15,-240.24 1223.67,-243.58 1208.25,-248.28 1197.07,-251.69 1185.74,-256.99 1175.39,-262.71"/>
<text text-anchor="middle" x="1223.62" y="-250.48" font-family="Times New Roman,serif" font-size="14.00">R_27</text>
</g>
<!-- ne50&#45;&#45;ne50 -->
<g id="edge6" class="edge">
<title>ne50&#45;&#45;ne50</title>
<path fill="none" stroke="black" d="M1374.04,-286.25C1375.62,-296.88 1380.6,-304.53 1389,-304.53 1397.4,-304.53 1402.38,-296.88 1403.96,-286.25"/>
<text text-anchor="middle" x="1389" y="-306.98" font-family="Times New Roman,serif" font-size="14.00">R_05</text>
</g>
<!-- ne50&#45;&#45;ne50 -->
<g id="edge14" class="edge">
<title>ne50&#45;&#45;ne50</title>
<path fill="none" stroke="black" d="M1358.11,-286.26C1356.74,-306.07 1367.04,-322.53 1389,-322.53 1410.96,-322.53 1421.26,-306.07 1419.89,-286.26"/>
<text text-anchor="middle" x="1389" y="-324.98" font-family="Times New Roman,serif" font-size="14.00">R_11</text>
</g>
<!-- ne50&#45;&#45;ne53 -->
<g id="edge12" class="edge">
<title>ne50&#45;&#45;ne53</title>
<path fill="none" stroke="black" d="M1521.07,-223.61C1537.79,-219.98 1554.4,-215.23 1569.75,-209.03 1584.92,-202.9 1599.91,-193.08 1612.46,-183.49"/>
<text text-anchor="middle" x="1554.38" y="-220.48" font-family="Times New Roman,serif" font-size="14.00">R_10</text>
</g>
<!-- ne46&#45;&#45;ne3 -->
<g id="edge29" class="edge">
<title>ne46&#45;&#45;ne3</title>
<path fill="none" stroke="black" d="M338.32,-186.44C322.01,-180.92 305.65,-175.37 290,-170.03 284.15,-168.03 278.17,-165.98 272.13,-163.91"/>
<text text-anchor="middle" x="305.38" y="-182.48" font-family="Times New Roman,serif" font-size="14.00">R_23</text>
</g>
<!-- ne46&#45;&#45;ne40 -->
<g id="edge8" class="edge">
<title>ne46&#45;&#45;ne40</title>
<path fill="none" stroke="black" d="M636.22,-246.14C657.92,-247.63 680.3,-249.16 702.07,-250.64"/>
<text text-anchor="middle" x="669.12" y="-251.48" font-family="Times New Roman,serif" font-size="14.00">R_07</text>
</g>
<!-- ne46&#45;&#45;ne46 -->
<g id="edge7" class="edge">
<title>ne46&#45;&#45;ne46</title>
<path fill="none" stroke="black" d="M476.28,-287.25C477.44,-297.88 481.09,-305.53 487.25,-305.53 493.41,-305.53 497.06,-297.88 498.22,-287.25"/>
<text text-anchor="middle" x="487.25" y="-307.98" font-family="Times New Roman,serif" font-size="14.00">R_06</text>
</g>
<!-- ne46&#45;&#45;ne46 -->
<g id="edge15" class="edge">
<title>ne46&#45;&#45;ne46</title>
<path fill="none" stroke="black" d="M464.6,-287.26C463.6,-307.07 471.15,-323.53 487.25,-323.53 503.35,-323.53 510.9,-307.07 509.9,-287.26"/>
<text text-anchor="middle" x="487.25" y="-325.98" font-family="Times New Roman,serif" font-size="14.00">R_12</text>
</g>
<!-- ne46&#45;&#45;ne46 -->
<g id="edge21" class="edge">
<title>ne46&#45;&#45;ne46</title>
<path fill="none" stroke="black" d="M454.72,-287.32C448.79,-315.58 459.63,-341.53 487.25,-341.53 514.87,-341.53 525.71,-315.58 519.78,-287.32"/>
<text text-anchor="middle" x="487.25" y="-343.98" font-family="Times New Roman,serif" font-size="14.00">R_18</text>
</g>
<!-- ne53&#45;&#45;ne3 -->
<g id="edge10" class="edge">
<title>ne53&#45;&#45;ne3</title>
<path fill="none" stroke="black" d="M1611.21,-126.78C1598.89,-117.8 1584.36,-108.73 1569.75,-103.03 1494.62,-73.69 1470.66,-78.03 1390,-78.03 486.25,-78.03 486.25,-78.03 486.25,-78.03 415.33,-78.03 336.8,-86.07 272.19,-94.85"/>
<text text-anchor="middle" x="1040.88" y="-80.48" font-family="Times New Roman,serif" font-size="14.00">R_08</text>
</g>
<!-- ne53&#45;&#45;ne3 -->
<g id="edge13" class="edge">
<title>ne53&#45;&#45;ne3</title>
<path fill="none" stroke="black" d="M1615.85,-126.58C1602.46,-114.21 1585.95,-100.06 1569.75,-89.03 1501.21,-42.36 1472.92,-39.03 1390,-39.03 486.25,-39.03 486.25,-39.03 486.25,-39.03 414.49,-39.03 336.39,-54.91 272.28,-72.33"/>
<text text-anchor="middle" x="1040.88" y="-41.48" font-family="Times New Roman,serif" font-size="14.00">R_10</text>
</g>
<!-- ne53&#45;&#45;ne3 -->
<g id="edge23" class="edge">
<title>ne53&#45;&#45;ne3</title>
<path fill="none" stroke="black" d="M1622.94,-126.69C1608.56,-108.65 1588.91,-85.16 1569.75,-66.03 1549.72,-46.02 1546.57,-37.19 1521,-25.03 1467.47,0.43 1449.27,-0.03 1390,-0.03 486.25,-0.03 486.25,-0.03 486.25,-0.03 408.56,-0.03 325.94,-26.38 260.58,-54.08"/>
<text text-anchor="middle" x="1040.88" y="-2.48" font-family="Times New Roman,serif" font-size="14.00">R_19</text>
</g>
<!-- ne53&#45;&#45;ne49 -->
<g id="edge32" class="edge">
<title>ne53&#45;&#45;ne49</title>
<path fill="none" stroke="black" d="M1682.33,-183.45C1694.25,-191.64 1708.01,-199.78 1721.75,-205.03 1737.1,-210.89 1753.55,-215.54 1770.16,-219.23"/>
<text text-anchor="middle" x="1737.12" y="-216.48" font-family="Times New Roman,serif" font-size="14.00">R_25</text>
</g>
<!-- ne53&#45;&#45;ne50 -->
<g id="edge34" class="edge">
<title>ne53&#45;&#45;ne50</title>
<path fill="none" stroke="black" d="M1587.55,-172.99C1567.77,-179.2 1544.72,-186.44 1521.48,-193.74"/>
<text text-anchor="middle" x="1554.38" y="-190.48" font-family="Times New Roman,serif" font-size="14.00">R_26</text>
</g>
</g>
</svg>
