<?xml version="1.0" encoding="UTF-8" standalone="no"?>
<!DOCTYPE svg PUBLIC "-//W3C//DTD SVG 1.1//EN"
 "http://www.w3.org/Graphics/SVG/1.1/DTD/svg11.dtd">
<!-- Generated by graphviz version 9.0.0 (20230911.1827)
 -->
<!-- Title: finite_state_machine Pages: 1 -->
<svg width="809pt" height="361pt"
 viewBox="0.00 0.00 809.06 360.75" xmlns="http://www.w3.org/2000/svg" xmlns:xlink="http://www.w3.org/1999/xlink">
<g id="graph0" class="graph" transform="scale(1 1) rotate(0) translate(4 356.75)">
<title>finite_state_machine</title>
<polygon fill="white" stroke="none" points="-4,4 -4,-356.75 805.06,-356.75 805.06,4 -4,4"/>
<!-- ne3 -->
<g id="node1" class="node">
<title>ne3</title>
<ellipse fill="lightgreen" stroke="lightgreen" cx="23.62" cy="-148" rx="23.62" ry="23.62"/>
<text text-anchor="middle" x="23.62" y="-142.57" font-family="Times New Roman,serif" font-size="14.00">ne3</text>
</g>
<!-- ne3&#45;&gt;ne3 -->
<g id="edge1" class="edge">
<title>ne3&#45;&gt;ne3</title>
<path fill="none" stroke="black" d="M18.34,-171.11C17.91,-181.08 19.67,-189.62 23.62,-189.62 25.9,-189.62 27.46,-186.77 28.28,-182.43"/>
<polygon fill="black" stroke="black" points="31.76,-182.8 28.82,-172.62 24.77,-182.42 31.76,-182.8"/>
<text text-anchor="middle" x="23.62" y="-192.07" font-family="Times New Roman,serif" font-size="14.00">R_01</text>
</g>
<!-- ne3&#45;&gt;ne3 -->
<g id="edge16" class="edge">
<title>ne3&#45;&gt;ne3</title>
<path fill="none" stroke="black" d="M14.5,-170.32C10.73,-188.62 13.77,-207.62 23.62,-207.62 31.47,-207.62 34.99,-195.55 34.19,-181.39"/>
<polygon fill="black" stroke="black" points="37.71,-181.28 32.94,-171.82 30.77,-182.2 37.71,-181.28"/>
<text text-anchor="middle" x="23.62" y="-210.07" font-family="Times New Roman,serif" font-size="14.00">R_13</text>
</g>
<!-- ne46 -->
<g id="node6" class="node">
<title>ne46</title>
<ellipse fill="lightgreen" stroke="lightgreen" cx="142.1" cy="-247" rx="28.11" ry="28.11"/>
<text text-anchor="middle" x="142.1" y="-241.57" font-family="Times New Roman,serif" font-size="14.00">ne46</text>
</g>
<!-- ne3&#45;&gt;ne46 -->
<g id="edge29" class="edge">
<title>ne3&#45;&gt;ne46</title>
<path fill="none" stroke="black" d="M24.97,-171.65C26.82,-199.9 34.68,-246.08 65.24,-268 77.84,-277.04 94.17,-273.94 108.45,-267.69"/>
<polygon fill="black" stroke="black" points="109.68,-270.99 117.05,-263.38 106.54,-264.73 109.68,-270.99"/>
<text text-anchor="middle" x="80.61" y="-275.45" font-family="Times New Roman,serif" font-size="14.00">R_22</text>
</g>
<!-- ne53 -->
<g id="node7" class="node">
<title>ne53</title>
<ellipse fill="lightgreen" stroke="lightgreen" cx="645.98" cy="-155" rx="28.11" ry="28.11"/>
<ellipse fill="none" stroke="lightgreen" cx="645.98" cy="-155" rx="32.11" ry="32.11"/>
<text text-anchor="middle" x="645.98" y="-149.57" font-family="Times New Roman,serif" font-size="14.00">ne53</text>
</g>
<!-- ne3&#45;&gt;ne53 -->
<g id="edge30" class="edge">
<title>ne3&#45;&gt;ne53</title>
<path fill="none" stroke="black" d="M47.43,-148.26C139.04,-149.29 480.97,-153.15 602.1,-154.52"/>
<polygon fill="black" stroke="black" points="601.9,-158.01 611.94,-154.63 601.98,-151.01 601.9,-158.01"/>
<text text-anchor="middle" x="326.55" y="-154.45" font-family="Times New Roman,serif" font-size="14.00">R_23</text>
</g>
<!-- ne3&#45;&gt;ne53 -->
<g id="edge32" class="edge">
<title>ne3&#45;&gt;ne53</title>
<path fill="none" stroke="black" d="M45.64,-138.87C68.63,-129.72 106.78,-117 141.1,-117 141.1,-117 141.1,-117 520.01,-117 549.9,-117 582.14,-127.07 606.39,-136.85"/>
<polygon fill="black" stroke="black" points="604.96,-140.04 615.53,-140.69 607.67,-133.59 604.96,-140.04"/>
<text text-anchor="middle" x="326.55" y="-119.45" font-family="Times New Roman,serif" font-size="14.00">R_24</text>
</g>
<!-- ne40 -->
<g id="node2" class="node">
<title>ne40</title>
<ellipse fill="lightgreen" stroke="lightgreen" cx="265.07" cy="-247" rx="28.11" ry="28.11"/>
<text text-anchor="middle" x="265.07" y="-241.57" font-family="Times New Roman,serif" font-size="14.00">ne40</text>
</g>
<!-- ne40&#45;&gt;ne40 -->
<g id="edge2" class="edge">
<title>ne40&#45;&gt;ne40</title>
<path fill="none" stroke="black" d="M259.31,-274.91C259.19,-284.94 261.11,-293.11 265.07,-293.11 267.36,-293.11 268.97,-290.38 269.89,-286.14"/>
<polygon fill="black" stroke="black" points="273.36,-286.68 270.7,-276.42 266.38,-286.1 273.36,-286.68"/>
<text text-anchor="middle" x="265.07" y="-295.56" font-family="Times New Roman,serif" font-size="14.00">R_02</text>
</g>
<!-- ne40&#45;&gt;ne40 -->
<g id="edge19" class="edge">
<title>ne40&#45;&gt;ne40</title>
<path fill="none" stroke="black" d="M254.78,-273.34C251.43,-292.26 254.86,-311.11 265.07,-311.11 273.2,-311.11 277.03,-299.14 276.56,-284.71"/>
<polygon fill="black" stroke="black" points="280.05,-284.42 275.51,-274.85 273.09,-285.16 280.05,-284.42"/>
<text text-anchor="middle" x="265.07" y="-313.56" font-family="Times New Roman,serif" font-size="14.00">R_15</text>
</g>
<!-- ne48 -->
<g id="node4" class="node">
<title>ne48</title>
<ellipse fill="lightgreen" stroke="lightgreen" cx="392.04" cy="-257" rx="28.11" ry="28.11"/>
<ellipse fill="none" stroke="lightgreen" cx="392.04" cy="-257" rx="32.11" ry="32.11"/>
<text text-anchor="middle" x="392.04" y="-251.57" font-family="Times New Roman,serif" font-size="14.00">ne48</text>
</g>
<!-- ne40&#45;&gt;ne48 -->
<g id="edge24" class="edge">
<title>ne40&#45;&gt;ne48</title>
<path fill="none" stroke="black" d="M279.39,-271.71C287.03,-283.18 297.78,-295.66 311.18,-302 323.53,-307.85 329.19,-306.95 341.93,-302 349.49,-299.06 356.59,-294.36 362.92,-289.07"/>
<polygon fill="black" stroke="black" points="364.92,-291.98 369.92,-282.64 360.19,-286.83 364.92,-291.98"/>
<text text-anchor="middle" x="326.55" y="-308.45" font-family="Times New Roman,serif" font-size="14.00">R_19</text>
</g>
<!-- ne40&#45;&gt;ne48 -->
<g id="edge26" class="edge">
<title>ne40&#45;&gt;ne48</title>
<path fill="none" stroke="black" d="M291.43,-257.69C297.77,-259.89 304.63,-261.87 311.18,-263 323.33,-265.09 336.64,-265.01 348.85,-264.02"/>
<polygon fill="black" stroke="black" points="349.07,-267.52 358.65,-262.98 348.34,-260.55 349.07,-267.52"/>
<text text-anchor="middle" x="326.55" y="-266.45" font-family="Times New Roman,serif" font-size="14.00">R_20</text>
</g>
<!-- ne40&#45;&gt;ne46 -->
<g id="edge17" class="edge">
<title>ne40&#45;&gt;ne46</title>
<path fill="none" stroke="black" d="M236.89,-245.07C230.98,-244.73 224.76,-244.43 218.96,-244.25 205.3,-243.83 201.87,-243.83 188.21,-244.25 186.03,-244.32 183.8,-244.4 181.54,-244.5"/>
<polygon fill="black" stroke="black" points="181.6,-240.99 171.79,-245 181.96,-247.98 181.6,-240.99"/>
<text text-anchor="middle" x="203.58" y="-246.45" font-family="Times New Roman,serif" font-size="14.00">R_14</text>
</g>
<!-- ne40&#45;&gt;ne46 -->
<g id="edge23" class="edge">
<title>ne40&#45;&gt;ne46</title>
<path fill="none" stroke="black" d="M241.05,-232.15C234.21,-228.51 226.52,-225.12 218.96,-223.25 205.69,-219.97 201.48,-219.97 188.21,-223.25 184.19,-224.24 180.14,-225.67 176.19,-227.33"/>
<polygon fill="black" stroke="black" points="174.99,-224.02 167.48,-231.5 178.01,-230.34 174.99,-224.02"/>
<text text-anchor="middle" x="203.58" y="-225.45" font-family="Times New Roman,serif" font-size="14.00">R_18</text>
</g>
<!-- ne49 -->
<g id="node3" class="node">
<title>ne49</title>
<ellipse fill="lightgreen" stroke="lightgreen" cx="772.95" cy="-233" rx="28.11" ry="28.11"/>
<text text-anchor="middle" x="772.95" y="-227.57" font-family="Times New Roman,serif" font-size="14.00">ne49</text>
</g>
<!-- ne49&#45;&gt;ne49 -->
<g id="edge3" class="edge">
<title>ne49&#45;&gt;ne49</title>
<path fill="none" stroke="black" d="M767.19,-260.91C767.07,-270.94 768.99,-279.11 772.95,-279.11 775.24,-279.11 776.85,-276.38 777.77,-272.14"/>
<polygon fill="black" stroke="black" points="781.24,-272.68 778.58,-262.42 774.26,-272.1 781.24,-272.68"/>
<text text-anchor="middle" x="772.95" y="-281.56" font-family="Times New Roman,serif" font-size="14.00">R_03</text>
</g>
<!-- ne49&#45;&gt;ne49 -->
<g id="edge11" class="edge">
<title>ne49&#45;&gt;ne49</title>
<path fill="none" stroke="black" d="M762.66,-259.34C759.31,-278.26 762.74,-297.11 772.95,-297.11 781.08,-297.11 784.91,-285.14 784.44,-270.71"/>
<polygon fill="black" stroke="black" points="787.93,-270.42 783.4,-260.85 780.97,-271.16 787.93,-270.42"/>
<text text-anchor="middle" x="772.95" y="-299.56" font-family="Times New Roman,serif" font-size="14.00">R_09</text>
</g>
<!-- ne49&#45;&gt;ne48 -->
<g id="edge4" class="edge">
<title>ne49&#45;&gt;ne48</title>
<path fill="none" stroke="black" d="M747.47,-245.33C707.02,-264.94 623.1,-302.42 547.12,-316 522.52,-320.4 514.97,-322.7 490.9,-316 467.62,-309.53 444.35,-295.86 426.34,-283.31"/>
<polygon fill="black" stroke="black" points="428.82,-280.78 418.66,-277.78 424.73,-286.46 428.82,-280.78"/>
<text text-anchor="middle" x="580.49" y="-314.45" font-family="Times New Roman,serif" font-size="14.00">R_04</text>
</g>
<!-- ne49&#45;&gt;ne53 -->
<g id="edge9" class="edge">
<title>ne49&#45;&gt;ne53</title>
<path fill="none" stroke="black" d="M751.62,-214.28C744.12,-207.85 735.37,-200.86 726.84,-195.25 714.15,-186.9 699.49,-179.06 686.23,-172.55"/>
<polygon fill="black" stroke="black" points="687.85,-169.44 677.32,-168.28 684.83,-175.76 687.85,-169.44"/>
<text text-anchor="middle" x="711.46" y="-198.45" font-family="Times New Roman,serif" font-size="14.00">R_08</text>
</g>
<!-- ne49&#45;&gt;ne53 -->
<g id="edge21" class="edge">
<title>ne49&#45;&gt;ne53</title>
<path fill="none" stroke="black" d="M763.06,-206.47C756.01,-189.86 744.37,-169.7 726.84,-159.25 715.79,-152.66 702.28,-150.29 689.54,-149.94"/>
<polygon fill="black" stroke="black" points="689.6,-146.44 679.66,-150.1 689.71,-153.44 689.6,-146.44"/>
<text text-anchor="middle" x="711.46" y="-162.45" font-family="Times New Roman,serif" font-size="14.00">R_17</text>
</g>
<!-- ne48&#45;&gt;ne40 -->
<g id="edge5" class="edge">
<title>ne48&#45;&gt;ne40</title>
<path fill="none" stroke="black" d="M360.26,-249.95C354.22,-248.83 347.9,-247.85 341.93,-247.25 329.94,-246.05 316.83,-245.68 304.93,-245.69"/>
<polygon fill="black" stroke="black" points="305,-242.19 295.04,-245.8 305.07,-249.19 305,-242.19"/>
<text text-anchor="middle" x="326.55" y="-249.45" font-family="Times New Roman,serif" font-size="14.00">R_04</text>
</g>
<!-- ne48&#45;&gt;ne40 -->
<g id="edge35" class="edge">
<title>ne48&#45;&gt;ne40</title>
<path fill="none" stroke="black" d="M366.42,-237.19C358.98,-232.32 350.5,-227.78 341.93,-225.25 328.82,-221.38 324.5,-222.21 311.18,-225.25 307.53,-226.08 303.84,-227.25 300.22,-228.61"/>
<polygon fill="black" stroke="black" points="298.86,-225.39 291.07,-232.57 301.64,-231.81 298.86,-225.39"/>
<text text-anchor="middle" x="326.55" y="-227.45" font-family="Times New Roman,serif" font-size="14.00">R_25</text>
</g>
<!-- ne48&#45;&gt;ne49 -->
<g id="edge25" class="edge">
<title>ne48&#45;&gt;ne49</title>
<path fill="none" stroke="black" d="M410.61,-283.47C419.05,-294.49 429.97,-306.63 442.15,-315 498.81,-353.92 528.25,-344.32 595.87,-332 658.32,-320.62 675.17,-311.88 726.84,-275 732.78,-270.76 738.76,-265.79 744.34,-260.79"/>
<polygon fill="black" stroke="black" points="746.67,-263.41 751.6,-254.03 741.89,-258.29 746.67,-263.41"/>
<text text-anchor="middle" x="580.49" y="-339.45" font-family="Times New Roman,serif" font-size="14.00">R_19</text>
</g>
<!-- ne50 -->
<g id="node5" class="node">
<title>ne50</title>
<ellipse fill="lightgreen" stroke="lightgreen" cx="519.01" cy="-211" rx="28.11" ry="28.11"/>
<text text-anchor="middle" x="519.01" y="-205.57" font-family="Times New Roman,serif" font-size="14.00">ne50</text>
</g>
<!-- ne48&#45;&gt;ne50 -->
<g id="edge27" class="edge">
<title>ne48&#45;&gt;ne50</title>
<path fill="none" stroke="black" d="M423.25,-247.97C438.3,-243.26 456.7,-237.21 472.9,-231 476.08,-229.78 479.35,-228.46 482.62,-227.1"/>
<polygon fill="black" stroke="black" points="483.72,-230.44 491.52,-223.27 480.95,-224.01 483.72,-230.44"/>
<text text-anchor="middle" x="457.52" y="-243.45" font-family="Times New Roman,serif" font-size="14.00">R_20</text>
</g>
<!-- ne50&#45;&gt;ne48 -->
<g id="edge34" class="edge">
<title>ne50&#45;&gt;ne48</title>
<path fill="none" stroke="black" d="M491.13,-206.41C476.2,-204.99 457.58,-205.15 442.15,-211.25 434.4,-214.31 427.15,-219.24 420.72,-224.74"/>
<polygon fill="black" stroke="black" points="418.48,-222.04 413.6,-231.44 423.28,-227.14 418.48,-222.04"/>
<text text-anchor="middle" x="457.52" y="-214.45" font-family="Times New Roman,serif" font-size="14.00">R_25</text>
</g>
<!-- ne50&#45;&gt;ne50 -->
<g id="edge6" class="edge">
<title>ne50&#45;&gt;ne50</title>
<path fill="none" stroke="black" d="M513.25,-238.91C513.13,-248.94 515.05,-257.11 519.01,-257.11 521.3,-257.11 522.91,-254.38 523.83,-250.14"/>
<polygon fill="black" stroke="black" points="527.3,-250.68 524.64,-240.42 520.32,-250.1 527.3,-250.68"/>
<text text-anchor="middle" x="519.01" y="-259.56" font-family="Times New Roman,serif" font-size="14.00">R_05</text>
</g>
<!-- ne50&#45;&gt;ne50 -->
<g id="edge14" class="edge">
<title>ne50&#45;&gt;ne50</title>
<path fill="none" stroke="black" d="M508.72,-237.34C505.37,-256.26 508.8,-275.11 519.01,-275.11 527.14,-275.11 530.97,-263.14 530.5,-248.71"/>
<polygon fill="black" stroke="black" points="533.99,-248.42 529.46,-238.85 527.03,-249.16 533.99,-248.42"/>
<text text-anchor="middle" x="519.01" y="-277.56" font-family="Times New Roman,serif" font-size="14.00">R_11</text>
</g>
<!-- ne50&#45;&gt;ne53 -->
<g id="edge12" class="edge">
<title>ne50&#45;&gt;ne53</title>
<path fill="none" stroke="black" d="M547.52,-213.38C562.47,-213.58 580.9,-211.98 595.87,-205 604.09,-201.16 611.68,-195.32 618.32,-188.97"/>
<polygon fill="black" stroke="black" points="620.75,-191.5 625.15,-181.86 615.7,-186.65 620.75,-191.5"/>
<text text-anchor="middle" x="580.49" y="-215.45" font-family="Times New Roman,serif" font-size="14.00">R_10</text>
</g>
<!-- ne46&#45;&gt;ne3 -->
<g id="edge18" class="edge">
<title>ne46&#45;&gt;ne3</title>
<path fill="none" stroke="black" d="M113.78,-249.58C98.17,-249.65 79.02,-247.19 65.24,-237 47.63,-223.97 37.45,-201.49 31.69,-182.37"/>
<polygon fill="black" stroke="black" points="35.09,-181.53 29.11,-172.78 28.33,-183.35 35.09,-181.53"/>
<text text-anchor="middle" x="80.61" y="-250.45" font-family="Times New Roman,serif" font-size="14.00">R_14</text>
</g>
<!-- ne46&#45;&gt;ne3 -->
<g id="edge20" class="edge">
<title>ne46&#45;&gt;ne3</title>
<path fill="none" stroke="black" d="M118.22,-231.76C111.12,-227.07 103.25,-221.92 95.99,-217.25 82.42,-208.53 77.32,-208.68 65.24,-198 57.89,-191.5 50.81,-183.59 44.68,-176"/>
<polygon fill="black" stroke="black" points="47.78,-174.28 38.88,-168.52 42.25,-178.57 47.78,-174.28"/>
<text text-anchor="middle" x="80.61" y="-220.45" font-family="Times New Roman,serif" font-size="14.00">R_16</text>
</g>
<!-- ne46&#45;&gt;ne3 -->
<g id="edge28" class="edge">
<title>ne46&#45;&gt;ne3</title>
<path fill="none" stroke="black" d="M129.25,-221.74C121.47,-207.42 110.13,-190.05 95.99,-178.25 84.88,-168.98 70.52,-162.16 57.59,-157.37"/>
<polygon fill="black" stroke="black" points="58.74,-154.06 48.15,-154.16 56.49,-160.69 58.74,-154.06"/>
<text text-anchor="middle" x="80.61" y="-181.45" font-family="Times New Roman,serif" font-size="14.00">R_21</text>
</g>
<!-- ne46&#45;&gt;ne40 -->
<g id="edge8" class="edge">
<title>ne46&#45;&gt;ne40</title>
<path fill="none" stroke="black" d="M167.93,-258.18C174.4,-260.58 181.46,-262.77 188.21,-264 201.65,-266.45 205.51,-266.45 218.96,-264 222.12,-263.42 225.35,-262.64 228.56,-261.72"/>
<polygon fill="black" stroke="black" points="229.41,-265.12 237.8,-258.66 227.21,-258.48 229.41,-265.12"/>
<text text-anchor="middle" x="203.58" y="-267.45" font-family="Times New Roman,serif" font-size="14.00">R_07</text>
</g>
<!-- ne46&#45;&gt;ne46 -->
<g id="edge7" class="edge">
<title>ne46&#45;&gt;ne46</title>
<path fill="none" stroke="black" d="M136.34,-274.91C136.22,-284.94 138.14,-293.11 142.1,-293.11 144.39,-293.11 146,-290.38 146.92,-286.14"/>
<polygon fill="black" stroke="black" points="150.39,-286.68 147.73,-276.42 143.41,-286.1 150.39,-286.68"/>
<text text-anchor="middle" x="142.1" y="-295.56" font-family="Times New Roman,serif" font-size="14.00">R_06</text>
</g>
<!-- ne46&#45;&gt;ne46 -->
<g id="edge15" class="edge">
<title>ne46&#45;&gt;ne46</title>
<path fill="none" stroke="black" d="M131.81,-273.34C128.46,-292.26 131.89,-311.11 142.1,-311.11 150.23,-311.11 154.06,-299.14 153.59,-284.71"/>
<polygon fill="black" stroke="black" points="157.08,-284.42 152.54,-274.85 150.12,-285.16 157.08,-284.42"/>
<text text-anchor="middle" x="142.1" y="-313.56" font-family="Times New Roman,serif" font-size="14.00">R_12</text>
</g>
<!-- ne53&#45;&gt;ne3 -->
<g id="edge10" class="edge">
<title>ne53&#45;&gt;ne3</title>
<path fill="none" stroke="black" d="M625.6,-129.63C617.31,-120.19 606.98,-110.06 595.87,-103 565.91,-83.96 555.51,-78 520.01,-78 141.1,-78 141.1,-78 141.1,-78 105.6,-78 94.98,-83.62 65.24,-103 57.96,-107.74 51.16,-114.1 45.28,-120.54"/>
<polygon fill="black" stroke="black" points="42.67,-118.2 38.85,-128.08 48,-122.74 42.67,-118.2"/>
<text text-anchor="middle" x="326.55" y="-80.45" font-family="Times New Roman,serif" font-size="14.00">R_08</text>
</g>
<!-- ne53&#45;&gt;ne3 -->
<g id="edge13" class="edge">
<title>ne53&#45;&gt;ne3</title>
<path fill="none" stroke="black" d="M630.41,-126.62C610.51,-92.28 571.37,-39 520.01,-39 141.1,-39 141.1,-39 141.1,-39 102.34,-39 93.13,-55.09 65.24,-82 55.05,-91.83 46.38,-104.72 39.7,-116.5"/>
<polygon fill="black" stroke="black" points="36.71,-114.66 35.06,-125.13 42.88,-117.98 36.71,-114.66"/>
<text text-anchor="middle" x="326.55" y="-41.45" font-family="Times New Roman,serif" font-size="14.00">R_10</text>
</g>
<!-- ne53&#45;&gt;ne3 -->
<g id="edge22" class="edge">
<title>ne53&#45;&gt;ne3</title>
<path fill="none" stroke="black" d="M635.72,-124.38C619.95,-79.21 583.27,0 520.01,0 141.1,0 141.1,0 141.1,0 100.72,0 90.96,-18.87 65.24,-50 49.87,-68.6 39.59,-93.83 33.22,-114.03"/>
<polygon fill="black" stroke="black" points="29.9,-112.93 30.42,-123.51 36.61,-114.91 29.9,-112.93"/>
<text text-anchor="middle" x="326.55" y="-2.45" font-family="Times New Roman,serif" font-size="14.00">R_17</text>
</g>
<!-- ne53&#45;&gt;ne49 -->
<g id="edge31" class="edge">
<title>ne53&#45;&gt;ne49</title>
<path fill="none" stroke="black" d="M664.97,-181.42C673.33,-191.95 684.09,-203.37 696.09,-211 707.34,-218.16 720.99,-223.05 733.59,-226.37"/>
<polygon fill="black" stroke="black" points="732.76,-229.77 743.29,-228.65 734.36,-222.95 732.76,-229.77"/>
<text text-anchor="middle" x="711.46" y="-226.45" font-family="Times New Roman,serif" font-size="14.00">R_23</text>
</g>
<!-- ne53&#45;&gt;ne50 -->
<g id="edge33" class="edge">
<title>ne53&#45;&gt;ne50</title>
<path fill="none" stroke="black" d="M615.32,-164.98C600.08,-170.43 581.35,-177.6 565.12,-185.25 561.31,-187.05 557.38,-189.05 553.51,-191.11"/>
<polygon fill="black" stroke="black" points="551.89,-188.01 544.84,-195.92 555.28,-194.13 551.89,-188.01"/>
<text text-anchor="middle" x="580.49" y="-188.45" font-family="Times New Roman,serif" font-size="14.00">R_24</text>
</g>
</g>
</svg>
