<?xml version="1.0" encoding="UTF-8" standalone="no"?>
<!DOCTYPE svg PUBLIC "-//W3C//DTD SVG 1.1//EN"
 "http://www.w3.org/Graphics/SVG/1.1/DTD/svg11.dtd">
<!-- Generated by graphviz version 9.0.0 (20230911.1827)
 -->
<!-- Title: finite_state_machine Pages: 1 -->
<svg width="555pt" height="169pt"
 viewBox="0.00 0.00 555.12 169.47" xmlns="http://www.w3.org/2000/svg" xmlns:xlink="http://www.w3.org/1999/xlink">
<g id="graph0" class="graph" transform="scale(1 1) rotate(0) translate(4 165.47)">
<title>finite_state_machine</title>
<polygon fill="white" stroke="none" points="-4,4 -4,-165.47 551.12,-165.47 551.12,4 -4,4"/>
<!-- ne26 -->
<g id="node1" class="node">
<title>ne26</title>
<ellipse fill="lightgreen" stroke="lightgreen" cx="28.11" cy="-32.11" rx="28.11" ry="28.11"/>
<text text-anchor="middle" x="28.11" y="-26.69" font-family="Times New Roman,serif" font-size="14.00">ne26</text>
</g>
<!-- ne26&#45;&gt;ne26 -->
<g id="edge1" class="edge">
<title>ne26&#45;&gt;ne26</title>
<path fill="none" stroke="black" d="M22.35,-60.02C22.23,-70.05 24.15,-78.22 28.11,-78.22 30.4,-78.22 32.01,-75.49 32.93,-71.25"/>
<polygon fill="black" stroke="black" points="36.4,-71.79 33.74,-61.53 29.43,-71.21 36.4,-71.79"/>
<text text-anchor="middle" x="28.11" y="-80.67" font-family="Times New Roman,serif" font-size="14.00">R_01</text>
</g>
<!-- ne26&#45;&gt;ne26 -->
<g id="edge2" class="edge">
<title>ne26&#45;&gt;ne26</title>
<path fill="none" stroke="black" d="M17.82,-58.45C14.47,-77.37 17.9,-96.22 28.11,-96.22 36.24,-96.22 40.07,-84.25 39.6,-69.82"/>
<polygon fill="black" stroke="black" points="43.09,-69.53 38.56,-59.96 36.13,-70.27 43.09,-69.53"/>
<text text-anchor="middle" x="28.11" y="-98.67" font-family="Times New Roman,serif" font-size="14.00">R_02</text>
</g>
<!-- ne3 -->
<g id="node4" class="node">
<title>ne3</title>
<ellipse fill="lightgreen" stroke="lightgreen" cx="146.59" cy="-32.11" rx="23.62" ry="23.62"/>
<text text-anchor="middle" x="146.59" y="-26.69" font-family="Times New Roman,serif" font-size="14.00">ne3</text>
</g>
<!-- ne26&#45;&gt;ne3 -->
<g id="edge12" class="edge">
<title>ne26&#45;&gt;ne3</title>
<path fill="none" stroke="black" d="M56.71,-32.11C73,-32.11 93.76,-32.11 111.12,-32.11"/>
<polygon fill="black" stroke="black" points="110.98,-35.61 120.98,-32.11 110.98,-28.61 110.98,-35.61"/>
<text text-anchor="middle" x="89.6" y="-34.56" font-family="Times New Roman,serif" font-size="14.00">R_11</text>
</g>
<!-- ne23 -->
<g id="node2" class="node">
<title>ne23</title>
<ellipse fill="lightgreen" stroke="lightgreen" cx="396.04" cy="-32.11" rx="28.11" ry="28.11"/>
<text text-anchor="middle" x="396.04" y="-26.69" font-family="Times New Roman,serif" font-size="14.00">ne23</text>
</g>
<!-- ne23&#45;&gt;ne23 -->
<g id="edge3" class="edge">
<title>ne23&#45;&gt;ne23</title>
<path fill="none" stroke="black" d="M392.2,-60.02C392.12,-70.05 393.4,-78.22 396.04,-78.22 397.57,-78.22 398.64,-75.49 399.25,-71.25"/>
<polygon fill="black" stroke="black" points="402.73,-71.71 399.79,-61.53 395.75,-71.32 402.73,-71.71"/>
<text text-anchor="middle" x="396.04" y="-80.67" font-family="Times New Roman,serif" font-size="14.00">R_03</text>
</g>
<!-- ne23&#45;&gt;ne23 -->
<g id="edge4" class="edge">
<title>ne23&#45;&gt;ne23</title>
<path fill="none" stroke="black" d="M389.03,-59.79C387.06,-78.25 389.39,-96.22 396.04,-96.22 401.28,-96.22 403.84,-85.03 403.72,-71.24"/>
<polygon fill="black" stroke="black" points="407.22,-71.08 403.14,-61.3 400.23,-71.49 407.22,-71.08"/>
<text text-anchor="middle" x="396.04" y="-98.67" font-family="Times New Roman,serif" font-size="14.00">R_04</text>
</g>
<!-- ne23&#45;&gt;ne23 -->
<g id="edge8" class="edge">
<title>ne23&#45;&gt;ne23</title>
<path fill="none" stroke="black" d="M386.88,-59.02C381.82,-85.32 384.87,-114.22 396.04,-114.22 405.64,-114.22 409.24,-92.88 406.85,-70.18"/>
<polygon fill="black" stroke="black" points="410.35,-69.9 405.42,-60.52 403.43,-70.92 410.35,-69.9"/>
<text text-anchor="middle" x="396.04" y="-116.67" font-family="Times New Roman,serif" font-size="14.00">R_08</text>
</g>
<!-- ne25 -->
<g id="node3" class="node">
<title>ne25</title>
<ellipse fill="lightgreen" stroke="lightgreen" cx="519.01" cy="-32.11" rx="28.11" ry="28.11"/>
<text text-anchor="middle" x="519.01" y="-26.69" font-family="Times New Roman,serif" font-size="14.00">ne25</text>
</g>
<!-- ne23&#45;&gt;ne25 -->
<g id="edge9" class="edge">
<title>ne23&#45;&gt;ne25</title>
<path fill="none" stroke="black" d="M424.49,-32.11C440.65,-32.11 461.35,-32.11 479.17,-32.11"/>
<polygon fill="black" stroke="black" points="479.15,-35.61 489.15,-32.11 479.15,-28.61 479.15,-35.61"/>
<text text-anchor="middle" x="457.52" y="-34.56" font-family="Times New Roman,serif" font-size="14.00">R_09</text>
</g>
<!-- ne27 -->
<g id="node5" class="node">
<title>ne27</title>
<ellipse fill="lightgreen" stroke="lightgreen" cx="269.07" cy="-32.11" rx="28.11" ry="28.11"/>
<ellipse fill="none" stroke="lightgreen" cx="269.07" cy="-32.11" rx="32.11" ry="32.11"/>
<text text-anchor="middle" x="269.07" y="-26.69" font-family="Times New Roman,serif" font-size="14.00">ne27</text>
</g>
<!-- ne23&#45;&gt;ne27 -->
<g id="edge10" class="edge">
<title>ne23&#45;&gt;ne27</title>
<path fill="none" stroke="black" d="M370.25,-20.44C363.77,-17.93 356.71,-15.65 349.93,-14.36 336.5,-11.81 332.64,-12 319.18,-14.36 316.18,-14.88 313.13,-15.58 310.09,-16.38"/>
<polygon fill="black" stroke="black" points="309.21,-12.99 300.67,-19.26 311.25,-19.69 309.21,-12.99"/>
<text text-anchor="middle" x="334.55" y="-16.56" font-family="Times New Roman,serif" font-size="14.00">R_10</text>
</g>
<!-- ne25&#45;&gt;ne23 -->
<g id="edge6" class="edge">
<title>ne25&#45;&gt;ne23</title>
<path fill="none" stroke="black" d="M493.22,-20.44C486.74,-17.93 479.68,-15.65 472.9,-14.36 459.47,-11.81 455.58,-11.81 442.15,-14.36 438.97,-14.96 435.73,-15.78 432.52,-16.75"/>
<polygon fill="black" stroke="black" points="431.57,-13.37 423.26,-19.94 433.86,-19.99 431.57,-13.37"/>
<text text-anchor="middle" x="457.52" y="-16.56" font-family="Times New Roman,serif" font-size="14.00">R_06</text>
</g>
<!-- ne25&#45;&gt;ne25 -->
<g id="edge5" class="edge">
<title>ne25&#45;&gt;ne25</title>
<path fill="none" stroke="black" d="M507.58,-58.18C506.79,-69.03 510.6,-78.22 519.01,-78.22 524.26,-78.22 527.72,-74.63 529.38,-69.29"/>
<polygon fill="black" stroke="black" points="532.83,-69.97 530.29,-59.69 525.86,-69.31 532.83,-69.97"/>
<text text-anchor="middle" x="519.01" y="-80.67" font-family="Times New Roman,serif" font-size="14.00">R_05</text>
</g>
<!-- ne3&#45;&gt;ne26 -->
<g id="edge13" class="edge">
<title>ne3&#45;&gt;ne26</title>
<path fill="none" stroke="black" d="M126.01,-20.38C119.54,-17.12 112.15,-14.01 104.97,-12.36 91.65,-9.29 87.6,-9.56 74.22,-12.36 70.82,-13.07 67.35,-14.06 63.94,-15.21"/>
<polygon fill="black" stroke="black" points="62.78,-11.9 54.73,-18.79 65.32,-18.43 62.78,-11.9"/>
<text text-anchor="middle" x="89.6" y="-14.56" font-family="Times New Roman,serif" font-size="14.00">R_12</text>
</g>
<!-- ne3&#45;&gt;ne3 -->
<g id="edge7" class="edge">
<title>ne3&#45;&gt;ne3</title>
<path fill="none" stroke="black" d="M136.22,-53.52C134.78,-64.2 138.24,-73.73 146.59,-73.73 151.68,-73.73 154.95,-70.19 156.4,-65.01"/>
<polygon fill="black" stroke="black" points="159.9,-65.19 156.89,-55.04 152.91,-64.85 159.9,-65.19"/>
<text text-anchor="middle" x="146.59" y="-76.18" font-family="Times New Roman,serif" font-size="14.00">R_07</text>
</g>
<!-- ne3&#45;&gt;ne27 -->
<g id="edge14" class="edge">
<title>ne3&#45;&gt;ne27</title>
<path fill="none" stroke="black" d="M170.53,-32.11C185.95,-32.11 206.75,-32.11 225.17,-32.11"/>
<polygon fill="black" stroke="black" points="225.05,-35.61 235.05,-32.11 225.05,-28.61 225.05,-35.61"/>
<text text-anchor="middle" x="203.58" y="-34.56" font-family="Times New Roman,serif" font-size="14.00">R_13</text>
</g>
<!-- ne27&#45;&gt;ne23 -->
<g id="edge15" class="edge">
<title>ne27&#45;&gt;ne23</title>
<path fill="none" stroke="black" d="M301.6,-32.11C318.25,-32.11 338.82,-32.11 356.42,-32.11"/>
<polygon fill="black" stroke="black" points="356.24,-35.61 366.24,-32.11 356.24,-28.61 356.24,-35.61"/>
<text text-anchor="middle" x="334.55" y="-34.56" font-family="Times New Roman,serif" font-size="14.00">R_13</text>
</g>
<!-- ne27&#45;&gt;ne3 -->
<g id="edge11" class="edge">
<title>ne27&#45;&gt;ne3</title>
<path fill="none" stroke="black" d="M238.92,-19.71C232.46,-17.49 225.57,-15.52 218.96,-14.36 205.5,-12 201.59,-11.56 188.21,-14.36 184.96,-15.04 181.65,-15.99 178.4,-17.11"/>
<polygon fill="black" stroke="black" points="177.11,-13.86 169.11,-20.81 179.7,-20.36 177.11,-13.86"/>
<text text-anchor="middle" x="203.58" y="-16.56" font-family="Times New Roman,serif" font-size="14.00">R_10</text>
</g>
</g>
</svg>
