<?xml version="1.0" encoding="UTF-8" standalone="no"?>
<!DOCTYPE svg PUBLIC "-//W3C//DTD SVG 1.1//EN"
 "http://www.w3.org/Graphics/SVG/1.1/DTD/svg11.dtd">
<!-- Generated by graphviz version 9.0.0 (20230911.1827)
 -->
<!-- Title: finite_state_machine Pages: 1 -->
<svg width="21600pt" height="13516pt"
 viewBox="0.00 0.00 21600.00 13516.40" xmlns="http://www.w3.org/2000/svg" xmlns:xlink="http://www.w3.org/1999/xlink">
<g id="graph0" class="graph" transform="scale(27.6127 27.6127) rotate(0) translate(4 485.5)">
<title>finite_state_machine</title>
<polygon fill="white" stroke="none" points="-4,4 -4,-485.5 778.25,-485.5 778.25,4 -4,4"/>
<!-- ne26 -->
<g id="node1" class="node">
<title>ne26</title>
<path fill="white" stroke="black" stroke-width="2" d="M12,-356C12,-356 285,-356 285,-356 291,-356 297,-362 297,-368 297,-368 297,-469 297,-469 297,-475 291,-481 285,-481 285,-481 12,-481 12,-481 6,-481 0,-475 0,-469 0,-469 0,-368 0,-368 0,-362 6,-356 12,-356"/>
<polygon fill="white" stroke="none" points="8,-360 8,-477 289,-477 289,-360 8,-360"/>
<polygon fill="black" stroke="none" points="10,-454 10,-475 287,-475 287,-454 10,-454"/>
<text text-anchor="start" x="132" y="-458.7" font-family="Courier New" font-size="14.00" fill="white">ne26</text>
<polygon fill="#8470ff" stroke="none" points="10,-431 10,-452 123,-452 123,-431 10,-431"/>
<text text-anchor="start" x="70.5" y="-435.7" font-family="Courier New" font-size="14.00">Border</text>
<text text-anchor="start" x="128" y="-435.7" font-family="Courier New" font-size="14.00">Buf01</text>
<polygon fill="darkcyan" stroke="none" points="10,-408 10,-429 123,-429 123,-408 10,-408"/>
<text text-anchor="start" x="12.88" y="-412.7" font-family="Courier New" font-size="14.00">LevelCrossing</text>
<text text-anchor="start" x="128" y="-412.7" font-family="Courier New" font-size="14.00">Lc03 Lc04</text>
<polygon fill="cornflowerblue" stroke="none" points="10,-385 10,-406 123,-406 123,-385 10,-385"/>
<text text-anchor="start" x="54" y="-389.7" font-family="Courier New" font-size="14.00">Platform</text>
<text text-anchor="start" x="128" y="-389.7" font-family="Courier New" font-size="14.00">Plat01</text>
<polygon fill="yellowgreen" stroke="none" points="10,-362 10,-383 123,-383 123,-362 10,-362"/>
<text text-anchor="start" x="70.5" y="-366.7" font-family="Courier New" font-size="14.00">Signal</text>
<text text-anchor="start" x="127.62" y="-366.7" font-family="Courier New" font-size="14.00">L04 X05 X06 X07 C24</text>
</g>
<!-- ne26&#45;&#45;ne26 -->
<g id="edge1" class="edge">
<title>ne26&#45;&#45;ne26</title>
<path fill="none" stroke="black" d="M297.31,-424.68C308.28,-423.3 315,-421.23 315,-418.5 315,-415.77 308.28,-413.7 297.31,-412.32"/>
<text text-anchor="middle" x="330.38" y="-413.07" font-family="Times New Roman,serif" font-size="14.00">R_01</text>
</g>
<!-- ne26&#45;&#45;ne26 -->
<g id="edge2" class="edge">
<title>ne26&#45;&#45;ne26</title>
<path fill="none" stroke="black" d="M297.42,-434.28C325.65,-432.31 345.75,-427.05 345.75,-418.5 345.75,-409.95 325.65,-404.69 297.42,-402.72"/>
<text text-anchor="middle" x="361.12" y="-413.07" font-family="Times New Roman,serif" font-size="14.00">R_02</text>
</g>
<!-- ne3 -->
<g id="node4" class="node">
<title>ne3</title>
<path fill="white" stroke="black" stroke-width="2" d="M45,-166.75C45,-166.75 252,-166.75 252,-166.75 258,-166.75 264,-172.75 264,-178.75 264,-178.75 264,-279.75 264,-279.75 264,-285.75 258,-291.75 252,-291.75 252,-291.75 45,-291.75 45,-291.75 39,-291.75 33,-285.75 33,-279.75 33,-279.75 33,-178.75 33,-178.75 33,-172.75 39,-166.75 45,-166.75"/>
<polygon fill="white" stroke="none" points="41,-170.75 41,-287.75 256,-287.75 256,-170.75 41,-170.75"/>
<polygon fill="black" stroke="none" points="43,-264.75 43,-285.75 254,-285.75 254,-264.75 43,-264.75"/>
<text text-anchor="start" x="136.12" y="-269.45" font-family="Courier New" font-size="14.00" fill="white">ne3</text>
<polygon fill="red" stroke="none" points="43,-241.75 43,-262.75 156,-262.75 156,-241.75 43,-241.75"/>
<text text-anchor="start" x="103.5" y="-246.45" font-family="Courier New" font-size="14.00">Switch</text>
<text text-anchor="start" x="161" y="-246.45" font-family="Courier New" font-size="14.00">Sw12</text>
<polygon fill="#8470ff" stroke="none" points="43,-218.75 43,-239.75 156,-239.75 156,-218.75 43,-218.75"/>
<text text-anchor="start" x="103.5" y="-223.45" font-family="Courier New" font-size="14.00">Border</text>
<text text-anchor="start" x="161" y="-223.45" font-family="Courier New" font-size="14.00">Buf02</text>
<polygon fill="darkcyan" stroke="none" points="43,-195.75 43,-216.75 156,-216.75 156,-195.75 43,-195.75"/>
<text text-anchor="start" x="45.88" y="-200.45" font-family="Courier New" font-size="14.00">LevelCrossing</text>
<text text-anchor="start" x="161" y="-200.45" font-family="Courier New" font-size="14.00">Lc06</text>
<polygon fill="yellowgreen" stroke="none" points="43,-172.75 43,-193.75 156,-193.75 156,-172.75 43,-172.75"/>
<text text-anchor="start" x="103.5" y="-177.45" font-family="Courier New" font-size="14.00">Signal</text>
<text text-anchor="start" x="160.62" y="-177.45" font-family="Courier New" font-size="14.00">L01 X16 S25</text>
</g>
<!-- ne26&#45;&#45;ne3 -->
<g id="edge12" class="edge">
<title>ne26&#45;&#45;ne3</title>
<path fill="none" stroke="black" d="M126.48,-355.5C124.97,-349.48 123.68,-343.41 122.75,-337.5 120.42,-322.65 121.94,-306.82 125.17,-292.01"/>
<text text-anchor="middle" x="137.88" y="-324.2" font-family="Times New Roman,serif" font-size="14.00">R_11</text>
</g>
<!-- ne23 -->
<g id="node2" class="node">
<title>ne23</title>
<path fill="white" stroke="black" stroke-width="2" d="M343,-155.25C343,-155.25 616,-155.25 616,-155.25 622,-155.25 628,-161.25 628,-167.25 628,-167.25 628,-291.25 628,-291.25 628,-297.25 622,-303.25 616,-303.25 616,-303.25 343,-303.25 343,-303.25 337,-303.25 331,-297.25 331,-291.25 331,-291.25 331,-167.25 331,-167.25 331,-161.25 337,-155.25 343,-155.25"/>
<polygon fill="white" stroke="none" points="339,-159.25 339,-299.25 620,-299.25 620,-159.25 339,-159.25"/>
<polygon fill="black" stroke="none" points="341,-276.25 341,-297.25 618,-297.25 618,-276.25 341,-276.25"/>
<text text-anchor="start" x="463" y="-280.95" font-family="Courier New" font-size="14.00" fill="white">ne23</text>
<polygon fill="red" stroke="none" points="341,-253.25 341,-274.25 454,-274.25 454,-253.25 341,-253.25"/>
<text text-anchor="start" x="401.5" y="-257.95" font-family="Courier New" font-size="14.00">Switch</text>
<text text-anchor="start" x="459" y="-257.95" font-family="Courier New" font-size="14.00">Sw11</text>
<polygon fill="#8470ff" stroke="none" points="341,-230.25 341,-251.25 454,-251.25 454,-230.25 341,-230.25"/>
<text text-anchor="start" x="401.5" y="-234.95" font-family="Courier New" font-size="14.00">Border</text>
<text text-anchor="start" x="459" y="-234.95" font-family="Courier New" font-size="14.00">Buf18</text>
<polygon fill="darkcyan" stroke="none" points="341,-207.25 341,-228.25 454,-228.25 454,-207.25 341,-207.25"/>
<text text-anchor="start" x="343.88" y="-211.95" font-family="Courier New" font-size="14.00">LevelCrossing</text>
<text text-anchor="start" x="459" y="-211.95" font-family="Courier New" font-size="14.00">Lc07 Lc09</text>
<polygon fill="cornflowerblue" stroke="none" points="341,-184.25 341,-205.25 454,-205.25 454,-184.25 341,-184.25"/>
<text text-anchor="start" x="385" y="-188.95" font-family="Courier New" font-size="14.00">Platform</text>
<text text-anchor="start" x="459" y="-188.95" font-family="Courier New" font-size="14.00">Plat02</text>
<polygon fill="yellowgreen" stroke="none" points="341,-161.25 341,-182.25 454,-182.25 454,-161.25 341,-161.25"/>
<text text-anchor="start" x="401.5" y="-165.95" font-family="Courier New" font-size="14.00">Signal</text>
<text text-anchor="start" x="458.62" y="-165.95" font-family="Courier New" font-size="14.00">L02 X09 X12 P19 S22</text>
</g>
<!-- ne23&#45;&#45;ne23 -->
<g id="edge3" class="edge">
<title>ne23&#45;&#45;ne23</title>
<path fill="none" stroke="black" d="M628.31,-233.91C639.28,-232.86 646,-231.31 646,-229.25 646,-227.19 639.28,-225.64 628.31,-224.59"/>
<text text-anchor="middle" x="661.38" y="-223.82" font-family="Times New Roman,serif" font-size="14.00">R_03</text>
</g>
<!-- ne23&#45;&#45;ne23 -->
<g id="edge4" class="edge">
<title>ne23&#45;&#45;ne23</title>
<path fill="none" stroke="black" d="M628.42,-241.13C656.65,-239.65 676.75,-235.69 676.75,-229.25 676.75,-222.81 656.65,-218.85 628.42,-217.37"/>
<text text-anchor="middle" x="692.12" y="-223.82" font-family="Times New Roman,serif" font-size="14.00">R_04</text>
</g>
<!-- ne23&#45;&#45;ne23 -->
<g id="edge8" class="edge">
<title>ne23&#45;&#45;ne23</title>
<path fill="none" stroke="black" d="M628.37,-247.99C672.53,-247.21 707.5,-240.96 707.5,-229.25 707.5,-217.54 672.53,-211.29 628.37,-210.51"/>
<text text-anchor="middle" x="722.88" y="-223.82" font-family="Times New Roman,serif" font-size="14.00">R_08</text>
</g>
<!-- ne25 -->
<g id="node3" class="node">
<title>ne25</title>
<path fill="white" stroke="black" stroke-width="2" d="M364,-0.5C364,-0.5 571,-0.5 571,-0.5 577,-0.5 583,-6.5 583,-12.5 583,-12.5 583,-90.5 583,-90.5 583,-96.5 577,-102.5 571,-102.5 571,-102.5 364,-102.5 364,-102.5 358,-102.5 352,-96.5 352,-90.5 352,-90.5 352,-12.5 352,-12.5 352,-6.5 358,-0.5 364,-0.5"/>
<polygon fill="white" stroke="none" points="360,-4.5 360,-98.5 575,-98.5 575,-4.5 360,-4.5"/>
<polygon fill="black" stroke="none" points="362,-75.5 362,-96.5 573,-96.5 573,-75.5 362,-75.5"/>
<text text-anchor="start" x="451" y="-80.2" font-family="Courier New" font-size="14.00" fill="white">ne25</text>
<polygon fill="#8470ff" stroke="none" points="362,-52.5 362,-73.5 475,-73.5 475,-52.5 362,-52.5"/>
<text text-anchor="start" x="422.5" y="-57.2" font-family="Courier New" font-size="14.00">Border</text>
<text text-anchor="start" x="480" y="-57.2" font-family="Courier New" font-size="14.00">Buf17</text>
<polygon fill="darkcyan" stroke="none" points="362,-29.5 362,-50.5 475,-50.5 475,-29.5 362,-29.5"/>
<text text-anchor="start" x="364.88" y="-34.2" font-family="Courier New" font-size="14.00">LevelCrossing</text>
<text text-anchor="start" x="480" y="-34.2" font-family="Courier New" font-size="14.00">Lc05</text>
<polygon fill="yellowgreen" stroke="none" points="362,-6.5 362,-27.5 475,-27.5 475,-6.5 362,-6.5"/>
<text text-anchor="start" x="422.5" y="-11.2" font-family="Courier New" font-size="14.00">Signal</text>
<text text-anchor="start" x="479.62" y="-11.2" font-family="Courier New" font-size="14.00">L03 X13 X14</text>
</g>
<!-- ne23&#45;&#45;ne25 -->
<g id="edge9" class="edge">
<title>ne23&#45;&#45;ne25</title>
<path fill="none" stroke="black" d="M451.1,-154.97C449.09,-143.7 448.33,-132.12 449.75,-121 450.51,-115.03 451.63,-108.83 452.94,-102.72"/>
<text text-anchor="middle" x="464.88" y="-123.45" font-family="Times New Roman,serif" font-size="14.00">R_09</text>
</g>
<!-- ne27 -->
<g id="node5" class="node">
<title>ne27</title>
<path fill="white" stroke="black" stroke-width="2" d="M256.5,-33.5C256.5,-33.5 292.5,-33.5 292.5,-33.5 298.5,-33.5 304.5,-39.5 304.5,-45.5 304.5,-45.5 304.5,-57.5 304.5,-57.5 304.5,-63.5 298.5,-69.5 292.5,-69.5 292.5,-69.5 256.5,-69.5 256.5,-69.5 250.5,-69.5 244.5,-63.5 244.5,-57.5 244.5,-57.5 244.5,-45.5 244.5,-45.5 244.5,-39.5 250.5,-33.5 256.5,-33.5"/>
<polygon fill="white" stroke="none" points="252.5,-38.62 252.5,-64.38 296.5,-64.38 296.5,-38.62 252.5,-38.62"/>
<polygon fill="black" stroke="none" points="254.5,-40.62 254.5,-62.38 294.5,-62.38 294.5,-40.62 254.5,-40.62"/>
<text text-anchor="start" x="258" y="-46.08" font-family="Courier New" font-size="14.00" fill="white">ne27</text>
</g>
<!-- ne23&#45;&#45;ne27 -->
<g id="edge10" class="edge">
<title>ne23&#45;&#45;ne27</title>
<path fill="none" stroke="black" d="M367.19,-154.81C359.76,-148.92 352.54,-142.88 345.75,-136.75 322.72,-115.95 300.3,-87.74 286.95,-69.82"/>
<text text-anchor="middle" x="360.88" y="-123.45" font-family="Times New Roman,serif" font-size="14.00">R_10</text>
</g>
<!-- ne25&#45;&#45;ne23 -->
<g id="edge6" class="edge">
<title>ne25&#45;&#45;ne23</title>
<path fill="none" stroke="black" d="M481.44,-102.74C482.7,-108.85 483.77,-115.04 484.5,-121 485.83,-131.92 486.29,-143.5 486.2,-154.86"/>
<text text-anchor="middle" x="500.88" y="-123.45" font-family="Times New Roman,serif" font-size="14.00">R_06</text>
</g>
<!-- ne25&#45;&#45;ne25 -->
<g id="edge5" class="edge">
<title>ne25&#45;&#45;ne25</title>
<path fill="none" stroke="black" d="M583.31,-63.13C594.15,-60.74 601,-56.86 601,-51.5 601,-46.14 594.15,-42.26 583.31,-39.87"/>
<text text-anchor="middle" x="616.38" y="-46.08" font-family="Times New Roman,serif" font-size="14.00">R_05</text>
</g>
<!-- ne3&#45;&#45;ne26 -->
<g id="edge13" class="edge">
<title>ne3&#45;&#45;ne26</title>
<path fill="none" stroke="black" d="M153.02,-292.06C153.66,-306.93 153.96,-322.78 153.5,-337.5 153.32,-343.34 153.06,-349.42 152.76,-355.5"/>
<text text-anchor="middle" x="168.88" y="-324.2" font-family="Times New Roman,serif" font-size="14.00">R_12</text>
</g>
<!-- ne3&#45;&#45;ne3 -->
<g id="edge7" class="edge">
<title>ne3&#45;&#45;ne3</title>
<path fill="none" stroke="black" d="M264.31,-244.34C275.15,-241.24 282,-236.21 282,-229.25 282,-222.29 275.15,-217.26 264.31,-214.16"/>
<text text-anchor="middle" x="297.38" y="-223.82" font-family="Times New Roman,serif" font-size="14.00">R_07</text>
</g>
<!-- ne3&#45;&#45;ne27 -->
<g id="edge14" class="edge">
<title>ne3&#45;&#45;ne27</title>
<path fill="none" stroke="black" d="M159.07,-166.37C163.69,-150.63 170.31,-134.39 179.75,-121 196.24,-97.61 223.31,-79.21 244.3,-67.39"/>
<text text-anchor="middle" x="194.88" y="-123.45" font-family="Times New Roman,serif" font-size="14.00">R_13</text>
</g>
<!-- ne27&#45;&#45;ne23 -->
<g id="edge15" class="edge">
<title>ne27&#45;&#45;ne23</title>
<path fill="none" stroke="black" d="M296.66,-69.88C309.94,-79.99 327.33,-92.74 343.5,-103 357.61,-111.95 363.23,-110.86 376.5,-121 389.73,-131.11 402.83,-142.93 415.03,-154.97"/>
<text text-anchor="middle" x="409.88" y="-123.45" font-family="Times New Roman,serif" font-size="14.00">R_13</text>
</g>
<!-- ne27&#45;&#45;ne3 -->
<g id="edge11" class="edge">
<title>ne27&#45;&#45;ne3</title>
<path fill="none" stroke="black" d="M262.07,-69.84C246.07,-92.15 217.44,-132.09 192.92,-166.29"/>
<text text-anchor="middle" x="237.88" y="-123.45" font-family="Times New Roman,serif" font-size="14.00">R_10</text>
</g>
</g>
</svg>
