<?xml version="1.0" encoding="UTF-8" standalone="no"?>
<!DOCTYPE svg PUBLIC "-//W3C//DTD SVG 1.1//EN"
 "http://www.w3.org/Graphics/SVG/1.1/DTD/svg11.dtd">
<!-- Generated by graphviz version 9.0.0 (20230911.1827)
 -->
<!-- Title: finite_state_machine Pages: 1 -->
<svg width="1157pt" height="248pt"
 viewBox="0.00 0.00 1157.00 247.50" xmlns="http://www.w3.org/2000/svg" xmlns:xlink="http://www.w3.org/1999/xlink">
<g id="graph0" class="graph" transform="scale(1 1) rotate(0) translate(4 243.5)">
<title>finite_state_machine</title>
<polygon fill="white" stroke="none" points="-4,4 -4,-243.5 1153,-243.5 1153,4 -4,4"/>
<!-- ne14 -->
<g id="node1" class="node">
<title>ne14</title>
<path fill="white" stroke="black" stroke-width="2" d="M12,-96C12,-96 170,-96 170,-96 176,-96 182,-102 182,-108 182,-108 182,-186 182,-186 182,-192 176,-198 170,-198 170,-198 12,-198 12,-198 6,-198 0,-192 0,-186 0,-186 0,-108 0,-108 0,-102 6,-96 12,-96"/>
<polygon fill="white" stroke="none" points="8,-100 8,-194 174,-194 174,-100 8,-100"/>
<polygon fill="black" stroke="none" points="10,-171 10,-192 172,-192 172,-171 10,-171"/>
<text text-anchor="start" x="74.5" y="-175.7" font-family="Courier New" font-size="14.00" fill="white">ne14</text>
<polygon fill="grey" stroke="none" points="10,-148 10,-169 82,-169 82,-148 10,-148"/>
<text text-anchor="start" x="29.5" y="-152.7" font-family="Courier New" font-size="14.00">Border</text>
<text text-anchor="start" x="86.75" y="-152.7" font-family="Courier New" font-size="14.00">LineBord01</text>
<polygon fill="grey" stroke="none" points="10,-125 10,-146 82,-146 82,-125 10,-125"/>
<text text-anchor="start" x="13" y="-129.7" font-family="Courier New" font-size="14.00">Platform</text>
<text text-anchor="start" x="87" y="-129.7" font-family="Courier New" font-size="14.00">Plat01</text>
<polygon fill="grey" stroke="none" points="10,-102 10,-123 82,-123 82,-102 10,-102"/>
<text text-anchor="start" x="29.5" y="-106.7" font-family="Courier New" font-size="14.00">Signal</text>
<text text-anchor="start" x="87" y="-106.7" font-family="Courier New" font-size="14.00">P09 C13</text>
</g>
<!-- ne16 -->
<g id="node2" class="node">
<title>ne16</title>
<path fill="white" stroke="black" stroke-width="2" d="M431,-96C431,-96 622,-96 622,-96 628,-96 634,-102 634,-108 634,-108 634,-186 634,-186 634,-192 628,-198 622,-198 622,-198 431,-198 431,-198 425,-198 419,-192 419,-186 419,-186 419,-108 419,-108 419,-102 425,-96 431,-96"/>
<polygon fill="white" stroke="none" points="427,-100 427,-194 626,-194 626,-100 427,-100"/>
<polygon fill="black" stroke="none" points="429,-171 429,-192 624,-192 624,-171 429,-171"/>
<text text-anchor="start" x="510" y="-175.7" font-family="Courier New" font-size="14.00" fill="white">ne16</text>
<polygon fill="grey" stroke="none" points="429,-148 429,-169 542,-169 542,-148 429,-148"/>
<text text-anchor="start" x="489.5" y="-152.7" font-family="Courier New" font-size="14.00">Switch</text>
<text text-anchor="start" x="546.88" y="-152.7" font-family="Courier New" font-size="14.00">Sw01 Sw02</text>
<polygon fill="grey" stroke="none" points="429,-125 429,-146 542,-146 542,-125 429,-125"/>
<text text-anchor="start" x="431.88" y="-129.7" font-family="Courier New" font-size="14.00">LevelCrossing</text>
<text text-anchor="start" x="547" y="-129.7" font-family="Courier New" font-size="14.00">Lc01</text>
<polygon fill="grey" stroke="none" points="429,-102 429,-123 542,-123 542,-102 429,-102"/>
<text text-anchor="start" x="489.5" y="-106.7" font-family="Courier New" font-size="14.00">Signal</text>
<text text-anchor="start" x="547" y="-106.7" font-family="Courier New" font-size="14.00">S15 S18</text>
</g>
<!-- ne14&#45;&gt;ne16 -->
<g id="edge1" class="edge">
<title>ne14&#45;&gt;ne16</title>
<path fill="none" stroke="black" d="M182.39,-159.07C194.35,-160.28 206.45,-161.32 218,-162 291.2,-166.34 309.77,-165.84 383,-162 390.94,-161.58 399.12,-161.04 407.36,-160.4"/>
<polygon fill="black" stroke="black" points="407.42,-163.91 417.1,-159.6 406.84,-156.93 407.42,-163.91"/>
</g>
<!-- ne15 -->
<g id="node3" class="node">
<title>ne15</title>
<path fill="white" stroke="black" stroke-width="2" d="M230,-73.5C230,-73.5 371,-73.5 371,-73.5 377,-73.5 383,-79.5 383,-85.5 383,-85.5 383,-140.5 383,-140.5 383,-146.5 377,-152.5 371,-152.5 371,-152.5 230,-152.5 230,-152.5 224,-152.5 218,-146.5 218,-140.5 218,-140.5 218,-85.5 218,-85.5 218,-79.5 224,-73.5 230,-73.5"/>
<polygon fill="white" stroke="none" points="226,-77.5 226,-148.5 375,-148.5 375,-77.5 226,-77.5"/>
<polygon fill="black" stroke="none" points="228,-125.5 228,-146.5 373,-146.5 373,-125.5 228,-125.5"/>
<text text-anchor="start" x="284" y="-130.2" font-family="Courier New" font-size="14.00" fill="white">ne15</text>
<polygon fill="grey" stroke="none" points="228,-102.5 228,-123.5 283,-123.5 283,-102.5 228,-102.5"/>
<text text-anchor="start" x="230.75" y="-107.2" font-family="Courier New" font-size="14.00">Border</text>
<text text-anchor="start" x="287.75" y="-107.2" font-family="Courier New" font-size="14.00">LineBord02</text>
<polygon fill="grey" stroke="none" points="228,-79.5 228,-100.5 283,-100.5 283,-79.5 228,-79.5"/>
<text text-anchor="start" x="230.75" y="-84.2" font-family="Courier New" font-size="14.00">Signal</text>
<text text-anchor="start" x="288" y="-84.2" font-family="Courier New" font-size="14.00">L04 B14</text>
</g>
<!-- ne14&#45;&gt;ne15 -->
<g id="edge2" class="edge">
<title>ne14&#45;&gt;ne15</title>
<path fill="none" stroke="black" d="M182.41,-132.19C190.35,-130.88 198.4,-129.57 206.36,-128.26"/>
<polygon fill="black" stroke="black" points="206.75,-131.74 216.06,-126.67 205.62,-124.84 206.75,-131.74"/>
</g>
<!-- ne18 -->
<g id="node4" class="node">
<title>ne18</title>
<path fill="white" stroke="black" stroke-width="2" d="M778,-137C778,-137 936,-137 936,-137 942,-137 948,-143 948,-149 948,-149 948,-227 948,-227 948,-233 942,-239 936,-239 936,-239 778,-239 778,-239 772,-239 766,-233 766,-227 766,-227 766,-149 766,-149 766,-143 772,-137 778,-137"/>
<polygon fill="white" stroke="none" points="774,-141 774,-235 940,-235 940,-141 774,-141"/>
<polygon fill="black" stroke="none" points="776,-212 776,-233 938,-233 938,-212 776,-212"/>
<text text-anchor="start" x="840.5" y="-216.7" font-family="Courier New" font-size="14.00" fill="white">ne18</text>
<polygon fill="grey" stroke="none" points="776,-189 776,-210 848,-210 848,-189 776,-189"/>
<text text-anchor="start" x="795.5" y="-193.7" font-family="Courier New" font-size="14.00">Border</text>
<text text-anchor="start" x="852.75" y="-193.7" font-family="Courier New" font-size="14.00">LineBord03</text>
<polygon fill="grey" stroke="none" points="776,-166 776,-187 848,-187 848,-166 776,-166"/>
<text text-anchor="start" x="779" y="-170.7" font-family="Courier New" font-size="14.00">Platform</text>
<text text-anchor="start" x="853" y="-170.7" font-family="Courier New" font-size="14.00">Plat02</text>
<polygon fill="grey" stroke="none" points="776,-143 776,-164 848,-164 848,-143 776,-143"/>
<text text-anchor="start" x="795.5" y="-147.7" font-family="Courier New" font-size="14.00">Signal</text>
<text text-anchor="start" x="853" y="-147.7" font-family="Courier New" font-size="14.00">P12 C17</text>
</g>
<!-- ne16&#45;&gt;ne18 -->
<g id="edge4" class="edge">
<title>ne16&#45;&gt;ne18</title>
<path fill="none" stroke="black" d="M634.15,-160.31C672.78,-165.13 716.26,-170.56 754.43,-175.32"/>
<polygon fill="black" stroke="black" points="753.71,-178.76 764.07,-176.53 754.58,-171.81 753.71,-178.76"/>
</g>
<!-- ne17 -->
<g id="node5" class="node">
<title>ne17</title>
<path fill="white" stroke="black" stroke-width="2" d="M682,-106C682,-106 718,-106 718,-106 724,-106 730,-112 730,-118 730,-118 730,-130 730,-130 730,-136 724,-142 718,-142 718,-142 682,-142 682,-142 676,-142 670,-136 670,-130 670,-130 670,-118 670,-118 670,-112 676,-106 682,-106"/>
<polygon fill="white" stroke="none" points="678,-111.25 678,-137 722,-137 722,-111.25 678,-111.25"/>
<polygon fill="black" stroke="none" points="680,-113.25 680,-135 720,-135 720,-113.25 680,-113.25"/>
<text text-anchor="start" x="683.5" y="-118.7" font-family="Courier New" font-size="14.00" fill="white">ne17</text>
</g>
<!-- ne16&#45;&gt;ne17 -->
<g id="edge5" class="edge">
<title>ne16&#45;&gt;ne17</title>
<path fill="none" stroke="black" d="M634.16,-132.7C642.66,-131.56 650.86,-130.46 658.41,-129.44"/>
<polygon fill="black" stroke="black" points="658.73,-132.93 668.18,-128.13 657.8,-125.99 658.73,-132.93"/>
</g>
<!-- ne15&#45;&gt;ne16 -->
<g id="edge3" class="edge">
<title>ne15&#45;&gt;ne16</title>
<path fill="none" stroke="black" d="M383.32,-125.42C391.22,-126.62 399.35,-127.85 407.51,-129.09"/>
<polygon fill="black" stroke="black" points="406.75,-132.51 417.16,-130.56 407.8,-125.59 406.75,-132.51"/>
</g>
<!-- ne17&#45;&gt;ne18 -->
<g id="edge6" class="edge">
<title>ne17&#45;&gt;ne18</title>
<path fill="none" stroke="black" d="M730.15,-136.04C737.59,-139.11 746.02,-142.59 754.9,-146.26"/>
<polygon fill="black" stroke="black" points="753.53,-149.48 764.11,-150.06 756.2,-143.01 753.53,-149.48"/>
</g>
<!-- ne20 -->
<g id="node6" class="node">
<title>ne20</title>
<path fill="white" stroke="black" stroke-width="2" d="M996,-23C996,-23 1137,-23 1137,-23 1143,-23 1149,-29 1149,-35 1149,-35 1149,-113 1149,-113 1149,-119 1143,-125 1137,-125 1137,-125 996,-125 996,-125 990,-125 984,-119 984,-113 984,-113 984,-35 984,-35 984,-29 990,-23 996,-23"/>
<polygon fill="white" stroke="none" points="992,-27 992,-121 1141,-121 1141,-27 992,-27"/>
<polygon fill="black" stroke="none" points="994,-98 994,-119 1139,-119 1139,-98 994,-98"/>
<text text-anchor="start" x="1050" y="-102.7" font-family="Courier New" font-size="14.00" fill="white">ne20</text>
<polygon fill="grey" stroke="none" points="994,-75 994,-96 1049,-96 1049,-75 994,-75"/>
<text text-anchor="start" x="996.75" y="-79.7" font-family="Courier New" font-size="14.00">Switch</text>
<text text-anchor="start" x="1054" y="-79.7" font-family="Courier New" font-size="14.00">Sw03</text>
<polygon fill="grey" stroke="none" points="994,-52 994,-73 1049,-73 1049,-52 994,-52"/>
<text text-anchor="start" x="996.75" y="-56.7" font-family="Courier New" font-size="14.00">Border</text>
<text text-anchor="start" x="1053.75" y="-56.7" font-family="Courier New" font-size="14.00">LineBord04</text>
<polygon fill="grey" stroke="none" points="994,-29 994,-50 1049,-50 1049,-29 994,-29"/>
<text text-anchor="start" x="996.75" y="-33.7" font-family="Courier New" font-size="14.00">Signal</text>
<text text-anchor="start" x="1054" y="-33.7" font-family="Courier New" font-size="14.00">L06 S21</text>
</g>
<!-- ne17&#45;&gt;ne20 -->
<g id="edge7" class="edge">
<title>ne17&#45;&gt;ne20</title>
<path fill="none" stroke="black" d="M730.21,-119.99C782.17,-112.87 892.67,-97.71 972.65,-86.74"/>
<polygon fill="black" stroke="black" points="972.79,-90.25 982.22,-85.42 971.84,-83.31 972.79,-90.25"/>
</g>
<!-- ne19 -->
<g id="node7" class="node">
<title>ne19</title>
<path fill="white" stroke="black" stroke-width="2" d="M782.5,-0.5C782.5,-0.5 931.5,-0.5 931.5,-0.5 937.5,-0.5 943.5,-6.5 943.5,-12.5 943.5,-12.5 943.5,-67.5 943.5,-67.5 943.5,-73.5 937.5,-79.5 931.5,-79.5 931.5,-79.5 782.5,-79.5 782.5,-79.5 776.5,-79.5 770.5,-73.5 770.5,-67.5 770.5,-67.5 770.5,-12.5 770.5,-12.5 770.5,-6.5 776.5,-0.5 782.5,-0.5"/>
<polygon fill="white" stroke="none" points="778.5,-4.5 778.5,-75.5 935.5,-75.5 935.5,-4.5 778.5,-4.5"/>
<polygon fill="black" stroke="none" points="780.5,-52.5 780.5,-73.5 933.5,-73.5 933.5,-52.5 780.5,-52.5"/>
<text text-anchor="start" x="840.5" y="-57.2" font-family="Courier New" font-size="14.00" fill="white">ne19</text>
<polygon fill="grey" stroke="none" points="780.5,-29.5 780.5,-50.5 868.5,-50.5 868.5,-29.5 780.5,-29.5"/>
<text text-anchor="start" x="783.25" y="-34.2" font-family="Courier New" font-size="14.00">BufferStop</text>
<text text-anchor="start" x="873.5" y="-34.2" font-family="Courier New" font-size="14.00">Buf07</text>
<polygon fill="grey" stroke="none" points="780.5,-6.5 780.5,-27.5 868.5,-27.5 868.5,-6.5 780.5,-6.5"/>
<text text-anchor="start" x="816" y="-11.2" font-family="Courier New" font-size="14.00">Signal</text>
<text text-anchor="start" x="873.12" y="-11.2" font-family="Courier New" font-size="14.00">T01 T02</text>
</g>
<!-- ne17&#45;&gt;ne19 -->
<g id="edge8" class="edge">
<title>ne17&#45;&gt;ne19</title>
<path fill="none" stroke="black" d="M730.15,-108.2C742.38,-101.57 757.29,-93.5 772.5,-85.25"/>
<polygon fill="black" stroke="black" points="774.06,-88.39 781.19,-80.54 770.73,-82.23 774.06,-88.39"/>
</g>
<!-- ne19&#45;&gt;ne20 -->
<g id="edge9" class="edge">
<title>ne19&#45;&gt;ne20</title>
<path fill="none" stroke="black" d="M943.9,-54.07C953.35,-55.62 963.01,-57.21 972.55,-58.77"/>
<polygon fill="black" stroke="black" points="971.74,-62.18 982.17,-60.35 972.87,-55.28 971.74,-62.18"/>
</g>
</g>
</svg>
