<?xml version="1.0" encoding="UTF-8" standalone="no"?>
<!DOCTYPE svg PUBLIC "-//W3C//DTD SVG 1.1//EN"
 "http://www.w3.org/Graphics/SVG/1.1/DTD/svg11.dtd">
<!-- Generated by graphviz version 9.0.0 (20230911.1827)
 -->
<!-- Title: finite_state_machine Pages: 1 -->
<svg width="21600pt" height="16773pt"
 viewBox="0.00 0.00 21600.00 16773.41" xmlns="http://www.w3.org/2000/svg" xmlns:xlink="http://www.w3.org/1999/xlink">
<g id="graph0" class="graph" transform="scale(39.8892 39.8892) rotate(0) translate(4 416.5)">
<title>finite_state_machine</title>
<polygon fill="white" stroke="none" points="-4,4 -4,-416.5 537.5,-416.5 537.5,4 -4,4"/>
<!-- ne19 -->
<g id="node1" class="node">
<title>ne19</title>
<path fill="white" stroke="black" stroke-width="2" d="M22,-321.5C22,-321.5 171,-321.5 171,-321.5 177,-321.5 183,-327.5 183,-333.5 183,-333.5 183,-388.5 183,-388.5 183,-394.5 177,-400.5 171,-400.5 171,-400.5 22,-400.5 22,-400.5 16,-400.5 10,-394.5 10,-388.5 10,-388.5 10,-333.5 10,-333.5 10,-327.5 16,-321.5 22,-321.5"/>
<polygon fill="white" stroke="none" points="18,-325.5 18,-396.5 175,-396.5 175,-325.5 18,-325.5"/>
<polygon fill="black" stroke="none" points="20,-373.5 20,-394.5 173,-394.5 173,-373.5 20,-373.5"/>
<text text-anchor="start" x="80" y="-378.2" font-family="Courier New" font-size="14.00" fill="white">ne19</text>
<polygon fill="olive" stroke="none" points="20,-350.5 20,-371.5 108,-371.5 108,-350.5 20,-350.5"/>
<text text-anchor="start" x="22.75" y="-355.2" font-family="Courier New" font-size="14.00">BufferStop</text>
<text text-anchor="start" x="113" y="-355.2" font-family="Courier New" font-size="14.00">Buf07</text>
<polygon fill="yellowgreen" stroke="none" points="20,-327.5 20,-348.5 108,-348.5 108,-327.5 20,-327.5"/>
<text text-anchor="start" x="55.5" y="-332.2" font-family="Courier New" font-size="14.00">Signal</text>
<text text-anchor="start" x="112.62" y="-332.2" font-family="Courier New" font-size="14.00">T01 T02</text>
</g>
<!-- ne20 -->
<g id="node2" class="node">
<title>ne20</title>
<path fill="white" stroke="black" stroke-width="2" d="M12,-155.25C12,-155.25 153,-155.25 153,-155.25 159,-155.25 165,-161.25 165,-167.25 165,-167.25 165,-245.25 165,-245.25 165,-251.25 159,-257.25 153,-257.25 153,-257.25 12,-257.25 12,-257.25 6,-257.25 0,-251.25 0,-245.25 0,-245.25 0,-167.25 0,-167.25 0,-161.25 6,-155.25 12,-155.25"/>
<polygon fill="white" stroke="none" points="8,-159.25 8,-253.25 157,-253.25 157,-159.25 8,-159.25"/>
<polygon fill="black" stroke="none" points="10,-230.25 10,-251.25 155,-251.25 155,-230.25 10,-230.25"/>
<text text-anchor="start" x="66" y="-234.95" font-family="Courier New" font-size="14.00" fill="white">ne20</text>
<polygon fill="red" stroke="none" points="10,-207.25 10,-228.25 65,-228.25 65,-207.25 10,-207.25"/>
<text text-anchor="start" x="12.75" y="-211.95" font-family="Courier New" font-size="14.00">Switch</text>
<text text-anchor="start" x="70" y="-211.95" font-family="Courier New" font-size="14.00">Sw03</text>
<polygon fill="#8470ff" stroke="none" points="10,-184.25 10,-205.25 65,-205.25 65,-184.25 10,-184.25"/>
<text text-anchor="start" x="12.75" y="-188.95" font-family="Courier New" font-size="14.00">Border</text>
<text text-anchor="start" x="69.75" y="-188.95" font-family="Courier New" font-size="14.00">LineBord04</text>
<polygon fill="yellowgreen" stroke="none" points="10,-161.25 10,-182.25 65,-182.25 65,-161.25 10,-161.25"/>
<text text-anchor="start" x="12.75" y="-165.95" font-family="Courier New" font-size="14.00">Signal</text>
<text text-anchor="start" x="70" y="-165.95" font-family="Courier New" font-size="14.00">L06 S21</text>
</g>
<!-- ne19&#45;&#45;ne20 -->
<g id="edge1" class="edge">
<title>ne19&#45;&#45;ne20</title>
<path fill="none" stroke="black" d="M74.99,-321.18C70.76,-311.74 66.95,-301.48 64.75,-291.5 62.34,-280.55 62.86,-268.79 64.81,-257.62"/>
<text text-anchor="middle" x="79.88" y="-278.2" font-family="Times New Roman,serif" font-size="14.00">R_01</text>
</g>
<!-- ne20&#45;&#45;ne19 -->
<g id="edge12" class="edge">
<title>ne20&#45;&#45;ne19</title>
<path fill="none" stroke="black" d="M93.1,-257.61C94.07,-263.7 94.91,-269.85 95.5,-275.75 96.99,-290.6 97.45,-306.99 97.46,-321.33"/>
<text text-anchor="middle" x="111.88" y="-278.2" font-family="Times New Roman,serif" font-size="14.00">R_10</text>
</g>
<!-- ne17 -->
<g id="node7" class="node">
<title>ne17</title>
<path fill="white" stroke="black" stroke-width="2" d="M87.5,-33.5C87.5,-33.5 123.5,-33.5 123.5,-33.5 129.5,-33.5 135.5,-39.5 135.5,-45.5 135.5,-45.5 135.5,-57.5 135.5,-57.5 135.5,-63.5 129.5,-69.5 123.5,-69.5 123.5,-69.5 87.5,-69.5 87.5,-69.5 81.5,-69.5 75.5,-63.5 75.5,-57.5 75.5,-57.5 75.5,-45.5 75.5,-45.5 75.5,-39.5 81.5,-33.5 87.5,-33.5"/>
<polygon fill="white" stroke="none" points="83.5,-38.62 83.5,-64.38 127.5,-64.38 127.5,-38.62 83.5,-38.62"/>
<polygon fill="black" stroke="none" points="85.5,-40.62 85.5,-62.38 125.5,-62.38 125.5,-40.62 85.5,-40.62"/>
<text text-anchor="start" x="89" y="-46.08" font-family="Courier New" font-size="14.00" fill="white">ne17</text>
</g>
<!-- ne20&#45;&#45;ne17 -->
<g id="edge10" class="edge">
<title>ne20&#45;&#45;ne17</title>
<path fill="none" stroke="black" d="M56.85,-154.84C54.02,-143.68 53.26,-131.93 56.75,-121 62.97,-101.53 76.97,-82.87 88.37,-69.96"/>
<text text-anchor="middle" x="71.88" y="-123.45" font-family="Times New Roman,serif" font-size="14.00">R_09</text>
</g>
<!-- ne14 -->
<g id="node3" class="node">
<title>ne14</title>
<path fill="white" stroke="black" stroke-width="2" d="M221.5,-310C221.5,-310 379.5,-310 379.5,-310 385.5,-310 391.5,-316 391.5,-322 391.5,-322 391.5,-400 391.5,-400 391.5,-406 385.5,-412 379.5,-412 379.5,-412 221.5,-412 221.5,-412 215.5,-412 209.5,-406 209.5,-400 209.5,-400 209.5,-322 209.5,-322 209.5,-316 215.5,-310 221.5,-310"/>
<polygon fill="white" stroke="none" points="217.5,-314 217.5,-408 383.5,-408 383.5,-314 217.5,-314"/>
<polygon fill="black" stroke="none" points="219.5,-385 219.5,-406 381.5,-406 381.5,-385 219.5,-385"/>
<text text-anchor="start" x="284" y="-389.7" font-family="Courier New" font-size="14.00" fill="white">ne14</text>
<polygon fill="#8470ff" stroke="none" points="219.5,-362 219.5,-383 291.5,-383 291.5,-362 219.5,-362"/>
<text text-anchor="start" x="239" y="-366.7" font-family="Courier New" font-size="14.00">Border</text>
<text text-anchor="start" x="296.25" y="-366.7" font-family="Courier New" font-size="14.00">LineBord01</text>
<polygon fill="cornflowerblue" stroke="none" points="219.5,-339 219.5,-360 291.5,-360 291.5,-339 219.5,-339"/>
<text text-anchor="start" x="222.5" y="-343.7" font-family="Courier New" font-size="14.00">Platform</text>
<text text-anchor="start" x="296.5" y="-343.7" font-family="Courier New" font-size="14.00">Plat01</text>
<polygon fill="yellowgreen" stroke="none" points="219.5,-316 219.5,-337 291.5,-337 291.5,-316 219.5,-316"/>
<text text-anchor="start" x="239" y="-320.7" font-family="Courier New" font-size="14.00">Signal</text>
<text text-anchor="start" x="296.5" y="-320.7" font-family="Courier New" font-size="14.00">P09 C13</text>
</g>
<!-- ne16 -->
<g id="node4" class="node">
<title>ne16</title>
<path fill="white" stroke="black" stroke-width="2" d="M204,-155.25C204,-155.25 395,-155.25 395,-155.25 401,-155.25 407,-161.25 407,-167.25 407,-167.25 407,-245.25 407,-245.25 407,-251.25 401,-257.25 395,-257.25 395,-257.25 204,-257.25 204,-257.25 198,-257.25 192,-251.25 192,-245.25 192,-245.25 192,-167.25 192,-167.25 192,-161.25 198,-155.25 204,-155.25"/>
<polygon fill="white" stroke="none" points="200,-159.25 200,-253.25 399,-253.25 399,-159.25 200,-159.25"/>
<polygon fill="black" stroke="none" points="202,-230.25 202,-251.25 397,-251.25 397,-230.25 202,-230.25"/>
<text text-anchor="start" x="283" y="-234.95" font-family="Courier New" font-size="14.00" fill="white">ne16</text>
<polygon fill="red" stroke="none" points="202,-207.25 202,-228.25 315,-228.25 315,-207.25 202,-207.25"/>
<text text-anchor="start" x="262.5" y="-211.95" font-family="Courier New" font-size="14.00">Switch</text>
<text text-anchor="start" x="319.88" y="-211.95" font-family="Courier New" font-size="14.00">Sw01 Sw02</text>
<polygon fill="darkcyan" stroke="none" points="202,-184.25 202,-205.25 315,-205.25 315,-184.25 202,-184.25"/>
<text text-anchor="start" x="204.88" y="-188.95" font-family="Courier New" font-size="14.00">LevelCrossing</text>
<text text-anchor="start" x="320" y="-188.95" font-family="Courier New" font-size="14.00">Lc01</text>
<polygon fill="yellowgreen" stroke="none" points="202,-161.25 202,-182.25 315,-182.25 315,-161.25 202,-161.25"/>
<text text-anchor="start" x="262.5" y="-165.95" font-family="Courier New" font-size="14.00">Signal</text>
<text text-anchor="start" x="320" y="-165.95" font-family="Courier New" font-size="14.00">S15 S18</text>
</g>
<!-- ne14&#45;&#45;ne16 -->
<g id="edge2" class="edge">
<title>ne14&#45;&#45;ne16</title>
<path fill="none" stroke="black" d="M270.93,-309.82C268.41,-303.81 266.25,-297.62 264.75,-291.5 262,-280.28 263.64,-268.61 267.4,-257.66"/>
<text text-anchor="middle" x="279.88" y="-278.2" font-family="Times New Roman,serif" font-size="14.00">R_02</text>
</g>
<!-- ne16&#45;&#45;ne14 -->
<g id="edge4" class="edge">
<title>ne16&#45;&#45;ne14</title>
<path fill="none" stroke="black" d="M299.83,-257.64C299.94,-274.32 300.06,-292.88 300.17,-309.56"/>
<text text-anchor="middle" x="314.88" y="-278.2" font-family="Times New Roman,serif" font-size="14.00">R_04</text>
</g>
<!-- ne15 -->
<g id="node5" class="node">
<title>ne15</title>
<path fill="white" stroke="black" stroke-width="2" d="M180,-12C180,-12 321,-12 321,-12 327,-12 333,-18 333,-24 333,-24 333,-79 333,-79 333,-85 327,-91 321,-91 321,-91 180,-91 180,-91 174,-91 168,-85 168,-79 168,-79 168,-24 168,-24 168,-18 174,-12 180,-12"/>
<polygon fill="white" stroke="none" points="176,-16 176,-87 325,-87 325,-16 176,-16"/>
<polygon fill="black" stroke="none" points="178,-64 178,-85 323,-85 323,-64 178,-64"/>
<text text-anchor="start" x="234" y="-68.7" font-family="Courier New" font-size="14.00" fill="white">ne15</text>
<polygon fill="#8470ff" stroke="none" points="178,-41 178,-62 233,-62 233,-41 178,-41"/>
<text text-anchor="start" x="180.75" y="-45.7" font-family="Courier New" font-size="14.00">Border</text>
<text text-anchor="start" x="237.75" y="-45.7" font-family="Courier New" font-size="14.00">LineBord02</text>
<polygon fill="yellowgreen" stroke="none" points="178,-18 178,-39 233,-39 233,-18 178,-18"/>
<text text-anchor="start" x="180.75" y="-22.7" font-family="Courier New" font-size="14.00">Signal</text>
<text text-anchor="start" x="238" y="-22.7" font-family="Courier New" font-size="14.00">L04 B14</text>
</g>
<!-- ne16&#45;&#45;ne15 -->
<g id="edge5" class="edge">
<title>ne16&#45;&#45;ne15</title>
<path fill="none" stroke="black" d="M259.74,-155.01C256.52,-149.1 253.75,-142.96 251.75,-136.75 247.13,-122.41 246.02,-105.97 246.35,-91.44"/>
<text text-anchor="middle" x="266.88" y="-123.45" font-family="Times New Roman,serif" font-size="14.00">R_05</text>
</g>
<!-- ne18 -->
<g id="node6" class="node">
<title>ne18</title>
<path fill="white" stroke="black" stroke-width="2" d="M363.5,-0.5C363.5,-0.5 521.5,-0.5 521.5,-0.5 527.5,-0.5 533.5,-6.5 533.5,-12.5 533.5,-12.5 533.5,-90.5 533.5,-90.5 533.5,-96.5 527.5,-102.5 521.5,-102.5 521.5,-102.5 363.5,-102.5 363.5,-102.5 357.5,-102.5 351.5,-96.5 351.5,-90.5 351.5,-90.5 351.5,-12.5 351.5,-12.5 351.5,-6.5 357.5,-0.5 363.5,-0.5"/>
<polygon fill="white" stroke="none" points="359.5,-4.5 359.5,-98.5 525.5,-98.5 525.5,-4.5 359.5,-4.5"/>
<polygon fill="black" stroke="none" points="361.5,-75.5 361.5,-96.5 523.5,-96.5 523.5,-75.5 361.5,-75.5"/>
<text text-anchor="start" x="426" y="-80.2" font-family="Courier New" font-size="14.00" fill="white">ne18</text>
<polygon fill="#8470ff" stroke="none" points="361.5,-52.5 361.5,-73.5 433.5,-73.5 433.5,-52.5 361.5,-52.5"/>
<text text-anchor="start" x="381" y="-57.2" font-family="Courier New" font-size="14.00">Border</text>
<text text-anchor="start" x="438.25" y="-57.2" font-family="Courier New" font-size="14.00">LineBord03</text>
<polygon fill="cornflowerblue" stroke="none" points="361.5,-29.5 361.5,-50.5 433.5,-50.5 433.5,-29.5 361.5,-29.5"/>
<text text-anchor="start" x="364.5" y="-34.2" font-family="Courier New" font-size="14.00">Platform</text>
<text text-anchor="start" x="438.5" y="-34.2" font-family="Courier New" font-size="14.00">Plat02</text>
<polygon fill="yellowgreen" stroke="none" points="361.5,-6.5 361.5,-27.5 433.5,-27.5 433.5,-6.5 361.5,-6.5"/>
<text text-anchor="start" x="381" y="-11.2" font-family="Courier New" font-size="14.00">Signal</text>
<text text-anchor="start" x="438.5" y="-11.2" font-family="Courier New" font-size="14.00">P12 C17</text>
</g>
<!-- ne16&#45;&#45;ne18 -->
<g id="edge7" class="edge">
<title>ne16&#45;&#45;ne18</title>
<path fill="none" stroke="black" d="M346.18,-154.84C356.56,-143.68 367.51,-131.93 377.75,-121 383.23,-115.15 388.99,-109.03 394.71,-102.95"/>
<text text-anchor="middle" x="392.88" y="-123.45" font-family="Times New Roman,serif" font-size="14.00">R_07</text>
</g>
<!-- ne16&#45;&#45;ne17 -->
<g id="edge8" class="edge">
<title>ne16&#45;&#45;ne17</title>
<path fill="none" stroke="black" d="M191.68,-162.56C172.27,-153.48 155.67,-144.36 147.75,-136.75 128.27,-118.05 116.35,-88.46 110.34,-69.78"/>
<text text-anchor="middle" x="162.88" y="-123.45" font-family="Times New Roman,serif" font-size="14.00">R_08</text>
</g>
<!-- ne15&#45;&#45;ne16 -->
<g id="edge3" class="edge">
<title>ne15&#45;&#45;ne16</title>
<path fill="none" stroke="black" d="M273.75,-91.36C278.59,-100.8 283.22,-111.05 286.5,-121 290.07,-131.82 292.67,-143.76 294.55,-155.15"/>
<text text-anchor="middle" x="305.88" y="-123.45" font-family="Times New Roman,serif" font-size="14.00">R_03</text>
</g>
<!-- ne18&#45;&#45;ne16 -->
<g id="edge6" class="edge">
<title>ne18&#45;&#45;ne16</title>
<path fill="none" stroke="black" d="M430.91,-102.68C426.51,-114.69 420.54,-126.88 412.5,-136.75 407.21,-143.24 401.13,-149.27 394.59,-154.84"/>
<text text-anchor="middle" x="436.88" y="-123.45" font-family="Times New Roman,serif" font-size="14.00">R_06</text>
</g>
<!-- ne17&#45;&#45;ne20 -->
<g id="edge9" class="edge">
<title>ne17&#45;&#45;ne20</title>
<path fill="none" stroke="black" d="M102.33,-69.93C99.85,-83.75 96.41,-103.58 93.75,-121 92.08,-131.94 90.43,-143.7 88.92,-154.86"/>
<text text-anchor="middle" x="108.88" y="-123.45" font-family="Times New Roman,serif" font-size="14.00">R_08</text>
</g>
<!-- ne17&#45;&#45;ne16 -->
<g id="edge11" class="edge">
<title>ne17&#45;&#45;ne16</title>
<path fill="none" stroke="black" d="M123.01,-69.89C133.34,-79.9 146.84,-92.52 159.5,-103 180.83,-120.65 204.91,-138.83 227.01,-154.86"/>
<text text-anchor="middle" x="215.88" y="-123.45" font-family="Times New Roman,serif" font-size="14.00">R_09</text>
</g>
</g>
</svg>
