<?xml version="1.0" encoding="UTF-8" standalone="no"?>
<!DOCTYPE svg PUBLIC "-//W3C//DTD SVG 1.1//EN"
 "http://www.w3.org/Graphics/SVG/1.1/DTD/svg11.dtd">
<!-- Generated by graphviz version 9.0.0 (20230911.1827)
 -->
<!-- Title: finite_state_machine Pages: 1 -->
<svg width="806pt" height="309pt"
 viewBox="0.00 0.00 806.11 308.73" xmlns="http://www.w3.org/2000/svg" xmlns:xlink="http://www.w3.org/1999/xlink">
<g id="graph0" class="graph" transform="scale(1 1) rotate(0) translate(4 304.73)">
<title>finite_state_machine</title>
<polygon fill="white" stroke="none" points="-4,4 -4,-304.73 802.11,-304.73 802.11,4 -4,4"/>
<!-- ne4 -->
<g id="node1" class="node">
<title>ne4</title>
<ellipse fill="lightgreen" stroke="lightgreen" cx="23.62" cy="-155.11" rx="23.62" ry="23.62"/>
<text text-anchor="middle" x="23.62" y="-149.69" font-family="Times New Roman,serif" font-size="14.00">ne4</text>
</g>
<!-- ne4&#45;&gt;ne4 -->
<g id="edge1" class="edge">
<title>ne4&#45;&gt;ne4</title>
<path fill="none" stroke="black" d="M13.25,-176.52C11.81,-187.2 15.27,-196.73 23.62,-196.73 28.71,-196.73 31.98,-193.19 33.43,-188.01"/>
<polygon fill="black" stroke="black" points="36.93,-188.19 33.92,-178.04 29.94,-187.85 36.93,-188.19"/>
<text text-anchor="middle" x="23.62" y="-199.18" font-family="Times New Roman,serif" font-size="14.00">R_01</text>
</g>
<!-- ne3 -->
<g id="node10" class="node">
<title>ne3</title>
<ellipse fill="lightgreen" stroke="lightgreen" cx="141.61" cy="-155.11" rx="23.62" ry="23.62"/>
<ellipse fill="none" stroke="lightgreen" cx="141.61" cy="-155.11" rx="27.62" ry="27.62"/>
<text text-anchor="middle" x="141.61" y="-149.69" font-family="Times New Roman,serif" font-size="14.00">ne3</text>
</g>
<!-- ne4&#45;&gt;ne3 -->
<g id="edge17" class="edge">
<title>ne4&#45;&gt;ne3</title>
<path fill="none" stroke="black" d="M47.53,-155.11C63.13,-155.11 84.15,-155.11 102.27,-155.11"/>
<polygon fill="black" stroke="black" points="102.16,-158.61 112.16,-155.11 102.16,-151.61 102.16,-158.61"/>
<text text-anchor="middle" x="80.61" y="-157.56" font-family="Times New Roman,serif" font-size="14.00">R_14</text>
</g>
<!-- ne6 -->
<g id="node2" class="node">
<title>ne6</title>
<ellipse fill="lightgreen" stroke="lightgreen" cx="516.55" cy="-273.11" rx="23.62" ry="23.62"/>
<ellipse fill="none" stroke="lightgreen" cx="516.55" cy="-273.11" rx="27.62" ry="27.62"/>
<text text-anchor="middle" x="516.55" y="-267.69" font-family="Times New Roman,serif" font-size="14.00">ne6</text>
</g>
<!-- ne2 -->
<g id="node3" class="node">
<title>ne2</title>
<ellipse fill="lightgreen" stroke="lightgreen" cx="390.07" cy="-218.11" rx="23.62" ry="23.62"/>
<ellipse fill="none" stroke="lightgreen" cx="390.07" cy="-218.11" rx="27.62" ry="27.62"/>
<text text-anchor="middle" x="390.07" y="-212.69" font-family="Times New Roman,serif" font-size="14.00">ne2</text>
</g>
<!-- ne6&#45;&gt;ne2 -->
<g id="edge2" class="edge">
<title>ne6&#45;&gt;ne2</title>
<path fill="none" stroke="black" d="M495.42,-254.57C488.14,-248.67 479.58,-242.59 470.93,-238.36 457.79,-231.93 442.39,-227.4 428.64,-224.29"/>
<polygon fill="black" stroke="black" points="429.55,-220.9 419.04,-222.3 428.13,-227.75 429.55,-220.9"/>
<text text-anchor="middle" x="455.56" y="-240.56" font-family="Times New Roman,serif" font-size="14.00">R_02</text>
</g>
<!-- ne2&#45;&gt;ne6 -->
<g id="edge16" class="edge">
<title>ne2&#45;&gt;ne6</title>
<path fill="none" stroke="black" d="M411.45,-235.79C419.88,-242.35 430.05,-249.34 440.18,-254.11 451.96,-259.65 465.57,-263.72 477.95,-266.63"/>
<polygon fill="black" stroke="black" points="476.9,-269.98 487.41,-268.67 478.37,-263.14 476.9,-269.98"/>
<text text-anchor="middle" x="455.56" y="-266.56" font-family="Times New Roman,serif" font-size="14.00">R_13</text>
</g>
<!-- ne1 -->
<g id="node4" class="node">
<title>ne1</title>
<ellipse fill="lightgreen" stroke="lightgreen" cx="263.6" cy="-214.11" rx="23.62" ry="23.62"/>
<ellipse fill="none" stroke="lightgreen" cx="263.6" cy="-214.11" rx="27.62" ry="27.62"/>
<text text-anchor="middle" x="263.6" y="-208.69" font-family="Times New Roman,serif" font-size="14.00">ne1</text>
</g>
<!-- ne2&#45;&gt;ne1 -->
<g id="edge3" class="edge">
<title>ne2&#45;&gt;ne1</title>
<path fill="none" stroke="black" d="M362.07,-216.41C354.88,-216.01 347.13,-215.62 339.96,-215.36 327.9,-214.92 314.74,-214.64 302.85,-214.45"/>
<polygon fill="black" stroke="black" points="303.02,-210.96 292.98,-214.32 302.93,-217.95 303.02,-210.96"/>
<text text-anchor="middle" x="324.59" y="-217.56" font-family="Times New Roman,serif" font-size="14.00">R_02</text>
</g>
<!-- ne2&#45;&gt;ne1 -->
<g id="edge21" class="edge">
<title>ne2&#45;&gt;ne1</title>
<path fill="none" stroke="black" d="M365.89,-204.25C357.95,-200.24 348.83,-196.39 339.96,-194.36 326.64,-191.31 322.59,-191.53 309.21,-194.36 305.84,-195.07 302.42,-196.06 299.04,-197.21"/>
<polygon fill="black" stroke="black" points="297.97,-193.87 289.94,-200.78 300.52,-200.39 297.97,-193.87"/>
<text text-anchor="middle" x="324.59" y="-197.56" font-family="Times New Roman,serif" font-size="14.00">R_17</text>
</g>
<!-- ne7 -->
<g id="node11" class="node">
<title>ne7</title>
<ellipse fill="lightgreen" stroke="lightgreen" cx="516.55" cy="-164.11" rx="23.62" ry="23.62"/>
<ellipse fill="none" stroke="lightgreen" cx="516.55" cy="-164.11" rx="27.62" ry="27.62"/>
<text text-anchor="middle" x="516.55" y="-158.69" font-family="Times New Roman,serif" font-size="14.00">ne7</text>
</g>
<!-- ne2&#45;&gt;ne7 -->
<g id="edge14" class="edge">
<title>ne2&#45;&gt;ne7</title>
<path fill="none" stroke="black" d="M415.97,-207.31C434.37,-199.33 459.69,-188.35 480.19,-179.45"/>
<polygon fill="black" stroke="black" points="481.54,-182.68 489.32,-175.49 478.75,-176.26 481.54,-182.68"/>
<text text-anchor="middle" x="455.56" y="-198.56" font-family="Times New Roman,serif" font-size="14.00">R_12</text>
</g>
<!-- ne1&#45;&gt;ne2 -->
<g id="edge13" class="edge">
<title>ne1&#45;&gt;ne2</title>
<path fill="none" stroke="black" d="M277.24,-238.67C284.78,-250.5 295.55,-263.53 309.21,-270.11 321.53,-276.04 327.41,-275.52 339.96,-270.11 350.29,-265.66 359.46,-257.85 366.99,-249.62"/>
<polygon fill="black" stroke="black" points="369.5,-252.07 373.26,-242.17 364.14,-247.57 369.5,-252.07"/>
<text text-anchor="middle" x="324.59" y="-276.56" font-family="Times New Roman,serif" font-size="14.00">R_12</text>
</g>
<!-- ne1&#45;&gt;ne2 -->
<g id="edge15" class="edge">
<title>ne1&#45;&gt;ne2</title>
<path fill="none" stroke="black" d="M289.15,-225.29C295.55,-227.69 302.53,-229.88 309.21,-231.11 323.35,-233.71 338.95,-232.16 352.58,-229.35"/>
<polygon fill="black" stroke="black" points="353.1,-232.83 362.02,-227.11 351.48,-226.01 353.1,-232.83"/>
<text text-anchor="middle" x="324.59" y="-234.56" font-family="Times New Roman,serif" font-size="14.00">R_13</text>
</g>
<!-- ne1&#45;&gt;ne3 -->
<g id="edge12" class="edge">
<title>ne1&#45;&gt;ne3</title>
<path fill="none" stroke="black" d="M244.82,-193.34C237.26,-185.7 227.91,-177.64 217.98,-172.36 206.45,-166.23 192.81,-162.27 180.32,-159.72"/>
<polygon fill="black" stroke="black" points="181.22,-156.32 170.76,-158.01 179.99,-163.21 181.22,-156.32"/>
<text text-anchor="middle" x="202.6" y="-175.56" font-family="Times New Roman,serif" font-size="14.00">R_11</text>
</g>
<!-- ne10 -->
<g id="node5" class="node">
<title>ne10</title>
<ellipse fill="lightgreen" stroke="lightgreen" cx="390.07" cy="-131.11" rx="28.11" ry="28.11"/>
<ellipse fill="none" stroke="lightgreen" cx="390.07" cy="-131.11" rx="32.11" ry="32.11"/>
<text text-anchor="middle" x="390.07" y="-125.69" font-family="Times New Roman,serif" font-size="14.00">ne10</text>
</g>
<!-- ne5 -->
<g id="node6" class="node">
<title>ne5</title>
<ellipse fill="lightgreen" stroke="lightgreen" cx="263.6" cy="-97.11" rx="23.62" ry="23.62"/>
<ellipse fill="none" stroke="lightgreen" cx="263.6" cy="-97.11" rx="27.62" ry="27.62"/>
<text text-anchor="middle" x="263.6" y="-91.69" font-family="Times New Roman,serif" font-size="14.00">ne5</text>
</g>
<!-- ne10&#45;&gt;ne5 -->
<g id="edge4" class="edge">
<title>ne10&#45;&gt;ne5</title>
<path fill="none" stroke="black" d="M364.76,-110.95C357.26,-105.86 348.67,-101.08 339.96,-98.36 328.13,-94.67 314.73,-93.54 302.55,-93.58"/>
<polygon fill="black" stroke="black" points="302.74,-90.07 292.85,-93.88 302.95,-97.07 302.74,-90.07"/>
<text text-anchor="middle" x="324.59" y="-101.56" font-family="Times New Roman,serif" font-size="14.00">R_03</text>
</g>
<!-- ne5&#45;&gt;ne10 -->
<g id="edge22" class="edge">
<title>ne5&#45;&gt;ne10</title>
<path fill="none" stroke="black" d="M289.38,-107.33C295.77,-109.75 302.7,-112.19 309.21,-114.11 321.39,-117.7 334.83,-120.86 347.15,-123.45"/>
<polygon fill="black" stroke="black" points="346.1,-126.81 356.6,-125.37 347.49,-119.95 346.1,-126.81"/>
<text text-anchor="middle" x="324.59" y="-124.56" font-family="Times New Roman,serif" font-size="14.00">R_18</text>
</g>
<!-- ne11 -->
<g id="node9" class="node">
<title>ne11</title>
<ellipse fill="lightgreen" stroke="lightgreen" cx="390.07" cy="-32.11" rx="28.11" ry="28.11"/>
<ellipse fill="none" stroke="lightgreen" cx="390.07" cy="-32.11" rx="32.11" ry="32.11"/>
<text text-anchor="middle" x="390.07" y="-26.69" font-family="Times New Roman,serif" font-size="14.00">ne11</text>
</g>
<!-- ne5&#45;&gt;ne11 -->
<g id="edge23" class="edge">
<title>ne5&#45;&gt;ne11</title>
<path fill="none" stroke="black" d="M288.6,-84.58C306.28,-75.34 330.7,-62.59 351.03,-51.98"/>
<polygon fill="black" stroke="black" points="352.65,-55.08 359.89,-47.35 349.41,-48.87 352.65,-55.08"/>
<text text-anchor="middle" x="324.59" y="-75.56" font-family="Times New Roman,serif" font-size="14.00">R_19</text>
</g>
<!-- ne5&#45;&gt;ne3 -->
<g id="edge8" class="edge">
<title>ne5&#45;&gt;ne3</title>
<path fill="none" stroke="black" d="M236.17,-92.15C221.07,-90.6 202.23,-90.92 187.23,-98.36 176.98,-103.44 168.36,-112.12 161.52,-121.18"/>
<polygon fill="black" stroke="black" points="158.67,-119.15 155.9,-129.37 164.44,-123.11 158.67,-119.15"/>
<text text-anchor="middle" x="202.6" y="-101.56" font-family="Times New Roman,serif" font-size="14.00">R_07</text>
</g>
<!-- ne41 -->
<g id="node7" class="node">
<title>ne41</title>
<ellipse fill="lightgreen" stroke="lightgreen" cx="639.03" cy="-164.11" rx="28.11" ry="28.11"/>
<text text-anchor="middle" x="639.03" y="-158.69" font-family="Times New Roman,serif" font-size="14.00">ne41</text>
</g>
<!-- ne41&#45;&gt;ne41 -->
<g id="edge5" class="edge">
<title>ne41&#45;&gt;ne41</title>
<path fill="none" stroke="black" d="M627.61,-190.18C626.82,-201.03 630.63,-210.22 639.03,-210.22 644.29,-210.22 647.75,-206.63 649.41,-201.29"/>
<polygon fill="black" stroke="black" points="652.86,-201.97 650.32,-191.69 645.89,-201.31 652.86,-201.97"/>
<text text-anchor="middle" x="639.03" y="-212.67" font-family="Times New Roman,serif" font-size="14.00">R_04</text>
</g>
<!-- ne42 -->
<g id="node8" class="node">
<title>ne42</title>
<ellipse fill="lightgreen" stroke="lightgreen" cx="766" cy="-164.11" rx="28.11" ry="28.11"/>
<ellipse fill="none" stroke="lightgreen" cx="766" cy="-164.11" rx="32.11" ry="32.11"/>
<text text-anchor="middle" x="766" y="-158.69" font-family="Times New Roman,serif" font-size="14.00">ne42</text>
</g>
<!-- ne41&#45;&gt;ne42 -->
<g id="edge26" class="edge">
<title>ne41&#45;&gt;ne42</title>
<path fill="none" stroke="black" d="M667.46,-164.11C683.49,-164.11 704.07,-164.11 722.2,-164.11"/>
<polygon fill="black" stroke="black" points="722.17,-167.61 732.17,-164.11 722.17,-160.61 722.17,-167.61"/>
<text text-anchor="middle" x="700.52" y="-166.56" font-family="Times New Roman,serif" font-size="14.00">R_22</text>
</g>
<!-- ne41&#45;&gt;ne7 -->
<g id="edge25" class="edge">
<title>ne41&#45;&gt;ne7</title>
<path fill="none" stroke="black" d="M613.83,-151.34C607.23,-148.46 599.95,-145.83 592.92,-144.36 579.55,-141.56 575.54,-141.53 562.17,-144.36 558.8,-145.07 555.37,-146.06 551.99,-147.21"/>
<polygon fill="black" stroke="black" points="550.92,-143.87 542.89,-150.78 553.48,-150.39 550.92,-143.87"/>
<text text-anchor="middle" x="577.55" y="-147.56" font-family="Times New Roman,serif" font-size="14.00">R_21</text>
</g>
<!-- ne42&#45;&gt;ne41 -->
<g id="edge6" class="edge">
<title>ne42&#45;&gt;ne41</title>
<path fill="none" stroke="black" d="M735.85,-151.71C729.39,-149.49 722.5,-147.52 715.89,-146.36 702.43,-144 698.57,-143.81 685.14,-146.36 681.97,-146.96 678.72,-147.78 675.51,-148.75"/>
<polygon fill="black" stroke="black" points="674.57,-145.37 666.26,-151.94 676.85,-151.99 674.57,-145.37"/>
<text text-anchor="middle" x="700.52" y="-149.56" font-family="Times New Roman,serif" font-size="14.00">R_05</text>
</g>
<!-- ne42&#45;&gt;ne42 -->
<g id="edge24" class="edge">
<title>ne42&#45;&gt;ne42</title>
<path fill="none" stroke="black" d="M753.75,-193.95C753.35,-205.07 757.43,-214.22 766,-214.22 771.36,-214.22 774.96,-210.64 776.81,-205.25"/>
<polygon fill="black" stroke="black" points="780.27,-205.81 778.06,-195.45 773.33,-204.93 780.27,-205.81"/>
<text text-anchor="middle" x="766" y="-216.67" font-family="Times New Roman,serif" font-size="14.00">R_20</text>
</g>
<!-- ne11&#45;&gt;ne5 -->
<g id="edge7" class="edge">
<title>ne11&#45;&gt;ne5</title>
<path fill="none" stroke="black" d="M360.43,-19.41C344.42,-14.31 324.64,-11.48 309.21,-20.36 294.02,-29.1 283.52,-45.23 276.54,-60.45"/>
<polygon fill="black" stroke="black" points="273.45,-58.77 272.84,-69.35 279.91,-61.46 273.45,-58.77"/>
<text text-anchor="middle" x="324.59" y="-23.56" font-family="Times New Roman,serif" font-size="14.00">R_06</text>
</g>
<!-- ne3&#45;&gt;ne4 -->
<g id="edge19" class="edge">
<title>ne3&#45;&gt;ne4</title>
<path fill="none" stroke="black" d="M116.68,-142.34C110.15,-139.46 102.95,-136.83 95.99,-135.36 82.62,-132.53 78.56,-132.29 65.24,-135.36 61.65,-136.19 58,-137.38 54.45,-138.77"/>
<polygon fill="black" stroke="black" points="53.26,-135.46 45.58,-142.76 56.14,-141.85 53.26,-135.46"/>
<text text-anchor="middle" x="80.61" y="-138.56" font-family="Times New Roman,serif" font-size="14.00">R_16</text>
</g>
<!-- ne3&#45;&gt;ne1 -->
<g id="edge11" class="edge">
<title>ne3&#45;&gt;ne1</title>
<path fill="none" stroke="black" d="M161.78,-173.94C169.24,-180.44 178.16,-187.3 187.23,-192.11 198.93,-198.33 212.62,-202.99 225.09,-206.39"/>
<polygon fill="black" stroke="black" points="224.1,-209.75 234.65,-208.8 225.8,-202.96 224.1,-209.75"/>
<text text-anchor="middle" x="202.6" y="-206.56" font-family="Times New Roman,serif" font-size="14.00">R_10</text>
</g>
<!-- ne3&#45;&gt;ne5 -->
<g id="edge18" class="edge">
<title>ne3&#45;&gt;ne5</title>
<path fill="none" stroke="black" d="M166.89,-143.37C184.45,-134.88 208.44,-123.29 228,-113.83"/>
<polygon fill="black" stroke="black" points="229.51,-116.99 236.99,-109.49 226.46,-110.69 229.51,-116.99"/>
<text text-anchor="middle" x="202.6" y="-135.56" font-family="Times New Roman,serif" font-size="14.00">R_15</text>
</g>
<!-- ne7&#45;&gt;ne2 -->
<g id="edge20" class="edge">
<title>ne7&#45;&gt;ne2</title>
<path fill="none" stroke="black" d="M488.99,-159.59C474.04,-158.24 455.37,-158.6 440.18,-165.36 429.83,-169.97 420.66,-177.92 413.13,-186.26"/>
<polygon fill="black" stroke="black" points="410.55,-183.89 406.86,-193.82 415.94,-188.36 410.55,-183.89"/>
<text text-anchor="middle" x="455.56" y="-168.56" font-family="Times New Roman,serif" font-size="14.00">R_17</text>
</g>
<!-- ne7&#45;&gt;ne41 -->
<g id="edge9" class="edge">
<title>ne7&#45;&gt;ne41</title>
<path fill="none" stroke="black" d="M544.59,-164.11C560.68,-164.11 581.36,-164.11 599.17,-164.11"/>
<polygon fill="black" stroke="black" points="599.16,-167.61 609.16,-164.11 599.16,-160.61 599.16,-167.61"/>
<text text-anchor="middle" x="577.55" y="-166.56" font-family="Times New Roman,serif" font-size="14.00">R_08</text>
</g>
<!-- ne7&#45;&gt;ne7 -->
<g id="edge10" class="edge">
<title>ne7&#45;&gt;ne7</title>
<path fill="none" stroke="black" d="M505.25,-189.44C504.33,-200.37 508.1,-209.73 516.55,-209.73 521.84,-209.73 525.29,-206.07 526.92,-200.66"/>
<polygon fill="black" stroke="black" points="530.38,-201.21 527.73,-190.95 523.41,-200.62 530.38,-201.21"/>
<text text-anchor="middle" x="516.55" y="-212.18" font-family="Times New Roman,serif" font-size="14.00">R_09</text>
</g>
</g>
</svg>
