<?xml version="1.0" encoding="UTF-8" standalone="no"?>
<!DOCTYPE svg PUBLIC "-//W3C//DTD SVG 1.1//EN"
 "http://www.w3.org/Graphics/SVG/1.1/DTD/svg11.dtd">
<!-- Generated by graphviz version 9.0.0 (20230911.1827)
 -->
<!-- Title: finite_state_machine Pages: 1 -->
<svg width="21600pt" height="10198pt"
 viewBox="0.00 0.00 21600.00 10197.86" xmlns="http://www.w3.org/2000/svg" xmlns:xlink="http://www.w3.org/1999/xlink">
<g id="graph0" class="graph" transform="scale(19.2685 19.2685) rotate(0) translate(4 525.25)">
<title>finite_state_machine</title>
<polygon fill="white" stroke="none" points="-4,4 -4,-525.25 1117,-525.25 1117,4 -4,4"/>
<!-- ne4 -->
<g id="node1" class="node">
<title>ne4</title>
<path fill="white" stroke="black" stroke-width="2" d="M12,-143.75C12,-143.75 194,-143.75 194,-143.75 200,-143.75 206,-149.75 206,-155.75 206,-155.75 206,-210.75 206,-210.75 206,-216.75 200,-222.75 194,-222.75 194,-222.75 12,-222.75 12,-222.75 6,-222.75 0,-216.75 0,-210.75 0,-210.75 0,-155.75 0,-155.75 0,-149.75 6,-143.75 12,-143.75"/>
<polygon fill="white" stroke="none" points="8,-147.75 8,-218.75 198,-218.75 198,-147.75 8,-147.75"/>
<polygon fill="black" stroke="none" points="10,-195.75 10,-216.75 196,-216.75 196,-195.75 10,-195.75"/>
<text text-anchor="start" x="90.62" y="-200.45" font-family="Courier New" font-size="14.00" fill="white">ne4</text>
<polygon fill="olive" stroke="none" points="10,-172.75 10,-193.75 98,-193.75 98,-172.75 10,-172.75"/>
<text text-anchor="start" x="12.75" y="-177.45" font-family="Courier New" font-size="14.00">BufferStop</text>
<text text-anchor="start" x="103" y="-177.45" font-family="Courier New" font-size="14.00">Buf11</text>
<polygon fill="yellowgreen" stroke="none" points="10,-149.75 10,-170.75 98,-170.75 98,-149.75 10,-149.75"/>
<text text-anchor="start" x="45.5" y="-154.45" font-family="Courier New" font-size="14.00">Signal</text>
<text text-anchor="start" x="102.62" y="-154.45" font-family="Courier New" font-size="14.00">T01 T02 B26</text>
</g>
<!-- ne4&#45;&#45;ne4 -->
<g id="edge1" class="edge">
<title>ne4&#45;&#45;ne4</title>
<path fill="none" stroke="black" d="M206.27,-195.27C217.08,-192.92 224,-188.92 224,-183.25 224,-177.58 217.08,-173.58 206.27,-171.23"/>
<text text-anchor="middle" x="239.38" y="-177.82" font-family="Times New Roman,serif" font-size="14.00">R_01</text>
</g>
<!-- ne3 -->
<g id="node10" class="node">
<title>ne3</title>
<path fill="white" stroke="black" stroke-width="2" d="M769,-0.5C769,-0.5 885,-0.5 885,-0.5 891,-0.5 897,-6.5 897,-12.5 897,-12.5 897,-67.5 897,-67.5 897,-73.5 891,-79.5 885,-79.5 885,-79.5 769,-79.5 769,-79.5 763,-79.5 757,-73.5 757,-67.5 757,-67.5 757,-12.5 757,-12.5 757,-6.5 763,-0.5 769,-0.5"/>
<polygon fill="white" stroke="none" points="765,-4.5 765,-75.5 889,-75.5 889,-4.5 765,-4.5"/>
<polygon fill="black" stroke="none" points="767,-52.5 767,-73.5 887,-73.5 887,-52.5 767,-52.5"/>
<text text-anchor="start" x="814.62" y="-57.2" font-family="Courier New" font-size="14.00" fill="white">ne3</text>
<polygon fill="red" stroke="none" points="767,-29.5 767,-50.5 822,-50.5 822,-29.5 767,-29.5"/>
<text text-anchor="start" x="769.75" y="-34.2" font-family="Courier New" font-size="14.00">Switch</text>
<text text-anchor="start" x="827" y="-34.2" font-family="Courier New" font-size="14.00">Sw02</text>
<polygon fill="yellowgreen" stroke="none" points="767,-6.5 767,-27.5 822,-27.5 822,-6.5 767,-6.5"/>
<text text-anchor="start" x="769.75" y="-11.2" font-family="Courier New" font-size="14.00">Signal</text>
<text text-anchor="start" x="826.62" y="-11.2" font-family="Courier New" font-size="14.00">C21 S27</text>
</g>
<!-- ne4&#45;&#45;ne3 -->
<g id="edge17" class="edge">
<title>ne4&#45;&#45;ne3</title>
<path fill="none" stroke="black" d="M206.23,-148.88C225.37,-142.97 245.25,-137.03 264,-131.75 323.64,-114.97 338.39,-109.61 399.25,-98 524.17,-74.17 671.5,-56.88 756.59,-47.94"/>
<text text-anchor="middle" x="414.38" y="-100.45" font-family="Times New Roman,serif" font-size="14.00">R_14</text>
</g>
<!-- ne6 -->
<g id="node2" class="node">
<title>ne6</title>
<path fill="white" stroke="black" stroke-width="2" d="M697.5,-441.75C697.5,-441.75 846.5,-441.75 846.5,-441.75 852.5,-441.75 858.5,-447.75 858.5,-453.75 858.5,-453.75 858.5,-508.75 858.5,-508.75 858.5,-514.75 852.5,-520.75 846.5,-520.75 846.5,-520.75 697.5,-520.75 697.5,-520.75 691.5,-520.75 685.5,-514.75 685.5,-508.75 685.5,-508.75 685.5,-453.75 685.5,-453.75 685.5,-447.75 691.5,-441.75 697.5,-441.75"/>
<polygon fill="white" stroke="none" points="693.5,-445.75 693.5,-516.75 850.5,-516.75 850.5,-445.75 693.5,-445.75"/>
<polygon fill="black" stroke="none" points="695.5,-493.75 695.5,-514.75 848.5,-514.75 848.5,-493.75 695.5,-493.75"/>
<text text-anchor="start" x="759.62" y="-498.45" font-family="Courier New" font-size="14.00" fill="white">ne6</text>
<polygon fill="olive" stroke="none" points="695.5,-470.75 695.5,-491.75 783.5,-491.75 783.5,-470.75 695.5,-470.75"/>
<text text-anchor="start" x="698.25" y="-475.45" font-family="Courier New" font-size="14.00">BufferStop</text>
<text text-anchor="start" x="788.5" y="-475.45" font-family="Courier New" font-size="14.00">Buf10</text>
<polygon fill="yellowgreen" stroke="none" points="695.5,-447.75 695.5,-468.75 783.5,-468.75 783.5,-447.75 695.5,-447.75"/>
<text text-anchor="start" x="731" y="-452.45" font-family="Courier New" font-size="14.00">Signal</text>
<text text-anchor="start" x="788.12" y="-452.45" font-family="Courier New" font-size="14.00">T03 T04</text>
</g>
<!-- ne2 -->
<g id="node3" class="node">
<title>ne2</title>
<path fill="white" stroke="black" stroke-width="2" d="M726,-310C726,-310 818,-310 818,-310 824,-310 830,-316 830,-322 830,-322 830,-354 830,-354 830,-360 824,-366 818,-366 818,-366 726,-366 726,-366 720,-366 714,-360 714,-354 714,-354 714,-322 714,-322 714,-316 720,-310 726,-310"/>
<polygon fill="white" stroke="none" points="722,-314 722,-362 822,-362 822,-314 722,-314"/>
<polygon fill="black" stroke="none" points="724,-339 724,-360 820,-360 820,-339 724,-339"/>
<text text-anchor="start" x="759.62" y="-343.7" font-family="Courier New" font-size="14.00" fill="white">ne2</text>
<polygon fill="red" stroke="none" points="724,-316 724,-337 779,-337 779,-316 724,-316"/>
<text text-anchor="start" x="726.75" y="-320.7" font-family="Courier New" font-size="14.00">Switch</text>
<text text-anchor="start" x="784" y="-320.7" font-family="Courier New" font-size="14.00">Sw03</text>
</g>
<!-- ne6&#45;&#45;ne2 -->
<g id="edge2" class="edge">
<title>ne6&#45;&#45;ne2</title>
<path fill="none" stroke="black" d="M751.87,-441.44C749.55,-435.48 747.55,-429.3 746.25,-423.25 742.1,-403.96 748.67,-382.72 756.21,-366.39"/>
<text text-anchor="middle" x="761.38" y="-409.95" font-family="Times New Roman,serif" font-size="14.00">R_02</text>
</g>
<!-- ne2&#45;&#45;ne6 -->
<g id="edge16" class="edge">
<title>ne2&#45;&#45;ne6</title>
<path fill="none" stroke="black" d="M775.05,-366.31C776.53,-382.79 777.83,-404.22 777,-423.25 776.74,-429.11 776.34,-435.29 775.87,-441.34"/>
<text text-anchor="middle" x="792.38" y="-409.95" font-family="Times New Roman,serif" font-size="14.00">R_13</text>
</g>
<!-- ne1 -->
<g id="node4" class="node">
<title>ne1</title>
<path fill="white" stroke="black" stroke-width="2" d="M797,-132.25C797,-132.25 913,-132.25 913,-132.25 919,-132.25 925,-138.25 925,-144.25 925,-144.25 925,-222.25 925,-222.25 925,-228.25 919,-234.25 913,-234.25 913,-234.25 797,-234.25 797,-234.25 791,-234.25 785,-228.25 785,-222.25 785,-222.25 785,-144.25 785,-144.25 785,-138.25 791,-132.25 797,-132.25"/>
<polygon fill="white" stroke="none" points="793,-136.25 793,-230.25 917,-230.25 917,-136.25 793,-136.25"/>
<polygon fill="black" stroke="none" points="795,-207.25 795,-228.25 915,-228.25 915,-207.25 795,-207.25"/>
<text text-anchor="start" x="842.62" y="-211.95" font-family="Courier New" font-size="14.00" fill="white">ne1</text>
<polygon fill="red" stroke="none" points="795,-184.25 795,-205.25 850,-205.25 850,-184.25 795,-184.25"/>
<text text-anchor="start" x="797.75" y="-188.95" font-family="Courier New" font-size="14.00">Switch</text>
<text text-anchor="start" x="855" y="-188.95" font-family="Courier New" font-size="14.00">Sw01</text>
<polygon fill="#8470ff" stroke="none" points="795,-161.25 795,-182.25 850,-182.25 850,-161.25 795,-161.25"/>
<text text-anchor="start" x="797.75" y="-165.95" font-family="Courier New" font-size="14.00">Border</text>
<text text-anchor="start" x="855" y="-165.95" font-family="Courier New" font-size="14.00">Buf09</text>
<polygon fill="yellowgreen" stroke="none" points="795,-138.25 795,-159.25 850,-159.25 850,-138.25 795,-138.25"/>
<text text-anchor="start" x="797.75" y="-142.95" font-family="Courier New" font-size="14.00">Signal</text>
<text text-anchor="start" x="854.62" y="-142.95" font-family="Courier New" font-size="14.00">J18 S22</text>
</g>
<!-- ne2&#45;&#45;ne1 -->
<g id="edge3" class="edge">
<title>ne2&#45;&#45;ne1</title>
<path fill="none" stroke="black" d="M752.96,-309.61C743.6,-292.52 736.26,-270.47 746.25,-252.75 753.84,-239.29 762.88,-242.91 776,-234.75 778.9,-232.94 781.86,-231.1 784.85,-229.22"/>
<text text-anchor="middle" x="761.38" y="-255.2" font-family="Times New Roman,serif" font-size="14.00">R_02</text>
</g>
<!-- ne2&#45;&#45;ne1 -->
<g id="edge21" class="edge">
<title>ne2&#45;&#45;ne1</title>
<path fill="none" stroke="black" d="M776.76,-309.68C780.47,-292.61 786.64,-270.57 796.25,-252.75 799.6,-246.54 803.58,-240.4 807.88,-234.5"/>
<text text-anchor="middle" x="811.38" y="-255.2" font-family="Times New Roman,serif" font-size="14.00">R_17</text>
</g>
<!-- ne7 -->
<g id="node11" class="node">
<title>ne7</title>
<path fill="white" stroke="black" stroke-width="2" d="M557.5,-155.25C557.5,-155.25 706.5,-155.25 706.5,-155.25 712.5,-155.25 718.5,-161.25 718.5,-167.25 718.5,-167.25 718.5,-199.25 718.5,-199.25 718.5,-205.25 712.5,-211.25 706.5,-211.25 706.5,-211.25 557.5,-211.25 557.5,-211.25 551.5,-211.25 545.5,-205.25 545.5,-199.25 545.5,-199.25 545.5,-167.25 545.5,-167.25 545.5,-161.25 551.5,-155.25 557.5,-155.25"/>
<polygon fill="white" stroke="none" points="553.5,-159.25 553.5,-207.25 710.5,-207.25 710.5,-159.25 553.5,-159.25"/>
<polygon fill="black" stroke="none" points="555.5,-184.25 555.5,-205.25 708.5,-205.25 708.5,-184.25 555.5,-184.25"/>
<text text-anchor="start" x="619.62" y="-188.95" font-family="Courier New" font-size="14.00" fill="white">ne7</text>
<polygon fill="yellowgreen" stroke="none" points="555.5,-161.25 555.5,-182.25 610.5,-182.25 610.5,-161.25 555.5,-161.25"/>
<text text-anchor="start" x="558.25" y="-165.95" font-family="Courier New" font-size="14.00">Signal</text>
<text text-anchor="start" x="615.12" y="-165.95" font-family="Courier New" font-size="14.00">J19 J20 C29</text>
</g>
<!-- ne2&#45;&#45;ne7 -->
<g id="edge14" class="edge">
<title>ne2&#45;&#45;ne7</title>
<path fill="none" stroke="black" d="M713.65,-322.08C685.75,-311.79 654.69,-295.04 637.25,-268.5 626.3,-251.84 625.51,-229.11 627.16,-211.45"/>
<text text-anchor="middle" x="652.38" y="-255.2" font-family="Times New Roman,serif" font-size="14.00">R_12</text>
</g>
<!-- ne1&#45;&#45;ne2 -->
<g id="edge13" class="edge">
<title>ne1&#45;&#45;ne2</title>
<path fill="none" stroke="black" d="M844.49,-234.66C841.05,-246.16 836.63,-258.06 831,-268.5 822.96,-283.42 811.2,-297.95 800.29,-309.75"/>
<text text-anchor="middle" x="853.38" y="-255.2" font-family="Times New Roman,serif" font-size="14.00">R_12</text>
</g>
<!-- ne1&#45;&#45;ne2 -->
<g id="edge15" class="edge">
<title>ne1&#45;&#45;ne2</title>
<path fill="none" stroke="black" d="M876.85,-234.41C878.94,-246.04 878.53,-258.06 873,-268.5 863.57,-286.28 847.23,-300.3 830.41,-310.9"/>
<text text-anchor="middle" x="892.38" y="-255.2" font-family="Times New Roman,serif" font-size="14.00">R_13</text>
</g>
<!-- ne1&#45;&#45;ne3 -->
<g id="edge12" class="edge">
<title>ne1&#45;&#45;ne3</title>
<path fill="none" stroke="black" d="M811.6,-131.92C808.23,-126.07 805.33,-119.97 803.25,-113.75 799.58,-102.79 801.14,-90.88 804.81,-79.93"/>
<text text-anchor="middle" x="818.38" y="-100.45" font-family="Times New Roman,serif" font-size="14.00">R_11</text>
</g>
<!-- ne10 -->
<g id="node5" class="node">
<title>ne10</title>
<path fill="white" stroke="black" stroke-width="2" d="M914.5,-298.5C914.5,-298.5 1063.5,-298.5 1063.5,-298.5 1069.5,-298.5 1075.5,-304.5 1075.5,-310.5 1075.5,-310.5 1075.5,-365.5 1075.5,-365.5 1075.5,-371.5 1069.5,-377.5 1063.5,-377.5 1063.5,-377.5 914.5,-377.5 914.5,-377.5 908.5,-377.5 902.5,-371.5 902.5,-365.5 902.5,-365.5 902.5,-310.5 902.5,-310.5 902.5,-304.5 908.5,-298.5 914.5,-298.5"/>
<polygon fill="white" stroke="none" points="910.5,-302.5 910.5,-373.5 1067.5,-373.5 1067.5,-302.5 910.5,-302.5"/>
<polygon fill="black" stroke="none" points="912.5,-350.5 912.5,-371.5 1065.5,-371.5 1065.5,-350.5 912.5,-350.5"/>
<text text-anchor="start" x="972.5" y="-355.2" font-family="Courier New" font-size="14.00" fill="white">ne10</text>
<polygon fill="olive" stroke="none" points="912.5,-327.5 912.5,-348.5 1000.5,-348.5 1000.5,-327.5 912.5,-327.5"/>
<text text-anchor="start" x="915.25" y="-332.2" font-family="Courier New" font-size="14.00">BufferStop</text>
<text text-anchor="start" x="1005.5" y="-332.2" font-family="Courier New" font-size="14.00">Buf05</text>
<polygon fill="yellowgreen" stroke="none" points="912.5,-304.5 912.5,-325.5 1000.5,-325.5 1000.5,-304.5 912.5,-304.5"/>
<text text-anchor="start" x="948" y="-309.2" font-family="Courier New" font-size="14.00">Signal</text>
<text text-anchor="start" x="1005.12" y="-309.2" font-family="Courier New" font-size="14.00">T05 T06</text>
</g>
<!-- ne5 -->
<g id="node6" class="node">
<title>ne5</title>
<path fill="white" stroke="black" stroke-width="2" d="M957,-143.75C957,-143.75 1073,-143.75 1073,-143.75 1079,-143.75 1085,-149.75 1085,-155.75 1085,-155.75 1085,-210.75 1085,-210.75 1085,-216.75 1079,-222.75 1073,-222.75 1073,-222.75 957,-222.75 957,-222.75 951,-222.75 945,-216.75 945,-210.75 945,-210.75 945,-155.75 945,-155.75 945,-149.75 951,-143.75 957,-143.75"/>
<polygon fill="white" stroke="none" points="953,-147.75 953,-218.75 1077,-218.75 1077,-147.75 953,-147.75"/>
<polygon fill="black" stroke="none" points="955,-195.75 955,-216.75 1075,-216.75 1075,-195.75 955,-195.75"/>
<text text-anchor="start" x="1002.62" y="-200.45" font-family="Courier New" font-size="14.00" fill="white">ne5</text>
<polygon fill="red" stroke="none" points="955,-172.75 955,-193.75 1010,-193.75 1010,-172.75 955,-172.75"/>
<text text-anchor="start" x="957.75" y="-177.45" font-family="Courier New" font-size="14.00">Switch</text>
<text text-anchor="start" x="1015" y="-177.45" font-family="Courier New" font-size="14.00">Sw05</text>
<polygon fill="yellowgreen" stroke="none" points="955,-149.75 955,-170.75 1010,-170.75 1010,-149.75 955,-149.75"/>
<text text-anchor="start" x="957.75" y="-154.45" font-family="Courier New" font-size="14.00">Signal</text>
<text text-anchor="start" x="1014.62" y="-154.45" font-family="Courier New" font-size="14.00">J16 S33</text>
</g>
<!-- ne10&#45;&#45;ne5 -->
<g id="edge4" class="edge">
<title>ne10&#45;&#45;ne5</title>
<path fill="none" stroke="black" d="M966.87,-298.27C961.37,-283.92 958.29,-267.54 963.25,-252.75 966.76,-242.29 972.56,-232.16 979.04,-223.03"/>
<text text-anchor="middle" x="978.38" y="-255.2" font-family="Times New Roman,serif" font-size="14.00">R_03</text>
</g>
<!-- ne5&#45;&#45;ne10 -->
<g id="edge22" class="edge">
<title>ne5&#45;&#45;ne10</title>
<path fill="none" stroke="black" d="M1008.38,-223.12C1004.47,-246.09 999.54,-275.08 995.63,-298.06"/>
<text text-anchor="middle" x="1017.38" y="-255.2" font-family="Times New Roman,serif" font-size="14.00">R_18</text>
</g>
<!-- ne11 -->
<g id="node9" class="node">
<title>ne11</title>
<path fill="white" stroke="black" stroke-width="2" d="M985,-0.5C985,-0.5 1101,-0.5 1101,-0.5 1107,-0.5 1113,-6.5 1113,-12.5 1113,-12.5 1113,-67.5 1113,-67.5 1113,-73.5 1107,-79.5 1101,-79.5 1101,-79.5 985,-79.5 985,-79.5 979,-79.5 973,-73.5 973,-67.5 973,-67.5 973,-12.5 973,-12.5 973,-6.5 979,-0.5 985,-0.5"/>
<polygon fill="white" stroke="none" points="981,-4.5 981,-75.5 1105,-75.5 1105,-4.5 981,-4.5"/>
<polygon fill="black" stroke="none" points="983,-52.5 983,-73.5 1103,-73.5 1103,-52.5 983,-52.5"/>
<text text-anchor="start" x="1026.5" y="-57.2" font-family="Courier New" font-size="14.00" fill="white">ne11</text>
<polygon fill="#8470ff" stroke="none" points="983,-29.5 983,-50.5 1038,-50.5 1038,-29.5 983,-29.5"/>
<text text-anchor="start" x="985.75" y="-34.2" font-family="Courier New" font-size="14.00">Border</text>
<text text-anchor="start" x="1043" y="-34.2" font-family="Courier New" font-size="14.00">Buf12</text>
<polygon fill="yellowgreen" stroke="none" points="983,-6.5 983,-27.5 1038,-27.5 1038,-6.5 983,-6.5"/>
<text text-anchor="start" x="985.75" y="-11.2" font-family="Courier New" font-size="14.00">Signal</text>
<text text-anchor="start" x="1042.62" y="-11.2" font-family="Courier New" font-size="14.00">J13 J14</text>
</g>
<!-- ne5&#45;&#45;ne11 -->
<g id="edge23" class="edge">
<title>ne5&#45;&#45;ne11</title>
<path fill="none" stroke="black" d="M1010.03,-143.62C1009.24,-129.13 1009.66,-112.64 1013.25,-98 1014.74,-91.93 1017,-85.79 1019.62,-79.89"/>
<text text-anchor="middle" x="1028.38" y="-100.45" font-family="Times New Roman,serif" font-size="14.00">R_19</text>
</g>
<!-- ne5&#45;&#45;ne3 -->
<g id="edge8" class="edge">
<title>ne5&#45;&#45;ne3</title>
<path fill="none" stroke="black" d="M951.59,-143.37C937.38,-134.06 922.58,-123.87 909.25,-113.75 895.43,-103.26 881.05,-91.03 868.24,-79.63"/>
<text text-anchor="middle" x="924.38" y="-100.45" font-family="Times New Roman,serif" font-size="14.00">R_07</text>
</g>
<!-- ne41 -->
<g id="node7" class="node">
<title>ne41</title>
<path fill="white" stroke="black" stroke-width="2" d="M367,-287C367,-287 549,-287 549,-287 555,-287 561,-293 561,-299 561,-299 561,-377 561,-377 561,-383 555,-389 549,-389 549,-389 367,-389 367,-389 361,-389 355,-383 355,-377 355,-377 355,-299 355,-299 355,-293 361,-287 367,-287"/>
<polygon fill="white" stroke="none" points="363,-291 363,-385 553,-385 553,-291 363,-291"/>
<polygon fill="black" stroke="none" points="365,-362 365,-383 551,-383 551,-362 365,-362"/>
<text text-anchor="start" x="441.5" y="-366.7" font-family="Courier New" font-size="14.00" fill="white">ne41</text>
<polygon fill="red" stroke="none" points="365,-339 365,-360 453,-360 453,-339 365,-339"/>
<text text-anchor="start" x="400.5" y="-343.7" font-family="Courier New" font-size="14.00">Switch</text>
<text text-anchor="start" x="458" y="-343.7" font-family="Courier New" font-size="14.00">Sw08</text>
<polygon fill="olive" stroke="none" points="365,-316 365,-337 453,-337 453,-316 365,-316"/>
<text text-anchor="start" x="367.75" y="-320.7" font-family="Courier New" font-size="14.00">BufferStop</text>
<text text-anchor="start" x="458" y="-320.7" font-family="Courier New" font-size="14.00">Buf05</text>
<polygon fill="yellowgreen" stroke="none" points="365,-293 365,-314 453,-314 453,-293 365,-293"/>
<text text-anchor="start" x="400.5" y="-297.7" font-family="Courier New" font-size="14.00">Signal</text>
<text text-anchor="start" x="457.62" y="-297.7" font-family="Courier New" font-size="14.00">T07 T08 S37</text>
</g>
<!-- ne41&#45;&#45;ne41 -->
<g id="edge5" class="edge">
<title>ne41&#45;&#45;ne41</title>
<path fill="none" stroke="black" d="M561.27,-350.02C572.08,-347.67 579,-343.67 579,-338 579,-332.33 572.08,-328.33 561.27,-325.98"/>
<text text-anchor="middle" x="594.38" y="-332.57" font-family="Times New Roman,serif" font-size="14.00">R_04</text>
</g>
<!-- ne42 -->
<g id="node8" class="node">
<title>ne42</title>
<path fill="white" stroke="black" stroke-width="2" d="M285,-143.75C285,-143.75 467,-143.75 467,-143.75 473,-143.75 479,-149.75 479,-155.75 479,-155.75 479,-210.75 479,-210.75 479,-216.75 473,-222.75 467,-222.75 467,-222.75 285,-222.75 285,-222.75 279,-222.75 273,-216.75 273,-210.75 273,-210.75 273,-155.75 273,-155.75 273,-149.75 279,-143.75 285,-143.75"/>
<polygon fill="white" stroke="none" points="281,-147.75 281,-218.75 471,-218.75 471,-147.75 281,-147.75"/>
<polygon fill="black" stroke="none" points="283,-195.75 283,-216.75 469,-216.75 469,-195.75 283,-195.75"/>
<text text-anchor="start" x="359.5" y="-200.45" font-family="Courier New" font-size="14.00" fill="white">ne42</text>
<polygon fill="olive" stroke="none" points="283,-172.75 283,-193.75 371,-193.75 371,-172.75 283,-172.75"/>
<text text-anchor="start" x="285.75" y="-177.45" font-family="Courier New" font-size="14.00">BufferStop</text>
<text text-anchor="start" x="376" y="-177.45" font-family="Courier New" font-size="14.00">Buf06</text>
<polygon fill="yellowgreen" stroke="none" points="283,-149.75 283,-170.75 371,-170.75 371,-149.75 283,-149.75"/>
<text text-anchor="start" x="318.5" y="-154.45" font-family="Courier New" font-size="14.00">Signal</text>
<text text-anchor="start" x="375.62" y="-154.45" font-family="Courier New" font-size="14.00">T09 T10 B36</text>
</g>
<!-- ne41&#45;&#45;ne42 -->
<g id="edge26" class="edge">
<title>ne41&#45;&#45;ne42</title>
<path fill="none" stroke="black" d="M390.76,-286.52C386.25,-280.89 382.3,-274.87 379.25,-268.5 372.61,-254.64 370.87,-237.97 371.13,-223.14"/>
<text text-anchor="middle" x="394.38" y="-255.2" font-family="Times New Roman,serif" font-size="14.00">R_22</text>
</g>
<!-- ne41&#45;&#45;ne7 -->
<g id="edge25" class="edge">
<title>ne41&#45;&#45;ne7</title>
<path fill="none" stroke="black" d="M483.48,-286.68C491.04,-274.67 500.06,-262.51 510.25,-252.75 516.18,-247.07 549.94,-228.21 580.41,-211.71"/>
<text text-anchor="middle" x="525.38" y="-255.2" font-family="Times New Roman,serif" font-size="14.00">R_21</text>
</g>
<!-- ne42&#45;&#45;ne41 -->
<g id="edge6" class="edge">
<title>ne42&#45;&#45;ne41</title>
<path fill="none" stroke="black" d="M397.67,-222.92C403.06,-232.63 408.78,-243.05 414,-252.75 419.87,-263.65 426.07,-275.39 431.92,-286.55"/>
<text text-anchor="middle" x="436.38" y="-255.2" font-family="Times New Roman,serif" font-size="14.00">R_05</text>
</g>
<!-- ne42&#45;&#45;ne42 -->
<g id="edge24" class="edge">
<title>ne42&#45;&#45;ne42</title>
<path fill="none" stroke="black" d="M479.27,-195.27C490.08,-192.92 497,-188.92 497,-183.25 497,-177.58 490.08,-173.58 479.27,-171.23"/>
<text text-anchor="middle" x="512.38" y="-177.82" font-family="Times New Roman,serif" font-size="14.00">R_20</text>
</g>
<!-- ne11&#45;&#45;ne5 -->
<g id="edge7" class="edge">
<title>ne11&#45;&#45;ne5</title>
<path fill="none" stroke="black" d="M1049.84,-79.84C1050.66,-90.9 1050.48,-102.89 1048,-113.75 1045.71,-123.79 1041.75,-134.07 1037.35,-143.51"/>
<text text-anchor="middle" x="1065.38" y="-100.45" font-family="Times New Roman,serif" font-size="14.00">R_06</text>
</g>
<!-- ne3&#45;&#45;ne4 -->
<g id="edge19" class="edge">
<title>ne3&#45;&#45;ne4</title>
<path fill="none" stroke="black" d="M756.62,-55.51C677.46,-71.45 544.93,-97.01 430,-113.75 356.56,-124.45 336.64,-116.57 264,-131.75 245.07,-135.7 225.21,-140.98 206.14,-146.62"/>
<text text-anchor="middle" x="543.38" y="-100.45" font-family="Times New Roman,serif" font-size="14.00">R_16</text>
</g>
<!-- ne3&#45;&#45;ne1 -->
<g id="edge11" class="edge">
<title>ne3&#45;&#45;ne1</title>
<path fill="none" stroke="black" d="M834.72,-79.94C837.91,-96.04 841.65,-114.92 845.05,-132.05"/>
<text text-anchor="middle" x="856.38" y="-100.45" font-family="Times New Roman,serif" font-size="14.00">R_10</text>
</g>
<!-- ne3&#45;&#45;ne5 -->
<g id="edge18" class="edge">
<title>ne3&#45;&#45;ne5</title>
<path fill="none" stroke="black" d="M897.29,-71.28C912.03,-79.03 927.02,-88.02 940,-98 956.77,-110.89 972.74,-127.9 985.6,-143.26"/>
<text text-anchor="middle" x="971.38" y="-100.45" font-family="Times New Roman,serif" font-size="14.00">R_15</text>
</g>
<!-- ne7&#45;&#45;ne2 -->
<g id="edge20" class="edge">
<title>ne7&#45;&#45;ne2</title>
<path fill="none" stroke="black" d="M655.45,-211.45C669.92,-228.08 688.96,-249.7 706.25,-268.5 718.86,-282.21 733.15,-297.16 745.18,-309.59"/>
<text text-anchor="middle" x="721.38" y="-255.2" font-family="Times New Roman,serif" font-size="14.00">R_17</text>
</g>
<!-- ne7&#45;&#45;ne41 -->
<g id="edge9" class="edge">
<title>ne7&#45;&#45;ne41</title>
<path fill="none" stroke="black" d="M605.25,-211.55C588.38,-228.41 565.9,-250.24 545,-268.5 538.05,-274.57 530.65,-280.77 523.21,-286.85"/>
<text text-anchor="middle" x="577.38" y="-255.2" font-family="Times New Roman,serif" font-size="14.00">R_08</text>
</g>
<!-- ne7&#45;&#45;ne7 -->
<g id="edge10" class="edge">
<title>ne7&#45;&#45;ne7</title>
<path fill="none" stroke="black" d="M718.89,-195.8C729.53,-193.55 736.5,-189.37 736.5,-183.25 736.5,-177.13 729.53,-172.95 718.89,-170.7"/>
<text text-anchor="middle" x="751.88" y="-177.82" font-family="Times New Roman,serif" font-size="14.00">R_09</text>
</g>
</g>
</svg>
