<?xml version="1.0" encoding="UTF-8" standalone="no"?>
<!DOCTYPE svg PUBLIC "-//W3C//DTD SVG 1.1//EN"
 "http://www.w3.org/Graphics/SVG/1.1/DTD/svg11.dtd">
<!-- Generated by graphviz version 9.0.0 (20230911.1827)
 -->
<!-- Title: finite_state_machine Pages: 1 -->
<svg width="21600pt" height="1379pt"
 viewBox="0.00 0.00 21600.00 1378.76" xmlns="http://www.w3.org/2000/svg" xmlns:xlink="http://www.w3.org/1999/xlink">
<g id="graph0" class="graph" transform="scale(3.68161 3.68161) rotate(0) translate(4 370.5)">
<title>finite_state_machine</title>
<polygon fill="white" stroke="none" points="-4,4 -4,-370.5 5863,-370.5 5863,4 -4,4"/>
<!-- ne01 -->
<g id="node1" class="node">
<title>ne01</title>
<path fill="white" stroke="black" stroke-width="2" d="M75.5,-264C75.5,-264 224.5,-264 224.5,-264 230.5,-264 236.5,-270 236.5,-276 236.5,-276 236.5,-354 236.5,-354 236.5,-360 230.5,-366 224.5,-366 224.5,-366 75.5,-366 75.5,-366 69.5,-366 63.5,-360 63.5,-354 63.5,-354 63.5,-276 63.5,-276 63.5,-270 69.5,-264 75.5,-264"/>
<polygon fill="white" stroke="none" points="71.5,-268 71.5,-362 228.5,-362 228.5,-268 71.5,-268"/>
<polygon fill="black" stroke="none" points="73.5,-339 73.5,-360 226.5,-360 226.5,-339 73.5,-339"/>
<text text-anchor="start" x="133.5" y="-343.7" font-family="Courier New" font-size="14.00" fill="white">ne01</text>
<polygon fill="red" stroke="none" points="73.5,-316 73.5,-337 161.5,-337 161.5,-316 73.5,-316"/>
<text text-anchor="start" x="109" y="-320.7" font-family="Courier New" font-size="14.00">Switch</text>
<text text-anchor="start" x="166.5" y="-320.7" font-family="Courier New" font-size="14.00">Sw01</text>
<polygon fill="olive" stroke="none" points="73.5,-293 73.5,-314 161.5,-314 161.5,-293 73.5,-293"/>
<text text-anchor="start" x="76.25" y="-297.7" font-family="Courier New" font-size="14.00">BufferStop</text>
<text text-anchor="start" x="166.5" y="-297.7" font-family="Courier New" font-size="14.00">Buf01</text>
<polygon fill="yellowgreen" stroke="none" points="73.5,-270 73.5,-291 161.5,-291 161.5,-270 73.5,-270"/>
<text text-anchor="start" x="109" y="-274.7" font-family="Courier New" font-size="14.00">Signal</text>
<text text-anchor="start" x="166.12" y="-274.7" font-family="Courier New" font-size="14.00">T01 T02</text>
</g>
<!-- ne02 -->
<g id="node2" class="node">
<title>ne02</title>
<path fill="white" stroke="black" stroke-width="2" d="M12,-155.25C12,-155.25 128,-155.25 128,-155.25 134,-155.25 140,-161.25 140,-167.25 140,-167.25 140,-199.25 140,-199.25 140,-205.25 134,-211.25 128,-211.25 128,-211.25 12,-211.25 12,-211.25 6,-211.25 0,-205.25 0,-199.25 0,-199.25 0,-167.25 0,-167.25 0,-161.25 6,-155.25 12,-155.25"/>
<polygon fill="white" stroke="none" points="8,-159.25 8,-207.25 132,-207.25 132,-159.25 8,-159.25"/>
<polygon fill="black" stroke="none" points="10,-184.25 10,-205.25 130,-205.25 130,-184.25 10,-184.25"/>
<text text-anchor="start" x="53.5" y="-188.95" font-family="Courier New" font-size="14.00" fill="white">ne02</text>
<polygon fill="yellowgreen" stroke="none" points="10,-161.25 10,-182.25 65,-182.25 65,-161.25 10,-161.25"/>
<text text-anchor="start" x="12.75" y="-165.95" font-family="Courier New" font-size="14.00">Signal</text>
<text text-anchor="start" x="69.62" y="-165.95" font-family="Courier New" font-size="14.00">C21 C25</text>
</g>
<!-- ne01&#45;&#45;ne02 -->
<g id="edge1" class="edge">
<title>ne01&#45;&#45;ne02</title>
<path fill="none" stroke="black" d="M81.67,-263.72C77.16,-258.05 73.23,-251.96 70.25,-245.5 65.44,-235.07 64.64,-222.54 65.33,-211.54"/>
<text text-anchor="middle" x="85.38" y="-232.2" font-family="Times New Roman,serif" font-size="14.00">R_01</text>
</g>
<!-- ne03 -->
<g id="node3" class="node">
<title>ne03</title>
<path fill="white" stroke="black" stroke-width="2" d="M172,-155.25C172,-155.25 288,-155.25 288,-155.25 294,-155.25 300,-161.25 300,-167.25 300,-167.25 300,-199.25 300,-199.25 300,-205.25 294,-211.25 288,-211.25 288,-211.25 172,-211.25 172,-211.25 166,-211.25 160,-205.25 160,-199.25 160,-199.25 160,-167.25 160,-167.25 160,-161.25 166,-155.25 172,-155.25"/>
<polygon fill="white" stroke="none" points="168,-159.25 168,-207.25 292,-207.25 292,-159.25 168,-159.25"/>
<polygon fill="black" stroke="none" points="170,-184.25 170,-205.25 290,-205.25 290,-184.25 170,-184.25"/>
<text text-anchor="start" x="213.5" y="-188.95" font-family="Courier New" font-size="14.00" fill="white">ne03</text>
<polygon fill="yellowgreen" stroke="none" points="170,-161.25 170,-182.25 225,-182.25 225,-161.25 170,-161.25"/>
<text text-anchor="start" x="172.75" y="-165.95" font-family="Courier New" font-size="14.00">Signal</text>
<text text-anchor="start" x="229.62" y="-165.95" font-family="Courier New" font-size="14.00">B22 B26</text>
</g>
<!-- ne01&#45;&#45;ne03 -->
<g id="edge2" class="edge">
<title>ne01&#45;&#45;ne03</title>
<path fill="none" stroke="black" d="M162.01,-263.87C166.1,-252.11 171.42,-240.03 178.25,-229.75 182.55,-223.27 188.01,-217.15 193.75,-211.62"/>
<text text-anchor="middle" x="193.38" y="-232.2" font-family="Times New Roman,serif" font-size="14.00">R_02</text>
</g>
<!-- ne02&#45;&#45;ne01 -->
<g id="edge9" class="edge">
<title>ne02&#45;&#45;ne01</title>
<path fill="none" stroke="black" d="M89.01,-211.47C93.05,-217.44 97.23,-223.77 101,-229.75 107.86,-240.63 114.96,-252.47 121.56,-263.75"/>
<text text-anchor="middle" x="124.38" y="-232.2" font-family="Times New Roman,serif" font-size="14.00">R_09</text>
</g>
<!-- ne04 -->
<g id="node4" class="node">
<title>ne04</title>
<path fill="white" stroke="black" stroke-width="2" d="M75.5,-0.5C75.5,-0.5 224.5,-0.5 224.5,-0.5 230.5,-0.5 236.5,-6.5 236.5,-12.5 236.5,-12.5 236.5,-90.5 236.5,-90.5 236.5,-96.5 230.5,-102.5 224.5,-102.5 224.5,-102.5 75.5,-102.5 75.5,-102.5 69.5,-102.5 63.5,-96.5 63.5,-90.5 63.5,-90.5 63.5,-12.5 63.5,-12.5 63.5,-6.5 69.5,-0.5 75.5,-0.5"/>
<polygon fill="white" stroke="none" points="71.5,-4.5 71.5,-98.5 228.5,-98.5 228.5,-4.5 71.5,-4.5"/>
<polygon fill="black" stroke="none" points="73.5,-75.5 73.5,-96.5 226.5,-96.5 226.5,-75.5 73.5,-75.5"/>
<text text-anchor="start" x="133.5" y="-80.2" font-family="Courier New" font-size="14.00" fill="white">ne04</text>
<polygon fill="red" stroke="none" points="73.5,-52.5 73.5,-73.5 161.5,-73.5 161.5,-52.5 73.5,-52.5"/>
<text text-anchor="start" x="109" y="-57.2" font-family="Courier New" font-size="14.00">Switch</text>
<text text-anchor="start" x="166.5" y="-57.2" font-family="Courier New" font-size="14.00">Sw02</text>
<polygon fill="olive" stroke="none" points="73.5,-29.5 73.5,-50.5 161.5,-50.5 161.5,-29.5 73.5,-29.5"/>
<text text-anchor="start" x="76.25" y="-34.2" font-family="Courier New" font-size="14.00">BufferStop</text>
<text text-anchor="start" x="166.5" y="-34.2" font-family="Courier New" font-size="14.00">Buf03</text>
<polygon fill="yellowgreen" stroke="none" points="73.5,-6.5 73.5,-27.5 161.5,-27.5 161.5,-6.5 73.5,-6.5"/>
<text text-anchor="start" x="109" y="-11.2" font-family="Courier New" font-size="14.00">Signal</text>
<text text-anchor="start" x="166.12" y="-11.2" font-family="Courier New" font-size="14.00">T03 T04</text>
</g>
<!-- ne02&#45;&#45;ne04 -->
<g id="edge11" class="edge">
<title>ne02&#45;&#45;ne04</title>
<path fill="none" stroke="black" d="M62.75,-154.93C61.22,-143.92 61.32,-131.4 66.25,-121 69.31,-114.55 73.3,-108.51 77.89,-102.89"/>
<text text-anchor="middle" x="81.38" y="-123.45" font-family="Times New Roman,serif" font-size="14.00">R_11</text>
</g>
<!-- ne03&#45;&#45;ne01 -->
<g id="edge10" class="edge">
<title>ne03&#45;&#45;ne01</title>
<path fill="none" stroke="black" d="M223.02,-211.74C219.63,-222.65 214.98,-235.07 209,-245.5 205.49,-251.63 201.39,-257.72 197.01,-263.59"/>
<text text-anchor="middle" x="230.38" y="-232.2" font-family="Times New Roman,serif" font-size="14.00">R_10</text>
</g>
<!-- ne03&#45;&#45;ne04 -->
<g id="edge12" class="edge">
<title>ne03&#45;&#45;ne04</title>
<path fill="none" stroke="black" d="M190.11,-154.86C184.16,-149.41 178.58,-143.32 174.25,-136.75 167.54,-126.59 162.66,-114.55 159.12,-102.8"/>
<text text-anchor="middle" x="189.38" y="-123.45" font-family="Times New Roman,serif" font-size="14.00">R_12</text>
</g>
<!-- ne04&#45;&#45;ne02 -->
<g id="edge3" class="edge">
<title>ne04&#45;&#45;ne02</title>
<path fill="none" stroke="black" d="M121.56,-102.75C114.96,-114.03 107.86,-125.87 101,-136.75 97.23,-142.73 93.05,-149.06 89.01,-155.03"/>
<text text-anchor="middle" x="124.38" y="-123.45" font-family="Times New Roman,serif" font-size="14.00">R_03</text>
</g>
<!-- ne04&#45;&#45;ne03 -->
<g id="edge4" class="edge">
<title>ne04&#45;&#45;ne03</title>
<path fill="none" stroke="black" d="M197.01,-102.91C201.39,-108.78 205.49,-114.87 209,-121 214.98,-131.43 219.63,-143.85 223.02,-154.76"/>
<text text-anchor="middle" x="230.38" y="-123.45" font-family="Times New Roman,serif" font-size="14.00">R_04</text>
</g>
<!-- ne05 -->
<g id="node5" class="node">
<title>ne05</title>
<path fill="white" stroke="black" stroke-width="2" d="M5634.5,-264C5634.5,-264 5783.5,-264 5783.5,-264 5789.5,-264 5795.5,-270 5795.5,-276 5795.5,-276 5795.5,-354 5795.5,-354 5795.5,-360 5789.5,-366 5783.5,-366 5783.5,-366 5634.5,-366 5634.5,-366 5628.5,-366 5622.5,-360 5622.5,-354 5622.5,-354 5622.5,-276 5622.5,-276 5622.5,-270 5628.5,-264 5634.5,-264"/>
<polygon fill="white" stroke="none" points="5630.5,-268 5630.5,-362 5787.5,-362 5787.5,-268 5630.5,-268"/>
<polygon fill="black" stroke="none" points="5632.5,-339 5632.5,-360 5785.5,-360 5785.5,-339 5632.5,-339"/>
<text text-anchor="start" x="5692.5" y="-343.7" font-family="Courier New" font-size="14.00" fill="white">ne05</text>
<polygon fill="red" stroke="none" points="5632.5,-316 5632.5,-337 5720.5,-337 5720.5,-316 5632.5,-316"/>
<text text-anchor="start" x="5668" y="-320.7" font-family="Courier New" font-size="14.00">Switch</text>
<text text-anchor="start" x="5725.5" y="-320.7" font-family="Courier New" font-size="14.00">Sw03</text>
<polygon fill="olive" stroke="none" points="5632.5,-293 5632.5,-314 5720.5,-314 5720.5,-293 5632.5,-293"/>
<text text-anchor="start" x="5635.25" y="-297.7" font-family="Courier New" font-size="14.00">BufferStop</text>
<text text-anchor="start" x="5725.5" y="-297.7" font-family="Courier New" font-size="14.00">Buf02</text>
<polygon fill="yellowgreen" stroke="none" points="5632.5,-270 5632.5,-291 5720.5,-291 5720.5,-270 5632.5,-270"/>
<text text-anchor="start" x="5668" y="-274.7" font-family="Courier New" font-size="14.00">Signal</text>
<text text-anchor="start" x="5725.12" y="-274.7" font-family="Courier New" font-size="14.00">T05 T06</text>
</g>
<!-- ne06 -->
<g id="node6" class="node">
<title>ne06</title>
<path fill="white" stroke="black" stroke-width="2" d="M5571,-155.25C5571,-155.25 5687,-155.25 5687,-155.25 5693,-155.25 5699,-161.25 5699,-167.25 5699,-167.25 5699,-199.25 5699,-199.25 5699,-205.25 5693,-211.25 5687,-211.25 5687,-211.25 5571,-211.25 5571,-211.25 5565,-211.25 5559,-205.25 5559,-199.25 5559,-199.25 5559,-167.25 5559,-167.25 5559,-161.25 5565,-155.25 5571,-155.25"/>
<polygon fill="white" stroke="none" points="5567,-159.25 5567,-207.25 5691,-207.25 5691,-159.25 5567,-159.25"/>
<polygon fill="black" stroke="none" points="5569,-184.25 5569,-205.25 5689,-205.25 5689,-184.25 5569,-184.25"/>
<text text-anchor="start" x="5612.5" y="-188.95" font-family="Courier New" font-size="14.00" fill="white">ne06</text>
<polygon fill="yellowgreen" stroke="none" points="5569,-161.25 5569,-182.25 5624,-182.25 5624,-161.25 5569,-161.25"/>
<text text-anchor="start" x="5571.75" y="-165.95" font-family="Courier New" font-size="14.00">Signal</text>
<text text-anchor="start" x="5628.62" y="-165.95" font-family="Courier New" font-size="14.00">C29 C33</text>
</g>
<!-- ne05&#45;&#45;ne06 -->
<g id="edge5" class="edge">
<title>ne05&#45;&#45;ne06</title>
<path fill="none" stroke="black" d="M5640.67,-263.72C5636.16,-258.05 5632.23,-251.96 5629.25,-245.5 5624.44,-235.07 5623.64,-222.54 5624.33,-211.54"/>
<text text-anchor="middle" x="5644.38" y="-232.2" font-family="Times New Roman,serif" font-size="14.00">R_05</text>
</g>
<!-- ne07 -->
<g id="node7" class="node">
<title>ne07</title>
<path fill="white" stroke="black" stroke-width="2" d="M5731,-155.25C5731,-155.25 5847,-155.25 5847,-155.25 5853,-155.25 5859,-161.25 5859,-167.25 5859,-167.25 5859,-199.25 5859,-199.25 5859,-205.25 5853,-211.25 5847,-211.25 5847,-211.25 5731,-211.25 5731,-211.25 5725,-211.25 5719,-205.25 5719,-199.25 5719,-199.25 5719,-167.25 5719,-167.25 5719,-161.25 5725,-155.25 5731,-155.25"/>
<polygon fill="white" stroke="none" points="5727,-159.25 5727,-207.25 5851,-207.25 5851,-159.25 5727,-159.25"/>
<polygon fill="black" stroke="none" points="5729,-184.25 5729,-205.25 5849,-205.25 5849,-184.25 5729,-184.25"/>
<text text-anchor="start" x="5772.5" y="-188.95" font-family="Courier New" font-size="14.00" fill="white">ne07</text>
<polygon fill="yellowgreen" stroke="none" points="5729,-161.25 5729,-182.25 5784,-182.25 5784,-161.25 5729,-161.25"/>
<text text-anchor="start" x="5731.75" y="-165.95" font-family="Courier New" font-size="14.00">Signal</text>
<text text-anchor="start" x="5788.62" y="-165.95" font-family="Courier New" font-size="14.00">B30 B34</text>
</g>
<!-- ne05&#45;&#45;ne07 -->
<g id="edge6" class="edge">
<title>ne05&#45;&#45;ne07</title>
<path fill="none" stroke="black" d="M5721.01,-263.87C5725.1,-252.11 5730.42,-240.03 5737.25,-229.75 5741.55,-223.27 5747.01,-217.15 5752.75,-211.62"/>
<text text-anchor="middle" x="5752.38" y="-232.2" font-family="Times New Roman,serif" font-size="14.00">R_06</text>
</g>
<!-- ne06&#45;&#45;ne05 -->
<g id="edge13" class="edge">
<title>ne06&#45;&#45;ne05</title>
<path fill="none" stroke="black" d="M5648.01,-211.47C5652.05,-217.44 5656.23,-223.77 5660,-229.75 5666.86,-240.63 5673.96,-252.47 5680.56,-263.75"/>
<text text-anchor="middle" x="5683.38" y="-232.2" font-family="Times New Roman,serif" font-size="14.00">R_13</text>
</g>
<!-- ne08 -->
<g id="node8" class="node">
<title>ne08</title>
<path fill="white" stroke="black" stroke-width="2" d="M5634.5,-0.5C5634.5,-0.5 5783.5,-0.5 5783.5,-0.5 5789.5,-0.5 5795.5,-6.5 5795.5,-12.5 5795.5,-12.5 5795.5,-90.5 5795.5,-90.5 5795.5,-96.5 5789.5,-102.5 5783.5,-102.5 5783.5,-102.5 5634.5,-102.5 5634.5,-102.5 5628.5,-102.5 5622.5,-96.5 5622.5,-90.5 5622.5,-90.5 5622.5,-12.5 5622.5,-12.5 5622.5,-6.5 5628.5,-0.5 5634.5,-0.5"/>
<polygon fill="white" stroke="none" points="5630.5,-4.5 5630.5,-98.5 5787.5,-98.5 5787.5,-4.5 5630.5,-4.5"/>
<polygon fill="black" stroke="none" points="5632.5,-75.5 5632.5,-96.5 5785.5,-96.5 5785.5,-75.5 5632.5,-75.5"/>
<text text-anchor="start" x="5692.5" y="-80.2" font-family="Courier New" font-size="14.00" fill="white">ne08</text>
<polygon fill="red" stroke="none" points="5632.5,-52.5 5632.5,-73.5 5720.5,-73.5 5720.5,-52.5 5632.5,-52.5"/>
<text text-anchor="start" x="5668" y="-57.2" font-family="Courier New" font-size="14.00">Switch</text>
<text text-anchor="start" x="5725.5" y="-57.2" font-family="Courier New" font-size="14.00">Sw04</text>
<polygon fill="olive" stroke="none" points="5632.5,-29.5 5632.5,-50.5 5720.5,-50.5 5720.5,-29.5 5632.5,-29.5"/>
<text text-anchor="start" x="5635.25" y="-34.2" font-family="Courier New" font-size="14.00">BufferStop</text>
<text text-anchor="start" x="5725.5" y="-34.2" font-family="Courier New" font-size="14.00">Buf04</text>
<polygon fill="yellowgreen" stroke="none" points="5632.5,-6.5 5632.5,-27.5 5720.5,-27.5 5720.5,-6.5 5632.5,-6.5"/>
<text text-anchor="start" x="5668" y="-11.2" font-family="Courier New" font-size="14.00">Signal</text>
<text text-anchor="start" x="5725.12" y="-11.2" font-family="Courier New" font-size="14.00">T07 T08</text>
</g>
<!-- ne06&#45;&#45;ne08 -->
<g id="edge15" class="edge">
<title>ne06&#45;&#45;ne08</title>
<path fill="none" stroke="black" d="M5621.75,-154.93C5620.22,-143.92 5620.32,-131.4 5625.25,-121 5628.31,-114.55 5632.3,-108.51 5636.89,-102.89"/>
<text text-anchor="middle" x="5640.38" y="-123.45" font-family="Times New Roman,serif" font-size="14.00">R_15</text>
</g>
<!-- ne07&#45;&#45;ne05 -->
<g id="edge14" class="edge">
<title>ne07&#45;&#45;ne05</title>
<path fill="none" stroke="black" d="M5782.02,-211.74C5778.63,-222.65 5773.98,-235.07 5768,-245.5 5764.49,-251.63 5760.39,-257.72 5756.01,-263.59"/>
<text text-anchor="middle" x="5789.38" y="-232.2" font-family="Times New Roman,serif" font-size="14.00">R_14</text>
</g>
<!-- ne07&#45;&#45;ne08 -->
<g id="edge16" class="edge">
<title>ne07&#45;&#45;ne08</title>
<path fill="none" stroke="black" d="M5749.11,-154.86C5743.16,-149.41 5737.58,-143.32 5733.25,-136.75 5726.54,-126.59 5721.66,-114.55 5718.12,-102.8"/>
<text text-anchor="middle" x="5748.38" y="-123.45" font-family="Times New Roman,serif" font-size="14.00">R_16</text>
</g>
<!-- ne08&#45;&#45;ne06 -->
<g id="edge7" class="edge">
<title>ne08&#45;&#45;ne06</title>
<path fill="none" stroke="black" d="M5680.56,-102.75C5673.96,-114.03 5666.86,-125.87 5660,-136.75 5656.23,-142.73 5652.05,-149.06 5648.01,-155.03"/>
<text text-anchor="middle" x="5683.38" y="-123.45" font-family="Times New Roman,serif" font-size="14.00">R_07</text>
</g>
<!-- ne08&#45;&#45;ne07 -->
<g id="edge8" class="edge">
<title>ne08&#45;&#45;ne07</title>
<path fill="none" stroke="black" d="M5756.01,-102.91C5760.39,-108.78 5764.49,-114.87 5768,-121 5773.98,-131.43 5778.63,-143.85 5782.02,-154.76"/>
<text text-anchor="middle" x="5789.38" y="-123.45" font-family="Times New Roman,serif" font-size="14.00">R_08</text>
</g>
</g>
</svg>
