<?xml version="1.0" encoding="UTF-8" standalone="no"?>
<!DOCTYPE svg PUBLIC "-//W3C//DTD SVG 1.1//EN"
 "http://www.w3.org/Graphics/SVG/1.1/DTD/svg11.dtd">
<!-- Generated by graphviz version 9.0.0 (20230911.1827)
 -->
<!-- Title: finite_state_machine Pages: 1 -->
<svg width="465pt" height="289pt"
 viewBox="0.00 0.00 465.13 289.22" xmlns="http://www.w3.org/2000/svg" xmlns:xlink="http://www.w3.org/1999/xlink">
<g id="graph0" class="graph" transform="scale(1 1) rotate(0) translate(4 285.22)">
<title>finite_state_machine</title>
<polygon fill="white" stroke="none" points="-4,4 -4,-285.22 461.13,-285.22 461.13,4 -4,4"/>
<!-- ne01 -->
<g id="node1" class="node">
<title>ne01</title>
<ellipse fill="lightgreen" stroke="lightgreen" cx="32.11" cy="-32.11" rx="28.11" ry="28.11"/>
<ellipse fill="none" stroke="lightgreen" cx="32.11" cy="-32.11" rx="32.11" ry="32.11"/>
<text text-anchor="middle" x="32.11" y="-26.69" font-family="Times New Roman,serif" font-size="14.00">ne01</text>
</g>
<!-- ne02 -->
<g id="node2" class="node">
<title>ne02</title>
<ellipse fill="lightgreen" stroke="lightgreen" cx="163.08" cy="-84.11" rx="28.11" ry="28.11"/>
<ellipse fill="none" stroke="lightgreen" cx="163.08" cy="-84.11" rx="32.11" ry="32.11"/>
<text text-anchor="middle" x="163.08" y="-78.69" font-family="Times New Roman,serif" font-size="14.00">ne02</text>
</g>
<!-- ne01&#45;&gt;ne02 -->
<g id="edge1" class="edge">
<title>ne01&#45;&gt;ne02</title>
<path fill="none" stroke="black" d="M58.1,-51.41C65.55,-56.45 73.94,-61.49 82.22,-65.11 94.02,-70.27 107.43,-74.16 119.85,-77.02"/>
<polygon fill="black" stroke="black" points="118.92,-80.4 129.43,-79.06 120.38,-73.56 118.92,-80.4"/>
<text text-anchor="middle" x="97.6" y="-78.56" font-family="Times New Roman,serif" font-size="14.00">R_01</text>
</g>
<!-- ne03 -->
<g id="node3" class="node">
<title>ne03</title>
<ellipse fill="lightgreen" stroke="lightgreen" cx="425.02" cy="-32.11" rx="28.11" ry="28.11"/>
<ellipse fill="none" stroke="lightgreen" cx="425.02" cy="-32.11" rx="32.11" ry="32.11"/>
<text text-anchor="middle" x="425.02" y="-26.69" font-family="Times New Roman,serif" font-size="14.00">ne03</text>
</g>
<!-- ne01&#45;&gt;ne03 -->
<g id="edge2" class="edge">
<title>ne01&#45;&gt;ne03</title>
<path fill="none" stroke="black" d="M64.44,-32.11C134.06,-32.11 301.73,-32.11 381.05,-32.11"/>
<polygon fill="black" stroke="black" points="381.03,-35.61 391.03,-32.11 381.03,-28.61 381.03,-35.61"/>
<text text-anchor="middle" x="228.57" y="-34.56" font-family="Times New Roman,serif" font-size="14.00">R_02</text>
</g>
<!-- ne02&#45;&gt;ne01 -->
<g id="edge9" class="edge">
<title>ne02&#45;&gt;ne01</title>
<path fill="none" stroke="black" d="M139.19,-62.16C131.41,-55.81 122.31,-49.49 112.97,-45.36 101.36,-40.23 87.99,-37.07 75.56,-35.13"/>
<polygon fill="black" stroke="black" points="76.36,-31.7 65.99,-33.86 75.44,-38.64 76.36,-31.7"/>
<text text-anchor="middle" x="97.6" y="-48.56" font-family="Times New Roman,serif" font-size="14.00">R_09</text>
</g>
<!-- ne04 -->
<g id="node4" class="node">
<title>ne04</title>
<ellipse fill="lightgreen" stroke="lightgreen" cx="294.05" cy="-78.11" rx="28.11" ry="28.11"/>
<ellipse fill="none" stroke="lightgreen" cx="294.05" cy="-78.11" rx="32.11" ry="32.11"/>
<text text-anchor="middle" x="294.05" y="-72.69" font-family="Times New Roman,serif" font-size="14.00">ne04</text>
</g>
<!-- ne02&#45;&gt;ne04 -->
<g id="edge11" class="edge">
<title>ne02&#45;&gt;ne04</title>
<path fill="none" stroke="black" d="M195.58,-83.73C210.28,-83.45 228.01,-82.96 243.94,-82.11 246,-82 248.1,-81.88 250.23,-81.74"/>
<polygon fill="black" stroke="black" points="250.39,-85.24 260.12,-81.04 249.9,-78.26 250.39,-85.24"/>
<text text-anchor="middle" x="228.57" y="-86.56" font-family="Times New Roman,serif" font-size="14.00">R_11</text>
</g>
<!-- ne03&#45;&gt;ne01 -->
<g id="edge10" class="edge">
<title>ne03&#45;&gt;ne01</title>
<path fill="none" stroke="black" d="M392.87,-27.65C357.04,-22.76 296.39,-15.23 243.94,-12.36 185.39,-9.16 117.95,-17.61 75.44,-24.44"/>
<polygon fill="black" stroke="black" points="74.92,-20.98 65.63,-26.07 76.06,-27.89 74.92,-20.98"/>
<text text-anchor="middle" x="228.57" y="-15.56" font-family="Times New Roman,serif" font-size="14.00">R_10</text>
</g>
<!-- ne03&#45;&gt;ne04 -->
<g id="edge12" class="edge">
<title>ne03&#45;&gt;ne04</title>
<path fill="none" stroke="black" d="M392.48,-34.24C377.45,-36.03 359.45,-39.32 344.16,-45.36 339.18,-47.33 334.19,-49.86 329.39,-52.64"/>
<polygon fill="black" stroke="black" points="327.8,-49.51 321.19,-57.79 331.52,-55.44 327.8,-49.51"/>
<text text-anchor="middle" x="359.54" y="-48.56" font-family="Times New Roman,serif" font-size="14.00">R_12</text>
</g>
<!-- ne04&#45;&gt;ne02 -->
<g id="edge3" class="edge">
<title>ne04&#45;&gt;ne02</title>
<path fill="none" stroke="black" d="M263.03,-69.14C248.03,-65.82 229.62,-63.48 213.19,-66.36 210.2,-66.88 207.14,-67.58 204.1,-68.38"/>
<polygon fill="black" stroke="black" points="203.22,-64.99 194.68,-71.26 205.27,-71.69 203.22,-64.99"/>
<text text-anchor="middle" x="228.57" y="-69.56" font-family="Times New Roman,serif" font-size="14.00">R_03</text>
</g>
<!-- ne04&#45;&gt;ne03 -->
<g id="edge4" class="edge">
<title>ne04&#45;&gt;ne03</title>
<path fill="none" stroke="black" d="M326.6,-76.12C341.63,-74.39 359.63,-71.15 374.91,-65.11 379.9,-63.14 384.9,-60.59 389.7,-57.8"/>
<polygon fill="black" stroke="black" points="391.33,-60.91 397.91,-52.61 387.59,-54.99 391.33,-60.91"/>
<text text-anchor="middle" x="359.54" y="-76.56" font-family="Times New Roman,serif" font-size="14.00">R_04</text>
</g>
<!-- ne05 -->
<g id="node5" class="node">
<title>ne05</title>
<ellipse fill="lightgreen" stroke="lightgreen" cx="32.11" cy="-199.11" rx="28.11" ry="28.11"/>
<ellipse fill="none" stroke="lightgreen" cx="32.11" cy="-199.11" rx="32.11" ry="32.11"/>
<text text-anchor="middle" x="32.11" y="-193.69" font-family="Times New Roman,serif" font-size="14.00">ne05</text>
</g>
<!-- ne06 -->
<g id="node6" class="node">
<title>ne06</title>
<ellipse fill="lightgreen" stroke="lightgreen" cx="163.08" cy="-249.11" rx="28.11" ry="28.11"/>
<ellipse fill="none" stroke="lightgreen" cx="163.08" cy="-249.11" rx="32.11" ry="32.11"/>
<text text-anchor="middle" x="163.08" y="-243.69" font-family="Times New Roman,serif" font-size="14.00">ne06</text>
</g>
<!-- ne05&#45;&gt;ne06 -->
<g id="edge5" class="edge">
<title>ne05&#45;&gt;ne06</title>
<path fill="none" stroke="black" d="M57.7,-219.03C65.2,-224.29 73.73,-229.5 82.22,-233.11 93.98,-238.1 107.38,-241.57 119.81,-243.96"/>
<polygon fill="black" stroke="black" points="118.93,-247.35 129.38,-245.6 120.12,-240.46 118.93,-247.35"/>
<text text-anchor="middle" x="97.6" y="-245.56" font-family="Times New Roman,serif" font-size="14.00">R_05</text>
</g>
<!-- ne07 -->
<g id="node7" class="node">
<title>ne07</title>
<ellipse fill="lightgreen" stroke="lightgreen" cx="425.02" cy="-199.11" rx="28.11" ry="28.11"/>
<ellipse fill="none" stroke="lightgreen" cx="425.02" cy="-199.11" rx="32.11" ry="32.11"/>
<text text-anchor="middle" x="425.02" y="-193.69" font-family="Times New Roman,serif" font-size="14.00">ne07</text>
</g>
<!-- ne05&#45;&gt;ne07 -->
<g id="edge6" class="edge">
<title>ne05&#45;&gt;ne07</title>
<path fill="none" stroke="black" d="M64.44,-199.11C134.06,-199.11 301.73,-199.11 381.05,-199.11"/>
<polygon fill="black" stroke="black" points="381.03,-202.61 391.03,-199.11 381.03,-195.61 381.03,-202.61"/>
<text text-anchor="middle" x="228.57" y="-201.56" font-family="Times New Roman,serif" font-size="14.00">R_06</text>
</g>
<!-- ne06&#45;&gt;ne05 -->
<g id="edge13" class="edge">
<title>ne06&#45;&gt;ne05</title>
<path fill="none" stroke="black" d="M138.18,-228.39C130.56,-222.73 121.8,-217.12 112.97,-213.36 101.27,-208.37 87.88,-205.13 75.45,-203.02"/>
<polygon fill="black" stroke="black" points="76.28,-199.61 65.88,-201.61 75.26,-206.53 76.28,-199.61"/>
<text text-anchor="middle" x="97.6" y="-216.56" font-family="Times New Roman,serif" font-size="14.00">R_13</text>
</g>
<!-- ne08 -->
<g id="node8" class="node">
<title>ne08</title>
<ellipse fill="lightgreen" stroke="lightgreen" cx="294.05" cy="-249.11" rx="28.11" ry="28.11"/>
<ellipse fill="none" stroke="lightgreen" cx="294.05" cy="-249.11" rx="32.11" ry="32.11"/>
<text text-anchor="middle" x="294.05" y="-243.69" font-family="Times New Roman,serif" font-size="14.00">ne08</text>
</g>
<!-- ne06&#45;&gt;ne08 -->
<g id="edge15" class="edge">
<title>ne06&#45;&gt;ne08</title>
<path fill="none" stroke="black" d="M195.2,-253.49C201.16,-254.17 207.36,-254.76 213.19,-255.11 226.83,-255.94 230.3,-255.94 243.94,-255.11 246.13,-254.98 248.36,-254.81 250.62,-254.62"/>
<polygon fill="black" stroke="black" points="250.82,-258.12 260.42,-253.64 250.12,-251.15 250.82,-258.12"/>
<text text-anchor="middle" x="228.57" y="-258.56" font-family="Times New Roman,serif" font-size="14.00">R_15</text>
</g>
<!-- ne07&#45;&gt;ne05 -->
<g id="edge14" class="edge">
<title>ne07&#45;&gt;ne05</title>
<path fill="none" stroke="black" d="M393,-193.31C351.93,-186.31 277.25,-175.86 213.19,-179.36 165.87,-181.95 111.86,-188.33 75.43,-193.15"/>
<polygon fill="black" stroke="black" points="75.2,-189.65 65.76,-194.45 76.13,-196.58 75.2,-189.65"/>
<text text-anchor="middle" x="228.57" y="-182.56" font-family="Times New Roman,serif" font-size="14.00">R_14</text>
</g>
<!-- ne07&#45;&gt;ne08 -->
<g id="edge16" class="edge">
<title>ne07&#45;&gt;ne08</title>
<path fill="none" stroke="black" d="M392.75,-201.39C377.61,-203.31 359.45,-206.84 344.16,-213.36 338.78,-215.65 333.43,-218.63 328.34,-221.89"/>
<polygon fill="black" stroke="black" points="326.43,-218.96 320.2,-227.53 330.41,-224.71 326.43,-218.96"/>
<text text-anchor="middle" x="359.54" y="-216.56" font-family="Times New Roman,serif" font-size="14.00">R_16</text>
</g>
<!-- ne08&#45;&gt;ne06 -->
<g id="edge7" class="edge">
<title>ne08&#45;&gt;ne06</title>
<path fill="none" stroke="black" d="M262.28,-242.04C256.23,-240.93 249.91,-239.95 243.94,-239.36 230.34,-238.02 226.79,-238.02 213.19,-239.36 210.86,-239.59 208.47,-239.88 206.07,-240.21"/>
<polygon fill="black" stroke="black" points="205.66,-236.73 196.35,-241.8 206.78,-243.64 205.66,-236.73"/>
<text text-anchor="middle" x="228.57" y="-242.56" font-family="Times New Roman,serif" font-size="14.00">R_07</text>
</g>
<!-- ne08&#45;&gt;ne07 -->
<g id="edge8" class="edge">
<title>ne08&#45;&gt;ne07</title>
<path fill="none" stroke="black" d="M326.26,-245.86C341.39,-243.54 359.55,-239.63 374.91,-233.11 379.95,-230.97 385.01,-228.26 389.85,-225.31"/>
<polygon fill="black" stroke="black" points="391.73,-228.27 398.17,-219.86 387.89,-222.42 391.73,-228.27"/>
<text text-anchor="middle" x="359.54" y="-245.56" font-family="Times New Roman,serif" font-size="14.00">R_08</text>
</g>
</g>
</svg>
